<?xml version="1.0" encoding="utf-8"?>
<!-- Generator: Adobe Illustrator 18.1.1, SVG Export Plug-In . SVG Version: 6.00 Build 0)  -->
<svg version="1.1" xmlns="http://www.w3.org/2000/svg" xmlns:xlink="http://www.w3.org/1999/xlink" x="0px" y="0px"
	 viewBox="0 0 346.2 134.3" enable-background="new 0 0 346.2 134.3" xml:space="preserve">
<g id="separate">
</g>
<g id="code">
</g>
<g id="ux">
</g>
<g id="disruptive">
</g>
<g id="helpapi">
</g>
<g id="significant">
</g>
<g id="allcontribute">
</g>
<g id="githubhelp">
</g>
<g id="microsoft">
</g>
<g id="json">
</g>
<g id="github">
</g>
<g id="scalability">
</g>
<g id="performance">
</g>
<g id="skillset">
</g>
<g id="wastedtime">
	<rect x="0" y="0" fill="#F7F7F5" width="346.2" height="134.3"/>
	<circle fill="#F2F2F2" stroke="#232323" stroke-width="2" stroke-miterlimit="10" cx="168.3" cy="66.9" r="55.6"/>
	<path fill="#232323" d="M165.7,70.9l-4-22.9c0-0.1,0-0.1,0-0.2l4.5-33.4l4.5,32.9c0,0.1,0,0.1,0,0.2l-4,23.4
		C166.6,71.4,165.8,71.4,165.7,70.9z"/>
	<path fill="#232323" d="M166.2,68.1l18.4,3.6c0,0,0.1,0,0.1,0l24.9,10.9l-26.1-5.9c0,0-0.1,0-0.1,0L166,68.7
		C165.6,68.5,165.8,68,166.2,68.1z"/>
	<ellipse fill="#232323" cx="166.5" cy="68.7" rx="3.2" ry="3.3"/>
	<text transform="matrix(1 0 0 1 160.5254 22.3252)" font-family="'MyriadPro-Regular'" font-size="12">12</text>
	<text transform="matrix(1 0 0 1 122.8252 47.3255)" font-family="'MyriadPro-Regular'" font-size="12">10</text>
	<text transform="matrix(1 0 0 1 124.8253 93.3252)" font-family="'MyriadPro-Regular'" font-size="12">8</text>
	<text transform="matrix(1 0 0 1 206.7584 93.3252)" font-family="'MyriadPro-Regular'" font-size="12">4</text>
	<text transform="matrix(1 0 0 1 139.2528 30.3255)" font-family="'MyriadPro-Regular'" font-size="12">11</text>
	<text transform="matrix(1 0 0 1 119.0255 68.9929)" font-family="'MyriadPro-Regular'" font-size="12">9</text>
	<text transform="matrix(1 0 0 1 141.7524 106.3252)" font-family="'MyriadPro-Regular'" font-size="12">7</text>
	<text transform="matrix(1 0 0 1 166.1729 116.3252)" font-family="'MyriadPro-Regular'" font-size="12">6</text>
	<text transform="matrix(1 0 0 1 190.2226 109.3252)" font-family="'MyriadPro-Regular'" font-size="12">5</text>
	<text transform="matrix(1 0 0 1 212.5255 69.1621)" font-family="'MyriadPro-Regular'" font-size="12">3</text>
	<text transform="matrix(1 0 0 1 204.5967 46.3255)" font-family="'MyriadPro-Regular'" font-size="12">2</text>
	<text transform="matrix(1 0 0 1 184.5967 29.3255)" font-family="'MyriadPro-Regular'" font-size="12">1</text>
</g>
<g id="legacy">
</g>
<g id="notanengineer">
</g>
<g id="strategies">
</g>
<g id="pressure">
</g>
<g id="whatif">
</g>
<g id="turning_x5F_point">
</g>
<g id="tbt">
</g>
<g id="milkyway">
</g>
<g id="bubbles">
</g>
<g id="_x31_2345">
</g>
</svg>
