<?xml version="1.0" encoding="utf-8"?>
<!-- Generator: Adobe Illustrator 18.1.1, SVG Export Plug-In . SVG Version: 6.00 Build 0)  -->
<svg version="1.1" xmlns="http://www.w3.org/2000/svg" xmlns:xlink="http://www.w3.org/1999/xlink" x="0px" y="0px"
	 viewBox="0 0 638.8 471" enable-background="new 0 0 638.8 471" xml:space="preserve">
<g id="separate">
</g>
<g id="code">
	<path fill="#C8CACC" d="M432.1,47h10c1.3,0,2.2-0.4,2.9-1.3c0.7-0.8,1-2,1-3.6V17.7c0-1.6-0.3-2.7-1-3.5c-0.7-0.9-1.6-1.2-2.9-1.2
		h-10c-1.3,0-2.3,0.3-3,1.2c-0.7,0.8-1.1,1.9-1.1,3.5v24.4c0,1.6,0.4,2.8,1.1,3.6C429.8,46.6,430.8,47,432.1,47z M432,17h10v26h-10
		V17z"/>
	<path fill="#C8CACC" d="M37.1,31.4c-0.6,0-1.2,0.2-1.5,0.6c-0.3,0.4-0.7,1-0.7,1.8V43h-3V13h-9.1c-0.6,0-1.1,0.1-1.5,0.5
		s-0.6,0.9-0.6,1.5c0,0.7,0.2,1.1,0.6,1.5c0.4,0.4,0.9,0.5,1.5,0.5H28v26h-5.1c-0.6,0-1.1,0-1.5,0.4c-0.4,0.4-0.6,0.8-0.6,1.5
		c0,0.7,0.2,1.1,0.6,1.5c0.4,0.4,0.9,0.6,1.5,0.6h14.1c0.6,0,1.1-0.2,1.5-0.6c0.4-0.4,0.6-0.9,0.6-1.6V33.9c0-0.7-0.2-1.3-0.5-1.8
		C38.1,31.6,37.7,31.4,37.1,31.4z"/>
	<path fill="#C8CACC" d="M402.9,43c-0.6,0-1.1,0-1.5,0.4c-0.4,0.4-0.6,0.8-0.6,1.5c0,0.7,0.2,1.1,0.6,1.5c0.4,0.4,0.9,0.6,1.5,0.6
		H417c0.6,0,1.1-0.2,1.5-0.6c0.4-0.4,0.6-0.9,0.6-1.6V33.9c0-0.7-0.1-1.3-0.5-1.8c-0.3-0.4-0.8-0.7-1.3-0.7c-0.6,0-1.2,0.2-1.5,0.6
		c-0.3,0.4-0.7,1-0.7,1.8V43h-3V13h-9.1c-0.6,0-1.1,0.1-1.5,0.5c-0.4,0.4-0.6,0.9-0.6,1.5c0,0.7,0.2,1.1,0.6,1.5
		c0.4,0.4,0.9,0.5,1.5,0.5h5.1v26H402.9z"/>
	<path fill="#C8CACC" d="M62,13H52c-1.3,0-2.3,0.3-3,1.2c-0.7,0.8-1,1.9-1,3.5v24.4c0,1.6,0.3,2.8,1,3.6c0.7,0.8,1.7,1.3,3,1.3h10
		c1.3,0,2.3-0.4,3-1.3c0.7-0.8,1-2,1-3.6V17.7c0-1.6-0.3-2.7-1-3.5C64.3,13.3,63.4,13,62,13z M62,43H52V17h10V43z"/>
	<path fill="#C8CACC" d="M457.2,43c-0.6,0-1.1,0-1.5,0.4c-0.4,0.4-0.6,0.8-0.6,1.5c0,0.7,0.2,1.1,0.6,1.5c0.4,0.4,0.9,0.6,1.5,0.6
		h14.1c0.6,0,0.9-0.2,1.3-0.6c0.4-0.4,0.4-0.9,0.4-1.6V33.9c0-0.7,0-1.3-0.3-1.8c-0.3-0.4-0.7-0.7-1.3-0.7c-0.6,0-0.8,0.2-1.1,0.6
		c-0.3,0.4-0.3,1-0.3,1.8V43h-4V13h-8.8c-0.6,0-1.1,0.1-1.5,0.5c-0.4,0.4-0.6,0.9-0.6,1.5c0,0.7,0.2,1.1,0.6,1.5
		c0.4,0.4,0.9,0.5,1.5,0.5h4.8v26H457.2z"/>
	<path fill="#C8CACC" d="M91.4,205.4c-0.6,0-0.8,0.2-1.1,0.6c-0.3,0.4-0.3,1-0.3,1.8v9.2h-4v-30h-8.8c-0.6,0-1.1,0.1-1.5,0.5
		c-0.4,0.4-0.6,0.9-0.6,1.5c0,0.7,0.2,1.1,0.6,1.5c0.4,0.4,0.9,0.5,1.5,0.5H82v26h-4.8c-0.6,0-1.1,0-1.5,0.4
		c-0.4,0.4-0.6,0.8-0.6,1.5c0,0.7,0.2,1.1,0.6,1.6c0.4,0.4,0.9,0.6,1.5,0.6h14.1c0.6,0,0.9-0.2,1.3-0.6c0.4-0.4,0.4-1,0.4-1.6v-10.9
		c0-0.7,0-1.3-0.4-1.8C92.3,205.6,92,205.4,91.4,205.4z"/>
	<path fill="#C8CACC" d="M62,187H52c-1.3,0-2.3,0.3-3,1.1c-0.7,0.8-1,1.9-1,3.5v24.4c0,1.6,0.3,2.8,1,3.6c0.7,0.8,1.7,1.3,3,1.3h10
		c1.3,0,2.3-0.4,3-1.3c0.7-0.8,1-2.1,1-3.6v-24.4c0-1.6-0.3-2.7-1-3.5C64.3,187.3,63.4,187,62,187z M62,217H52v-26h10V217z"/>
	<path fill="#C8CACC" d="M64.3,89.4c-0.6,0-1.2,0.2-1.6,0.6c-0.3,0.4-0.7,1-0.7,1.8v9.2h-3V71h-9c-0.6,0-1.1,0.1-1.5,0.5
		C48.1,71.9,48,72.4,48,73c0,0.7,0.2,1.1,0.6,1.5c0.4,0.4,0.9,0.5,1.5,0.5h5v26h-5c-0.6,0-1.1,0-1.5,0.4c-0.4,0.4-0.6,0.8-0.6,1.5
		s0.2,1.1,0.6,1.5c0.4,0.4,0.9,0.6,1.5,0.6h14.1c0.6,0,1-0.2,1.4-0.6c0.4-0.4,0.5-1,0.5-1.6V91.8c0-0.7-0.1-1.3-0.4-1.8
		C65.2,89.6,64.8,89.4,64.3,89.4z"/>
	<path fill="#C8CACC" d="M64.3,147.4c-0.6,0-1.2,0.2-1.6,0.6c-0.3,0.4-0.7,1-0.7,1.8v9.2h-3v-30h-9c-0.6,0-1.1,0.1-1.5,0.5
		c-0.4,0.4-0.6,0.9-0.6,1.5c0,0.7,0.2,1.1,0.6,1.5c0.4,0.4,0.9,0.5,1.5,0.5h5v26h-5c-0.6,0-1.1,0-1.5,0.4c-0.4,0.4-0.6,0.8-0.6,1.5
		c0,0.7,0.2,1.1,0.6,1.5c0.4,0.4,0.9,0.6,1.5,0.6h14.1c0.6,0,1-0.2,1.4-0.6c0.4-0.4,0.5-0.9,0.5-1.6v-10.9c0-0.7-0.1-1.3-0.4-1.7
		C65.2,147.6,64.8,147.4,64.3,147.4z"/>
	<path fill="#C8CACC" d="M267.2,43c-0.6,0-1.1,0-1.5,0.4c-0.4,0.4-0.6,0.8-0.6,1.5c0,0.7,0.2,1.1,0.6,1.5c0.4,0.4,0.9,0.6,1.5,0.6
		h14.1c0.6,0,0.9-0.2,1.3-0.6c0.4-0.4,0.4-0.9,0.4-1.6V33.9c0-0.7,0-1.3-0.4-1.8c-0.3-0.4-0.7-0.7-1.3-0.7c-0.6,0-0.8,0.2-1.1,0.6
		c-0.3,0.4-0.3,1-0.3,1.8V43h-4V13h-8.8c-0.6,0-1.1,0.1-1.5,0.5c-0.4,0.4-0.6,0.9-0.6,1.5c0,0.7,0.2,1.1,0.6,1.5
		c0.4,0.4,0.9,0.5,1.5,0.5h4.8v26H267.2z"/>
	<path fill="#C8CACC" d="M323.5,47h10c1.3,0,2.5-0.4,3.2-1.3c0.7-0.8,1.3-2,1.3-3.6V17.7c0-1.6-0.5-2.7-1.3-3.5
		c-0.7-0.9-1.9-1.2-3.2-1.2h-10c-1.3,0-2.5,0.3-3.2,1.2c-0.7,0.8-1.3,1.9-1.3,3.5v24.4c0,1.6,0.6,2.8,1.3,3.6
		C321,46.6,322.2,47,323.5,47z M323,17h11v26h-11V17z"/>
	<path fill="#C8CACC" d="M185.7,43c-0.6,0-1.1,0-1.5,0.4c-0.4,0.4-0.6,0.8-0.6,1.5c0,0.7,0.2,1.1,0.6,1.5c0.4,0.4,0.9,0.6,1.5,0.6
		h14.1c0.6,0,1.2-0.2,1.5-0.6c0.4-0.4,0.6-0.9,0.6-1.6V33.9c0-0.7-0.2-1.3-0.6-1.8c-0.3-0.4-0.8-0.7-1.4-0.7c-0.6,0-1.1,0.2-1.4,0.6
		c-0.3,0.4-0.6,1-0.6,1.8V43h-3V13h-9.3c-0.6,0-1.1,0.1-1.5,0.5c-0.4,0.4-0.6,0.9-0.6,1.5c0,0.7,0.2,1.1,0.6,1.5
		c0.4,0.4,0.9,0.5,1.5,0.5h5.3v26H185.7z"/>
	<path fill="#C8CACC" d="M214.9,47h10c1.3,0,2.3-0.4,3-1.3c0.7-0.8,1-2,1-3.6V17.7c0-1.6-0.3-2.7-1-3.5c-0.7-0.9-1.7-1.2-3-1.2h-10
		c-1.3,0-2.2,0.3-2.9,1.2c-0.7,0.8-1,1.9-1,3.5v24.4c0,1.6,0.3,2.8,1,3.6C212.7,46.6,213.6,47,214.9,47z M215,17h10v26h-10V17z"/>
	<path fill="#C8CACC" d="M240,43c-0.6,0-1.1,0-1.5,0.4c-0.4,0.4-0.6,0.8-0.6,1.5c0,0.7,0.2,1.1,0.6,1.5c0.4,0.4,0.9,0.6,1.5,0.6
		h14.1c0.6,0,1-0.2,1.4-0.6c0.4-0.4,0.5-0.9,0.5-1.6V33.9c0-0.7-0.1-1.3-0.4-1.8c-0.3-0.4-0.7-0.7-1.3-0.7c-0.6,0-1.2,0.2-1.6,0.6
		c-0.3,0.4-0.7,1-0.7,1.8V43h-3V13h-9c-0.6,0-1.1,0.1-1.5,0.5c-0.4,0.4-0.6,0.9-0.6,1.5c0,0.7,0.2,1.1,0.5,1.5
		c0.4,0.4,0.9,0.5,1.5,0.5h5v26H240z"/>
	<path fill="#C8CACC" d="M294.3,43c-0.6,0-1.1,0-1.5,0.4c-0.4,0.4-0.6,0.8-0.6,1.5c0,0.7,0.2,1.1,0.6,1.5c0.4,0.4,0.9,0.6,1.5,0.6
		h14.1c0.6,0,0.9-0.2,1.2-0.6c0.4-0.4,0.4-0.9,0.4-1.6V33.9c0-0.7,0.1-1.3-0.3-1.8c-0.3-0.4-0.7-0.7-1.2-0.7c-0.6,0-0.8,0.2-1.2,0.6
		c-0.3,0.4-0.3,1-0.3,1.8V43h-4V13h-8.7c-0.6,0-1.1,0.1-1.5,0.5c-0.4,0.4-0.6,0.9-0.6,1.5c0,0.7,0.2,1.1,0.6,1.5
		c0.4,0.4,0.9,0.5,1.5,0.5h5.7v26H294.3z"/>
	<path fill="#C8CACC" d="M34.9,71h-10c-1.3,0-2.2,0.3-2.9,1.2c-0.7,0.8-1,1.9-1,3.5v24.4c0,1.6,0.3,2.8,1,3.6
		c0.7,0.8,1.6,1.3,2.9,1.3h10c1.3,0,2.3-0.4,3-1.3c0.7-0.8,1.1-2,1.1-3.6V75.7c0-1.6-0.4-2.7-1.1-3.5C37.2,71.3,36.2,71,34.9,71z
		 M35,101H24V75h11V101z"/>
	<path fill="#C8CACC" d="M377.8,47h10c1.3,0,2.4-0.4,3.1-1.3c0.7-0.8,1.1-2,1.1-3.6V17.7c0-1.6-0.4-2.7-1.1-3.5
		c-0.7-0.9-1.8-1.2-3.1-1.2h-10c-1.3,0-2.2,0.3-2.9,1.2c-0.7,0.8-0.9,1.9-0.9,3.5v24.4c0,1.6,0.2,2.8,0.9,3.6
		C375.6,46.6,376.5,47,377.8,47z M377,17h11v26h-11V17z"/>
	<path fill="#C8CACC" d="M34.9,129h-10c-1.3,0-2.2,0.3-2.9,1.2c-0.7,0.8-1,1.9-1,3.5v24.4c0,1.6,0.3,2.8,1,3.6
		c0.7,0.8,1.6,1.3,2.9,1.3h10c1.3,0,2.3-0.4,3-1.3c0.7-0.8,1.1-2.1,1.1-3.6v-24.4c0-1.6-0.4-2.7-1.1-3.5
		C37.2,129.3,36.2,129,34.9,129z M35,159H24v-26h11V159z"/>
	<path fill="#C8CACC" d="M37.1,205.4c-0.6,0-1.2,0.2-1.5,0.6c-0.3,0.4-0.7,1-0.7,1.8v9.2h-3v-30h-9.1c-0.6,0-1.1,0.1-1.5,0.5
		c-0.4,0.4-0.6,0.9-0.6,1.5c0,0.7,0.2,1.1,0.6,1.5c0.4,0.4,0.9,0.5,1.5,0.5H28v26h-5.1c-0.6,0-1.1,0-1.5,0.4
		c-0.4,0.4-0.6,0.8-0.6,1.5c0,0.7,0.2,1.1,0.6,1.6c0.4,0.4,0.9,0.6,1.5,0.6h14.1c0.6,0,1.1-0.2,1.5-0.6c0.4-0.4,0.6-1,0.6-1.6v-10.9
		c0-0.7-0.2-1.3-0.5-1.8C38.1,205.6,37.7,205.4,37.1,205.4z"/>
	<path fill="#C8CACC" d="M348.6,43c-0.6,0-1.1,0-1.5,0.4c-0.4,0.4-0.6,0.8-0.6,1.5c0,0.7,0.2,1.1,0.6,1.5c0.4,0.4,0.9,0.6,1.5,0.6
		h14.1c0.6,0,1.2-0.2,1.6-0.6c0.4-0.4,0.7-0.9,0.7-1.6V33.9c0-0.7-0.3-1.3-0.6-1.8c-0.4-0.4-0.9-0.7-1.4-0.7c-0.6,0-1.1,0.2-1.4,0.6
		c-0.3,0.4-0.6,1-0.6,1.8V43h-4V13h-8.4c-0.6,0-1.1,0.1-1.5,0.5c-0.4,0.4-0.6,0.9-0.6,1.5c0,0.7,0.2,1.1,0.6,1.5
		c0.4,0.4,0.9,0.5,1.5,0.5h5.4v26H348.6z"/>
	<path fill="#C8CACC" d="M160.6,47h10c1.3,0,2.5-0.4,3.2-1.3c0.7-0.8,1.2-2,1.2-3.6V17.7c0-1.6-0.5-2.7-1.2-3.5
		c-0.7-0.9-1.9-1.2-3.2-1.2h-10c-1.3,0-2.1,0.3-2.8,1.2c-0.7,0.8-0.8,1.9-0.8,3.5v24.4c0,1.6,0.1,2.8,0.8,3.6
		C158.5,46.6,159.3,47,160.6,47z M160,17h11v26h-11V17z"/>
	<path fill="#C8CACC" d="M550.7,129h-10c-1.3,0-2.1,0.3-2.8,1.2c-0.7,0.8-0.9,1.9-0.9,3.5v24.4c0,1.6,0.1,2.8,0.9,3.6
		c0.7,0.8,1.5,1.3,2.8,1.3h10c1.3,0,2.4-0.4,3.1-1.3c0.7-0.8,1.2-2.1,1.2-3.6v-24.4c0-1.6-0.5-2.7-1.2-3.5
		C553.1,129.3,552,129,550.7,129z M551,159h-11v-26h11V159z"/>
	<path fill="#C8CACC" d="M552.9,31.4c-0.6,0-1.1,0.2-1.4,0.6c-0.3,0.4-0.5,1-0.5,1.8V43h-3V13h-9.3c-0.6,0-1.1,0.1-1.5,0.5
		c-0.4,0.4-0.6,0.9-0.6,1.5c0,0.7,0.2,1.1,0.6,1.5c0.4,0.4,0.9,0.5,1.5,0.5h5.3v26h-5.3c-0.6,0-1.1,0-1.5,0.4
		c-0.4,0.4-0.6,0.8-0.6,1.5c0,0.7,0.2,1.1,0.6,1.5c0.4,0.4,0.9,0.6,1.5,0.6h14.1c0.6,0,1.2-0.2,1.6-0.6c0.4-0.4,0.7-0.9,0.7-1.6
		V33.9c0-0.7-0.3-1.3-0.6-1.8C554,31.6,553.5,31.4,552.9,31.4z"/>
	<path fill="#C8CACC" d="M580.1,205.4c-0.6,0-1.1,0.2-1.5,0.6c-0.3,0.4-0.6,1-0.6,1.8v9.2h-3v-30h-9.2c-0.6,0-1.1,0.1-1.5,0.5
		c-0.4,0.4-0.6,0.9-0.6,1.5c0,0.7,0.2,1.1,0.6,1.5c0.4,0.4,0.9,0.5,1.5,0.5h5.2v26h-5.2c-0.6,0-1.1,0-1.5,0.4
		c-0.4,0.4-0.6,0.8-0.6,1.5c0,0.7,0.2,1.1,0.6,1.6c0.4,0.4,0.9,0.6,1.5,0.6h14.1c0.6,0,1.1-0.2,1.5-0.6c0.4-0.4,0.6-1,0.6-1.6v-10.9
		c0-0.7-0.2-1.3-0.6-1.8C581.1,205.6,580.6,205.4,580.1,205.4z"/>
	<path fill="#C8CACC" d="M550.7,187h-10c-1.3,0-2.1,0.3-2.8,1.1c-0.7,0.8-0.9,1.9-0.9,3.5v24.4c0,1.6,0.1,2.8,0.9,3.6
		c0.7,0.8,1.5,1.3,2.8,1.3h10c1.3,0,2.4-0.4,3.1-1.3c0.7-0.8,1.2-2.1,1.2-3.6v-24.4c0-1.6-0.5-2.7-1.2-3.5
		C553.1,187.3,552,187,550.7,187z M551,217h-11v-26h11V217z"/>
	<path fill="#C8CACC" d="M525.8,147.4c-0.6,0-1,0.2-1.3,0.6c-0.3,0.4-0.5,1-0.5,1.8v9.2h-4v-30h-8.5c-0.6,0-1.1,0.1-1.5,0.5
		c-0.4,0.4-0.6,0.9-0.6,1.5c0,0.7,0.2,1.1,0.5,1.5c0.4,0.4,0.9,0.5,1.5,0.5h5.5v26h-5.5c-0.6,0-1.1,0-1.5,0.4
		c-0.4,0.4-0.6,0.8-0.6,1.5c0,0.7,0.2,1.1,0.6,1.5c0.4,0.4,0.9,0.6,1.5,0.6h14.1c0.6,0,1.3-0.2,1.7-0.6c0.4-0.4,0.8-0.9,0.8-1.6
		v-10.9c0-0.7-0.4-1.3-0.7-1.7C527,147.6,526.3,147.4,525.8,147.4z"/>
	<path fill="#C8CACC" d="M525.8,31.4c-0.6,0-1,0.2-1.3,0.6c-0.3,0.4-0.5,1-0.5,1.8V43h-4V13h-8.5c-0.6,0-1.1,0.1-1.5,0.5
		c-0.4,0.4-0.6,0.9-0.6,1.5c0,0.7,0.2,1.1,0.5,1.5c0.4,0.4,0.9,0.5,1.5,0.5h5.5v26h-5.5c-0.6,0-1.1,0-1.5,0.4
		c-0.4,0.4-0.6,0.8-0.6,1.5c0,0.7,0.2,1.1,0.6,1.5c0.4,0.4,0.9,0.6,1.5,0.6h14.1c0.6,0,1.3-0.2,1.7-0.6c0.4-0.4,0.8-0.9,0.8-1.6
		V33.9c0-0.7-0.4-1.3-0.7-1.8C527,31.6,526.3,31.4,525.8,31.4z"/>
	<path fill="#C8CACC" d="M607.2,147.4c-0.6,0-1.2,0.2-1.5,0.6c-0.3,0.4-0.7,1-0.7,1.8v9.2h-3v-30h-9.1c-0.6,0-1.1,0.1-1.5,0.5
		c-0.4,0.4-0.6,0.9-0.6,1.5c0,0.7,0.2,1.1,0.6,1.5c0.4,0.4,0.9,0.5,1.5,0.5h5.1v26h-5.1c-0.6,0-1.1,0-1.5,0.4
		c-0.4,0.4-0.6,0.8-0.6,1.5c0,0.7,0.2,1.1,0.6,1.5c0.4,0.4,0.9,0.6,1.5,0.6H607c0.6,0,1.1-0.2,1.4-0.6c0.4-0.4,0.5-0.9,0.5-1.6
		v-10.9c0-0.7-0.1-1.3-0.5-1.7C608.2,147.6,607.8,147.4,607.2,147.4z"/>
	<path fill="#C8CACC" d="M577.8,129h-10c-1.3,0-2.2,0.3-2.9,1.2c-0.7,0.8-0.9,1.9-0.9,3.5v24.4c0,1.6,0.2,2.8,0.9,3.6
		c0.7,0.8,1.6,1.3,2.9,1.3h10c1.3,0,2.4-0.4,3.1-1.3c0.7-0.8,1.1-2.1,1.1-3.6v-24.4c0-1.6-0.4-2.7-1.1-3.5
		C580.2,129.3,579.1,129,577.8,129z M578,159h-11v-26h11V159z"/>
	<path fill="#C8CACC" d="M608.5,32.1c-0.3-0.4-0.8-0.7-1.3-0.7c-0.6,0-1.2,0.2-1.5,0.6c-0.3,0.4-0.7,1-0.7,1.8V43h-3V13h-9.1
		c-0.6,0-1.1,0.1-1.5,0.5c-0.4,0.4-0.6,0.9-0.6,1.5c0,0.7,0.2,1.1,0.6,1.5c0.4,0.4,0.9,0.5,1.5,0.5h5.1v26h-5.1
		c-0.6,0-1.1,0-1.5,0.4c-0.4,0.4-0.6,0.8-0.6,1.5c0,0.7,0.2,1.1,0.6,1.5c0.4,0.4,0.9,0.6,1.5,0.6H607c0.6,0,1.1-0.2,1.4-0.6
		c0.4-0.4,0.5-0.9,0.5-1.6V33.9C609,33.1,608.9,32.5,608.5,32.1z"/>
	<path fill="#C8CACC" d="M607.2,89.4c-0.6,0-1.2,0.2-1.5,0.6c-0.3,0.4-0.7,1-0.7,1.8v9.2h-3V71h-9.1c-0.6,0-1.1,0.1-1.5,0.5
		c-0.4,0.4-0.6,0.9-0.6,1.5c0,0.7,0.2,1.1,0.6,1.5c0.4,0.4,0.9,0.5,1.5,0.5h5.1v26h-5.1c-0.6,0-1.1,0-1.5,0.4
		c-0.4,0.4-0.6,0.8-0.6,1.5s0.2,1.1,0.6,1.5c0.4,0.4,0.9,0.6,1.5,0.6H607c0.6,0,1.1-0.2,1.4-0.6c0.4-0.4,0.5-1,0.5-1.6V91.8
		c0-0.7-0.1-1.3-0.5-1.8C608.2,89.6,607.8,89.4,607.2,89.4z"/>
	<path fill="#C8CACC" d="M577.8,71h-10c-1.3,0-2.2,0.3-2.9,1.2c-0.7,0.8-0.9,1.9-0.9,3.5v24.4c0,1.6,0.2,2.8,0.9,3.6
		c0.7,0.8,1.6,1.3,2.9,1.3h10c1.3,0,2.4-0.4,3.1-1.3c0.7-0.8,1.1-2,1.1-3.6V75.7c0-1.6-0.4-2.7-1.1-3.5
		C580.2,71.3,579.1,71,577.8,71z M578,101h-11V75h11V101z"/>
	<path fill="#C8CACC" d="M577.8,13h-10c-1.3,0-2.2,0.3-2.9,1.2c-0.7,0.8-0.9,1.9-0.9,3.5v24.4c0,1.6,0.2,2.8,0.9,3.6
		c0.7,0.8,1.6,1.3,2.9,1.3h10c1.3,0,2.4-0.4,3.1-1.3c0.7-0.8,1.1-2,1.1-3.6V17.7c0-1.6-0.4-2.7-1.1-3.5
		C580.2,13.3,579.1,13,577.8,13z M578,43h-11V17h11V43z"/>
	<path fill="#C8CACC" d="M605,187h-10c-1.3,0-2.3,0.3-3,1.1c-0.7,0.8-1,1.9-1,3.5v24.4c0,1.6,0.3,2.8,1,3.6c0.7,0.8,1.6,1.3,3,1.3
		h10c1.3,0,2.3-0.4,3-1.3c0.7-0.8,1-2.1,1-3.6v-24.4c0-1.6-0.3-2.7-1-3.5C607.3,187.3,606.3,187,605,187z M605,217h-10v-26h10V217z"
		/>
	<path fill="#C8CACC" d="M91.4,31.4c-0.6,0-0.8,0.2-1.1,0.6c-0.3,0.4-0.3,1-0.3,1.8V43h-4V13h-8.8c-0.6,0-1.1,0.1-1.5,0.5
		c-0.4,0.4-0.6,0.9-0.6,1.5c0,0.7,0.2,1.1,0.6,1.5c0.4,0.4,0.9,0.5,1.5,0.5H82v26h-4.8c-0.6,0-1.1,0-1.5,0.4
		c-0.4,0.4-0.6,0.8-0.6,1.5c0,0.7,0.2,1.1,0.6,1.5c0.4,0.4,0.9,0.6,1.5,0.6h14.1c0.6,0,0.9-0.2,1.3-0.6C93,46,93,45.4,93,44.8V33.9
		c0-0.7,0-1.3-0.4-1.8C92.3,31.6,92,31.4,91.4,31.4z"/>
	<path fill="#C8CACC" d="M118.6,147.4c-0.6,0-0.9,0.2-1.2,0.6c-0.3,0.4-0.4,1-0.4,1.8v9.2h-4v-30h-8.7c-0.6,0-1.1,0.1-1.5,0.5
		c-0.4,0.4-0.6,0.9-0.6,1.5c0,0.7,0.2,1.1,0.6,1.5c0.4,0.4,0.9,0.5,1.5,0.5h4.7v26h-4.7c-0.6,0-1.1,0-1.5,0.4
		c-0.4,0.4-0.6,0.8-0.6,1.5c0,0.7,0.2,1.1,0.6,1.5c0.4,0.4,0.9,0.6,1.5,0.6h14.1c0.6,0,0.9-0.2,1.3-0.6c0.4-0.4,0.4-0.9,0.4-1.6
		v-10.9c0-0.7,0-1.3-0.3-1.7C119.4,147.6,119.1,147.4,118.6,147.4z"/>
	<path fill="#C8CACC" d="M118.6,31.4c-0.6,0-0.9,0.2-1.2,0.6c-0.3,0.4-0.4,1-0.4,1.8V43h-4V13h-8.7c-0.6,0-1.1,0.1-1.5,0.5
		c-0.4,0.4-0.6,0.9-0.6,1.5c0,0.7,0.2,1.1,0.6,1.5c0.4,0.4,0.9,0.5,1.5,0.5h4.7v26h-4.7c-0.6,0-1.1,0-1.5,0.4
		c-0.4,0.4-0.6,0.8-0.6,1.5c0,0.7,0.2,1.1,0.6,1.5c0.4,0.4,0.9,0.6,1.5,0.6h14.1c0.6,0,0.9-0.2,1.3-0.6c0.4-0.4,0.4-0.9,0.4-1.6
		V33.9c0-0.7,0-1.3-0.3-1.8C119.4,31.6,119.1,31.4,118.6,31.4z"/>
	<path fill="#C8CACC" d="M116.3,187h-10c-1.3,0-2.5,0.3-3.2,1.1c-0.7,0.8-1.2,1.9-1.2,3.5v24.4c0,1.6,0.5,2.8,1.2,3.6
		c0.7,0.8,1.8,1.3,3.2,1.3h10c1.3,0,2.1-0.4,2.8-1.3c0.7-0.8,0.8-2.1,0.8-3.6v-24.4c0-1.6-0.1-2.7-0.8-3.5
		C118.4,187.3,117.6,187,116.3,187z M117,217h-11v-26h11V217z"/>
	<path fill="#C8CACC" d="M525.8,205.4c-0.6,0-1,0.2-1.3,0.6c-0.3,0.4-0.5,1-0.5,1.8v9.2h-4v-30h-8.5c-0.6,0-1.1,0.1-1.5,0.5
		c-0.4,0.4-0.6,0.9-0.6,1.5c0,0.7,0.2,1.1,0.5,1.5c0.4,0.4,0.9,0.5,1.5,0.5h5.5v26h-5.5c-0.6,0-1.1,0-1.5,0.4
		c-0.4,0.4-0.6,0.8-0.6,1.5c0,0.7,0.2,1.1,0.6,1.6c0.4,0.4,0.9,0.6,1.5,0.6h14.1c0.6,0,1.3-0.2,1.7-0.6c0.4-0.4,0.8-1,0.8-1.6v-10.9
		c0-0.7-0.4-1.3-0.7-1.8C527,205.6,526.3,205.4,525.8,205.4z"/>
	<path fill="#C8CACC" d="M89.2,129h-10c-1.3,0-2.4,0.3-3.1,1.2c-0.7,0.8-1.1,1.9-1.1,3.5v24.4c0,1.6,0.4,2.8,1.1,3.6
		c0.7,0.8,1.8,1.3,3.1,1.3h10c1.3,0,2.2-0.4,2.9-1.3c0.7-0.8,0.9-2.1,0.9-3.6v-24.4c0-1.6-0.2-2.7-0.9-3.5
		C91.4,129.3,90.5,129,89.2,129z M90,159H79v-26h11V159z"/>
	<path fill="#C8CACC" d="M89.2,71h-10c-1.3,0-2.4,0.3-3.1,1.2C75.4,73,75,74.1,75,75.7v24.4c0,1.6,0.4,2.8,1.1,3.6
		c0.7,0.8,1.8,1.3,3.1,1.3h10c1.3,0,2.2-0.4,2.9-1.3c0.7-0.8,0.9-2,0.9-3.6V75.7c0-1.6-0.2-2.7-0.9-3.5C91.4,71.3,90.5,71,89.2,71z
		 M90,101H79V75h11V101z"/>
	<path fill="#C8CACC" d="M496.4,13h-10c-1.3,0-2.5,0.3-3.2,1.2c-0.7,0.8-1.2,1.9-1.2,3.5v24.4c0,1.6,0.5,2.8,1.2,3.6
		c0.7,0.8,1.9,1.3,3.2,1.3h10c1.3,0,2.1-0.4,2.8-1.3c0.7-0.8,0.8-2,0.8-3.6V17.7c0-1.6-0.1-2.7-0.8-3.5
		C498.5,13.3,497.7,13,496.4,13z M497,43h-11V17h11V43z"/>
	<path fill="#C8CACC" d="M145.7,31.4c-0.6,0-0.9,0.2-1.3,0.6c-0.3,0.4-0.5,1-0.5,1.8V43h-4V13h-8.5c-0.6,0-1.1,0.1-1.5,0.5
		c-0.4,0.4-0.6,0.9-0.6,1.5c0,0.7,0.2,1.1,0.6,1.5c0.4,0.4,0.9,0.5,1.5,0.5h5.5v26h-5.5c-0.6,0-1.1,0-1.5,0.4
		c-0.4,0.4-0.6,0.8-0.6,1.5c0,0.7,0.2,1.1,0.6,1.5c0.4,0.4,0.9,0.6,1.5,0.6h14.1c0.6,0,1.3-0.2,1.7-0.6c0.4-0.4,0.8-0.9,0.8-1.6
		V33.9c0-0.7-0.4-1.3-0.7-1.8C146.9,31.6,146.3,31.4,145.7,31.4z"/>
	<path fill="#C8CACC" d="M118.6,257.6c-0.6,0-0.9,0.2-1.2,0.6c-0.3,0.4-0.4,1-0.4,1.8v8.9h-4v-30h-8.7c-0.6,0-1.1,0.2-1.5,0.6
		c-0.4,0.4-0.6,0.9-0.6,1.6c0,0.7,0.2,1,0.6,1.4c0.4,0.4,0.9,0.4,1.5,0.4h4.7v26h-4.7c-0.6,0-1.1,0.1-1.5,0.5
		c-0.4,0.4-0.6,0.9-0.6,1.5c0,0.7,0.2,1,0.6,1.5c0.4,0.4,0.9,0.5,1.5,0.5h14.1c0.6,0,0.9-0.1,1.3-0.5c0.4-0.4,0.4-0.8,0.4-1.5v-10.9
		c0-0.7,0-1.3-0.3-1.8C119.4,257.8,119.1,257.6,118.6,257.6z"/>
	<path fill="#C8CACC" d="M145.7,431.6c-0.6,0-0.9,0.2-1.3,0.6c-0.3,0.4-0.5,1-0.5,1.8v9h-4v-30h-8.5c-0.6,0-1.1,0.2-1.5,0.6
		c-0.4,0.4-0.6,0.9-0.6,1.6c0,0.7,0.2,1,0.6,1.4c0.4,0.4,0.9,0.4,1.5,0.4h5.5v26h-5.5c-0.6,0-1.1,0.1-1.5,0.5
		c-0.4,0.4-0.6,0.9-0.6,1.5c0,0.7,0.2,1.1,0.6,1.5c0.4,0.4,0.9,0.5,1.5,0.5h14.1c0.6,0,1.3-0.1,1.7-0.5c0.4-0.4,0.8-0.9,0.8-1.5V434
		c0-0.7-0.4-1.3-0.7-1.8C146.9,431.8,146.3,431.6,145.7,431.6z"/>
	<path fill="#C8CACC" d="M118.6,315.6c-0.6,0-0.9,0.2-1.2,0.6c-0.3,0.4-0.4,1-0.4,1.8v9h-4v-30h-8.7c-0.6,0-1.1,0.2-1.5,0.6
		c-0.4,0.4-0.6,0.9-0.6,1.6c0,0.7,0.2,1,0.6,1.4c0.4,0.4,0.9,0.4,1.5,0.4h4.7v26h-4.7c-0.6,0-1.1,0.1-1.5,0.5
		c-0.4,0.4-0.6,0.9-0.6,1.5s0.2,1.1,0.6,1.5c0.4,0.4,0.9,0.5,1.5,0.5h14.1c0.6,0,0.9-0.1,1.3-0.5c0.4-0.4,0.4-0.8,0.4-1.5V318
		c0-0.7,0-1.3-0.3-1.8C119.4,315.8,119.1,315.6,118.6,315.6z"/>
	<path fill="#C8CACC" d="M170.6,413h-10c-1.3,0-2.1,0.4-2.8,1.2c-0.7,0.8-0.8,2-0.8,3.6v24.4c0,1.6,0.1,2.7,0.8,3.5
		c0.7,0.8,1.5,1.2,2.8,1.2h10c1.3,0,2.5-0.3,3.2-1.2c0.7-0.8,1.2-1.9,1.2-3.5v-24.4c0-1.6-0.5-2.8-1.2-3.6
		C173.1,413.4,171.9,413,170.6,413z M171,443h-11v-26h11V443z"/>
	<path fill="#C8CACC" d="M200,431.6c-0.6,0-1.1,0.2-1.4,0.6c-0.3,0.4-0.6,1-0.6,1.8v9h-3v-30h-9.3c-0.6,0-1.1,0.2-1.5,0.6
		c-0.4,0.4-0.6,0.9-0.6,1.6c0,0.7,0.2,1,0.6,1.4c0.4,0.4,0.9,0.4,1.5,0.4h5.3v26h-5.3c-0.6,0-1.1,0.1-1.5,0.5
		c-0.4,0.4-0.6,0.9-0.6,1.5c0,0.7,0.2,1.1,0.6,1.5c0.4,0.4,0.9,0.5,1.5,0.5h14.1c0.6,0,1.2-0.1,1.5-0.5c0.4-0.4,0.6-0.9,0.6-1.5V434
		c0-0.7-0.2-1.3-0.6-1.8C201.1,431.8,200.6,431.6,200,431.6z"/>
	<path fill="#C8CACC" d="M62,413H52c-1.3,0-2.3,0.4-3,1.2c-0.7,0.8-1,2-1,3.6v24.4c0,1.6,0.3,2.7,1,3.5c0.7,0.8,1.7,1.2,3,1.2h10
		c1.3,0,2.3-0.3,3-1.2c0.7-0.8,1-1.9,1-3.5v-24.4c0-1.6-0.3-2.8-1-3.6C64.3,413.4,63.4,413,62,413z M62,443H52v-26h10V443z"/>
	<path fill="#C8CACC" d="M64.3,373.6c-0.6,0-1.2,0.2-1.6,0.6c-0.3,0.4-0.7,1-0.7,1.8v9h-3v-30h-9c-0.6,0-1.1,0.2-1.5,0.6
		c-0.4,0.4-0.6,0.9-0.6,1.6c0,0.7,0.2,1,0.6,1.4c0.4,0.4,0.9,0.4,1.5,0.4h5v26h-5c-0.6,0-1.1,0.1-1.5,0.5c-0.4,0.4-0.6,0.9-0.6,1.5
		c0,0.7,0.2,1.1,0.6,1.5c0.4,0.4,0.9,0.5,1.5,0.5h14.1c0.6,0,1-0.1,1.4-0.5c0.4-0.4,0.5-0.8,0.5-1.5V376c0-0.7-0.1-1.3-0.4-1.8
		C65.2,373.8,64.8,373.6,64.3,373.6z"/>
	<path fill="#C8CACC" d="M37.1,257.6c-0.6,0-1.2,0.2-1.5,0.6c-0.3,0.4-0.7,1-0.7,1.8v8.9h-3v-30h-9.1c-0.6,0-1.1,0.2-1.5,0.6
		s-0.6,0.9-0.6,1.6c0,0.7,0.2,1,0.6,1.4c0.4,0.4,0.9,0.4,1.5,0.4H28v26h-5.1c-0.6,0-1.1,0.1-1.5,0.5c-0.4,0.4-0.6,0.9-0.6,1.5
		c0,0.7,0.2,1,0.6,1.5c0.4,0.4,0.9,0.5,1.5,0.5h14.1c0.6,0,1.1-0.1,1.5-0.5c0.4-0.4,0.6-0.8,0.6-1.5v-10.9c0-0.7-0.2-1.3-0.5-1.8
		C38.1,257.8,37.7,257.6,37.1,257.6z"/>
	<path fill="#C8CACC" d="M37.1,431.6c-0.6,0-1.2,0.2-1.5,0.6c-0.3,0.4-0.7,1-0.7,1.8v9h-3v-30h-9.1c-0.6,0-1.1,0.2-1.5,0.6
		c-0.4,0.4-0.6,0.9-0.6,1.6c0,0.7,0.2,1,0.6,1.4c0.4,0.4,0.9,0.4,1.5,0.4H28v26h-5.1c-0.6,0-1.1,0.1-1.5,0.5
		c-0.4,0.4-0.6,0.9-0.6,1.5c0,0.7,0.2,1.1,0.6,1.5c0.4,0.4,0.9,0.5,1.5,0.5h14.1c0.6,0,1.1-0.1,1.5-0.5c0.4-0.4,0.6-0.9,0.6-1.5V434
		c0-0.7-0.2-1.3-0.5-1.8C38.1,431.8,37.7,431.6,37.1,431.6z"/>
	<path fill="#C8CACC" d="M64.3,315.6c-0.6,0-1.2,0.2-1.6,0.6c-0.3,0.4-0.7,1-0.7,1.8v9h-3v-30h-9c-0.6,0-1.1,0.2-1.5,0.6
		c-0.4,0.4-0.6,0.9-0.6,1.6c0,0.7,0.2,1,0.6,1.4c0.4,0.4,0.9,0.4,1.5,0.4h5v26h-5c-0.6,0-1.1,0.1-1.5,0.5c-0.4,0.4-0.6,0.9-0.6,1.5
		s0.2,1.1,0.6,1.5c0.4,0.4,0.9,0.5,1.5,0.5h14.1c0.6,0,1-0.1,1.4-0.5c0.4-0.4,0.5-0.8,0.5-1.5V318c0-0.7-0.1-1.3-0.4-1.8
		C65.2,315.8,64.8,315.6,64.3,315.6z"/>
	<path fill="#C8CACC" d="M34.9,297h-10c-1.3,0-2.2,0.4-2.9,1.3c-0.7,0.8-1,2-1,3.6v24.4c0,1.6,0.3,2.7,1,3.5
		c0.7,0.8,1.6,1.2,2.9,1.2h10c1.3,0,2.3-0.3,3-1.2c0.7-0.8,1.1-1.9,1.1-3.5v-24.4c0-1.6-0.4-2.8-1.1-3.6
		C37.2,297.4,36.2,297,34.9,297z M35,327H24v-26h11V327z"/>
	<path fill="#C8CACC" d="M34.9,355h-10c-1.3,0-2.2,0.4-2.9,1.3c-0.7,0.8-1,2-1,3.6v24.4c0,1.6,0.3,2.7,1,3.5
		c0.7,0.8,1.6,1.2,2.9,1.2h10c1.3,0,2.3-0.3,3-1.2c0.7-0.8,1.1-1.9,1.1-3.5v-24.4c0-1.6-0.4-2.8-1.1-3.6
		C37.2,355.4,36.2,355,34.9,355z M35,385H24v-26h11V385z"/>
	<path fill="#C8CACC" d="M89.2,355h-10c-1.3,0-2.4,0.4-3.1,1.3c-0.7,0.8-1.1,2-1.1,3.6v24.4c0,1.6,0.4,2.7,1.1,3.5
		c0.7,0.8,1.8,1.2,3.1,1.2h10c1.3,0,2.2-0.3,2.9-1.2c0.7-0.8,0.9-1.9,0.9-3.5v-24.4c0-1.6-0.2-2.8-0.9-3.6
		C91.4,355.4,90.5,355,89.2,355z M90,385H79v-26h11V385z"/>
	<path fill="#C8CACC" d="M62,239H52c-1.3,0-2.3,0.4-3,1.3c-0.7,0.8-1,2-1,3.6v24.4c0,1.6,0.3,2.7,1,3.5c0.7,0.8,1.7,1.2,3,1.2h10
		c1.3,0,2.3-0.3,3-1.2c0.7-0.8,1-1.9,1-3.5v-24.4c0-1.6-0.3-2.8-1-3.6C64.3,239.4,63.4,239,62,239z M62,269H52v-26h10V269z"/>
	<path fill="#C8CACC" d="M116.3,413h-10c-1.3,0-2.5,0.4-3.2,1.2c-0.7,0.8-1.2,2-1.2,3.6v24.4c0,1.6,0.5,2.7,1.2,3.5
		c0.7,0.8,1.8,1.2,3.2,1.2h10c1.3,0,2.1-0.3,2.8-1.2c0.7-0.8,0.8-1.9,0.8-3.5v-24.4c0-1.6-0.1-2.8-0.8-3.6
		C118.4,413.4,117.6,413,116.3,413z M117,443h-11v-26h11V443z"/>
	<path fill="#C8CACC" d="M89.2,297h-10c-1.3,0-2.4,0.4-3.1,1.3c-0.7,0.8-1.1,2-1.1,3.6v24.4c0,1.6,0.4,2.7,1.1,3.5
		c0.7,0.8,1.8,1.2,3.1,1.2h10c1.3,0,2.2-0.3,2.9-1.2c0.7-0.8,0.9-1.9,0.9-3.5v-24.4c0-1.6-0.2-2.8-0.9-3.6
		C91.4,297.4,90.5,297,89.2,297z M90,327H79v-26h11V327z"/>
	<path fill="#C8CACC" d="M91.4,257.6c-0.6,0-0.8,0.2-1.1,0.6c-0.3,0.4-0.3,1-0.3,1.8v8.9h-4v-30h-8.8c-0.6,0-1.1,0.2-1.5,0.6
		c-0.4,0.4-0.6,0.9-0.6,1.6c0,0.7,0.2,1,0.6,1.4c0.4,0.4,0.9,0.4,1.5,0.4H82v26h-4.8c-0.6,0-1.1,0.1-1.5,0.5
		c-0.4,0.4-0.6,0.9-0.6,1.5c0,0.7,0.2,1,0.6,1.5c0.4,0.4,0.9,0.5,1.5,0.5h14.1c0.6,0,0.9-0.1,1.3-0.5c0.4-0.4,0.4-0.8,0.4-1.5v-10.9
		c0-0.7,0-1.3-0.4-1.8C92.3,257.8,92,257.6,91.4,257.6z"/>
	<path fill="#C8CACC" d="M118.6,373.6c-0.6,0-0.9,0.2-1.2,0.6c-0.3,0.4-0.4,1-0.4,1.8v9h-4v-30h-8.7c-0.6,0-1.1,0.2-1.5,0.6
		c-0.4,0.4-0.6,0.9-0.6,1.6c0,0.7,0.2,1,0.6,1.4c0.4,0.4,0.9,0.4,1.5,0.4h4.7v26h-4.7c-0.6,0-1.1,0.1-1.5,0.5
		c-0.4,0.4-0.6,0.9-0.6,1.5c0,0.7,0.2,1.1,0.6,1.5c0.4,0.4,0.9,0.5,1.5,0.5h14.1c0.6,0,0.9-0.1,1.3-0.5c0.4-0.4,0.4-0.8,0.4-1.5V376
		c0-0.7,0-1.3-0.3-1.8C119.4,373.8,119.1,373.6,118.6,373.6z"/>
	<path fill="#C8CACC" d="M91.4,431.6c-0.6,0-0.8,0.2-1.1,0.6c-0.3,0.4-0.3,1-0.3,1.8v9h-4v-30h-8.8c-0.6,0-1.1,0.2-1.5,0.6
		c-0.4,0.4-0.6,0.9-0.6,1.6c0,0.7,0.2,1,0.6,1.4c0.4,0.4,0.9,0.4,1.5,0.4H82v26h-4.8c-0.6,0-1.1,0.1-1.5,0.5
		c-0.4,0.4-0.6,0.9-0.6,1.5c0,0.7,0.2,1.1,0.6,1.5c0.4,0.4,0.9,0.5,1.5,0.5h14.1c0.6,0,0.9-0.1,1.3-0.5c0.4-0.4,0.4-0.9,0.4-1.5V434
		c0-0.7,0-1.3-0.4-1.8C92.3,431.8,92,431.6,91.4,431.6z"/>
	<path fill="#C8CACC" d="M471.5,431.6c-0.6,0-0.8,0.2-1.2,0.6c-0.3,0.4-0.3,1-0.3,1.8v9h-4v-30h-8.8c-0.6,0-1.1,0.2-1.5,0.6
		c-0.4,0.4-0.6,0.9-0.6,1.6c0,0.7,0.2,1,0.6,1.4c0.4,0.4,0.9,0.4,1.5,0.4h4.8v26h-4.8c-0.6,0-1.1,0.1-1.5,0.5
		c-0.4,0.4-0.6,0.9-0.6,1.5c0,0.7,0.2,1.1,0.6,1.5c0.4,0.4,0.9,0.5,1.5,0.5h14.1c0.6,0,0.9-0.1,1.3-0.5c0.4-0.4,0.4-0.9,0.4-1.5V434
		c0-0.7,0-1.3-0.3-1.8C472.3,431.8,472,431.6,471.5,431.6z"/>
	<path fill="#C8CACC" d="M550.7,355h-10c-1.3,0-2.1,0.4-2.8,1.3c-0.7,0.8-0.9,2-0.9,3.6v24.4c0,1.6,0.1,2.7,0.9,3.5
		c0.7,0.8,1.5,1.2,2.8,1.2h10c1.3,0,2.4-0.3,3.1-1.2c0.7-0.8,1.2-1.9,1.2-3.5v-24.4c0-1.6-0.5-2.8-1.2-3.6
		C553.1,355.4,552,355,550.7,355z M551,385h-11v-26h11V385z"/>
	<path fill="#C8CACC" d="M525.8,431.6c-0.6,0-1,0.2-1.3,0.6c-0.3,0.4-0.5,1-0.5,1.8v9h-4v-30h-8.5c-0.6,0-1.1,0.2-1.5,0.6
		c-0.4,0.4-0.6,0.9-0.6,1.6c0,0.7,0.2,1,0.5,1.4c0.4,0.4,0.9,0.4,1.5,0.4h5.5v26h-5.5c-0.6,0-1.1,0.1-1.5,0.5
		c-0.4,0.4-0.6,0.9-0.6,1.5c0,0.7,0.2,1.1,0.6,1.5c0.4,0.4,0.9,0.5,1.5,0.5h14.1c0.6,0,1.3-0.1,1.7-0.5c0.4-0.4,0.8-0.9,0.8-1.5V434
		c0-0.7-0.4-1.3-0.7-1.8C527,431.8,526.3,431.6,525.8,431.6z"/>
	<path fill="#C8CACC" d="M580.1,431.6c-0.6,0-1.1,0.2-1.5,0.6c-0.3,0.4-0.6,1-0.6,1.8v9h-3v-30h-9.2c-0.6,0-1.1,0.2-1.5,0.6
		c-0.4,0.4-0.6,0.9-0.6,1.6c0,0.7,0.2,1,0.6,1.4c0.4,0.4,0.9,0.4,1.5,0.4h5.2v26h-5.2c-0.6,0-1.1,0.1-1.5,0.5
		c-0.4,0.4-0.6,0.9-0.6,1.5c0,0.7,0.2,1.1,0.6,1.5c0.4,0.4,0.9,0.5,1.5,0.5h14.1c0.6,0,1.1-0.1,1.5-0.5c0.4-0.4,0.6-0.9,0.6-1.5V434
		c0-0.7-0.2-1.3-0.6-1.8C581.1,431.8,580.6,431.6,580.1,431.6z"/>
	<path fill="#C8CACC" d="M552.9,257.6c-0.6,0-1.1,0.2-1.4,0.6c-0.3,0.4-0.5,1-0.5,1.8v8.9h-3v-30h-9.3c-0.6,0-1.1,0.2-1.5,0.6
		c-0.4,0.4-0.6,0.9-0.6,1.6c0,0.7,0.2,1,0.6,1.4c0.4,0.4,0.9,0.4,1.5,0.4h5.3v26h-5.3c-0.6,0-1.1,0.1-1.5,0.5
		c-0.4,0.4-0.6,0.9-0.6,1.5c0,0.7,0.2,1,0.6,1.5c0.4,0.4,0.9,0.5,1.5,0.5h14.1c0.6,0,1.2-0.1,1.6-0.5c0.4-0.4,0.7-0.8,0.7-1.5v-10.9
		c0-0.7-0.3-1.3-0.6-1.8C554,257.8,553.5,257.6,552.9,257.6z"/>
	<path fill="#C8CACC" d="M550.7,413h-10c-1.3,0-2.1,0.4-2.8,1.2c-0.7,0.8-0.9,2-0.9,3.6v24.4c0,1.6,0.1,2.7,0.9,3.5
		c0.7,0.8,1.5,1.2,2.8,1.2h10c1.3,0,2.4-0.3,3.1-1.2c0.7-0.8,1.2-1.9,1.2-3.5v-24.4c0-1.6-0.5-2.8-1.2-3.6
		C553.1,413.4,552,413,550.7,413z M551,443h-11v-26h11V443z"/>
	<path fill="#C8CACC" d="M525.8,257.6c-0.6,0-1,0.2-1.3,0.6c-0.3,0.4-0.5,1-0.5,1.8v8.9h-4v-30h-8.5c-0.6,0-1.1,0.2-1.5,0.6
		c-0.4,0.4-0.6,0.9-0.6,1.6c0,0.7,0.2,1,0.5,1.4c0.4,0.4,0.9,0.4,1.5,0.4h5.5v26h-5.5c-0.6,0-1.1,0.1-1.5,0.5
		c-0.4,0.4-0.6,0.9-0.6,1.5c0,0.7,0.2,1,0.6,1.5c0.4,0.4,0.9,0.5,1.5,0.5h14.1c0.6,0,1.3-0.1,1.7-0.5c0.4-0.4,0.8-0.8,0.8-1.5v-10.9
		c0-0.7-0.4-1.3-0.7-1.8C527,257.8,526.3,257.6,525.8,257.6z"/>
	<path fill="#C8CACC" d="M525.8,373.6c-0.6,0-1,0.2-1.3,0.6c-0.3,0.4-0.5,1-0.5,1.8v9h-4v-30h-8.5c-0.6,0-1.1,0.2-1.5,0.6
		c-0.4,0.4-0.6,0.9-0.6,1.6c0,0.7,0.2,1,0.5,1.4c0.4,0.4,0.9,0.4,1.5,0.4h5.5v26h-5.5c-0.6,0-1.1,0.1-1.5,0.5
		c-0.4,0.4-0.6,0.9-0.6,1.5c0,0.7,0.2,1.1,0.6,1.5c0.4,0.4,0.9,0.5,1.5,0.5h14.1c0.6,0,1.3-0.1,1.7-0.5c0.4-0.4,0.8-0.8,0.8-1.5V376
		c0-0.7-0.4-1.3-0.7-1.8C527,373.8,526.3,373.6,525.8,373.6z"/>
	<path fill="#C8CACC" d="M523.5,297h-10c-1.3,0-2.5,0.4-3.2,1.3c-0.7,0.8-1.3,2-1.3,3.6v24.4c0,1.6,0.6,2.7,1.3,3.5
		c0.7,0.8,1.9,1.2,3.2,1.2h10c1.3,0,2.5-0.3,3.2-1.2c0.7-0.8,1.2-1.9,1.2-3.5v-24.4c0-1.6-0.5-2.8-1.2-3.6
		C526,297.4,524.9,297,523.5,297z M524,327h-11v-26h11V327z"/>
	<path fill="#C8CACC" d="M552.9,315.6c-0.6,0-1.1,0.2-1.4,0.6c-0.3,0.4-0.5,1-0.5,1.8v9h-3v-30h-9.3c-0.6,0-1.1,0.2-1.5,0.6
		c-0.4,0.4-0.6,0.9-0.6,1.6c0,0.7,0.2,1,0.6,1.4c0.4,0.4,0.9,0.4,1.5,0.4h5.3v26h-5.3c-0.6,0-1.1,0.1-1.5,0.5
		c-0.4,0.4-0.6,0.9-0.6,1.5s0.2,1.1,0.6,1.5c0.4,0.4,0.9,0.5,1.5,0.5h14.1c0.6,0,1.2-0.1,1.6-0.5c0.4-0.4,0.7-0.8,0.7-1.5V318
		c0-0.7-0.3-1.3-0.6-1.8C554,315.8,553.5,315.6,552.9,315.6z"/>
	<path fill="#C8CACC" d="M607.2,315.6c-0.6,0-1.2,0.2-1.5,0.6c-0.3,0.4-0.7,1-0.7,1.8v9h-3v-30h-9.1c-0.6,0-1.1,0.2-1.5,0.6
		c-0.4,0.4-0.6,0.9-0.6,1.6c0,0.7,0.2,1,0.6,1.4c0.4,0.4,0.9,0.4,1.5,0.4h5.1v26h-5.1c-0.6,0-1.1,0.1-1.5,0.5
		c-0.4,0.4-0.6,0.9-0.6,1.5s0.2,1.1,0.6,1.5c0.4,0.4,0.9,0.5,1.5,0.5H607c0.6,0,1.1-0.1,1.4-0.5c0.4-0.4,0.5-0.8,0.5-1.5V318
		c0-0.7-0.1-1.3-0.5-1.8C608.2,315.8,607.8,315.6,607.2,315.6z"/>
	<path fill="#C8CACC" d="M608.5,258.3c-0.3-0.4-0.8-0.7-1.3-0.7c-0.6,0-1.2,0.2-1.5,0.6c-0.3,0.4-0.7,1-0.7,1.8v8.9h-3v-30h-9.1
		c-0.6,0-1.1,0.2-1.5,0.6c-0.4,0.4-0.6,0.9-0.6,1.6c0,0.7,0.2,1,0.6,1.4c0.4,0.4,0.9,0.4,1.5,0.4h5.1v26h-5.1
		c-0.6,0-1.1,0.1-1.5,0.5c-0.4,0.4-0.6,0.9-0.6,1.5c0,0.7,0.2,1,0.6,1.5c0.4,0.4,0.9,0.5,1.5,0.5H607c0.6,0,1.1-0.1,1.4-0.5
		c0.4-0.4,0.5-0.8,0.5-1.5v-10.9C609,259.3,608.9,258.7,608.5,258.3z"/>
	<path fill="#C8CACC" d="M607.2,373.6c-0.6,0-1.2,0.2-1.5,0.6c-0.3,0.4-0.7,1-0.7,1.8v9h-3v-30h-9.1c-0.6,0-1.1,0.2-1.5,0.6
		c-0.4,0.4-0.6,0.9-0.6,1.6c0,0.7,0.2,1,0.6,1.4c0.4,0.4,0.9,0.4,1.5,0.4h5.1v26h-5.1c-0.6,0-1.1,0.1-1.5,0.5
		c-0.4,0.4-0.6,0.9-0.6,1.5c0,0.7,0.2,1.1,0.6,1.5c0.4,0.4,0.9,0.5,1.5,0.5H607c0.6,0,1.1-0.1,1.4-0.5c0.4-0.4,0.5-0.8,0.5-1.5V376
		c0-0.7-0.1-1.3-0.5-1.8C608.2,373.8,607.8,373.6,607.2,373.6z"/>
	<path fill="#C8CACC" d="M577.8,297h-10c-1.3,0-2.2,0.4-2.9,1.3c-0.7,0.8-0.9,2-0.9,3.6v24.4c0,1.6,0.2,2.7,0.9,3.5
		c0.7,0.8,1.6,1.2,2.9,1.2h10c1.3,0,2.4-0.3,3.1-1.2c0.7-0.8,1.1-1.9,1.1-3.5v-24.4c0-1.6-0.4-2.8-1.1-3.6
		C580.2,297.4,579.1,297,577.8,297z M578,327h-11v-26h11V327z"/>
	<path fill="#C8CACC" d="M577.8,355h-10c-1.3,0-2.2,0.4-2.9,1.3c-0.7,0.8-0.9,2-0.9,3.6v24.4c0,1.6,0.2,2.7,0.9,3.5
		c0.7,0.8,1.6,1.2,2.9,1.2h10c1.3,0,2.4-0.3,3.1-1.2c0.7-0.8,1.1-1.9,1.1-3.5v-24.4c0-1.6-0.4-2.8-1.1-3.6
		C580.2,355.4,579.1,355,577.8,355z M578,385h-11v-26h11V385z"/>
	<path fill="#C8CACC" d="M605,413h-10c-1.3,0-2.3,0.4-3,1.2c-0.7,0.8-1,2-1,3.6v24.4c0,1.6,0.3,2.7,1,3.5c0.7,0.8,1.6,1.2,3,1.2h10
		c1.3,0,2.3-0.3,3-1.2c0.7-0.8,1-1.9,1-3.5v-24.4c0-1.6-0.3-2.8-1-3.6C607.3,413.4,606.3,413,605,413z M605,443h-10v-26h10V443z"/>
	<path fill="#C8CACC" d="M577.8,239h-10c-1.3,0-2.2,0.4-2.9,1.3c-0.7,0.8-0.9,2-0.9,3.6v24.4c0,1.6,0.2,2.7,0.9,3.5
		c0.7,0.8,1.6,1.2,2.9,1.2h10c1.3,0,2.4-0.3,3.1-1.2c0.7-0.8,1.1-1.9,1.1-3.5v-24.4c0-1.6-0.4-2.8-1.1-3.6
		C580.2,239.4,579.1,239,577.8,239z M578,269h-11v-26h11V269z"/>
	<path fill="#C8CACC" d="M333.5,413h-10c-1.3,0-2.5,0.4-3.2,1.2c-0.7,0.8-1.3,2-1.3,3.6v24.4c0,1.6,0.6,2.7,1.3,3.5
		c0.7,0.8,1.9,1.2,3.2,1.2h10c1.3,0,2.5-0.3,3.2-1.2c0.7-0.8,1.3-1.9,1.3-3.5v-24.4c0-1.6-0.5-2.8-1.3-3.6
		C336,413.4,334.8,413,333.5,413z M334,443h-11v-26h11V443z"/>
	<path fill="#C8CACC" d="M227.2,431.6c-0.6,0-1.2,0.2-1.5,0.6c-0.3,0.4-0.7,1-0.7,1.8v9h-3v-30h-9.1c-0.6,0-1.1,0.2-1.5,0.6
		c-0.4,0.4-0.6,0.9-0.6,1.6c0,0.7,0.2,1,0.6,1.4c0.4,0.4,0.9,0.4,1.5,0.4h5.1v26h-5.1c-0.6,0-1.1,0.1-1.5,0.5
		c-0.4,0.4-0.6,0.9-0.6,1.5c0,0.7,0.2,1.1,0.6,1.5c0.4,0.4,0.9,0.5,1.5,0.5H227c0.6,0,1.1-0.1,1.5-0.5c0.4-0.4,0.6-0.9,0.6-1.5V434
		c0-0.7-0.2-1.3-0.5-1.8C228.2,431.8,227.7,431.6,227.2,431.6z"/>
	<path fill="#C8CACC" d="M362.9,431.6c-0.6,0-1,0.2-1.4,0.6c-0.3,0.4-0.5,1-0.5,1.8v9h-4v-30h-8.4c-0.6,0-1.1,0.2-1.5,0.6
		c-0.4,0.4-0.6,0.9-0.6,1.6c0,0.7,0.2,1,0.6,1.4c0.4,0.4,0.9,0.4,1.5,0.4h5.4v26h-5.4c-0.6,0-1.1,0.1-1.5,0.5
		c-0.4,0.4-0.6,0.9-0.6,1.5c0,0.7,0.2,1.1,0.6,1.5c0.4,0.4,0.9,0.5,1.5,0.5h14.1c0.6,0,1.2-0.1,1.6-0.5c0.4-0.4,0.7-0.9,0.7-1.5V434
		c0-0.7-0.3-1.3-0.6-1.8C364,431.8,363.4,431.6,362.9,431.6z"/>
	<path fill="#C8CACC" d="M387.8,413h-10c-1.3,0-2.2,0.4-2.9,1.2c-0.7,0.8-0.9,2-0.9,3.6v24.4c0,1.6,0.2,2.7,0.9,3.5
		c0.7,0.8,1.6,1.2,2.9,1.2h10c1.3,0,2.4-0.3,3.1-1.2c0.7-0.8,1.1-1.9,1.1-3.5v-24.4c0-1.6-0.4-2.8-1.1-3.6
		C390.2,413.4,389.1,413,387.8,413z M388,443h-11v-26h11V443z"/>
	<path fill="#C8CACC" d="M254.3,431.6c-0.6,0-1.2,0.2-1.6,0.6c-0.3,0.4-0.7,1-0.7,1.8v9h-3v-30h-9c-0.6,0-1.1,0.2-1.5,0.6
		c-0.4,0.4-0.6,0.9-0.6,1.6c0,0.7,0.2,1,0.5,1.4c0.4,0.4,0.9,0.4,1.5,0.4h5v26h-5c-0.6,0-1.1,0.1-1.5,0.5c-0.4,0.4-0.6,0.9-0.6,1.5
		c0,0.7,0.2,1.1,0.6,1.5c0.4,0.4,0.9,0.5,1.5,0.5h14.1c0.6,0,1-0.1,1.4-0.5c0.4-0.4,0.5-0.9,0.5-1.5V434c0-0.7-0.1-1.3-0.4-1.8
		C255.2,431.8,254.9,431.6,254.3,431.6z"/>
	<path fill="#C8CACC" d="M417.2,431.6c-0.6,0-1.2,0.2-1.5,0.6c-0.3,0.4-0.7,1-0.7,1.8v9h-3v-30h-9.1c-0.6,0-1.1,0.2-1.5,0.6
		c-0.4,0.4-0.6,0.9-0.6,1.6c0,0.7,0.2,1,0.6,1.4c0.4,0.4,0.9,0.4,1.5,0.4h5.1v26h-5.1c-0.6,0-1.1,0.1-1.5,0.5
		c-0.4,0.4-0.6,0.9-0.6,1.5c0,0.7,0.2,1.1,0.6,1.5c0.4,0.4,0.9,0.5,1.5,0.5H417c0.6,0,1.1-0.1,1.5-0.5c0.4-0.4,0.6-0.9,0.6-1.5V434
		c0-0.7-0.1-1.3-0.5-1.8C418.2,431.8,417.7,431.6,417.2,431.6z"/>
	<path fill="#C8CACC" d="M308.6,431.6c-0.6,0-0.9,0.2-1.2,0.6c-0.3,0.4-0.4,1-0.4,1.8v9h-4v-30h-8.7c-0.6,0-1.1,0.2-1.5,0.6
		c-0.4,0.4-0.6,0.9-0.6,1.6c0,0.7,0.2,1,0.6,1.4c0.4,0.4,0.9,0.4,1.5,0.4h5.7v26h-5.7c-0.6,0-1.1,0.1-1.5,0.5
		c-0.4,0.4-0.6,0.9-0.6,1.5c0,0.7,0.2,1.1,0.6,1.5c0.4,0.4,0.9,0.5,1.5,0.5h14.1c0.6,0,0.9-0.1,1.2-0.5c0.4-0.4,0.4-0.9,0.4-1.5V434
		c0-0.7,0.1-1.3-0.3-1.8C309.4,431.8,309.2,431.6,308.6,431.6z"/>
	<path fill="#C8CACC" d="M279.2,413h-10c-1.3,0-2.4,0.4-3.1,1.2c-0.7,0.8-1.1,2-1.1,3.6v24.4c0,1.6,0.4,2.7,1.1,3.5
		c0.7,0.8,1.8,1.2,3.1,1.2h10c1.3,0,2.2-0.3,2.9-1.2c0.7-0.8,0.9-1.9,0.9-3.5v-24.4c0-1.6-0.2-2.8-0.9-3.6
		C281.4,413.4,280.5,413,279.2,413z M280,443h-11v-26h11V443z"/>
	<path fill="#C8CACC" d="M496.4,413h-10c-1.3,0-2.5,0.4-3.2,1.2c-0.7,0.8-1.2,2-1.2,3.6v24.4c0,1.6,0.5,2.7,1.2,3.5
		c0.7,0.8,1.9,1.2,3.2,1.2h10c1.3,0,2.1-0.3,2.8-1.2c0.7-0.8,0.8-1.9,0.8-3.5v-24.4c0-1.6-0.1-2.8-0.8-3.6
		C498.5,413.4,497.7,413,496.4,413z M497,443h-11v-26h11V443z"/>
	<path fill="#C8CACC" d="M442.1,413h-10c-1.3,0-2.3,0.4-3,1.2c-0.7,0.8-1.1,2-1.1,3.6v24.4c0,1.6,0.4,2.7,1.1,3.5
		c0.7,0.8,1.7,1.2,3,1.2h10c1.3,0,2.2-0.3,2.9-1.2c0.7-0.8,1-1.9,1-3.5v-24.4c0-1.6-0.3-2.8-1-3.6C444.3,413.4,443.4,413,442.1,413z
		 M442,443h-10v-26h10V443z"/>
	<path fill="#C8CACC" d="M150.7,374.6c-0.6,0-0.9,0.2-1.3,0.6c-0.3,0.4-0.5,1-0.5,1.8v9h-4v-30h-8.5c-0.6,0-1.1,0.2-1.5,0.6
		c-0.4,0.4-0.6,0.9-0.6,1.6c0,0.7,0.2,1,0.6,1.4c0.4,0.4,0.9,0.4,1.5,0.4h5.5v26h-5.5c-0.6,0-1.1,0.1-1.5,0.5
		c-0.4,0.4-0.6,0.9-0.6,1.5c0,0.7,0.2,1.1,0.6,1.5c0.4,0.4,0.9,0.5,1.5,0.5h14.1c0.6,0,1.3-0.1,1.7-0.5c0.4-0.4,0.8-0.9,0.8-1.5V377
		c0-0.7-0.4-1.3-0.7-1.8C151.9,374.8,151.3,374.6,150.7,374.6z"/>
	<path fill="#C8CACC" d="M175.6,356h-10c-1.3,0-2.1,0.4-2.8,1.2c-0.7,0.8-0.8,2-0.8,3.6v24.4c0,1.6,0.1,2.7,0.8,3.5
		c0.7,0.8,1.5,1.2,2.8,1.2h10c1.3,0,2.5-0.3,3.2-1.2c0.7-0.8,1.2-1.9,1.2-3.5v-24.4c0-1.6-0.5-2.8-1.2-3.6
		C178.1,356.4,176.9,356,175.6,356z M176,386h-11v-26h11V386z"/>
	<path fill="#C8CACC" d="M205,374.6c-0.6,0-1.1,0.2-1.4,0.6c-0.3,0.4-0.6,1-0.6,1.8v9h-3v-30h-9.3c-0.6,0-1.1,0.2-1.5,0.6
		c-0.4,0.4-0.6,0.9-0.6,1.6c0,0.7,0.2,1,0.6,1.4c0.4,0.4,0.9,0.4,1.5,0.4h5.3v26h-5.3c-0.6,0-1.1,0.1-1.5,0.5
		c-0.4,0.4-0.6,0.9-0.6,1.5c0,0.7,0.2,1.1,0.6,1.5c0.4,0.4,0.9,0.5,1.5,0.5h14.1c0.6,0,1.2-0.1,1.5-0.5c0.4-0.4,0.6-0.9,0.6-1.5V377
		c0-0.7-0.2-1.3-0.6-1.8C206.1,374.8,205.6,374.6,205,374.6z"/>
	<path fill="#C8CACC" d="M476.5,374.6c-0.6,0-0.8,0.2-1.2,0.6c-0.3,0.4-0.3,1-0.3,1.8v9h-4v-30h-8.8c-0.6,0-1.1,0.2-1.5,0.6
		c-0.4,0.4-0.6,0.9-0.6,1.6c0,0.7,0.2,1,0.6,1.4c0.4,0.4,0.9,0.4,1.5,0.4h4.8v26h-4.8c-0.6,0-1.1,0.1-1.5,0.5
		c-0.4,0.4-0.6,0.9-0.6,1.5c0,0.7,0.2,1.1,0.6,1.5c0.4,0.4,0.9,0.5,1.5,0.5h14.1c0.6,0,0.9-0.1,1.3-0.5c0.4-0.4,0.4-0.9,0.4-1.5V377
		c0-0.7,0-1.3-0.3-1.8C477.3,374.8,477,374.6,476.5,374.6z"/>
	<path fill="#C8CACC" d="M338.5,356h-10c-1.3,0-2.5,0.4-3.2,1.2c-0.7,0.8-1.3,2-1.3,3.6v24.4c0,1.6,0.6,2.7,1.3,3.5
		c0.7,0.8,1.9,1.2,3.2,1.2h10c1.3,0,2.5-0.3,3.2-1.2c0.7-0.8,1.3-1.9,1.3-3.5v-24.4c0-1.6-0.5-2.8-1.3-3.6
		C341,356.4,339.8,356,338.5,356z M339,386h-11v-26h11V386z"/>
	<path fill="#C8CACC" d="M232.2,374.6c-0.6,0-1.2,0.2-1.5,0.6c-0.3,0.4-0.7,1-0.7,1.8v9h-3v-30h-9.1c-0.6,0-1.1,0.2-1.5,0.6
		c-0.4,0.4-0.6,0.9-0.6,1.6c0,0.7,0.2,1,0.6,1.4c0.4,0.4,0.9,0.4,1.5,0.4h5.1v26h-5.1c-0.6,0-1.1,0.1-1.5,0.5
		c-0.4,0.4-0.6,0.9-0.6,1.5c0,0.7,0.2,1.1,0.6,1.5c0.4,0.4,0.9,0.5,1.5,0.5H232c0.6,0,1.1-0.1,1.5-0.5c0.4-0.4,0.6-0.9,0.6-1.5V377
		c0-0.7-0.2-1.3-0.5-1.8C233.2,374.8,232.7,374.6,232.2,374.6z"/>
	<path fill="#C8CACC" d="M367.9,374.6c-0.6,0-1,0.2-1.4,0.6c-0.3,0.4-0.5,1-0.5,1.8v9h-4v-30h-8.4c-0.6,0-1.1,0.2-1.5,0.6
		c-0.4,0.4-0.6,0.9-0.6,1.6c0,0.7,0.2,1,0.6,1.4c0.4,0.4,0.9,0.4,1.5,0.4h5.4v26h-5.4c-0.6,0-1.1,0.1-1.5,0.5
		c-0.4,0.4-0.6,0.9-0.6,1.5c0,0.7,0.2,1.1,0.6,1.5c0.4,0.4,0.9,0.5,1.5,0.5h14.1c0.6,0,1.2-0.1,1.6-0.5c0.4-0.4,0.7-0.9,0.7-1.5V377
		c0-0.7-0.3-1.3-0.6-1.8C369,374.8,368.4,374.6,367.9,374.6z"/>
	<path fill="#C8CACC" d="M392.8,356h-10c-1.3,0-2.2,0.4-2.9,1.2c-0.7,0.8-0.9,2-0.9,3.6v24.4c0,1.6,0.2,2.7,0.9,3.5
		c0.7,0.8,1.6,1.2,2.9,1.2h10c1.3,0,2.4-0.3,3.1-1.2c0.7-0.8,1.1-1.9,1.1-3.5v-24.4c0-1.6-0.4-2.8-1.1-3.6
		C395.2,356.4,394.1,356,392.8,356z M393,386h-11v-26h11V386z"/>
	<path fill="#C8CACC" d="M259.3,374.6c-0.6,0-1.2,0.2-1.6,0.6c-0.3,0.4-0.7,1-0.7,1.8v9h-3v-30h-9c-0.6,0-1.1,0.2-1.5,0.6
		c-0.4,0.4-0.6,0.9-0.6,1.6c0,0.7,0.2,1,0.5,1.4c0.4,0.4,0.9,0.4,1.5,0.4h5v26h-5c-0.6,0-1.1,0.1-1.5,0.5c-0.4,0.4-0.6,0.9-0.6,1.5
		c0,0.7,0.2,1.1,0.6,1.5c0.4,0.4,0.9,0.5,1.5,0.5h14.1c0.6,0,1-0.1,1.4-0.5c0.4-0.4,0.5-0.9,0.5-1.5V377c0-0.7-0.1-1.3-0.4-1.8
		C260.2,374.8,259.9,374.6,259.3,374.6z"/>
	<path fill="#C8CACC" d="M422.2,374.6c-0.6,0-1.2,0.2-1.5,0.6c-0.3,0.4-0.7,1-0.7,1.8v9h-3v-30h-9.1c-0.6,0-1.1,0.2-1.5,0.6
		c-0.4,0.4-0.6,0.9-0.6,1.6c0,0.7,0.2,1,0.6,1.4c0.4,0.4,0.9,0.4,1.5,0.4h5.1v26h-5.1c-0.6,0-1.1,0.1-1.5,0.5
		c-0.4,0.4-0.6,0.9-0.6,1.5c0,0.7,0.2,1.1,0.6,1.5c0.4,0.4,0.9,0.5,1.5,0.5H422c0.6,0,1.1-0.1,1.5-0.5c0.4-0.4,0.6-0.9,0.6-1.5V377
		c0-0.7-0.1-1.3-0.5-1.8C423.2,374.8,422.7,374.6,422.2,374.6z"/>
	<path fill="#C8CACC" d="M313.6,374.6c-0.6,0-0.9,0.2-1.2,0.6c-0.3,0.4-0.4,1-0.4,1.8v9h-4v-30h-8.7c-0.6,0-1.1,0.2-1.5,0.6
		c-0.4,0.4-0.6,0.9-0.6,1.6c0,0.7,0.2,1,0.6,1.4c0.4,0.4,0.9,0.4,1.5,0.4h5.7v26h-5.7c-0.6,0-1.1,0.1-1.5,0.5
		c-0.4,0.4-0.6,0.9-0.6,1.5c0,0.7,0.2,1.1,0.6,1.5c0.4,0.4,0.9,0.5,1.5,0.5h14.1c0.6,0,0.9-0.1,1.2-0.5c0.4-0.4,0.4-0.9,0.4-1.5V377
		c0-0.7,0.1-1.3-0.3-1.8C314.4,374.8,314.2,374.6,313.6,374.6z"/>
	<path fill="#C8CACC" d="M284.2,356h-10c-1.3,0-2.4,0.4-3.1,1.2c-0.7,0.8-1.1,2-1.1,3.6v24.4c0,1.6,0.4,2.7,1.1,3.5
		c0.7,0.8,1.8,1.2,3.1,1.2h10c1.3,0,2.2-0.3,2.9-1.2c0.7-0.8,0.9-1.9,0.9-3.5v-24.4c0-1.6-0.2-2.8-0.9-3.6
		C286.4,356.4,285.5,356,284.2,356z M285,386h-11v-26h11V386z"/>
	<path fill="#C8CACC" d="M501.4,356h-10c-1.3,0-2.5,0.4-3.2,1.2c-0.7,0.8-1.2,2-1.2,3.6v24.4c0,1.6,0.5,2.7,1.2,3.5
		c0.7,0.8,1.9,1.2,3.2,1.2h10c1.3,0,2.1-0.3,2.8-1.2c0.7-0.8,0.8-1.9,0.8-3.5v-24.4c0-1.6-0.1-2.8-0.8-3.6
		C503.5,356.4,502.7,356,501.4,356z M502,386h-11v-26h11V386z"/>
	<path fill="#C8CACC" d="M447.1,356h-10c-1.3,0-2.3,0.4-3,1.2c-0.7,0.8-1.1,2-1.1,3.6v24.4c0,1.6,0.4,2.7,1.1,3.5
		c0.7,0.8,1.7,1.2,3,1.2h10c1.3,0,2.2-0.3,2.9-1.2c0.7-0.8,1-1.9,1-3.5v-24.4c0-1.6-0.3-2.8-1-3.6C449.3,356.4,448.4,356,447.1,356z
		 M447,386h-10v-26h10V386z"/>
</g>
<g id="ux">
</g>
<g id="disruptive">
</g>
<g id="helpapi">
</g>
<g id="significant">
</g>
<g id="microsoft">
</g>
<g id="json">
</g>
<g id="github">
</g>
<g id="scalability">
</g>
<g id="performance">
</g>
<g id="skillset">
</g>
<g id="wastedtime">
</g>
<g id="legacy">
</g>
<g id="pressure">
</g>
<g id="tbt">
</g>
<g id="milkyway">
</g>
</svg>
