<?xml version="1.0" encoding="utf-8"?>
<!-- Generator: Adobe Illustrator 18.1.1, SVG Export Plug-In . SVG Version: 6.00 Build 0)  -->
<svg version="1.1" xmlns="http://www.w3.org/2000/svg" xmlns:xlink="http://www.w3.org/1999/xlink" x="0px" y="0px"
	 viewBox="0 0 767 471" enable-background="new 0 0 767 471" xml:space="preserve">
<g id="separate">
</g>
<g id="code">
</g>
<g id="ux">
</g>
<g id="disruptive">
</g>
<g id="helpapi">
</g>
<g id="significant">
</g>
<g id="allcontribute">
</g>
<g id="githubhelp">
</g>
<g id="microsoft">
</g>
<g id="json">
</g>
<g id="github">
</g>
<g id="scalability">
</g>
<g id="performance">
</g>
<g id="skillset">
</g>
<g id="wastedtime">
</g>
<g id="legacy">
</g>
<g id="notanengineer">
</g>
<g id="strategies">
</g>
<g id="pressure">
</g>
<g id="whatif">
</g>
<g id="turning_x5F_point">
</g>
<g id="tbt">
</g>
<g id="milkyway">
</g>
<g id="bubbles">
	<g>
		<g>
			<circle fill="#FFFFFF" cx="596" cy="234.7" r="119.4"/>
			<linearGradient id="SVGID_2_" gradientUnits="userSpaceOnUse" x1="479.8111" y1="233.4723" x2="710.6643" y2="233.4723">
				<stop  offset="0" style="stop-color:#E9E4EF"/>
				<stop  offset="0.1291" style="stop-color:#EAE5F0"/>
				<stop  offset="1" style="stop-color:#ECE8F2"/>
			</linearGradient>
			<circle fill="url(#SVGID_2_)" cx="595.2" cy="233.5" r="115.4"/>
			<linearGradient id="SVGID_4_" gradientUnits="userSpaceOnUse" x1="483.066" y1="232.2205" x2="705.907" y2="232.2205">
				<stop  offset="0" style="stop-color:#D4CADE"/>
				<stop  offset="0.3151" style="stop-color:#D7CFE3"/>
				<stop  offset="1" style="stop-color:#D9D2E5"/>
			</linearGradient>
			<circle fill="url(#SVGID_4_)" cx="594.5" cy="232.2" r="111.4"/>
			<linearGradient id="SVGID_6_" gradientUnits="userSpaceOnUse" x1="486.3209" y1="230.9687" x2="701.1497" y2="230.9687">
				<stop  offset="0" style="stop-color:#BEB0CE"/>
				<stop  offset="1.660591e-02" style="stop-color:#BEB1CE"/>
				<stop  offset="0.4048" style="stop-color:#C5B9D6"/>
				<stop  offset="1" style="stop-color:#C7BCD8"/>
			</linearGradient>
			<circle fill="url(#SVGID_6_)" cx="593.7" cy="231" r="107.4"/>
			<linearGradient id="SVGID_8_" gradientUnits="userSpaceOnUse" x1="489.5757" y1="229.7169" x2="696.3924" y2="229.7169">
				<stop  offset="0" style="stop-color:#A895BE"/>
				<stop  offset="0.1099" style="stop-color:#AB9AC1"/>
				<stop  offset="0.4613" style="stop-color:#B2A2C8"/>
				<stop  offset="1" style="stop-color:#B4A5CA"/>
			</linearGradient>
			<circle fill="url(#SVGID_8_)" cx="593" cy="229.7" r="103.4"/>
			<linearGradient id="SVGID_10_" gradientUnits="userSpaceOnUse" x1="492.8306" y1="228.4651" x2="691.6351" y2="228.4651">
				<stop  offset="0" style="stop-color:#937BAD"/>
				<stop  offset="0.1761" style="stop-color:#9984B4"/>
				<stop  offset="0.5013" style="stop-color:#9F8CBB"/>
				<stop  offset="1" style="stop-color:#A18FBD"/>
			</linearGradient>
			<circle fill="url(#SVGID_10_)" cx="592.2" cy="228.5" r="99.4"/>
			<linearGradient id="SVGID_12_" gradientUnits="userSpaceOnUse" x1="496.0855" y1="227.2133" x2="686.8777" y2="227.2133">
				<stop  offset="0" style="stop-color:#7D609D"/>
				<stop  offset="0.2265" style="stop-color:#866DA7"/>
				<stop  offset="0.5318" style="stop-color:#8C75AE"/>
				<stop  offset="1" style="stop-color:#8E78B0"/>
			</linearGradient>
			<circle fill="url(#SVGID_12_)" cx="591.5" cy="227.2" r="95.4"/>
			<linearGradient id="SVGID_14_" gradientUnits="userSpaceOnUse" x1="498.0886" y1="224.8346" x2="683.122" y2="224.8346">
				<stop  offset="0" style="stop-color:#70589B"/>
				<stop  offset="0.1761" style="stop-color:#7661A2"/>
				<stop  offset="0.5013" style="stop-color:#7C69A9"/>
				<stop  offset="1" style="stop-color:#7E6CAB"/>
			</linearGradient>
			<circle fill="url(#SVGID_14_)" cx="590.6" cy="224.8" r="92.5"/>
			<linearGradient id="SVGID_16_" gradientUnits="userSpaceOnUse" x1="500.0916" y1="222.4559" x2="679.3662" y2="222.4559">
				<stop  offset="0" style="stop-color:#635099"/>
				<stop  offset="0.1099" style="stop-color:#66559D"/>
				<stop  offset="0.4613" style="stop-color:#6C5DA4"/>
				<stop  offset="1" style="stop-color:#6E60A6"/>
			</linearGradient>
			<circle fill="url(#SVGID_16_)" cx="589.7" cy="222.5" r="89.6"/>
			<linearGradient id="SVGID_18_" gradientUnits="userSpaceOnUse" x1="502.0947" y1="220.0772" x2="675.6105" y2="220.0772">
				<stop  offset="0" style="stop-color:#564997"/>
				<stop  offset="1.660591e-02" style="stop-color:#564A97"/>
				<stop  offset="0.4048" style="stop-color:#5C529F"/>
				<stop  offset="1" style="stop-color:#5E55A1"/>
			</linearGradient>
			<circle fill="url(#SVGID_18_)" cx="588.9" cy="220.1" r="86.8"/>
			<linearGradient id="SVGID_20_" gradientUnits="userSpaceOnUse" x1="504.0978" y1="217.6984" x2="671.8547" y2="217.6984">
				<stop  offset="0" style="stop-color:#484195"/>
				<stop  offset="0.3151" style="stop-color:#4C4699"/>
				<stop  offset="1" style="stop-color:#4E499B"/>
			</linearGradient>
			<circle fill="url(#SVGID_20_)" cx="588" cy="217.7" r="83.9"/>
			<linearGradient id="SVGID_22_" gradientUnits="userSpaceOnUse" x1="506.1009" y1="215.3197" x2="668.0989" y2="215.3197">
				<stop  offset="0" style="stop-color:#3B3993"/>
				<stop  offset="0.1291" style="stop-color:#3C3A94"/>
				<stop  offset="1" style="stop-color:#3E3D96"/>
			</linearGradient>
			<circle fill="url(#SVGID_22_)" cx="587.1" cy="215.3" r="81"/>
			<circle fill="#2E3191" cx="586.2" cy="212.9" r="78.1"/>
		</g>
		<path opacity="0.85" fill="#FFFFFF" d="M563.7,167.6c0-0.5-15.7,6.2-17.4,7.6c-4.3,3.4-6.6,8.2-10.4,12.1
			c-5.8-2.4-12.9-4.4-17.9-7.9c5-7.8,10.5-18.1,18.4-23.3c7.3-4.8,17.7-6.3,26-8.1C563.2,154.4,563.3,161.1,563.7,167.6z"/>
	</g>
	<g>
		<g>
			<ellipse fill="#FFFFFF" cx="252" cy="370.4" rx="4.1" ry="3.8"/>
			<linearGradient id="SVGID_24_" gradientUnits="userSpaceOnUse" x1="247.9843" y1="370.3484" x2="255.8848" y2="370.3484">
				<stop  offset="0" style="stop-color:#E9E4EF"/>
				<stop  offset="0.1291" style="stop-color:#EAE5F0"/>
				<stop  offset="1" style="stop-color:#ECE8F2"/>
			</linearGradient>
			<ellipse fill="url(#SVGID_24_)" cx="251.9" cy="370.3" rx="4" ry="3.7"/>
			<linearGradient id="SVGID_26_" gradientUnits="userSpaceOnUse" x1="248.0957" y1="370.3086" x2="255.722" y2="370.3086">
				<stop  offset="0" style="stop-color:#D4CADE"/>
				<stop  offset="0.3151" style="stop-color:#D7CFE3"/>
				<stop  offset="1" style="stop-color:#D9D2E5"/>
			</linearGradient>
			<ellipse fill="url(#SVGID_26_)" cx="251.9" cy="370.3" rx="3.8" ry="3.5"/>
			<linearGradient id="SVGID_28_" gradientUnits="userSpaceOnUse" x1="248.2071" y1="370.2687" x2="255.5592" y2="370.2687">
				<stop  offset="0" style="stop-color:#BEB0CE"/>
				<stop  offset="1.660591e-02" style="stop-color:#BEB1CE"/>
				<stop  offset="0.4048" style="stop-color:#C5B9D6"/>
				<stop  offset="1" style="stop-color:#C7BCD8"/>
			</linearGradient>
			<ellipse fill="url(#SVGID_28_)" cx="251.9" cy="370.3" rx="3.7" ry="3.4"/>
			<linearGradient id="SVGID_30_" gradientUnits="userSpaceOnUse" x1="248.3185" y1="370.2289" x2="255.3964" y2="370.2289">
				<stop  offset="0" style="stop-color:#A895BE"/>
				<stop  offset="0.1099" style="stop-color:#AB9AC1"/>
				<stop  offset="0.4613" style="stop-color:#B2A2C8"/>
				<stop  offset="1" style="stop-color:#B4A5CA"/>
			</linearGradient>
			<ellipse fill="url(#SVGID_30_)" cx="251.9" cy="370.2" rx="3.5" ry="3.3"/>
			<linearGradient id="SVGID_32_" gradientUnits="userSpaceOnUse" x1="248.4299" y1="370.1891" x2="255.2336" y2="370.1891">
				<stop  offset="0" style="stop-color:#937BAD"/>
				<stop  offset="0.1761" style="stop-color:#9984B4"/>
				<stop  offset="0.5013" style="stop-color:#9F8CBB"/>
				<stop  offset="1" style="stop-color:#A18FBD"/>
			</linearGradient>
			<ellipse fill="url(#SVGID_32_)" cx="251.8" cy="370.2" rx="3.4" ry="3.2"/>
			<linearGradient id="SVGID_33_" gradientUnits="userSpaceOnUse" x1="248.5413" y1="370.1492" x2="255.0708" y2="370.1492">
				<stop  offset="0" style="stop-color:#7D609D"/>
				<stop  offset="0.2265" style="stop-color:#866DA7"/>
				<stop  offset="0.5318" style="stop-color:#8C75AE"/>
				<stop  offset="1" style="stop-color:#8E78B0"/>
			</linearGradient>
			<ellipse fill="url(#SVGID_33_)" cx="251.8" cy="370.1" rx="3.3" ry="3"/>
			<linearGradient id="SVGID_34_" gradientUnits="userSpaceOnUse" x1="248.6098" y1="370.0735" x2="254.9422" y2="370.0735">
				<stop  offset="0" style="stop-color:#70589B"/>
				<stop  offset="0.1761" style="stop-color:#7661A2"/>
				<stop  offset="0.5013" style="stop-color:#7C69A9"/>
				<stop  offset="1" style="stop-color:#7E6CAB"/>
			</linearGradient>
			<ellipse fill="url(#SVGID_34_)" cx="251.8" cy="370.1" rx="3.2" ry="2.9"/>
			<linearGradient id="SVGID_35_" gradientUnits="userSpaceOnUse" x1="248.6784" y1="369.9978" x2="254.8137" y2="369.9978">
				<stop  offset="0" style="stop-color:#635099"/>
				<stop  offset="0.1099" style="stop-color:#66559D"/>
				<stop  offset="0.4613" style="stop-color:#6C5DA4"/>
				<stop  offset="1" style="stop-color:#6E60A6"/>
			</linearGradient>
			<ellipse fill="url(#SVGID_35_)" cx="251.7" cy="370" rx="3.1" ry="2.9"/>
			<linearGradient id="SVGID_36_" gradientUnits="userSpaceOnUse" x1="248.7469" y1="369.9221" x2="254.6851" y2="369.9221">
				<stop  offset="0" style="stop-color:#564997"/>
				<stop  offset="1.660591e-02" style="stop-color:#564A97"/>
				<stop  offset="0.4048" style="stop-color:#5C529F"/>
				<stop  offset="1" style="stop-color:#5E55A1"/>
			</linearGradient>
			<ellipse fill="url(#SVGID_36_)" cx="251.7" cy="369.9" rx="3" ry="2.8"/>
			<linearGradient id="SVGID_37_" gradientUnits="userSpaceOnUse" x1="248.8154" y1="369.8464" x2="254.5566" y2="369.8464">
				<stop  offset="0" style="stop-color:#484195"/>
				<stop  offset="0.3151" style="stop-color:#4C4699"/>
				<stop  offset="1" style="stop-color:#4E499B"/>
			</linearGradient>
			<ellipse fill="url(#SVGID_37_)" cx="251.7" cy="369.8" rx="2.9" ry="2.7"/>
			<linearGradient id="SVGID_38_" gradientUnits="userSpaceOnUse" x1="248.884" y1="369.7707" x2="254.428" y2="369.7707">
				<stop  offset="0" style="stop-color:#3B3993"/>
				<stop  offset="0.1291" style="stop-color:#3C3A94"/>
				<stop  offset="1" style="stop-color:#3E3D96"/>
			</linearGradient>
			<ellipse fill="url(#SVGID_38_)" cx="251.7" cy="369.8" rx="2.8" ry="2.6"/>
			<ellipse fill="#2E3191" cx="251.6" cy="369.7" rx="2.7" ry="2.5"/>
		</g>
		<path opacity="0.85" fill="#FFFFFF" d="M250.9,368.3c0,0-0.5,0.2-0.6,0.2c-0.1,0.1-0.2,0.3-0.4,0.4c-0.2-0.1-0.4-0.1-0.6-0.3
			c0.2-0.2,0.4-0.6,0.6-0.7c0.2-0.2,0.6-0.2,0.9-0.3C250.8,367.8,250.8,368,250.9,368.3z"/>
	</g>
	<g>
		<g>
			<circle fill="#FFFFFF" cx="225.2" cy="191.1" r="44.5"/>
			<linearGradient id="SVGID_39_" gradientUnits="userSpaceOnUse" x1="181.9322" y1="190.6162" x2="267.9526" y2="190.6162">
				<stop  offset="0" style="stop-color:#E9E4EF"/>
				<stop  offset="0.1291" style="stop-color:#EAE5F0"/>
				<stop  offset="1" style="stop-color:#ECE8F2"/>
			</linearGradient>
			<circle fill="url(#SVGID_39_)" cx="224.9" cy="190.6" r="43"/>
			<linearGradient id="SVGID_40_" gradientUnits="userSpaceOnUse" x1="183.145" y1="190.1497" x2="266.1798" y2="190.1497">
				<stop  offset="0" style="stop-color:#D4CADE"/>
				<stop  offset="0.3151" style="stop-color:#D7CFE3"/>
				<stop  offset="1" style="stop-color:#D9D2E5"/>
			</linearGradient>
			<circle fill="url(#SVGID_40_)" cx="224.7" cy="190.1" r="41.5"/>
			<linearGradient id="SVGID_41_" gradientUnits="userSpaceOnUse" x1="184.3579" y1="189.6832" x2="264.4071" y2="189.6832">
				<stop  offset="0" style="stop-color:#BEB0CE"/>
				<stop  offset="1.660591e-02" style="stop-color:#BEB1CE"/>
				<stop  offset="0.4048" style="stop-color:#C5B9D6"/>
				<stop  offset="1" style="stop-color:#C7BCD8"/>
			</linearGradient>
			<circle fill="url(#SVGID_41_)" cx="224.4" cy="189.7" r="40"/>
			<linearGradient id="SVGID_42_" gradientUnits="userSpaceOnUse" x1="185.5707" y1="189.2167" x2="262.6344" y2="189.2167">
				<stop  offset="0" style="stop-color:#A895BE"/>
				<stop  offset="0.1099" style="stop-color:#AB9AC1"/>
				<stop  offset="0.4613" style="stop-color:#B2A2C8"/>
				<stop  offset="1" style="stop-color:#B4A5CA"/>
			</linearGradient>
			<circle fill="url(#SVGID_42_)" cx="224.1" cy="189.2" r="38.5"/>
			<linearGradient id="SVGID_43_" gradientUnits="userSpaceOnUse" x1="186.7835" y1="188.7502" x2="260.8617" y2="188.7502">
				<stop  offset="0" style="stop-color:#937BAD"/>
				<stop  offset="0.1761" style="stop-color:#9984B4"/>
				<stop  offset="0.5013" style="stop-color:#9F8CBB"/>
				<stop  offset="1" style="stop-color:#A18FBD"/>
			</linearGradient>
			<circle fill="url(#SVGID_43_)" cx="223.8" cy="188.8" r="37"/>
			<linearGradient id="SVGID_44_" gradientUnits="userSpaceOnUse" x1="187.9964" y1="188.2837" x2="259.089" y2="188.2837">
				<stop  offset="0" style="stop-color:#7D609D"/>
				<stop  offset="0.2265" style="stop-color:#866DA7"/>
				<stop  offset="0.5318" style="stop-color:#8C75AE"/>
				<stop  offset="1" style="stop-color:#8E78B0"/>
			</linearGradient>
			<circle fill="url(#SVGID_44_)" cx="223.5" cy="188.3" r="35.5"/>
			<linearGradient id="SVGID_45_" gradientUnits="userSpaceOnUse" x1="188.7428" y1="187.3973" x2="257.6895" y2="187.3973">
				<stop  offset="0" style="stop-color:#70589B"/>
				<stop  offset="0.1761" style="stop-color:#7661A2"/>
				<stop  offset="0.5013" style="stop-color:#7C69A9"/>
				<stop  offset="1" style="stop-color:#7E6CAB"/>
			</linearGradient>
			<circle fill="url(#SVGID_45_)" cx="223.2" cy="187.4" r="34.5"/>
			<linearGradient id="SVGID_46_" gradientUnits="userSpaceOnUse" x1="189.4892" y1="186.511" x2="256.29" y2="186.511">
				<stop  offset="0" style="stop-color:#635099"/>
				<stop  offset="0.1099" style="stop-color:#66559D"/>
				<stop  offset="0.4613" style="stop-color:#6C5DA4"/>
				<stop  offset="1" style="stop-color:#6E60A6"/>
			</linearGradient>
			<circle fill="url(#SVGID_46_)" cx="222.9" cy="186.5" r="33.4"/>
			<linearGradient id="SVGID_47_" gradientUnits="userSpaceOnUse" x1="190.2356" y1="185.6246" x2="254.8905" y2="185.6246">
				<stop  offset="0" style="stop-color:#564997"/>
				<stop  offset="1.660591e-02" style="stop-color:#564A97"/>
				<stop  offset="0.4048" style="stop-color:#5C529F"/>
				<stop  offset="1" style="stop-color:#5E55A1"/>
			</linearGradient>
			<circle fill="url(#SVGID_47_)" cx="222.6" cy="185.6" r="32.3"/>
			<linearGradient id="SVGID_48_" gradientUnits="userSpaceOnUse" x1="190.982" y1="184.7383" x2="253.4911" y2="184.7383">
				<stop  offset="0" style="stop-color:#484195"/>
				<stop  offset="0.3151" style="stop-color:#4C4699"/>
				<stop  offset="1" style="stop-color:#4E499B"/>
			</linearGradient>
			<circle fill="url(#SVGID_48_)" cx="222.2" cy="184.7" r="31.3"/>
			<linearGradient id="SVGID_49_" gradientUnits="userSpaceOnUse" x1="191.7284" y1="183.8519" x2="252.0916" y2="183.8519">
				<stop  offset="0" style="stop-color:#3B3993"/>
				<stop  offset="0.1291" style="stop-color:#3C3A94"/>
				<stop  offset="1" style="stop-color:#3E3D96"/>
			</linearGradient>
			<circle fill="url(#SVGID_49_)" cx="221.9" cy="183.9" r="30.2"/>
			<circle fill="#2E3191" cx="221.6" cy="183" r="29.1"/>
		</g>
		<path opacity="0.85" fill="#FFFFFF" d="M213.2,166.1c0-0.2-5.8,2.3-6.5,2.8c-1.6,1.3-2.5,3.1-3.9,4.5c-2.2-0.9-4.8-1.6-6.7-3
			c1.8-2.9,3.9-6.7,6.8-8.7c2.7-1.8,6.6-2.3,9.7-3C213,161.1,213,163.6,213.2,166.1z"/>
	</g>
	<g>
		<g>
			<circle fill="#FFFFFF" cx="90.6" cy="140.7" r="44.5"/>
			<linearGradient id="SVGID_50_" gradientUnits="userSpaceOnUse" x1="47.2729" y1="140.1941" x2="133.2929" y2="140.1941">
				<stop  offset="0" style="stop-color:#E9E4EF"/>
				<stop  offset="0.1291" style="stop-color:#EAE5F0"/>
				<stop  offset="1" style="stop-color:#ECE8F2"/>
			</linearGradient>
			<circle fill="url(#SVGID_50_)" cx="90.3" cy="140.2" r="43"/>
			<linearGradient id="SVGID_51_" gradientUnits="userSpaceOnUse" x1="48.4857" y1="139.7277" x2="131.5203" y2="139.7277">
				<stop  offset="0" style="stop-color:#D4CADE"/>
				<stop  offset="0.3151" style="stop-color:#D7CFE3"/>
				<stop  offset="1" style="stop-color:#D9D2E5"/>
			</linearGradient>
			<circle fill="url(#SVGID_51_)" cx="90" cy="139.7" r="41.5"/>
			<linearGradient id="SVGID_52_" gradientUnits="userSpaceOnUse" x1="49.6986" y1="139.2613" x2="129.7476" y2="139.2613">
				<stop  offset="0" style="stop-color:#BEB0CE"/>
				<stop  offset="1.660591e-02" style="stop-color:#BEB1CE"/>
				<stop  offset="0.4048" style="stop-color:#C5B9D6"/>
				<stop  offset="1" style="stop-color:#C7BCD8"/>
			</linearGradient>
			<circle fill="url(#SVGID_52_)" cx="89.7" cy="139.3" r="40"/>
			<linearGradient id="SVGID_53_" gradientUnits="userSpaceOnUse" x1="50.9114" y1="138.7948" x2="127.975" y2="138.7948">
				<stop  offset="0" style="stop-color:#A895BE"/>
				<stop  offset="0.1099" style="stop-color:#AB9AC1"/>
				<stop  offset="0.4613" style="stop-color:#B2A2C8"/>
				<stop  offset="1" style="stop-color:#B4A5CA"/>
			</linearGradient>
			<circle fill="url(#SVGID_53_)" cx="89.4" cy="138.8" r="38.5"/>
			<linearGradient id="SVGID_54_" gradientUnits="userSpaceOnUse" x1="52.1243" y1="138.3284" x2="126.2024" y2="138.3284">
				<stop  offset="0" style="stop-color:#937BAD"/>
				<stop  offset="0.1761" style="stop-color:#9984B4"/>
				<stop  offset="0.5013" style="stop-color:#9F8CBB"/>
				<stop  offset="1" style="stop-color:#A18FBD"/>
			</linearGradient>
			<circle fill="url(#SVGID_54_)" cx="89.2" cy="138.3" r="37"/>
			<linearGradient id="SVGID_55_" gradientUnits="userSpaceOnUse" x1="53.3371" y1="137.862" x2="124.4297" y2="137.862">
				<stop  offset="0" style="stop-color:#7D609D"/>
				<stop  offset="0.2265" style="stop-color:#866DA7"/>
				<stop  offset="0.5318" style="stop-color:#8C75AE"/>
				<stop  offset="1" style="stop-color:#8E78B0"/>
			</linearGradient>
			<circle fill="url(#SVGID_55_)" cx="88.9" cy="137.9" r="35.5"/>
			<linearGradient id="SVGID_56_" gradientUnits="userSpaceOnUse" x1="54.0835" y1="136.9756" x2="123.0302" y2="136.9756">
				<stop  offset="0" style="stop-color:#70589B"/>
				<stop  offset="0.1761" style="stop-color:#7661A2"/>
				<stop  offset="0.5013" style="stop-color:#7C69A9"/>
				<stop  offset="1" style="stop-color:#7E6CAB"/>
			</linearGradient>
			<circle fill="url(#SVGID_56_)" cx="88.6" cy="137" r="34.5"/>
			<linearGradient id="SVGID_57_" gradientUnits="userSpaceOnUse" x1="54.8298" y1="136.0893" x2="121.6307" y2="136.0893">
				<stop  offset="0" style="stop-color:#635099"/>
				<stop  offset="0.1099" style="stop-color:#66559D"/>
				<stop  offset="0.4613" style="stop-color:#6C5DA4"/>
				<stop  offset="1" style="stop-color:#6E60A6"/>
			</linearGradient>
			<circle fill="url(#SVGID_57_)" cx="88.2" cy="136.1" r="33.4"/>
			<linearGradient id="SVGID_59_" gradientUnits="userSpaceOnUse" x1="55.5762" y1="135.2029" x2="120.2313" y2="135.2029">
				<stop  offset="0" style="stop-color:#564997"/>
				<stop  offset="1.660591e-02" style="stop-color:#564A97"/>
				<stop  offset="0.4048" style="stop-color:#5C529F"/>
				<stop  offset="1" style="stop-color:#5E55A1"/>
			</linearGradient>
			<circle fill="url(#SVGID_59_)" cx="87.9" cy="135.2" r="32.3"/>
			<linearGradient id="SVGID_61_" gradientUnits="userSpaceOnUse" x1="56.3226" y1="134.3166" x2="118.8318" y2="134.3166">
				<stop  offset="0" style="stop-color:#484195"/>
				<stop  offset="0.3151" style="stop-color:#4C4699"/>
				<stop  offset="1" style="stop-color:#4E499B"/>
			</linearGradient>
			<circle fill="url(#SVGID_61_)" cx="87.6" cy="134.3" r="31.3"/>
			<linearGradient id="SVGID_63_" gradientUnits="userSpaceOnUse" x1="57.069" y1="133.4302" x2="117.4323" y2="133.4302">
				<stop  offset="0" style="stop-color:#3B3993"/>
				<stop  offset="0.1291" style="stop-color:#3C3A94"/>
				<stop  offset="1" style="stop-color:#3E3D96"/>
			</linearGradient>
			<circle fill="url(#SVGID_63_)" cx="87.3" cy="133.4" r="30.2"/>
			<circle fill="#2E3191" cx="86.9" cy="132.5" r="29.1"/>
		</g>
		<path opacity="0.85" fill="#FFFFFF" d="M78.5,115.6c0-0.2-5.8,2.3-6.5,2.8c-1.6,1.3-2.5,3.1-3.9,4.5c-2.2-0.9-4.8-1.6-6.7-3
			c1.8-2.9,3.9-6.7,6.8-8.7c2.7-1.8,6.6-2.3,9.7-3C78.4,110.7,78.4,113.2,78.5,115.6z"/>
	</g>
	<rect opacity="0.68" fill="#D5EEF7" width="767" height="471"/>
	<g>
		<g>
			<radialGradient id="SVGID_65_" cx="198.06" cy="309.7273" r="21.0374" gradientUnits="userSpaceOnUse">
				<stop  offset="0" style="stop-color:#71D9F3"/>
				<stop  offset="1" style="stop-color:#FFFFFF"/>
			</radialGradient>
			<path opacity="0.42" fill="url(#SVGID_65_)" d="M219.1,309.7c0,11.6-9.4,21-21,21c-11.6,0-21-9.4-21-21c0-11.6,9.4-21,21-21
				C209.7,288.7,219.1,298.1,219.1,309.7z"/>
			<radialGradient id="SVGID_66_" cx="208.8301" cy="323.9931" r="33.1131" gradientUnits="userSpaceOnUse">
				<stop  offset="0" style="stop-color:#71D9F3"/>
				<stop  offset="1" style="stop-color:#FFFFFF"/>
			</radialGradient>
			<path opacity="0.31" fill="url(#SVGID_66_)" d="M200.2,316.6c3.2,0.3,5.8-0.4,5.8-4.6c0-9.1-9.4-15.4-9.3-23.3
				c-11,0.7-19.7,9.8-19.7,21c0,2.7,0.5,5.2,1.4,7.6c-0.7-1.7,11.5-2.7,12.5-2.7C193.2,314.8,197,316.3,200.2,316.6z"/>
			<radialGradient id="SVGID_67_" cx="198.3299" cy="322.2418" r="15.6182" gradientUnits="userSpaceOnUse">
				<stop  offset="0" style="stop-color:#71D9F3"/>
				<stop  offset="1" style="stop-color:#FFFFFF"/>
			</radialGradient>
			<path opacity="0.42" fill="url(#SVGID_67_)" d="M197.9,322.5c-7.6,0.7-14.7-1.9-20-6.5c2.7,8.6,10.6,14.8,20.1,14.8
				c10.3,0,18.8-7.3,20.6-17C213.6,319.1,206,321.7,197.9,322.5z"/>
			<radialGradient id="SVGID_68_" cx="203.6371" cy="309.3657" r="25.492" gradientUnits="userSpaceOnUse">
				<stop  offset="0" style="stop-color:#71D9F3"/>
				<stop  offset="1" style="stop-color:#FFFFFF"/>
			</radialGradient>
			<path opacity="0.42" fill="url(#SVGID_68_)" d="M187.5,315.5c2.1-13.6,12.7-21.5,25.7-20.3c-3.8-4-9.2-6.5-15.2-6.5
				c-11.6,0-21,9.4-21,21c0,7.6,4,14.2,10,17.9C186.4,323.6,186.6,319.5,187.5,315.5z"/>
		</g>
		<g>
			<radialGradient id="SVGID_69_" cx="125.8303" cy="367.2853" r="21.0365" gradientUnits="userSpaceOnUse">
				<stop  offset="0" style="stop-color:#71D9F3"/>
				<stop  offset="1" style="stop-color:#FFFFFF"/>
			</radialGradient>
			<path opacity="0.42" fill="url(#SVGID_69_)" d="M146.9,367.3c0,11.6-9.4,21-21,21c-11.6,0-21-9.4-21-21c0-11.6,9.4-21,21-21
				C137.5,346.2,146.9,355.7,146.9,367.3z"/>
			<radialGradient id="SVGID_70_" cx="136.6024" cy="381.5502" r="33.1133" gradientUnits="userSpaceOnUse">
				<stop  offset="0" style="stop-color:#71D9F3"/>
				<stop  offset="1" style="stop-color:#FFFFFF"/>
			</radialGradient>
			<path opacity="0.31" fill="url(#SVGID_70_)" d="M128,374.2c3.2,0.3,5.8-0.4,5.8-4.6c0-9.1-9.4-15.4-9.3-23.3
				c-11,0.7-19.7,9.8-19.7,21c0,2.7,0.5,5.2,1.4,7.6c-0.7-1.7,11.5-2.7,12.5-2.7C121,372.4,124.8,373.8,128,374.2z"/>
			<radialGradient id="SVGID_71_" cx="126.1013" cy="379.7998" r="15.6176" gradientUnits="userSpaceOnUse">
				<stop  offset="0" style="stop-color:#71D9F3"/>
				<stop  offset="1" style="stop-color:#FFFFFF"/>
			</radialGradient>
			<path opacity="0.42" fill="url(#SVGID_71_)" d="M125.7,380c-7.6,0.7-14.7-1.9-20-6.5c2.6,8.6,10.6,14.8,20.1,14.8
				c10.2,0,18.8-7.3,20.6-17C141.4,376.7,133.8,379.3,125.7,380z"/>
			<radialGradient id="SVGID_72_" cx="131.4095" cy="366.9237" r="25.492" gradientUnits="userSpaceOnUse">
				<stop  offset="0" style="stop-color:#71D9F3"/>
				<stop  offset="1" style="stop-color:#FFFFFF"/>
			</radialGradient>
			<path opacity="0.42" fill="url(#SVGID_72_)" d="M115.3,373.1c2.1-13.6,12.7-21.5,25.7-20.3c-3.8-4-9.2-6.5-15.2-6.5
				c-11.6,0-21,9.4-21,21c0,7.6,4,14.2,10,17.9C114.2,381.2,114.4,377.1,115.3,373.1z"/>
		</g>
		<g>
			<radialGradient id="SVGID_73_" cx="419.2625" cy="205.8991" r="15.394" gradientUnits="userSpaceOnUse">
				<stop  offset="0" style="stop-color:#71D9F3"/>
				<stop  offset="1" style="stop-color:#FFFFFF"/>
			</radialGradient>
			<circle opacity="0.42" fill="url(#SVGID_73_)" cx="419.3" cy="205.9" r="15.4"/>
			<radialGradient id="SVGID_74_" cx="427.1469" cy="216.3407" r="24.2346" gradientUnits="userSpaceOnUse">
				<stop  offset="0" style="stop-color:#71D9F3"/>
				<stop  offset="1" style="stop-color:#FFFFFF"/>
			</radialGradient>
			<path opacity="0.31" fill="url(#SVGID_74_)" d="M420.9,211c2.3,0.2,4.2-0.3,4.2-3.3c0-6.7-6.9-11.3-6.8-17.1
				c-8,0.5-14.4,7.2-14.4,15.3c0,2,0.4,3.8,1,5.5c-0.5-1.3,8.4-2,9.2-1.9C415.7,209.6,418.5,210.7,420.9,211z"/>
			<radialGradient id="SVGID_75_" cx="419.4598" cy="215.0576" r="11.4268" gradientUnits="userSpaceOnUse">
				<stop  offset="0" style="stop-color:#71D9F3"/>
				<stop  offset="1" style="stop-color:#FFFFFF"/>
			</radialGradient>
			<path opacity="0.42" fill="url(#SVGID_75_)" d="M419.2,215.2c-5.5,0.5-10.7-1.4-14.6-4.8c1.9,6.3,7.8,10.9,14.7,10.9
				c7.5,0,13.7-5.4,15.1-12.5C430.7,212.8,425.1,214.7,419.2,215.2z"/>
			<radialGradient id="SVGID_76_" cx="423.3439" cy="205.6345" r="18.6541" gradientUnits="userSpaceOnUse">
				<stop  offset="0" style="stop-color:#71D9F3"/>
				<stop  offset="1" style="stop-color:#FFFFFF"/>
			</radialGradient>
			<path opacity="0.42" fill="url(#SVGID_76_)" d="M411.6,210.2c1.5-9.9,9.3-15.7,18.8-14.9c-2.8-2.9-6.7-4.8-11.1-4.8
				c-8.5,0-15.4,6.9-15.4,15.4c0,5.5,2.9,10.4,7.3,13.1C410.8,216.1,410.9,213.1,411.6,210.2z"/>
		</g>
		<g>
			<radialGradient id="SVGID_77_" cx="391.0456" cy="360.5151" r="40.222" gradientUnits="userSpaceOnUse">
				<stop  offset="0" style="stop-color:#71D9F3"/>
				<stop  offset="1" style="stop-color:#FFFFFF"/>
			</radialGradient>
			<path opacity="0.42" fill="url(#SVGID_77_)" d="M431.3,360.5c0,22.2-18,40.2-40.2,40.2c-22.2,0-40.2-18-40.2-40.2
				c0-22.2,18-40.2,40.2-40.2C413.3,320.3,431.3,338.3,431.3,360.5z"/>
			<radialGradient id="SVGID_78_" cx="411.6475" cy="387.7952" r="63.3198" gradientUnits="userSpaceOnUse">
				<stop  offset="0" style="stop-color:#71D9F3"/>
				<stop  offset="1" style="stop-color:#FFFFFF"/>
			</radialGradient>
			<path opacity="0.31" fill="url(#SVGID_78_)" d="M395.2,373.7c6,0.6,11-0.8,11-8.7c0-17.5-18-29.4-17.8-44.6
				c-21,1.3-37.6,18.8-37.6,40.1c0,5.1,1,10,2.7,14.5c-1.3-3.3,22-5.2,23.9-5.1C381.7,370.2,389,373.1,395.2,373.7z"/>
			<radialGradient id="SVGID_79_" cx="391.5645" cy="384.445" r="29.8575" gradientUnits="userSpaceOnUse">
				<stop  offset="0" style="stop-color:#71D9F3"/>
				<stop  offset="1" style="stop-color:#FFFFFF"/>
			</radialGradient>
			<path opacity="0.42" fill="url(#SVGID_79_)" d="M390.8,384.9c-14.4,1.3-28.1-3.7-38.2-12.5c5.1,16.4,20.4,28.4,38.4,28.4
				c19.6,0,35.9-14,39.5-32.6C420.8,378.4,406.3,383.5,390.8,384.9z"/>
			<radialGradient id="SVGID_80_" cx="401.7143" cy="359.8225" r="48.7401" gradientUnits="userSpaceOnUse">
				<stop  offset="0" style="stop-color:#71D9F3"/>
				<stop  offset="1" style="stop-color:#FFFFFF"/>
			</radialGradient>
			<path opacity="0.42" fill="url(#SVGID_80_)" d="M370.9,371.6c4-25.9,24.2-41.1,49.2-38.8c-7.3-7.7-17.6-12.5-29.1-12.5
				c-22.2,0-40.2,18-40.2,40.2c0,14.5,7.7,27.1,19.1,34.2C368.8,387.1,369.2,379.2,370.9,371.6z"/>
		</g>
	</g>
	<line fill="none" stroke="#666666" x1="254" y1="396" x2="252.3" y2="382"/>
	<text transform="matrix(1 0 0 1 202.0472 412.6369)" font-family="'Helvetica'" font-size="22">tech comm</text>
	<text transform="matrix(1 0 0 1 591.4814 388.322)" font-family="'Helvetica'" font-size="22">web</text>
	<line fill="none" stroke="#666666" x1="608" y1="366" x2="606.3" y2="352"/>
</g>
<g id="_x31_2345">
</g>
</svg>
