<?xml version="1.0" encoding="utf-8"?>
<!-- Generator: Adobe Illustrator 18.1.1, SVG Export Plug-In . SVG Version: 6.00 Build 0)  -->
<svg version="1.1" xmlns="http://www.w3.org/2000/svg" xmlns:xlink="http://www.w3.org/1999/xlink" x="0px" y="0px"
	 viewBox="0 0 767 471" enable-background="new 0 0 767 471" xml:space="preserve">
<g id="separate">
</g>
<g id="code">
</g>
<g id="ux">
</g>
<g id="disruptive">
</g>
<g id="helpapi">
</g>
<g id="significant">
</g>
<g id="microsoft">
	<rect fill="#FFFFFF" width="767" height="471"/>
	<polygon fill="#5252E2" stroke="#6D6D6D" stroke-miterlimit="10" points="262.9,253.9 182.7,201.1 188.2,105.2 273.9,62.1 
		354.1,114.9 348.7,210.8 	"/>
	<polygon fill="#5252E2" stroke="#6D6D6D" stroke-miterlimit="10" points="609,271.9 528.8,219.1 534.3,123.2 620,80.1 700.2,132.9 
		694.8,228.8 	"/>
	<polygon fill="#5252E2" stroke="#6D6D6D" stroke-miterlimit="10" points="513.7,416.5 433.5,363.6 439,267.7 524.7,224.6 
		604.9,277.5 599.4,373.4 	"/>
	<polygon fill="#5252E2" stroke="#6D6D6D" stroke-miterlimit="10" points="342,409 261.8,356.2 267.3,260.2 353,217.2 433.2,270 
		427.7,365.9 	"/>
	<polygon fill="#5252E2" stroke="#6D6D6D" stroke-miterlimit="10" points="436,263 355.8,210.2 361.3,114.3 447,71.2 527.3,124 
		521.8,219.9 	"/>
	<text transform="matrix(1 0 0 1 209.0991 151.7792)" fill="#FFFFFF" font-family="'Helvetica'" font-size="36.2348">Search</text>
	<g>
		<text transform="matrix(1 0 0 1 384.6313 162.8144)" fill="#FFFFFF" font-family="'Helvetica'" font-size="36.2348">Mobile</text>
	</g>
	<g>
		<text transform="matrix(1 0 0 1 565.3505 167.122)" fill="#FFFFFF" font-family="'Helvetica'" font-size="36.2348">Cloud</text>
	</g>
	<g>
		<text transform="matrix(1 0 0 1 293.8125 297.6855)" fill="#FFFFFF" font-family="'Helvetica'" font-size="36.2348">Social</text>
	</g>
	<g>
		<rect x="468.6" y="263" fill="none" width="147.4" height="75.3"/>
		<text transform="matrix(1 0 0 1 468.5796 289.081)"><tspan x="0" y="0" fill="#FFFFFF" font-family="'Helvetica'" font-size="36.2348">Open </tspan><tspan x="0" y="43.5" fill="#FFFFFF" font-family="'Helvetica'" font-size="36.2348">source</tspan></text>
	</g>
	<g>
		<rect x="469" y="338.3" fill="none" width="100.4" height="34.8"/>
		<text transform="matrix(1 0 0 1 469.0322 349.4824)"><tspan x="0" y="0" fill="#E6E6E6" font-family="'Helvetica'" font-size="15.5082">Linux, </tspan><tspan x="0" y="18.6" fill="#E6E6E6" font-family="'Helvetica'" font-size="15.5082">MySQL, etc.</tspan></text>
	</g>
	<rect x="231.9" y="176.4" fill="none" width="73" height="34.8"/>
	<text transform="matrix(1 0 0 1 231.9209 187.5536)" fill="#E6E6E6" font-family="'Helvetica'" font-size="15.5082">Google</text>
	<g>
		<rect x="412.3" y="182.4" fill="none" width="73" height="34.8"/>
		<text transform="matrix(1 0 0 1 412.3042 193.5137)" fill="#E6E6E6" font-family="'Helvetica'" font-size="15.5082">Apple</text>
	</g>
	<g>
		<rect x="579.4" y="189.8" fill="none" width="73" height="34.8"/>
		<text transform="matrix(1 0 0 1 579.4429 200.9902)" fill="#E6E6E6" font-family="'Helvetica'" font-size="15.5082">Amazon</text>
	</g>
	<g>
		<rect x="311" y="320.9" fill="none" width="73" height="34.8"/>
		<text transform="matrix(1 0 0 1 311.0135 332.081)" fill="#E6E6E6" font-family="'Helvetica'" font-size="15.5082">Facebook</text>
	</g>
	<text transform="matrix(1 0 0 1 35.0791 308.4922)" fill="#747475" font-family="'Helvetica'" font-size="22.1546">tech comm?</text>
	<g>
		<g>
			<path fill="none" stroke="#79797C" stroke-width="3" stroke-miterlimit="10" d="M108.2,267.7c0,0-31.4-57,4.2-91.7
				c13.8-13.5,23.5-21.7,30.4-26.8"/>
			<g>
				<path fill="#79797C" d="M159.1,141.3c-6.1,6.7-13.1,16.3-16.3,24.4l-1.9-15.1l-11.1-10.3C138.2,142.4,150.1,142.3,159.1,141.3z"
					/>
			</g>
		</g>
	</g>
	<g>
		<g>
			<path fill="none" stroke="#747475" stroke-width="3" stroke-miterlimit="10" d="M111,323.2c4.9,8,11.4,31.5,72.6,46.7
				c17.2,4.3,33.3,2.5,44.7-0.2"/>
			<g>
				<path fill="#747475" d="M245.5,364c-7.1,5.6-15.5,14-20,21.5l0.5-15.2l-9.3-12C224.7,361.7,236.5,363.6,245.5,364z"/>
			</g>
		</g>
	</g>
	<text transform="matrix(1 0 0 1 160.7661 143.8193)" fill="#79797C" font-family="'MyriadPro-Regular'" font-size="25.847">?</text>
	<text transform="matrix(1 0 0 1 248.4043 376.578)" fill="#79797C" font-family="'MyriadPro-Regular'" font-size="25.847">?</text>
	<g>
		<path fill="none" d="M347.5,83.6"/>
	</g>
	<g>
		<g>
			<path fill="none" stroke="#79797C" stroke-width="3" stroke-miterlimit="10" d="M90.4,263c0,0-32-111.3-7.5-154.6"/>
			<g>
				<path fill="#79797C" d="M95.4,95.4c-3.5,8.4-6.7,19.8-6.9,28.5l-7-13.5l-14-5.9C76.2,103.7,87.3,99.6,95.4,95.4z"/>
			</g>
		</g>
	</g>
	<g>
		<g>
			<path fill="none" stroke="#79797C" stroke-width="3" stroke-miterlimit="10" d="M165.7,298.2c20.2-9.8,31.1-14.9,38.1-17.8"/>
			<g>
				<path fill="#79797C" d="M221.1,274.8c-7.1,5.7-15.4,14.2-19.8,21.7l0.4-15.2l-9.4-11.9C200.3,272.8,212,274.6,221.1,274.8z"/>
			</g>
		</g>
	</g>
	<text transform="matrix(1 0 0 1 102.333 103.0751)" fill="#79797C" font-family="'MyriadPro-Regular'" font-size="25.847">?</text>
	<text transform="matrix(1 0 0 1 218.7792 416.0839)" fill="#79797C" font-family="'MyriadPro-Regular'" font-size="25.847">?</text>
	<text transform="matrix(1 0 0 1 226.6742 280.786)" fill="#79797C" font-family="'MyriadPro-Regular'" font-size="25.847">?</text>
	<g>
		<g>
			<path fill="none" stroke="#747475" stroke-width="3" stroke-miterlimit="10" d="M67.1,321.1c0,0,19.3,42.7,43.3,55.5
				c22.9,12.2,63.9,21.1,87.4,25.5"/>
			<g>
				<path fill="#747475" d="M215.6,405.2c-8.9,1.6-20.3,5-27.8,9.5l7.6-13.1l-2.6-15C198.3,393.4,207.8,400.5,215.6,405.2z"/>
			</g>
		</g>
	</g>
</g>
<g id="json">
</g>
<g id="github">
</g>
<g id="scalability">
</g>
<g id="performance">
</g>
<g id="skillset">
</g>
<g id="wastedtime">
</g>
<g id="legacy">
</g>
<g id="pressure">
</g>
<g id="tbt">
</g>
<g id="milkyway">
</g>
</svg>
