<?xml version="1.0" encoding="utf-8"?>
<!-- Generator: Adobe Illustrator 18.1.1, SVG Export Plug-In . SVG Version: 6.00 Build 0)  -->
<svg version="1.1" xmlns="http://www.w3.org/2000/svg" xmlns:xlink="http://www.w3.org/1999/xlink" x="0px" y="0px"
	 viewBox="0 0 767 471" enable-background="new 0 0 767 471" xml:space="preserve">
<g id="separate">
</g>
<g id="code">
</g>
<g id="ux">
</g>
<g id="disruptive">
</g>
<g id="helpapi">
</g>
<g id="significant">
</g>
<g id="allcontribute">
</g>
<g id="githubhelp">
</g>
<g id="microsoft">
	<rect fill="#FFFFFF" width="767" height="471"/>
	<polygon fill="#5252E2" stroke="#6D6D6D" stroke-miterlimit="10" points="262.9,253.9 182.7,201.1 188.2,105.2 273.9,62.1 
		354.1,114.9 348.7,210.8 	"/>
	<polygon fill="#5252E2" stroke="#6D6D6D" stroke-miterlimit="10" points="609,271.9 528.8,219.1 534.3,123.2 620,80.1 700.2,132.9 
		694.8,228.8 	"/>
	<polygon fill="#5252E2" stroke="#6D6D6D" stroke-miterlimit="10" points="513.7,416.5 433.5,363.6 439,267.7 524.7,224.6 
		604.9,277.5 599.4,373.4 	"/>
	<polygon fill="#5252E2" stroke="#6D6D6D" stroke-miterlimit="10" points="342,409 261.8,356.2 267.3,260.2 353,217.2 433.2,270 
		427.7,365.9 	"/>
	<polygon fill="#5252E2" stroke="#6D6D6D" stroke-miterlimit="10" points="436,263 355.8,210.2 361.3,114.3 447,71.2 527.3,124 
		521.8,219.9 	"/>
	<text transform="matrix(1 0 0 1 209.0991 151.7792)" fill="#FFFFFF" font-family="'Helvetica'" font-size="36.2348">Search</text>
	<g>
		<text transform="matrix(1 0 0 1 384.6313 162.8144)" fill="#FFFFFF" font-family="'Helvetica'" font-size="36.2348">Mobile</text>
	</g>
	<g>
		<text transform="matrix(1 0 0 1 565.3505 167.122)" fill="#FFFFFF" font-family="'Helvetica'" font-size="36.2348">Cloud</text>
	</g>
	<g>
		<text transform="matrix(1 0 0 1 293.8125 297.6855)" fill="#FFFFFF" font-family="'Helvetica'" font-size="36.2348">Social</text>
	</g>
	<g>
		<rect x="468.6" y="263" fill="none" width="147.4" height="75.3"/>
		<text transform="matrix(1 0 0 1 468.5796 289.081)"><tspan x="0" y="0" fill="#FFFFFF" font-family="'Helvetica'" font-size="36.2348">Open </tspan><tspan x="0" y="35" fill="#FFFFFF" font-family="'Helvetica'" font-size="36.2348">source</tspan></text>
	</g>
	<g>
		<rect x="469" y="338.3" fill="none" width="100.4" height="34.8"/>
		<text transform="matrix(1 0 0 1 469.0322 349.4824)"><tspan x="0" y="0" fill="#E6E6E6" font-family="'Helvetica'" font-size="15.5082">Linux, </tspan><tspan x="0" y="18.6" fill="#E6E6E6" font-family="'Helvetica'" font-size="15.5082">MySQL, etc.</tspan></text>
	</g>
	<rect x="231.9" y="176.4" fill="none" width="73" height="34.8"/>
	<text transform="matrix(1 0 0 1 231.9209 187.5536)" fill="#E6E6E6" font-family="'Helvetica'" font-size="15.5082">Google</text>
	<g>
		<rect x="412.3" y="182.4" fill="none" width="73" height="34.8"/>
		<text transform="matrix(1 0 0 1 412.3042 193.5137)" fill="#E6E6E6" font-family="'Helvetica'" font-size="15.5082">Apple</text>
	</g>
	<g>
		<rect x="579.4" y="189.8" fill="none" width="73" height="34.8"/>
		<text transform="matrix(1 0 0 1 579.4429 200.9902)" fill="#E6E6E6" font-family="'Helvetica'" font-size="15.5082">Amazon</text>
	</g>
	<g>
		<rect x="311" y="320.9" fill="none" width="73" height="34.8"/>
		<text transform="matrix(1 0 0 1 311.0135 332.081)" fill="#E6E6E6" font-family="'Helvetica'" font-size="15.5082">Facebook</text>
	</g>
	<text transform="matrix(1 0 0 1 212.0402 400.6713)" fill="#79797C" font-family="'MyriadPro-Regular'" font-size="25.847">?</text>
	<g>
		<path fill="none" d="M347.5,83.6"/>
	</g>
	<g>
		<g>
			<path fill="none" stroke="#79797C" stroke-width="3" stroke-miterlimit="10" d="M165.7,298.2c20.2-9.8,31.1-14.9,38.1-17.8"/>
			<g>
				<path fill="#79797C" d="M221.1,274.8c-7.1,5.7-15.4,14.2-19.8,21.7l0.4-15.2l-9.4-11.9C200.3,272.8,212,274.6,221.1,274.8z"/>
			</g>
		</g>
	</g>
	<text transform="matrix(1 0 0 1 192.9062 447.5823)" fill="#79797C" font-family="'MyriadPro-Regular'" font-size="25.847">?</text>
	<text transform="matrix(1 0 0 1 226.6742 280.786)" fill="#79797C" font-family="'MyriadPro-Regular'" font-size="25.847">?</text>
	<text transform="matrix(1 0 0 1 21.0791 339.4922)" fill="#747475" font-family="'Helvetica'" font-size="22.1546">tech comm?</text>
	<text transform="matrix(1 0 0 1 137.0393 174.8192)" fill="#79797C" font-family="'MyriadPro-Regular'" font-size="25.847">?</text>
	<text transform="matrix(1 0 0 1 69.9651 143.8192)" fill="#79797C" font-family="'MyriadPro-Regular'" font-size="25.847">?</text>
	<g>
		<g>
			<path fill="none" stroke="#747475" stroke-width="3" stroke-miterlimit="10" d="M93.6,351.9c0,0,43.8,42,88.7,48"/>
			<g>
				<path fill="#747475" d="M195.1,400.6c-6.2,1.9-13.9,5.2-18.8,9l4.3-9.9l-3-10.3C181.9,393.8,189.2,398,195.1,400.6z"/>
			</g>
		</g>
	</g>
	<g>
		<g>
			<path fill="none" stroke="#747475" stroke-width="3" stroke-miterlimit="10" d="M51,351.9c0,0,17.7,80.9,115.6,87.6"/>
			<g>
				<path fill="#747475" d="M179.4,440c-6.1,2-13.8,5.5-18.6,9.4l4.1-10l-3.2-10.3C166.1,433.3,173.4,437.5,179.4,440z"/>
			</g>
		</g>
	</g>
	<g>
		<g>
			<path fill="none" stroke="#79797C" stroke-width="3" stroke-miterlimit="10" d="M93.6,284.9c0,0-24.4-73.3,16.6-103.7"/>
			<g>
				<path fill="#79797C" d="M121.4,174.8c-4.1,5-8.5,12.1-10.5,18l-2-10.6l-8.3-6.8C106.6,176.5,115,176,121.4,174.8z"/>
			</g>
		</g>
	</g>
	<g>
		<g>
			<path fill="none" stroke="#79797C" stroke-width="3" stroke-miterlimit="10" d="M32.3,294c0,0-38-95.6,15.2-136.1"/>
			<g>
				<path fill="#79797C" d="M58.3,151.1c-3.9,5.1-8.1,12.4-9.9,18.3l-2.4-10.5l-8.5-6.6C43.6,153.2,52,152.4,58.3,151.1z"/>
			</g>
		</g>
	</g>
	<text transform="matrix(1 0 0 1 304.9205 447.5823)" font-family="'Helvetica'" font-size="21">Lessons learned from Microsoft’s failure</text>
</g>
<g id="json">
</g>
<g id="github">
</g>
<g id="scalability">
</g>
<g id="performance">
</g>
<g id="skillset">
</g>
<g id="wastedtime">
</g>
<g id="legacy">
</g>
<g id="notanengineer">
</g>
<g id="strategies">
</g>
<g id="pressure">
</g>
<g id="whatif">
</g>
<g id="turning_x5F_point">
</g>
<g id="tbt">
</g>
<g id="milkyway">
</g>
<g id="bubbles">
</g>
<g id="_x31_2345">
</g>
</svg>
