<?xml version="1.0" encoding="utf-8"?>
<!-- Generator: Adobe Illustrator 18.1.1, SVG Export Plug-In . SVG Version: 6.00 Build 0)  -->
<svg version="1.1" xmlns="http://www.w3.org/2000/svg" xmlns:xlink="http://www.w3.org/1999/xlink" x="0px" y="0px"
	 viewBox="0 0 767 471" enable-background="new 0 0 767 471" xml:space="preserve">
<g id="separate">
</g>
<g id="code">
</g>
<g id="ux">
</g>
<g id="disruptive">
</g>
<g id="helpapi">
</g>
<g id="significant">
</g>
<g id="allcontribute">
</g>
<g id="githubhelp">
</g>
<g id="microsoft">
</g>
<g id="json">
</g>
<g id="github">
</g>
<g id="scalability">
</g>
<g id="performance">
</g>
<g id="skillset">
</g>
<g id="wastedtime">
</g>
<g id="legacy">
</g>
<g id="notanengineer">
</g>
<g id="strategies">
</g>
<g id="pressure">
</g>
<g id="whatif">
	<g opacity="0.8">
		<g>
			<path fill="none" stroke="#AADFF1" stroke-width="5" stroke-linecap="round" stroke-linejoin="round" d="M755.3,14.5
				c-1.8,1.5,3.2,0.4,1.5,1.8c-0.3,0.3-7.8-1.3-8.2-1c-2.2,1.8,11,8.6,8.8,10.4c-0.8,0.7-15.5-10.5-16.3-9.8
				c-2.5,2.1,18.9,17.4,16.4,19.5c-1.2,1-20.4-20.4-21.6-19.4c-3,2.5,22.7,21.4,19.9,23.7c-1.6,1.3-26.5-25-28-23.7
				c-3.8,3.1,32.5,31.2,28.8,34.3c-2.2,1.8-35.2-36.2-37.3-34.5c-4,3.4,42.1,41.5,37.8,45.1c-2.9,2.4-43.6-49.4-46.2-47.3
				c-4.4,3.7,51.1,51.1,46.3,55.2c-2.9,2.4-47-56.6-49.9-54.2c-4.9,4.1,55.6,56.2,50.7,60.4c-3.7,3.1-52.5-63.9-55.9-61.1
				c-5.1,4.3,59.2,60.8,54.4,64.8c-3.4,2.8-55.4-67.7-59-64.7c-5.3,4.4,63.9,66,58.9,70.2c-4.3,3.6-59.5-74.3-63.7-70.9
				c-5.6,4.7,69.4,71.6,63.9,76.2c-4.1,3.5-64.6-79.4-69.1-75.6c-5.9,5,76.3,77.7,69.8,83.2c-4.4,3.7-70.3-85.3-75.3-81.1
				c-6.4,5.3,81.1,82.5,74.1,88.3c-5.1,4.3-75.1-93.9-80.2-89.6c-6.4,5.4,88.2,91.9,81.7,97.4c-5.4,4.5-83.9-101.2-89.6-96.4
				c-7.8,6.5,96.2,99.1,88.6,105.6c-6,5-91.8-112.8-98.2-107.5c-8.4,7.1,105.6,109.6,97.6,116.4C750.2,135.2,657,9.3,650.7,14.5
				C641.8,22,766,134,757.2,141.4c-7,5.8-107.7-132.4-114.6-126.7c-9.1,7.6,122.7,127.9,113.7,135.5c-8.4,7-113.2-143.7-121.1-137.1
				C625,21.7,767.5,150.7,757.5,159.1c-8.7,7.3-122.1-151.3-129.8-144.8c-10.5,8.8,139.6,146.3,129.7,154.6
				c-9,7.6-129.9-160.6-137.9-153.9c-10.7,9,146.7,154.8,136.8,163.1c-9.7,8.1-131.8-171.2-141.2-163.4
				c-10.8,9,151,158.9,140.6,167.6C745.5,190.8,616.4,5.5,606.4,13.9C594.1,24.2,768,183.6,756.8,193.1
				c-9.4,7.9-148-188.3-158.5-179.5c-12.5,10.5,170.7,180.2,159.2,189.8C746.1,212.9,602.8,6.9,592.4,15.6
				c-12.8,10.7,177.3,184.9,164.3,195.8C745.4,221,595.6,3.9,584.6,13.1C572,23.7,770.4,209.5,758.1,219.9
				c-11.9,10-167.4-214.5-179.6-204.2c-13.7,11.5,193.2,201.2,178.9,213.2C745.1,239.2,581.8,4.3,570.6,13.8
				c-13.3,11.1,200.5,211.9,187.2,223.1c-13,10.9-177.9-230.8-189.5-221c-13.6,11.4,203.3,213.2,189,225.2
				C743.8,252.4,573.5,5.3,562,14.9c-15,12.6,208.7,218.4,193.8,230.9c-13,10.9-189-243.6-203-231.8
				c-16.1,13.5,217.8,231.7,204.1,243.2C743.3,268.6,562.3,3.5,548.6,15.1c-15.7,13.2,223.6,234.5,207.9,247.7
				C741.7,275.2,556.1,0.9,541.1,13.5C524.3,27.6,774,258,757.7,271.6c-15,12.6-208.4-269.3-221.5-258.3
				C519.8,27.1,773.4,260.6,756,275.3C740.6,288.2,544.3,3.6,530.8,14.9c-15.8,13.2,244.1,255,226.4,269.8
				C741.1,298.2,540.9,3.5,526.1,15.9c-18.3,15.3,247.5,262,231.3,275.6C743.3,303.4,534.6,2.3,518.5,15.8
				c-18,15.1,256.6,270,239,284.8C742.7,312.9,528.2,1.7,512.4,15c-17.8,14.9,264.5,276.3,245.3,292.4C740.5,321.8,523.6-1.7,506,13
				C487,29,772.2,296.7,755.7,310.6C738.5,325,515-0.1,498.5,13.8c-18.2,15.3,279.1,291.8,259,308.7
				C739.8,337.3,511.7,0.1,494.4,14.7c-17.8,15,282.4,296.9,262.9,313.3C740.6,342,505.9-1.4,486.9,14.5
				c-19.4,16.2,291.4,305.3,270.7,322.6C740.3,351.7,496.7,1.2,480.3,15c-20.8,17.4,294.8,314.8,276.8,329.9
				c-16.7,14-266.8-344.4-283.7-330.2c-21.5,18.1,305.1,319.5,283.4,337.7c-19.2,16.1-269.2-354-289-337.4
				c-21.3,17.9,309.4,325.2,287.9,343.2c-17.9,15-272-359.1-291.5-342.7C441.9,34,776.7,349,757.6,365
				C736.7,382.6,476.5-0.5,458.8,14.3C439.5,30.4,778,352.6,757.2,370.1c-20.6,17.3-284.7-374.7-305.8-357
				c-22.6,19,326.5,347.3,305.9,364.6C738,393.9,466.5-0.9,446.8,15.6c-23.9,20,330.4,351,309.3,368.6
				C734.2,402.6,458.3-2.6,437.6,14.8c-24.5,20.5,340.7,362.5,319.2,380.4C735.4,413.2,449.4-2,430.1,14.3
				c-22.2,18.6,352.5,369.3,327.5,390.3C737.7,421.2,445.3-4.5,422.1,15c-22.7,19,358.6,380.1,335.3,399.6
				C734.4,434,436.6-2.1,416,15.2C390,36.9,782.2,400.2,756.9,421.5C732.5,441.9,430.1-3.6,407.2,15.6
				C381.9,36.9,780.8,413,757.3,432.8C734.5,451.9,421.9-6,398,14.1c-23.3,19.5,385.5,404.9,358.7,427.4
				C732,462.2,416.5-3.2,394.4,15.4c-25.3,21.2,389,412,363.6,433.3C734.3,468.6,408.1-5.5,385.5,13.4
				C357.7,36.8,780.3,434,755.7,454.6C730,476.2,407-6.2,381.4,15.3c-28,23.5,396.9,416.5,369.1,439.9
				C724.6,476.8,399.2-4,376.9,14.7c-26,21.8,394.1,420.8,370,441C724.4,474.7,397.1-8.8,370.5,13.5c-25,21,397.1,422.2,372,443.3
				c-26,21.8-352.7-463.7-376.9-443.4c-25.2,21.2,400.3,420,372.2,443.6C715.3,475.8,385.6-6.4,360.2,14.9
				c-27.9,23.4,394,419.7,369.5,440.3C703.2,477.4,379.5-4.9,355,15.6c-23.9,20.1,397.4,419.9,371,442.1
				C699.8,479.7,368.9-6.5,345.6,13c-23.7,19.9,400.2,421.4,372.9,444.3C692.7,479,362.7-5.1,338.5,15.3
				c-26.9,22.6,395.2,422.5,371.3,442.5C686.9,477,355.3-7.7,329.8,13.6C301.7,37.2,727,437.6,702.7,458
				C678.4,478.4,349.3-7.7,323.1,14.2c-23.7,19.8,397.6,421.2,371.7,443c-25.6,21.5-353-461.3-375.4-442.5
				C293,36.8,718.8,433.6,690.7,457.1C664.6,479,335.3-5.6,311.8,14.2c-26.3,22.1,394.5,420.6,370.1,441
				C656.5,476.4,332.5-5.7,307.9,15c-27.9,23.4,395.1,421.9,371,442.1C652.6,479.1,325-4.1,302.4,14.8
				c-28.3,23.7,399.3,418.7,371.1,442.3c-25.1,21.1-355.7-461.9-379.5-442c-27.4,23,394.7,420.2,370,440.9
				C638,477.9,310.1-4,287.3,15.2c-25,21,397.2,419,370.4,441.4c-24.5,20.5-356-462.8-380-442.7c-24.9,20.9,395.1,422.2,371.1,442.3
				C623,477.8,297.2-5.7,272.2,15.3c-26.7,22.4,397,418.3,370,440.9c-22.6,19-350.5-463.6-375.7-442.5
				c-27.4,23,399.2,420.4,372,443.3C615,476.6,282.4-5.2,259.9,13.6C234.5,35,654.8,434.8,630.5,455.2
				C607.6,474.4,277.4-5.9,253.7,14c-24.3,20.4,398.3,422.4,372.6,444C602.4,478,269.9-5.5,246.6,14
				c-26.7,22.4,396.1,422.6,371.8,443.1C591.6,479.6,265.5-8,239.8,13.6c-26.2,22,398.1,419.8,371.2,442.4
				C584.9,477.8,258-4.8,234.6,14.8c-24.6,20.6,397,421.8,371.7,443c-23.8,20-355.1-463.3-377.7-444.4
				c-24.7,20.7,395.9,423.3,372,443.4C576.5,477.1,246-5.5,223.3,13.6C197,35.7,621.6,431.8,593.8,455.2
				C567.8,476.9,243.5-4.3,220,15.4C196,35.5,616.1,433,589.3,455.5C562.9,477.6,235.4-6.2,211.1,14.2
				c-27.6,23.1,397.2,419.2,370.6,441.6c-26.2,22-355.2-460.2-378.2-441c-24.7,20.7,396.1,421.5,371.2,442.4
				c-23.3,19.6-353-462.8-378.4-441.5c-24.8,20.9,398.2,419.3,371,442.2C542.8,478.4,211.7-5.3,187.1,15.3
				c-23.8,20,396.3,419.1,370.1,441.1C534.9,475,207.6-7.9,181,14.4c-27.2,22.8,396.4,421.1,371.1,442.3
				C526.9,477.9,200.2-8.2,173.5,14.2c-24,20.1,394.4,422,370.7,441.8C518.6,477.6,196-6.4,170.1,15.4
				c-24.9,20.9,393.2,420.2,369.4,440.2C516.6,474.7,185.5-7.4,161.2,13c-24.4,20.5,397.3,424.2,373,444.6
				C511.6,476.6,181.7-7.3,157,13.5c-25.5,21.4,395,422.8,371.4,442.6C505.4,475.4,177.2-6.3,151.8,15.1
				c-26,21.9,397,421.6,371.6,442.8C498,479.2,169-7,144,14.1c-27.2,22.8,400.5,420.4,372.5,443.9c-25.2,21.1-357.5-464.5-381-444.7
				c-26,21.8,397,422.8,372.2,443.6C484,476.7,151.2-4.9,127.7,14.8C104,34.7,525.4,435.2,499,457.3C473.9,478.4,142.8-3.6,120,15.5
				C95.6,36,517,434.8,490.5,457.1C464.3,479.1,137.8-3.4,115.2,15.5c-25.7,21.6,393,420.4,369.4,440.2
				C460.5,476,133.1-3.9,110.1,15.4c-27.4,23,394.4,421,370.3,441.3C454.9,478,128.4-5.4,103.1,15.8
				C75.2,39.3,497,434.9,472.2,455.7C445.7,477.9,120.7-4.6,97.8,14.6C69.9,38,494.9,435.5,469.1,457C444.7,477.6,113.5-4,90.1,15.6
				C65.4,36.3,486.6,432.1,459,455.3C435.7,474.8,105.7-4.4,82.4,15.2c-23.8,20,397.5,418.5,370.3,441.3
				C427.6,477.5,98.9-8.3,72.8,13.6C45.6,36.4,467.2,435.7,443.6,455.5C420.3,475,94-5.8,68.5,15.6
				c-25.8,21.7,394.7,420,369.9,440.8C415.4,475.6,85.5-7.5,59.5,14.4C32.3,37.2,455.3,433.5,429.4,455.3
				C406.8,474.2,77-6.4,53.6,13.2c-25.5,21.4,395.9,423.3,372,443.3C401.3,476.9,70.7-6.3,46.6,13.9
				C20.7,35.6,444.7,435.6,418.8,457.4C396.1,476.4,62.4-6.3,38.5,13.7C14.3,34.1,433,435.5,409.2,455.5C386,475,58.1-6.1,33,14.9
				C9.4,34.7,431.3,435.5,404.7,457.8C380,478.5,54.2-8.4,27.7,13.9c-26.8,22.5,400.2,420.9,372.6,444
				C376.7,477.7,44.6-4.9,20.3,15.6C-4.4,36.2,413.7,436.4,390.1,456.3C364.9,477.4,38.3-3.7,15.1,15.7
				C-11,37.7,408.5,436.4,384.8,456.3C361.6,475.7,37.2,2.6,13.5,22.5c-25.4,21.3,390.7,411.8,364.2,434
				C356,474.7,36.8,10.6,13.8,29.9c-24.4,20.5,384,405.9,358.5,427.3C348.4,477.2,36.4,19.5,14.3,38
				C-8.7,57.4,390.5,434.5,365,455.9C340.7,476.3,37.4,24.7,14.1,44.2C-9.5,64,384.9,437.6,361,457.6C337.7,477.2,34.7,31.3,13.7,49
				c-25.5,21.4,367.1,388.3,342.9,408.7C332.7,477.7,36.3,39.4,14.4,57.8C-9.7,78,372.9,438.7,350.1,457.8
				c-23,19.3-313-411.5-334.7-393.2C-9.3,85.3,368.4,437.8,345,457.5C322.8,476.1,37.3,48.5,14,68
				c-24.1,20.3,349.7,370.8,327.1,389.8C320.3,475.3,34.4,58.2,13.7,75.5c-20.5,17.2,342.4,363.6,320.5,382
				C311.9,476.2,35.7,67.9,14,86.1C-7.4,104,345.2,439.3,324.8,456.4C306.4,471.9,33.3,79.8,14.4,95.7
				c-21.3,17.8,325.7,342.7,303.3,361.5C299.3,472.5,35,87.8,14.1,105.3c-19.1,16.1,315.5,336,295.8,352.5
				c-19,15.9-276.1-360-294.8-344.3c-21.5,18,309.6,326.8,288.8,344.2c-17.4,14.6-269.1-354-289.4-337
				c-18.5,15.5,298.9,318.9,280.5,334.3C277.6,469.9,30.1,110.2,12.9,124.6c-20.3,17,296.9,315.2,277.9,331.1
				C272.1,471.4,33.4,114.3,14,130.7c-18.2,15.2,291,310,272.9,325.2C269,470.8,31.1,120.5,12.9,135.8
				c-17.8,15,289.4,304.8,269.6,321.4c-18.3,15.3-249.8-326-267.7-311c-18.6,15.6,277.8,293.8,259.5,309.2
				C257.3,469.5,31.6,143.2,15.2,157c-16.6,13.9,269.1,286.9,252.4,300.8C250.4,472.3,30.9,150.3,13.2,165.1
				c-17.6,14.8,260.4,277.8,244.4,291.2C242.4,469.1,29.3,163.2,14.9,175.3c-18.4,15.4,253,266.9,236,281.2
				C235.4,469.5,28.7,172.2,14.5,184.2c-15.6,13.1,247,258.3,229.3,273.2C228.2,470.5,30.3,178,14.9,191
				c-17.2,14.5,238.3,250.9,222,264.6C223.6,466.6,30.5,184.8,15.2,197.7c-14.8,12.4,233.4,246.9,218,259.8
				C220,468.5,27.8,191.5,14,203.2C-1.3,216,240.8,442.5,225.5,455.3C211.4,467.2,28.1,202.4,14.7,213.7
				c-14.4,12.1,219.9,229.5,203.9,243c-13.8,11.5-192-244.8-204.8-234c-15.3,12.8,210.6,222.1,196.4,234
				c-11.8,9.9-182.5-237.9-195.1-227.3C0.6,241.5,218,444.3,204.7,455.4C192.1,466,26.3,223.5,13.9,233.8
				C0.7,244.9,213.5,445.4,200.6,456.2c-11.9,9.9-175.2-227.4-186.6-217.7C0.2,250,210.3,444.3,196.4,456
				c-12.1,10.1-171.2-223.2-183.3-213C-1.2,254.9,205.3,447,193,457.4c-12.2,10.2-169.3-216.9-179.9-208
				C0.7,259.8,199.3,445.3,186.6,456C175,465.7,27,251.2,15.3,261.1C3.2,271.2,191.6,444.8,178.6,455.7
				C168,464.7,25.9,257.3,15.2,266.3C2.7,276.7,187.6,445.2,174.5,456.2c-10.1,8.5-151.7-193.5-161.4-185.3
				C1.4,280.6,180,446.8,168.7,456.3c-10,8.4-145.2-185.8-154.5-178C2.3,288.3,176,447.8,164.5,457.4
				C155.4,465.1,23.7,276.3,13.3,285c-10.3,8.6,155.4,163.8,144.8,172.6C149,465.2,24,287.2,14,295.5
				C4.2,303.8,160.9,449.1,150.3,458c-8.6,7.2-128.9-163.8-137.3-156.7c-10.9,9.2,140.3,145.1,129.4,154.2
				C134.5,462.2,20.7,305.6,13,312c-8.7,7.3,130,137.1,121.2,144.5c-7.3,6.2-111.4-140.2-119.5-133.4
				c-8.5,7.1,121.7,126.3,112.5,134.1c-7.7,6.5-106.4-133.3-114-126.9c-8.6,7.2,114.4,120.4,106.6,127
				c-6.3,5.3-98-120.1-104.8-114.4c-7.4,6.2,103.5,107.2,95.5,113.9c-5.9,5-88.7-111.9-95.2-106.5c-7.5,6.3,96.1,100,89,106
				c-5.6,4.7-83.6-101.7-89.7-96.6c-7.3,6.1,88.9,91.6,81.8,97.5c-5,4.2-77.7-97.6-83.2-93c-6.6,5.6,84.2,85.7,77,91.7
				c-4.3,3.6-70.7-83.2-75.5-79.1c-6.2,5.2,73.9,75,67.5,80.4c-4.5,3.8-64.4-79.5-68.7-75.9c-5.9,5,69.1,70.7,63.4,75.5
				c-3.5,3-58.4-66.5-62.2-63.3c-4.6,3.9,59.3,59.7,53.9,64.2c-3.6,3-50.9-60.2-54.5-57.2c-4.9,4.1,52.2,52.2,47.3,56.3
				c-2.7,2.3-44.1-47.8-46.9-45.4c-4.3,3.6,42.9,43.4,39.1,46.6c-2.3,1.9-36.7-39.9-39.1-37.9c-3.5,2.9,35,34.3,31.4,37.4
				c-1.9,1.6-29.6-33.7-31.7-32c-3.2,2.7,30.4,29.9,27.3,32.5c-1.6,1.3-26.2-28.4-27.8-27.2c-2.7,2.3,25.4,23.8,22.2,26.5
				c-1.2,1-20.4-16.2-21.4-15.4c-2.6,2.2,15.2,13,12.7,15.1c-0.6,0.5-11-8.4-11.6-7.9c-2,1.6,7,4.2,4.9,5.9
				c-0.2,0.2-4.9-0.2-5.1-0.1c-1.7,1.4,2.4-0.9,0.5,0.6"/>
		</g>
	</g>
	<radialGradient id="SVGID_2_" cx="154.2347" cy="231.0701" r="87.5329" gradientUnits="userSpaceOnUse">
		<stop  offset="5.222240e-03" style="stop-color:#929497"/>
		<stop  offset="0.1523" style="stop-color:#AAACAE"/>
		<stop  offset="0.352" style="stop-color:#C4C6C8"/>
		<stop  offset="0.5574" style="stop-color:#D7D8DA"/>
		<stop  offset="0.7698" style="stop-color:#E2E3E4"/>
		<stop  offset="1" style="stop-color:#E6E7E8"/>
	</radialGradient>
	<ellipse fill="url(#SVGID_2_)" cx="187.5" cy="210.8" rx="14.9" ry="19"/>
	<g>
		<g>
			<path fill="#444444" d="M204.8,304.7c0.1,21.8,4.3,43.4,3.3,65.2c-0.1,3.2,4.9,3.2,5,0c1-21.8-3.2-43.4-3.3-65.2
				C209.7,301.5,204.7,301.5,204.8,304.7L204.8,304.7z"/>
		</g>
	</g>
	<g>
		<g>
			<path fill="#444444" d="M176.8,291.5c0.1,14,2.2,28.3,0.3,42.3c-1.9,13.9-8.8,26.4-12.3,39.9c-0.8,3.1,4,4.4,4.8,1.3
				c3.6-13.7,10.5-26.3,12.4-40.5c1.9-14.2-0.1-28.7-0.2-43C181.8,288.2,176.8,288.2,176.8,291.5L176.8,291.5z"/>
		</g>
	</g>
	
		<radialGradient id="SVGID_4_" cx="-262.1592" cy="-5112" r="27.5043" gradientTransform="matrix(1.3766 0.3292 -0.1818 0.76 -373.2772 4264.1748)" gradientUnits="userSpaceOnUse">
		<stop  offset="5.222240e-03" style="stop-color:#929497"/>
		<stop  offset="0.1523" style="stop-color:#AAACAE"/>
		<stop  offset="0.352" style="stop-color:#C4C6C8"/>
		<stop  offset="0.5574" style="stop-color:#D7D8DA"/>
		<stop  offset="0.7698" style="stop-color:#E2E3E4"/>
		<stop  offset="1" style="stop-color:#E6E7E8"/>
	</radialGradient>
	<path fill="url(#SVGID_4_)" d="M217.2,293c-0.6,2.5-4,3.8-7.5,3c-3.6-0.8-5.9-3.6-5.3-6.1c0.6-2.5,4-3.8,7.5-3
		S217.8,290.5,217.2,293z"/>
	
		<radialGradient id="SVGID_6_" cx="-1584.4626" cy="484.929" r="27.5031" gradientTransform="matrix(1.8589 0 0 0.7814 3141.656 0.3632)" gradientUnits="userSpaceOnUse">
		<stop  offset="5.222240e-03" style="stop-color:#929497"/>
		<stop  offset="0.1523" style="stop-color:#AAACAE"/>
		<stop  offset="0.352" style="stop-color:#C4C6C8"/>
		<stop  offset="0.5574" style="stop-color:#D7D8DA"/>
		<stop  offset="0.7698" style="stop-color:#E2E3E4"/>
		<stop  offset="1" style="stop-color:#E6E7E8"/>
	</radialGradient>
	<ellipse fill="url(#SVGID_6_)" cx="215.8" cy="374.3" rx="8.7" ry="4.7"/>
	
		<radialGradient id="SVGID_8_" cx="-1882.2051" cy="-2555.5259" r="27.5031" gradientTransform="matrix(1.7709 0.565 -0.2375 0.7444 2878.8574 3343.7153)" gradientUnits="userSpaceOnUse">
		<stop  offset="5.222240e-03" style="stop-color:#929497"/>
		<stop  offset="0.1523" style="stop-color:#AAACAE"/>
		<stop  offset="0.352" style="stop-color:#C4C6C8"/>
		<stop  offset="0.5574" style="stop-color:#D7D8DA"/>
		<stop  offset="0.7698" style="stop-color:#E2E3E4"/>
		<stop  offset="1" style="stop-color:#E6E7E8"/>
	</radialGradient>
	<path fill="url(#SVGID_8_)" d="M180.9,381.6c-0.8,2.4-5.1,3.3-9.7,1.8c-4.6-1.5-7.6-4.6-6.9-7.1c0.8-2.4,5.1-3.3,9.7-1.8
		C178.6,376,181.7,379.1,180.9,381.6z"/>
	<path fill="#FF931E" d="M185.9,235.4c0,0-18.1-1.8-14.3,24c4.2,28.2,9.3,54.5,20.5,55.6c2,0.2,8.2,0,9.9-1.9
		c7.7-8.9,10.8-39.3,10.9-52.2C213.1,236.5,209.1,233.6,185.9,235.4z"/>
	<text transform="matrix(0.9701 0 0 1 173.7432 412.6367)" font-family="'Helvetica'" font-size="15">Company A</text>
	<path fill="#B25E03" d="M258.7,229c0,0-18.1-1.8-14.3,24c4.2,28.2,9.3,54.5,20.5,55.6c2,0.2,8.2,0,9.9-1.9
		c7.7-8.9,10.8-39.3,10.9-52.2C285.9,230.2,281.9,227.2,258.7,229z"/>
	<path fill="#38B203" d="M342,229c0,0-18.1-1.8-14.3,24c4.2,28.2,9.3,54.5,20.5,55.6c2,0.2,8.2,0,9.9-1.9
		c7.7-8.9,10.8-39.3,10.9-52.2C369.2,230.2,365.2,227.2,342,229z"/>
	<path fill="#5199FF" d="M410.9,229c0,0-18.1-1.8-14.3,24c4.2,28.2,9.3,54.5,20.5,55.6c2,0.2,8.2,0,9.9-1.9
		c7.7-8.9,10.8-39.3,10.9-52.2C438.1,230.2,434.1,227.2,410.9,229z"/>
	<path fill="#A739B2" d="M480.7,229c0,0-18.1-1.8-14.3,24c4.2,28.2,9.3,54.5,20.5,55.6c2,0.2,8.2,0,9.9-1.9
		c7.7-8.9,10.8-39.3,10.9-52.2C507.9,230.2,503.9,227.2,480.7,229z"/>
	<path fill="#D19F68" d="M556.3,229c0,0-18.1-1.8-14.3,24c4.2,28.2,9.3,54.5,20.5,55.6c2,0.2,8.2,0,9.9-1.9
		c7.7-8.9,10.8-39.3,10.9-52.2C583.5,230.2,579.5,227.2,556.3,229z"/>
	<path fill="#AFE09A" d="M630.3,235.4c0,0-18.1-1.8-14.3,24c4.2,28.2,9.3,54.5,20.5,55.6c2,0.2,8.2,0,9.9-1.9
		c7.7-8.9,10.8-39.3,10.9-52.2C657.5,236.5,653.5,233.6,630.3,235.4z"/>
	<g>
		<g>
			<path fill="#3C3D3B" d="M271.6,303.3c2.4,19,6.3,37.7,11.8,56c0.9,3.1,5.7,1.8,4.8-1.3c-5.3-17.9-9.2-36.2-11.6-54.7
				C276.2,300.2,271.2,300.1,271.6,303.3L271.6,303.3z"/>
		</g>
	</g>
	<g>
		<g>
			<path fill="#3C3D3B" d="M254.6,302.4c0.7,22.4,0.2,44.9-1.7,67.2c-0.3,3.2,4.7,3.2,5,0c1.8-22.4,2.4-44.8,1.7-67.2
				C259.5,299.2,254.5,299.2,254.6,302.4L254.6,302.4z"/>
		</g>
	</g>
	<g>
		<g>
			<path fill="#3C3D3B" d="M285.7,254.7c4.5-10.2,7.2-20.9,7.9-32.1c0.2-3.2-4.8-3.2-5,0c-0.6,10.3-3,20.2-7.2,29.6
				C280.1,255.1,284.4,257.6,285.7,254.7L285.7,254.7z"/>
		</g>
	</g>
	<g>
		<g>
			<path fill="#3C3D3B" d="M244.8,260.4c-1.8-20.5-1.5-41,1.1-61.4c0.4-3.2-4.6-3.2-5,0c-2.5,20.4-2.9,40.9-1.1,61.4
				C240.1,263.5,245.1,263.6,244.8,260.4L244.8,260.4z"/>
		</g>
	</g>
	<g>
		<g>
			<path fill="#3C3D3B" d="M364.3,251.1c4.3,13.8,9.5,27.4,15.4,40.6c1.3,2.9,5.6,0.4,4.3-2.5c-5.7-12.8-10.7-26-14.9-39.4
				C368.2,246.7,363.4,248,364.3,251.1L364.3,251.1z"/>
		</g>
	</g>
	<g>
		<g>
			<path fill="#3C3D3B" d="M357,303.3c1.3,24.1,3.1,48.2,5.4,72.2c0.3,3.2,5.3,3.2,5,0c-2.3-24-4.1-48.1-5.4-72.2
				C361.8,300.1,356.8,300,357,303.3L357,303.3z"/>
		</g>
	</g>
	<g>
		<g>
			<path fill="#3C3D3B" d="M336.4,306.5c-6.7,19.7-12.2,39.7-16.6,60c-0.7,3.1,4.1,4.5,4.8,1.3c4.4-20.3,9.9-40.3,16.6-60
				C342.2,304.8,337.4,303.5,336.4,306.5L336.4,306.5z"/>
		</g>
	</g>
	<g>
		<g>
			<path fill="#3C3D3B" d="M326.2,254.1c-7.5,1.4-13.7,6.2-17.1,13c-0.7,1.5-0.1,3.1,1.5,3.7c8.5,2.9,14.7,12.6,24.7,9.1
				c3-1.1,1.7-5.9-1.3-4.8c-8,2.8-15-6.7-22-9.1c0.5,1.2,1,2.4,1.5,3.7c2.9-5.8,7.8-9.5,14.1-10.7
				C330.7,258.3,329.3,253.5,326.2,254.1L326.2,254.1z"/>
		</g>
	</g>
	<g>
		<g>
			<path fill="#3C3D3B" d="M426.3,304.6c9.7,19.8,18.2,40.1,25.5,60.8c1.1,3,5.9,1.7,4.8-1.3c-7.5-21.2-16.1-41.9-26-62
				C429.2,299.2,424.9,301.7,426.3,304.6L426.3,304.6z"/>
		</g>
	</g>
	<g>
		<g>
			<path fill="#3C3D3B" d="M407.6,304.9c0,24.1,0,48.2,0,72.3c0,3.2,5,3.2,5,0c0-24.1,0-48.2,0-72.3
				C412.6,301.7,407.6,301.7,407.6,304.9L407.6,304.9z"/>
		</g>
	</g>
	<g>
		<g>
			<path fill="#3C3D3B" d="M436.9,257.8c-0.2-6.1,0.6-12,2.5-17.8c1.7-5.1,5-9.7,6-15.1c0.6-3.3,0.3-6.9-1.6-9.8
				c-0.8-1.3-2-2.5-3.4-3.3c-1-0.5-4.7-1-5-1.9c-1.1-3-5.9-1.7-4.8,1.3c1.1,3,3,3.3,5.8,4.4c6.6,2.6,4.1,9.6,1.8,14.5
				c-4.1,8.9-6.6,17.7-6.3,27.6C432,261.1,437,261.1,436.9,257.8L436.9,257.8z"/>
		</g>
	</g>
	<g>
		<g>
			<path fill="#3C3D3B" d="M437.8,274.7c-0.3,0-0.6,0-0.8,0c-1.3,0-2.6,1.1-2.5,2.5c0.1,1.4,1.1,2.5,2.5,2.5c0.3,0,0.6,0,0.8,0
				c1.3,0,2.6-1.1,2.5-2.5C440.3,275.8,439.3,274.7,437.8,274.7L437.8,274.7z"/>
		</g>
	</g>
	<g>
		<g>
			<path fill="#3C3D3B" d="M507.8,252.4c16.7,5.7,16.7,26.3,16.2,40.8c-0.1,3.2,4.9,3.2,5,0c0.6-17.1-0.8-39-19.9-45.6
				C506.1,246.5,504.8,251.4,507.8,252.4L507.8,252.4z"/>
		</g>
	</g>
	<g>
		<g>
			<path fill="#3C3D3B" d="M463,257c0.4,21.9,0.2,43.7-0.7,65.5c-0.1,3.2,4.9,3.2,5,0c0.8-21.8,1.1-43.7,0.7-65.5
				C468,253.8,463,253.8,463,257L463,257z"/>
		</g>
	</g>
	<g>
		<g>
			<path fill="#3C3D3B" d="M493,308.5c11.8,13.3,20.6,28.7,25.9,45.7c1,3.1,5.8,1.8,4.8-1.3c-5.6-17.8-14.8-34-27.2-47.9
				C494.4,302.6,490.9,306.1,493,308.5L493,308.5z"/>
		</g>
	</g>
	<g>
		<g>
			<path fill="#3C3D3B" d="M484.4,308.3c-1.8,23.3-0.5,46.6,3.7,69.6c0.6,3.2,5.4,1.8,4.8-1.3c-4.1-22.5-5.3-45.4-3.5-68.3
				C489.7,305.1,484.7,305.1,484.4,308.3L484.4,308.3z"/>
		</g>
	</g>
	<g>
		<g>
			<path fill="#3C3D3B" d="M561.5,307.4c-0.4,18.2-1.4,36.4-2.8,54.6c-0.3,3.2,4.7,3.2,5,0c1.5-18.2,2.4-36.4,2.8-54.6
				C566.6,304.2,561.6,304.2,561.5,307.4L561.5,307.4z"/>
		</g>
	</g>
	<g>
		<g>
			<path fill="#3C3D3B" d="M572.4,300.6c8.6,20.6,15,42,19,63.9c0.6,3.2,5.4,1.8,4.8-1.3c-4-21.9-10.4-43.3-19-63.9
				C576,296.3,571.1,297.6,572.4,300.6L572.4,300.6z"/>
		</g>
	</g>
	<g>
		<g>
			<path fill="#3C3D3B" d="M579,252c15.8-13.9,22.8-35.6,18.4-56.1c-0.7-3.1-5.5-1.8-4.8,1.3c4,18.8-2.7,38.6-17.1,51.3
				C573.1,250.6,576.6,254.1,579,252L579,252z"/>
		</g>
	</g>
	<g>
		<g>
			<path fill="#3C3D3B" d="M540.4,257c0,16,0,31.9,0,47.9c0,3.2,5,3.2,5,0c0-16,0-31.9,0-47.9C545.4,253.8,540.4,253.8,540.4,257
				L540.4,257z"/>
		</g>
	</g>
	<g>
		<g>
			<path fill="#3C3D3B" d="M657.1,261.5c5.8-2.9,11.4-6.3,16.8-10c2.3-1.7,4.6-3.4,6.9-5.2c1.9-1.5,5-3.4,6.1-5.7
				c1.5-3.1-0.4-5.6-3.5-6.2c-6.4-1.1-13.8-0.1-20.2-0.1c-3.2,0-3.2,5,0,5c3.5,0,7,0,10.5,0c1.8,0,8.3-1,9.5,0.4
				c-0.2-0.8-0.4-1.6-0.6-2.4c-0.3,2.2-3.6,4.1-5.3,5.4c-2.6,2.1-5.3,4.1-8.1,6c-4.7,3.2-9.5,6-14.6,8.5
				C651.7,258.7,654.2,263,657.1,261.5L657.1,261.5z"/>
		</g>
	</g>
	<g>
		<g>
			<path fill="#3C3D3B" d="M613.7,256.1c-1.1,9.4-7.7,17.7-6.4,27.4c0.9,6.7,5.9,12.4,13,12.5c3.2,0,3.2-5,0-5
				c-9.7-0.1-8.5-12.1-6.4-18.4c1.9-5.6,4.2-10.7,4.9-16.5C619.1,252.9,614.1,253,613.7,256.1L613.7,256.1z"/>
		</g>
	</g>
	<g>
		<g>
			<path fill="#3C3D3B" d="M649.3,304.9c1.1,23,2.7,45.9,4.9,68.9c0.3,3.2,5.3,3.2,5,0c-2.1-22.9-3.7-45.9-4.9-68.9
				C654.1,301.7,649.1,301.7,649.3,304.9L649.3,304.9z"/>
		</g>
	</g>
	<g>
		<g>
			<path fill="#3C3D3B" d="M624.4,305.8c0,21,0,42,0,63c0,3.2,5,3.2,5,0c0-21,0-42,0-63C629.4,302.5,624.4,302.5,624.4,305.8
				L624.4,305.8z"/>
		</g>
	</g>
	<g>
		<g>
			<path fill="#3C3D3B" d="M203.8,250.6c5.4-7.1,5.4-15.9,6-24.5c0.7-10.7,4.2-19.8,12.4-26.9c2.4-2.1-1.1-5.6-3.5-3.5
				c-7.1,6.1-11.8,14.4-13.2,23.8c-1.4,9.6,0.3,20.4-6,28.6C197.6,250.7,201.9,253.1,203.8,250.6L203.8,250.6z"/>
		</g>
	</g>
	<g>
		<g>
			<path fill="#3C3D3B" d="M167.9,251.5c-0.5,3.8-0.7,7.4-0.2,11.2c0.4,3.2,5.4,3.2,5,0c-0.4-3.3-0.4-6.6,0.1-9.9
				C173.2,249.7,168.4,248.3,167.9,251.5L167.9,251.5z"/>
		</g>
	</g>
	
		<radialGradient id="SVGID_10_" cx="-245.6703" cy="257.4034" r="27.5031" gradientTransform="matrix(1.4153 0 0 0.7814 557.3576 0.3632)" gradientUnits="userSpaceOnUse">
		<stop  offset="5.222240e-03" style="stop-color:#929497"/>
		<stop  offset="0.1523" style="stop-color:#AAACAE"/>
		<stop  offset="0.352" style="stop-color:#C4C6C8"/>
		<stop  offset="0.5574" style="stop-color:#D7D8DA"/>
		<stop  offset="0.7698" style="stop-color:#E2E3E4"/>
		<stop  offset="1" style="stop-color:#E6E7E8"/>
	</radialGradient>
	<ellipse fill="url(#SVGID_10_)" cx="224.5" cy="196.5" rx="6.6" ry="4.7"/>
	
		<radialGradient id="SVGID_12_" cx="-134.4502" cy="377.6705" r="27.5031" gradientTransform="matrix(1.4153 0 0 0.7814 557.3576 0.3632)" gradientUnits="userSpaceOnUse">
		<stop  offset="5.222240e-03" style="stop-color:#929497"/>
		<stop  offset="0.1523" style="stop-color:#AAACAE"/>
		<stop  offset="0.352" style="stop-color:#C4C6C8"/>
		<stop  offset="0.5574" style="stop-color:#D7D8DA"/>
		<stop  offset="0.7698" style="stop-color:#E2E3E4"/>
		<stop  offset="1" style="stop-color:#E6E7E8"/>
	</radialGradient>
	<ellipse fill="url(#SVGID_12_)" cx="381.9" cy="290.5" rx="6.6" ry="4.7"/>
	
		<radialGradient id="SVGID_14_" cx="-223.8293" cy="484.8943" r="27.5031" gradientTransform="matrix(1.4153 0 0 0.7814 557.3576 0.3632)" gradientUnits="userSpaceOnUse">
		<stop  offset="5.222240e-03" style="stop-color:#929497"/>
		<stop  offset="0.1523" style="stop-color:#AAACAE"/>
		<stop  offset="0.352" style="stop-color:#C4C6C8"/>
		<stop  offset="0.5574" style="stop-color:#D7D8DA"/>
		<stop  offset="0.7698" style="stop-color:#E2E3E4"/>
		<stop  offset="1" style="stop-color:#E6E7E8"/>
	</radialGradient>
	<ellipse fill="url(#SVGID_14_)" cx="255.4" cy="374.3" rx="6.6" ry="4.7"/>
	
		<radialGradient id="SVGID_16_" cx="-201.2783" cy="469.2483" r="27.5031" gradientTransform="matrix(1.4153 0 0 0.7814 557.3576 0.3632)" gradientUnits="userSpaceOnUse">
		<stop  offset="5.222240e-03" style="stop-color:#929497"/>
		<stop  offset="0.1523" style="stop-color:#AAACAE"/>
		<stop  offset="0.352" style="stop-color:#C4C6C8"/>
		<stop  offset="0.5574" style="stop-color:#D7D8DA"/>
		<stop  offset="0.7698" style="stop-color:#E2E3E4"/>
		<stop  offset="1" style="stop-color:#E6E7E8"/>
	</radialGradient>
	<ellipse fill="url(#SVGID_16_)" cx="287.3" cy="362" rx="6.6" ry="4.7"/>
	
		<radialGradient id="SVGID_18_" cx="-173.0946" cy="478.9364" r="27.5031" gradientTransform="matrix(1.4153 0 0 0.7814 557.3576 0.3632)" gradientUnits="userSpaceOnUse">
		<stop  offset="5.222240e-03" style="stop-color:#929497"/>
		<stop  offset="0.1523" style="stop-color:#AAACAE"/>
		<stop  offset="0.352" style="stop-color:#C4C6C8"/>
		<stop  offset="0.5574" style="stop-color:#D7D8DA"/>
		<stop  offset="0.7698" style="stop-color:#E2E3E4"/>
		<stop  offset="1" style="stop-color:#E6E7E8"/>
	</radialGradient>
	<ellipse fill="url(#SVGID_18_)" cx="327.2" cy="369.6" rx="6.6" ry="4.7"/>
	
		<radialGradient id="SVGID_20_" cx="-146.446" cy="492.4157" r="27.5031" gradientTransform="matrix(1.4153 0 0 0.7814 557.3576 0.3632)" gradientUnits="userSpaceOnUse">
		<stop  offset="5.222240e-03" style="stop-color:#929497"/>
		<stop  offset="0.1523" style="stop-color:#AAACAE"/>
		<stop  offset="0.352" style="stop-color:#C4C6C8"/>
		<stop  offset="0.5574" style="stop-color:#D7D8DA"/>
		<stop  offset="0.7698" style="stop-color:#E2E3E4"/>
		<stop  offset="1" style="stop-color:#E6E7E8"/>
	</radialGradient>
	<ellipse fill="url(#SVGID_20_)" cx="364.9" cy="380.2" rx="6.6" ry="4.7"/>
	
		<radialGradient id="SVGID_22_" cx="-114.4944" cy="490.8874" r="27.5031" gradientTransform="matrix(1.4153 0 0 0.7814 557.3576 0.3632)" gradientUnits="userSpaceOnUse">
		<stop  offset="5.222240e-03" style="stop-color:#929497"/>
		<stop  offset="0.1523" style="stop-color:#AAACAE"/>
		<stop  offset="0.352" style="stop-color:#C4C6C8"/>
		<stop  offset="0.5574" style="stop-color:#D7D8DA"/>
		<stop  offset="0.7698" style="stop-color:#E2E3E4"/>
		<stop  offset="1" style="stop-color:#E6E7E8"/>
	</radialGradient>
	<ellipse fill="url(#SVGID_22_)" cx="410.1" cy="379" rx="6.6" ry="4.7"/>
	
		<radialGradient id="SVGID_24_" cx="-78.6714" cy="471.5103" r="27.5031" gradientTransform="matrix(1.4153 0 0 0.7814 557.3576 0.3632)" gradientUnits="userSpaceOnUse">
		<stop  offset="5.222240e-03" style="stop-color:#929497"/>
		<stop  offset="0.1523" style="stop-color:#AAACAE"/>
		<stop  offset="0.352" style="stop-color:#C4C6C8"/>
		<stop  offset="0.5574" style="stop-color:#D7D8DA"/>
		<stop  offset="0.7698" style="stop-color:#E2E3E4"/>
		<stop  offset="1" style="stop-color:#E6E7E8"/>
	</radialGradient>
	<ellipse fill="url(#SVGID_24_)" cx="460.8" cy="363.8" rx="6.6" ry="4.7"/>
	
		<radialGradient id="SVGID_26_" cx="-101.5246" cy="275.5908" r="27.5031" gradientTransform="matrix(1.4153 0 0 0.7814 557.3576 0.3632)" gradientUnits="userSpaceOnUse">
		<stop  offset="5.222240e-03" style="stop-color:#929497"/>
		<stop  offset="0.1523" style="stop-color:#AAACAE"/>
		<stop  offset="0.352" style="stop-color:#C4C6C8"/>
		<stop  offset="0.5574" style="stop-color:#D7D8DA"/>
		<stop  offset="0.7698" style="stop-color:#E2E3E4"/>
		<stop  offset="1" style="stop-color:#E6E7E8"/>
	</radialGradient>
	<ellipse fill="url(#SVGID_26_)" cx="428.5" cy="210.7" rx="6.6" ry="4.7"/>
	
		<radialGradient id="SVGID_28_" cx="-231.9532" cy="257.4034" r="27.5031" gradientTransform="matrix(1.4153 0 0 0.7814 557.3576 0.3632)" gradientUnits="userSpaceOnUse">
		<stop  offset="5.222240e-03" style="stop-color:#929497"/>
		<stop  offset="0.1523" style="stop-color:#AAACAE"/>
		<stop  offset="0.352" style="stop-color:#C4C6C8"/>
		<stop  offset="0.5574" style="stop-color:#D7D8DA"/>
		<stop  offset="0.7698" style="stop-color:#E2E3E4"/>
		<stop  offset="1" style="stop-color:#E6E7E8"/>
	</radialGradient>
	<ellipse fill="url(#SVGID_28_)" cx="243.9" cy="196.5" rx="6.6" ry="4.7"/>
	
		<radialGradient id="SVGID_30_" cx="-198.618" cy="284.1683" r="27.5031" gradientTransform="matrix(1.4153 0 0 0.7814 557.3576 0.3632)" gradientUnits="userSpaceOnUse">
		<stop  offset="5.222240e-03" style="stop-color:#929497"/>
		<stop  offset="0.1523" style="stop-color:#AAACAE"/>
		<stop  offset="0.352" style="stop-color:#C4C6C8"/>
		<stop  offset="0.5574" style="stop-color:#D7D8DA"/>
		<stop  offset="0.7698" style="stop-color:#E2E3E4"/>
		<stop  offset="1" style="stop-color:#E6E7E8"/>
	</radialGradient>
	<ellipse fill="url(#SVGID_30_)" cx="291.1" cy="217.4" rx="6.6" ry="4.7"/>
	
		<radialGradient id="SVGID_32_" cx="64.8272" cy="306.5663" r="27.5031" gradientTransform="matrix(1.4153 0 0 0.7814 557.3576 0.3632)" gradientUnits="userSpaceOnUse">
		<stop  offset="5.222240e-03" style="stop-color:#929497"/>
		<stop  offset="0.1523" style="stop-color:#AAACAE"/>
		<stop  offset="0.352" style="stop-color:#C4C6C8"/>
		<stop  offset="0.5574" style="stop-color:#D7D8DA"/>
		<stop  offset="0.7698" style="stop-color:#E2E3E4"/>
		<stop  offset="1" style="stop-color:#E6E7E8"/>
	</radialGradient>
	<ellipse fill="url(#SVGID_32_)" cx="663.9" cy="234.9" rx="6.6" ry="4.7"/>
	
		<radialGradient id="SVGID_33_" cx="60.1564" cy="488.6281" r="27.5031" gradientTransform="matrix(1.4153 0 0 0.7814 557.3576 0.3632)" gradientUnits="userSpaceOnUse">
		<stop  offset="5.222240e-03" style="stop-color:#929497"/>
		<stop  offset="0.1523" style="stop-color:#AAACAE"/>
		<stop  offset="0.352" style="stop-color:#C4C6C8"/>
		<stop  offset="0.5574" style="stop-color:#D7D8DA"/>
		<stop  offset="0.7698" style="stop-color:#E2E3E4"/>
		<stop  offset="1" style="stop-color:#E6E7E8"/>
	</radialGradient>
	<ellipse fill="url(#SVGID_33_)" cx="657.3" cy="377.2" rx="6.6" ry="4.7"/>
	
		<radialGradient id="SVGID_34_" cx="38.6934" cy="480.5001" r="27.5031" gradientTransform="matrix(1.4153 0 0 0.7814 557.3576 0.3632)" gradientUnits="userSpaceOnUse">
		<stop  offset="5.222240e-03" style="stop-color:#929497"/>
		<stop  offset="0.1523" style="stop-color:#AAACAE"/>
		<stop  offset="0.352" style="stop-color:#C4C6C8"/>
		<stop  offset="0.5574" style="stop-color:#D7D8DA"/>
		<stop  offset="0.7698" style="stop-color:#E2E3E4"/>
		<stop  offset="1" style="stop-color:#E6E7E8"/>
	</radialGradient>
	<ellipse fill="url(#SVGID_34_)" cx="626.9" cy="370.8" rx="6.6" ry="4.7"/>
	
		<radialGradient id="SVGID_35_" cx="17.0631" cy="475.8099" r="27.5031" gradientTransform="matrix(1.4153 0 0 0.7814 557.3576 0.3632)" gradientUnits="userSpaceOnUse">
		<stop  offset="5.222240e-03" style="stop-color:#929497"/>
		<stop  offset="0.1523" style="stop-color:#AAACAE"/>
		<stop  offset="0.352" style="stop-color:#C4C6C8"/>
		<stop  offset="0.5574" style="stop-color:#D7D8DA"/>
		<stop  offset="0.7698" style="stop-color:#E2E3E4"/>
		<stop  offset="1" style="stop-color:#E6E7E8"/>
	</radialGradient>
	<ellipse fill="url(#SVGID_35_)" cx="596.3" cy="367.2" rx="6.6" ry="4.7"/>
	
		<radialGradient id="SVGID_36_" cx="-7.766" cy="469.2483" r="27.5031" gradientTransform="matrix(1.4153 0 0 0.7814 557.3576 0.3632)" gradientUnits="userSpaceOnUse">
		<stop  offset="5.222240e-03" style="stop-color:#929497"/>
		<stop  offset="0.1523" style="stop-color:#AAACAE"/>
		<stop  offset="0.352" style="stop-color:#C4C6C8"/>
		<stop  offset="0.5574" style="stop-color:#D7D8DA"/>
		<stop  offset="0.7698" style="stop-color:#E2E3E4"/>
		<stop  offset="1" style="stop-color:#E6E7E8"/>
	</radialGradient>
	<ellipse fill="url(#SVGID_36_)" cx="561.2" cy="362" rx="6.6" ry="4.7"/>
	
		<radialGradient id="SVGID_37_" cx="15.2634" cy="251.4455" r="27.5031" gradientTransform="matrix(1.4153 0 0 0.7814 557.3576 0.3632)" gradientUnits="userSpaceOnUse">
		<stop  offset="5.222240e-03" style="stop-color:#929497"/>
		<stop  offset="0.1523" style="stop-color:#AAACAE"/>
		<stop  offset="0.352" style="stop-color:#C4C6C8"/>
		<stop  offset="0.5574" style="stop-color:#D7D8DA"/>
		<stop  offset="0.7698" style="stop-color:#E2E3E4"/>
		<stop  offset="1" style="stop-color:#E6E7E8"/>
	</radialGradient>
	<ellipse fill="url(#SVGID_37_)" cx="593.8" cy="191.9" rx="6.6" ry="4.7"/>
	
		<radialGradient id="SVGID_38_" cx="-20.6827" cy="402.0994" r="27.5031" gradientTransform="matrix(1.4153 0 0 0.7814 557.3576 0.3632)" gradientUnits="userSpaceOnUse">
		<stop  offset="5.222240e-03" style="stop-color:#929497"/>
		<stop  offset="0.1523" style="stop-color:#AAACAE"/>
		<stop  offset="0.352" style="stop-color:#C4C6C8"/>
		<stop  offset="0.5574" style="stop-color:#D7D8DA"/>
		<stop  offset="0.7698" style="stop-color:#E2E3E4"/>
		<stop  offset="1" style="stop-color:#E6E7E8"/>
	</radialGradient>
	<ellipse fill="url(#SVGID_38_)" cx="542.9" cy="309.6" rx="6.6" ry="4.7"/>
	
		<radialGradient id="SVGID_39_" cx="-32.109" cy="383.6284" r="27.5031" gradientTransform="matrix(1.4153 0 0 0.7814 557.3576 0.3632)" gradientUnits="userSpaceOnUse">
		<stop  offset="5.222240e-03" style="stop-color:#929497"/>
		<stop  offset="0.1523" style="stop-color:#AAACAE"/>
		<stop  offset="0.352" style="stop-color:#C4C6C8"/>
		<stop  offset="0.5574" style="stop-color:#D7D8DA"/>
		<stop  offset="0.7698" style="stop-color:#E2E3E4"/>
		<stop  offset="1" style="stop-color:#E6E7E8"/>
	</radialGradient>
	<ellipse fill="url(#SVGID_39_)" cx="526.7" cy="295.1" rx="6.6" ry="4.7"/>
	
		<radialGradient id="SVGID_40_" cx="-32.109" cy="458.3896" r="27.5031" gradientTransform="matrix(1.4153 0 0 0.7814 557.3576 0.3632)" gradientUnits="userSpaceOnUse">
		<stop  offset="5.222240e-03" style="stop-color:#929497"/>
		<stop  offset="0.1523" style="stop-color:#AAACAE"/>
		<stop  offset="0.352" style="stop-color:#C4C6C8"/>
		<stop  offset="0.5574" style="stop-color:#D7D8DA"/>
		<stop  offset="0.7698" style="stop-color:#E2E3E4"/>
		<stop  offset="1" style="stop-color:#E6E7E8"/>
	</radialGradient>
	<ellipse fill="url(#SVGID_40_)" cx="526.7" cy="353.6" rx="6.6" ry="4.7"/>
	
		<radialGradient id="SVGID_41_" cx="-54.6579" cy="486.4579" r="27.5031" gradientTransform="matrix(1.4153 0 0 0.7814 557.3576 0.3632)" gradientUnits="userSpaceOnUse">
		<stop  offset="5.222240e-03" style="stop-color:#929497"/>
		<stop  offset="0.1523" style="stop-color:#AAACAE"/>
		<stop  offset="0.352" style="stop-color:#C4C6C8"/>
		<stop  offset="0.5574" style="stop-color:#D7D8DA"/>
		<stop  offset="0.7698" style="stop-color:#E2E3E4"/>
		<stop  offset="1" style="stop-color:#E6E7E8"/>
	</radialGradient>
	<ellipse fill="url(#SVGID_41_)" cx="494.8" cy="375.5" rx="6.6" ry="4.7"/>
	
		<radialGradient id="SVGID_42_" cx="-75.8219" cy="418.7311" r="27.5031" gradientTransform="matrix(1.4153 0 0 0.7814 557.3576 0.3632)" gradientUnits="userSpaceOnUse">
		<stop  offset="5.222240e-03" style="stop-color:#929497"/>
		<stop  offset="0.1523" style="stop-color:#AAACAE"/>
		<stop  offset="0.352" style="stop-color:#C4C6C8"/>
		<stop  offset="0.5574" style="stop-color:#D7D8DA"/>
		<stop  offset="0.7698" style="stop-color:#E2E3E4"/>
		<stop  offset="1" style="stop-color:#E6E7E8"/>
	</radialGradient>
	<ellipse fill="url(#SVGID_42_)" cx="464.9" cy="322.6" rx="6.6" ry="4.7"/>
	
		<radialGradient id="SVGID_43_" cx="-91.0497" cy="361.915" r="27.5031" gradientTransform="matrix(1.4153 0 0 0.7814 557.3576 0.3632)" gradientUnits="userSpaceOnUse">
		<stop  offset="5.222240e-03" style="stop-color:#929497"/>
		<stop  offset="0.1523" style="stop-color:#AAACAE"/>
		<stop  offset="0.352" style="stop-color:#C4C6C8"/>
		<stop  offset="0.5574" style="stop-color:#D7D8DA"/>
		<stop  offset="0.7698" style="stop-color:#E2E3E4"/>
		<stop  offset="1" style="stop-color:#E6E7E8"/>
	</radialGradient>
	<ellipse fill="url(#SVGID_43_)" cx="443.3" cy="278.2" rx="6.6" ry="4.7"/>
	
		<radialGradient id="SVGID_44_" cx="-164.8893" cy="360.6526" r="27.5031" gradientTransform="matrix(1.4153 0 0 0.7814 557.3576 0.3632)" gradientUnits="userSpaceOnUse">
		<stop  offset="5.222240e-03" style="stop-color:#929497"/>
		<stop  offset="0.1523" style="stop-color:#AAACAE"/>
		<stop  offset="0.352" style="stop-color:#C4C6C8"/>
		<stop  offset="0.5574" style="stop-color:#D7D8DA"/>
		<stop  offset="0.7698" style="stop-color:#E2E3E4"/>
		<stop  offset="1" style="stop-color:#E6E7E8"/>
	</radialGradient>
	<ellipse fill="url(#SVGID_44_)" cx="338.8" cy="277.2" rx="6.6" ry="4.7"/>
	<radialGradient id="SVGID_45_" cx="603.0679" cy="231.0701" r="87.5329" gradientUnits="userSpaceOnUse">
		<stop  offset="5.222240e-03" style="stop-color:#929497"/>
		<stop  offset="0.1523" style="stop-color:#AAACAE"/>
		<stop  offset="0.352" style="stop-color:#C4C6C8"/>
		<stop  offset="0.5574" style="stop-color:#D7D8DA"/>
		<stop  offset="0.7698" style="stop-color:#E2E3E4"/>
		<stop  offset="1" style="stop-color:#E6E7E8"/>
	</radialGradient>
	<ellipse fill="url(#SVGID_45_)" cx="636.4" cy="210.8" rx="14.9" ry="19"/>
	<radialGradient id="SVGID_46_" cx="529.1183" cy="221.4668" r="87.5329" gradientUnits="userSpaceOnUse">
		<stop  offset="5.222240e-03" style="stop-color:#929497"/>
		<stop  offset="0.1523" style="stop-color:#AAACAE"/>
		<stop  offset="0.352" style="stop-color:#C4C6C8"/>
		<stop  offset="0.5574" style="stop-color:#D7D8DA"/>
		<stop  offset="0.7698" style="stop-color:#E2E3E4"/>
		<stop  offset="1" style="stop-color:#E6E7E8"/>
	</radialGradient>
	<ellipse fill="url(#SVGID_46_)" cx="562.4" cy="201.2" rx="14.9" ry="19"/>
	<radialGradient id="SVGID_47_" cx="452.7855" cy="226.3676" r="87.5329" gradientUnits="userSpaceOnUse">
		<stop  offset="5.222240e-03" style="stop-color:#929497"/>
		<stop  offset="0.1523" style="stop-color:#AAACAE"/>
		<stop  offset="0.352" style="stop-color:#C4C6C8"/>
		<stop  offset="0.5574" style="stop-color:#D7D8DA"/>
		<stop  offset="0.7698" style="stop-color:#E2E3E4"/>
		<stop  offset="1" style="stop-color:#E6E7E8"/>
	</radialGradient>
	<ellipse fill="url(#SVGID_47_)" cx="486.1" cy="206.1" rx="14.9" ry="19"/>
	
		<radialGradient id="SVGID_48_" cx="379.9661" cy="226.3675" r="87.5329" gradientTransform="matrix(0.9794 0.2019 -0.2019 0.9794 50.1236 -79.2023)" gradientUnits="userSpaceOnUse">
		<stop  offset="5.222240e-03" style="stop-color:#929497"/>
		<stop  offset="0.1523" style="stop-color:#AAACAE"/>
		<stop  offset="0.352" style="stop-color:#C4C6C8"/>
		<stop  offset="0.5574" style="stop-color:#D7D8DA"/>
		<stop  offset="0.7698" style="stop-color:#E2E3E4"/>
		<stop  offset="1" style="stop-color:#E6E7E8"/>
	</radialGradient>
	<path fill="url(#SVGID_48_)" d="M427.8,209.1c-2.1,10.3-10.3,17.2-18.4,15.6c-8-1.7-12.8-11.3-10.7-21.6
		c2.1-10.3,10.3-17.2,18.4-15.6C425.1,189.2,429.9,198.8,427.8,209.1z"/>
	
		<radialGradient id="SVGID_49_" cx="314.8326" cy="226.3675" r="87.5329" gradientTransform="matrix(0.9913 -0.1313 0.1313 0.9913 -24.0416 47.4887)" gradientUnits="userSpaceOnUse">
		<stop  offset="5.222240e-03" style="stop-color:#929497"/>
		<stop  offset="0.1523" style="stop-color:#AAACAE"/>
		<stop  offset="0.352" style="stop-color:#C4C6C8"/>
		<stop  offset="0.5574" style="stop-color:#D7D8DA"/>
		<stop  offset="0.7698" style="stop-color:#E2E3E4"/>
		<stop  offset="1" style="stop-color:#E6E7E8"/>
	</radialGradient>
	<path fill="url(#SVGID_49_)" d="M362.9,204.1c1.4,10.4-4.1,19.7-12.2,20.7c-8.1,1.1-15.9-6.5-17.2-16.8
		c-1.4-10.4,4.1-19.7,12.2-20.7C353.8,186.2,361.5,193.7,362.9,204.1z"/>
	<radialGradient id="SVGID_50_" cx="231.5301" cy="226.3675" r="87.5329" gradientUnits="userSpaceOnUse">
		<stop  offset="5.222240e-03" style="stop-color:#929497"/>
		<stop  offset="0.1523" style="stop-color:#AAACAE"/>
		<stop  offset="0.352" style="stop-color:#C4C6C8"/>
		<stop  offset="0.5574" style="stop-color:#D7D8DA"/>
		<stop  offset="0.7698" style="stop-color:#E2E3E4"/>
		<stop  offset="1" style="stop-color:#E6E7E8"/>
	</radialGradient>
	<ellipse fill="url(#SVGID_50_)" cx="264.8" cy="206.1" rx="14.9" ry="19"/>
	<rect x="256.4" y="26.8" fill="#FFFFFF" stroke="#818281" stroke-miterlimit="10" width="70.8" height="75.6"/>
	<rect x="443.3" y="26.8" fill="#FFFFFF" stroke="#818281" stroke-miterlimit="10" width="70.8" height="75.6"/>
	<rect x="348.4" y="26.8" fill="#FFFFFF" stroke="#818281" stroke-miterlimit="10" width="70.8" height="75.6"/>
	<text transform="matrix(1 0 0 1 270.6219 52.067)"><tspan x="0" y="0" font-family="'MyriadPro-Regular'" font-size="15">Github</tspan><tspan x="0" y="18" font-family="'MyriadPro-Regular'" font-size="15">repo 1</tspan><tspan x="0" y="36" font-family="'MyriadPro-Regular'" font-size="15">(origin)</tspan></text>
	<text transform="matrix(1 0 0 1 458.2402 52.067)"><tspan x="0" y="0" font-family="'MyriadPro-Regular'" font-size="15">Github</tspan><tspan x="0" y="18" font-family="'MyriadPro-Regular'" font-size="15">repo 3</tspan><tspan x="0" y="36" font-family="'MyriadPro-Regular'" font-size="15">(clone)</tspan></text>
	<text transform="matrix(1 0 0 1 358.958 52.067)"><tspan x="0" y="0" font-family="'MyriadPro-Regular'" font-size="15">Github</tspan><tspan x="0" y="18" font-family="'MyriadPro-Regular'" font-size="15">repo 2 </tspan><tspan x="0" y="36" font-family="'MyriadPro-Regular'" font-size="15">(clone)</tspan></text>
	<text transform="matrix(0.9701 0 0 1 301.5669 412.1959)" font-family="'Helvetica'" font-size="15">Company B</text>
	<text transform="matrix(0.9701 0 0 1 443.2988 410.5873)" font-family="'Helvetica'" font-size="15">Company C</text>
	<text transform="matrix(0.9701 0 0 1 583.3516 405.9646)" font-family="'Helvetica'" font-size="15">Company D</text>
	<g>
		<g>
			<line fill="none" stroke="#818281" stroke-width="3" stroke-miterlimit="10" x1="331" y1="68.5" x2="340" y2="68.5"/>
			<g>
				<polygon fill="#818281" points="339,73.1 347,68.5 339,63.9 				"/>
			</g>
		</g>
	</g>
	<g>
		<g>
			<line fill="none" stroke="#818281" stroke-width="3" stroke-miterlimit="10" x1="423" y1="67.5" x2="432" y2="67.5"/>
			<g>
				<polygon fill="#818281" points="431,72.1 439,67.5 431,62.9 				"/>
			</g>
		</g>
	</g>
	<g>
		<g>
			<line fill="none" stroke="#818281" stroke-miterlimit="10" x1="209" y1="182.2" x2="211" y2="180"/>
			
				<line fill="none" stroke="#818281" stroke-miterlimit="10" stroke-dasharray="6.0133,6.0133" x1="215" y1="175.5" x2="260.8" y2="123.7"/>
			<line fill="none" stroke="#818281" stroke-miterlimit="10" x1="262.8" y1="121.5" x2="264.8" y2="119.2"/>
		</g>
	</g>
	<line fill="none" stroke="#818281" stroke-miterlimit="10" stroke-dasharray="6" x1="274.1" y1="182.2" x2="287.3" y2="119.2"/>
	<line fill="none" stroke="#818281" stroke-miterlimit="10" stroke-dasharray="6" x1="353" y1="182.2" x2="353.8" y2="111.6"/>
	<line fill="none" stroke="#818281" stroke-miterlimit="10" stroke-dasharray="6" x1="410.1" y1="178.6" x2="383.8" y2="111.6"/>
	<line fill="none" stroke="#818281" stroke-miterlimit="10" stroke-dasharray="6" x1="486.1" y1="178.6" x2="428.3" y2="111.6"/>
	<line fill="none" stroke="#818281" stroke-miterlimit="10" stroke-dasharray="6" x1="549.5" y1="178.6" x2="490.5" y2="111.6"/>
	<line fill="none" stroke="#818281" stroke-miterlimit="10" stroke-dasharray="6" x1="626.9" y1="187.3" x2="517.6" y2="111.6"/>
</g>
<g id="turning_x5F_point">
</g>
<g id="tbt">
</g>
<g id="milkyway">
</g>
<g id="bubbles">
</g>
<g id="_x31_2345">
</g>
</svg>
