<?xml version="1.0" encoding="utf-8"?>
<!-- Generator: Adobe Illustrator 18.1.1, SVG Export Plug-In . SVG Version: 6.00 Build 0)  -->
<svg version="1.1" xmlns="http://www.w3.org/2000/svg" xmlns:xlink="http://www.w3.org/1999/xlink" x="0px" y="0px"
	 viewBox="0 0 767 471" enable-background="new 0 0 767 471" xml:space="preserve">
<g id="separate">
</g>
<g id="code">
</g>
<g id="ux">
</g>
<g id="disruptive">
</g>
<g id="helpapi">
</g>
<g id="significant">
</g>
<g id="microsoft">
</g>
<g id="json">
</g>
<g id="github">
</g>
<g id="scalability">
</g>
<g id="performance">
</g>
<g id="skillset">
</g>
<g id="wastedtime">
</g>
<g id="legacy">
</g>
<g id="strategies">
</g>
<g id="pressure">
	<g opacity="0.8">
		<g>
			<path fill="none" stroke="#AADFF1" stroke-width="5" stroke-linecap="round" stroke-linejoin="round" d="M753.3,14.5
				c-1.8,1.5,3.2,0.4,1.5,1.8c-0.3,0.3-7.8-1.3-8.2-1c-2.2,1.8,11,8.6,8.8,10.4c-0.8,0.7-15.5-10.5-16.3-9.8
				c-2.5,2.1,18.9,17.4,16.4,19.5c-1.2,1-20.4-20.4-21.6-19.4c-3,2.5,22.7,21.4,19.9,23.7c-1.6,1.3-26.5-25-28-23.7
				c-3.8,3.1,32.5,31.2,28.8,34.3c-2.2,1.8-35.2-36.2-37.3-34.5c-4,3.4,42.1,41.5,37.8,45.1c-2.9,2.4-43.6-49.4-46.2-47.3
				c-4.4,3.7,51.1,51.1,46.3,55.2c-2.9,2.4-47-56.6-49.9-54.2c-4.9,4.1,55.6,56.2,50.7,60.4c-3.7,3.1-52.5-63.9-55.9-61.1
				c-5.1,4.3,59.2,60.8,54.4,64.8c-3.4,2.8-55.4-67.7-59-64.7c-5.3,4.4,63.9,66,58.9,70.2c-4.3,3.6-59.5-74.3-63.7-70.9
				c-5.6,4.7,69.4,71.6,63.9,76.2c-4.1,3.5-64.6-79.4-69.1-75.6c-5.9,5,76.3,77.7,69.8,83.2c-4.4,3.7-70.3-85.3-75.3-81.1
				c-6.4,5.3,81.1,82.5,74.1,88.3c-5.1,4.3-75.1-93.9-80.2-89.6c-6.4,5.4,88.2,91.9,81.7,97.4c-5.4,4.5-83.9-101.2-89.6-96.4
				c-7.8,6.5,96.2,99.1,88.6,105.6c-6,5-91.8-112.8-98.2-107.5c-8.4,7.1,105.6,109.6,97.6,116.4C748.2,135.2,655,9.3,648.7,14.5
				C639.8,22,764,134,755.2,141.4c-7,5.8-107.7-132.4-114.6-126.7c-9.1,7.6,122.7,127.9,113.7,135.5c-8.4,7-113.2-143.7-121.1-137.1
				C623,21.7,765.5,150.7,755.5,159.1c-8.7,7.3-122.1-151.3-129.8-144.8c-10.5,8.8,139.6,146.3,129.7,154.6
				c-9,7.6-129.9-160.6-137.9-153.9c-10.7,9,146.7,154.8,136.8,163.1c-9.7,8.1-131.8-171.2-141.2-163.4
				c-10.8,9,151,158.9,140.6,167.6C743.5,190.8,614.4,5.5,604.4,13.9C592.1,24.2,766,183.6,754.8,193.1
				c-9.4,7.9-148-188.3-158.5-179.5c-12.5,10.5,170.7,180.2,159.2,189.8C744.1,212.9,600.8,6.9,590.4,15.6
				c-12.8,10.7,177.3,184.9,164.3,195.8C743.4,221,593.6,3.9,582.6,13.1C570,23.7,768.4,209.5,756.1,219.9
				c-11.9,10-167.4-214.5-179.6-204.2c-13.7,11.5,193.2,201.2,178.9,213.2C743.1,239.2,579.8,4.3,568.6,13.8
				c-13.3,11.1,200.5,211.9,187.2,223.1c-13,10.9-177.9-230.8-189.5-221c-13.6,11.4,203.3,213.2,189,225.2
				C741.8,252.4,571.5,5.3,560,14.9c-15,12.6,208.7,218.4,193.8,230.9c-13,10.9-189-243.6-203-231.8
				c-16.1,13.5,217.8,231.7,204.1,243.2C741.3,268.6,560.3,3.5,546.6,15.1c-15.7,13.2,223.6,234.5,207.9,247.7
				C739.7,275.2,554.1,0.9,539.1,13.5C522.3,27.6,772,258,755.7,271.6c-15,12.6-208.4-269.3-221.5-258.3
				C517.8,27.1,771.4,260.6,754,275.3C738.6,288.2,542.3,3.6,528.8,14.9c-15.8,13.2,244.1,255,226.4,269.8
				C739.1,298.2,538.9,3.5,524.1,15.9c-18.3,15.3,247.5,262,231.3,275.6C741.3,303.4,532.6,2.3,516.5,15.8
				c-18,15.1,256.6,270,239,284.8C740.7,312.9,526.2,1.7,510.4,15c-17.8,14.9,264.5,276.3,245.3,292.4C738.5,321.8,521.6-1.7,504,13
				C485,29,770.2,296.7,753.7,310.6C736.5,325,513-0.1,496.5,13.8c-18.2,15.3,279.1,291.8,259,308.7
				C737.8,337.3,509.7,0.1,492.4,14.7c-17.8,15,282.4,296.9,262.9,313.3C738.6,342,503.9-1.4,484.9,14.5
				c-19.4,16.2,291.4,305.3,270.7,322.6C738.3,351.7,494.7,1.2,478.3,15c-20.8,17.4,294.8,314.8,276.8,329.9
				c-16.7,14-266.8-344.4-283.7-330.2c-21.5,18.1,305.1,319.5,283.4,337.7c-19.2,16.1-269.2-354-289-337.4
				c-21.3,17.9,309.4,325.2,287.9,343.2c-17.9,15-272-359.1-291.5-342.7C439.9,34,774.7,349,755.6,365
				C734.7,382.6,474.5-0.5,456.8,14.3C437.5,30.4,776,352.6,755.2,370.1c-20.6,17.3-284.7-374.7-305.8-357
				c-22.6,19,326.5,347.3,305.9,364.6C736,393.9,464.5-0.9,444.8,15.6c-23.9,20,330.4,351,309.3,368.6
				C732.2,402.6,456.3-2.6,435.6,14.8c-24.5,20.5,340.7,362.5,319.2,380.4C733.4,413.2,447.4-2,428.1,14.3
				c-22.2,18.6,352.5,369.3,327.5,390.3C735.7,421.2,443.3-4.5,420.1,15c-22.7,19,358.6,380.1,335.3,399.6
				C732.4,434,434.6-2.1,414,15.2C388,36.9,780.2,400.2,754.9,421.5C730.5,441.9,428.1-3.6,405.2,15.6
				C379.9,36.9,778.8,413,755.3,432.8C732.5,451.9,419.9-6,396,14.1c-23.3,19.5,385.5,404.9,358.7,427.4
				C730,462.2,414.5-3.2,392.4,15.4c-25.3,21.2,389,412,363.6,433.3C732.3,468.6,406.1-5.5,383.5,13.4
				C355.7,36.8,778.3,434,753.7,454.6C728,476.2,405-6.2,379.4,15.3c-28,23.5,396.9,416.5,369.1,439.9
				C722.6,476.8,397.2-4,374.9,14.7c-26,21.8,394.1,420.8,370,441C722.4,474.7,395.1-8.8,368.5,13.5c-25,21,397.1,422.2,372,443.3
				c-26,21.8-352.7-463.7-376.9-443.4c-25.2,21.2,400.3,420,372.2,443.6C713.3,475.8,383.6-6.4,358.2,14.9
				c-27.9,23.4,394,419.7,369.5,440.3C701.2,477.4,377.5-4.9,353,15.6c-23.9,20.1,397.4,419.9,371,442.1
				C697.8,479.7,366.9-6.5,343.6,13c-23.7,19.9,400.2,421.4,372.9,444.3C690.7,479,360.7-5.1,336.5,15.3
				c-26.9,22.6,395.2,422.5,371.3,442.5C684.9,477,353.3-7.7,327.8,13.6C299.7,37.2,725,437.6,700.7,458
				C676.4,478.4,347.3-7.7,321.1,14.2c-23.7,19.8,397.6,421.2,371.7,443c-25.6,21.5-353-461.3-375.4-442.5
				C291,36.8,716.8,433.6,688.7,457.1C662.6,479,333.3-5.6,309.8,14.2c-26.3,22.1,394.5,420.6,370.1,441
				C654.5,476.4,330.5-5.7,305.9,15c-27.9,23.4,395.1,421.9,371,442.1C650.6,479.1,323-4.1,300.4,14.8
				c-28.3,23.7,399.3,418.7,371.1,442.3c-25.1,21.1-355.7-461.9-379.5-442c-27.4,23,394.7,420.2,370,440.9
				C636,477.9,308.1-4,285.3,15.2c-25,21,397.2,419,370.4,441.4c-24.5,20.5-356-462.8-380-442.7c-24.9,20.9,395.1,422.2,371.1,442.3
				C621,477.8,295.2-5.7,270.2,15.3c-26.7,22.4,397,418.3,370,440.9c-22.6,19-350.5-463.6-375.7-442.5
				c-27.4,23,399.2,420.4,372,443.3C613,476.6,280.4-5.2,257.9,13.6C232.5,35,652.8,434.8,628.5,455.2
				C605.6,474.4,275.4-5.9,251.7,14c-24.3,20.4,398.3,422.4,372.6,444C600.4,478,267.9-5.5,244.6,14
				c-26.7,22.4,396.1,422.6,371.8,443.1C589.6,479.6,263.5-8,237.8,13.6c-26.2,22,398.1,419.8,371.2,442.4
				C582.9,477.8,256-4.8,232.6,14.8c-24.6,20.6,397,421.8,371.7,443c-23.8,20-355.1-463.3-377.7-444.4
				c-24.7,20.7,395.9,423.3,372,443.4C574.5,477.1,244-5.5,221.3,13.6C195,35.7,619.6,431.8,591.8,455.2
				C565.8,476.9,241.5-4.3,218,15.4C194,35.5,614.1,433,587.3,455.5C560.9,477.6,233.4-6.2,209.1,14.2
				c-27.6,23.1,397.2,419.2,370.6,441.6c-26.2,22-355.2-460.2-378.2-441c-24.7,20.7,396.1,421.5,371.2,442.4
				c-23.3,19.6-353-462.8-378.4-441.5c-24.8,20.9,398.2,419.3,371,442.2C540.8,478.4,209.7-5.3,185.1,15.3
				c-23.8,20,396.3,419.1,370.1,441.1C532.9,475,205.6-7.9,179,14.4c-27.2,22.8,396.4,421.1,371.1,442.3
				C524.9,477.9,198.2-8.2,171.5,14.2c-24,20.1,394.4,422,370.7,441.8C516.6,477.6,194-6.4,168.1,15.4
				c-24.9,20.9,393.2,420.2,369.4,440.2C514.6,474.7,183.5-7.4,159.2,13c-24.4,20.5,397.3,424.2,373,444.6
				C509.6,476.6,179.7-7.3,155,13.5c-25.5,21.4,395,422.8,371.4,442.6C503.4,475.4,175.2-6.3,149.8,15.1
				c-26,21.9,397,421.6,371.6,442.8C496,479.2,167-7,142,14.1c-27.2,22.8,400.5,420.4,372.5,443.9c-25.2,21.1-357.5-464.5-381-444.7
				c-26,21.8,397,422.8,372.2,443.6C482,476.7,149.2-4.9,125.7,14.8C102,34.7,523.4,435.2,497,457.3C471.9,478.4,140.8-3.6,118,15.5
				C93.6,36,515,434.8,488.5,457.1C462.3,479.1,135.8-3.4,113.2,15.5c-25.7,21.6,393,420.4,369.4,440.2
				C458.5,476,131.1-3.9,108.1,15.4c-27.4,23,394.4,421,370.3,441.3C452.9,478,126.4-5.4,101.1,15.8
				C73.2,39.3,495,434.9,470.2,455.7C443.7,477.9,118.7-4.6,95.8,14.6C67.9,38,492.9,435.5,467.1,457C442.7,477.6,111.5-4,88.1,15.6
				C63.4,36.3,484.6,432.1,457,455.3C433.7,474.8,103.7-4.4,80.4,15.2c-23.8,20,397.5,418.5,370.3,441.3
				C425.6,477.5,96.9-8.3,70.8,13.6C43.6,36.4,465.2,435.7,441.6,455.5C418.3,475,92-5.8,66.5,15.6
				c-25.8,21.7,394.7,420,369.9,440.8C413.4,475.6,83.5-7.5,57.5,14.4C30.3,37.2,453.3,433.5,427.4,455.3
				C404.8,474.2,75-6.4,51.6,13.2c-25.5,21.4,395.9,423.3,372,443.3C399.3,476.9,68.7-6.3,44.6,13.9
				C18.7,35.6,442.7,435.6,416.8,457.4C394.1,476.4,60.4-6.3,36.5,13.7C12.3,34.1,431,435.5,407.2,455.5C384,475,56.1-6.1,31,14.9
				C7.4,34.7,429.3,435.5,402.7,457.8C378,478.5,52.2-8.4,25.7,13.9c-26.8,22.5,400.2,420.9,372.6,444
				C374.7,477.7,42.6-4.9,18.3,15.6C-6.4,36.2,411.7,436.4,388.1,456.3C362.9,477.4,36.3-3.7,13.1,15.7
				C-13,37.7,406.5,436.4,382.8,456.3C359.6,475.7,35.2,2.6,11.5,22.5c-25.4,21.3,390.7,411.8,364.2,434
				C354,474.7,34.8,10.6,11.8,29.9c-24.4,20.5,384,405.9,358.5,427.3C346.4,477.2,34.4,19.5,12.3,38
				c-23,19.3,376.2,396.5,350.7,417.9C338.7,476.3,35.4,24.7,12.1,44.2C-11.5,64,382.9,437.6,359,457.6
				C335.7,477.2,32.7,31.3,11.7,49c-25.5,21.4,367.1,388.3,342.9,408.6C330.7,477.7,34.3,39.4,12.4,57.8
				c-24.1,20.2,358.4,381,335.7,400.1c-23,19.3-313-411.5-334.7-393.2c-24.6,20.7,353,373.2,329.7,392.9
				C320.8,476.1,35.3,48.5,12,68c-24.1,20.3,349.7,370.8,327.1,389.8C318.3,475.3,32.4,58.2,11.7,75.5
				c-20.5,17.2,342.4,363.6,320.5,382C309.9,476.2,33.7,67.9,12,86.1C-9.4,104,343.2,439.3,322.8,456.4
				C304.4,471.9,31.3,79.8,12.4,95.7c-21.3,17.8,325.7,342.7,303.3,361.5C297.3,472.5,33,87.8,12.1,105.3
				c-19.1,16.1,315.5,336,295.8,352.5c-19,15.9-276.1-360-294.8-344.3c-21.5,18,309.6,326.8,288.8,344.2
				c-17.4,14.6-269.1-354-289.4-337c-18.5,15.5,298.9,318.9,280.5,334.3C275.6,469.9,28.1,110.2,10.9,124.6
				c-20.3,17,296.9,315.2,277.9,331.1C270.1,471.4,31.4,114.3,12,130.7c-18.2,15.2,291,310,272.9,325.2
				C267,470.8,29.1,120.5,10.9,135.8c-17.8,15,289.4,304.8,269.6,321.4c-18.3,15.3-249.8-326-267.7-311
				c-18.6,15.6,277.8,293.8,259.5,309.2C255.3,469.5,29.6,143.2,13.2,157c-16.6,13.9,269.1,286.9,252.4,300.8
				C248.4,472.3,28.9,150.3,11.2,165.1c-17.6,14.8,260.4,277.8,244.4,291.2C240.4,469.1,27.3,163.2,12.9,175.3
				c-18.4,15.4,253,266.9,236,281.2C233.4,469.5,26.7,172.2,12.5,184.2c-15.6,13.1,247,258.3,229.3,273.2
				C226.2,470.5,28.3,178,12.9,191c-17.2,14.5,238.3,250.9,222,264.6C221.6,466.6,28.5,184.8,13.2,197.7
				c-14.8,12.4,233.4,246.9,218,259.8C218,468.5,25.8,191.5,12,203.2C-3.3,216,238.8,442.5,223.5,455.3
				C209.4,467.2,26.1,202.4,12.7,213.7c-14.4,12.1,219.9,229.5,203.9,243c-13.8,11.5-192-244.8-204.8-234
				c-15.3,12.8,210.6,222.1,196.4,234c-11.8,9.9-182.5-237.9-195.1-227.3c-14.5,12.1,202.9,214.9,189.7,226
				C190.1,466,24.3,223.5,11.9,233.8c-13.2,11.1,199.6,211.6,186.6,222.4c-11.9,9.9-175.2-227.4-186.6-217.7
				C-1.8,250,208.3,444.3,194.4,456c-12.1,10.1-171.2-223.2-183.3-213C-3.2,254.9,203.3,447,191,457.4
				c-12.2,10.2-169.3-216.9-179.9-208c-12.4,10.4,186.2,196,173.4,206.7C173,465.7,25,251.2,13.3,261.1
				C1.2,271.2,189.6,444.8,176.6,455.7C166,464.7,23.9,257.3,13.2,266.3C0.7,276.7,185.6,445.2,172.5,456.2
				c-10.1,8.5-151.7-193.5-161.4-185.3C-0.6,280.6,178,446.8,166.7,456.3c-10,8.4-145.2-185.8-154.5-178
				C0.3,288.3,174,447.8,162.5,457.4C153.4,465.1,21.7,276.3,11.3,285c-10.3,8.6,155.4,163.8,144.8,172.6
				C147,465.2,22,287.2,12,295.5C2.2,303.8,158.9,449.1,148.3,458c-8.6,7.2-128.9-163.8-137.3-156.7
				c-10.9,9.2,140.3,145.1,129.4,154.2C132.5,462.2,18.7,305.6,11,312c-8.7,7.3,130,137.1,121.2,144.5
				c-7.3,6.2-111.4-140.2-119.5-133.4c-8.5,7.1,121.7,126.3,112.5,134.1c-7.7,6.5-106.4-133.3-114-126.9
				c-8.6,7.2,114.4,120.4,106.6,127c-6.3,5.3-98-120.1-104.8-114.4c-7.4,6.2,103.5,107.2,95.5,113.9c-5.9,5-88.7-111.9-95.2-106.5
				c-7.5,6.3,96.1,100,89,106c-5.6,4.7-83.6-101.7-89.7-96.6c-7.3,6.1,88.9,91.6,81.8,97.5c-5,4.2-77.7-97.6-83.2-93
				c-6.6,5.6,84.2,85.7,77,91.7c-4.3,3.6-70.7-83.2-75.5-79.1c-6.2,5.2,73.9,75,67.5,80.4c-4.5,3.8-64.4-79.5-68.7-75.9
				c-5.9,5,69.1,70.7,63.4,75.5c-3.5,3-58.4-66.5-62.2-63.3c-4.6,3.9,59.3,59.7,53.9,64.2c-3.6,3-50.9-60.2-54.5-57.2
				c-4.9,4.1,52.2,52.2,47.3,56.3c-2.7,2.3-44.1-47.8-46.9-45.4C8,415.1,55.2,454.8,51.4,458c-2.3,1.9-36.7-39.9-39.1-37.9
				c-3.5,2.9,35,34.3,31.4,37.4c-1.9,1.6-29.6-33.7-31.7-32c-3.2,2.7,30.4,29.9,27.3,32.5c-1.6,1.3-26.2-28.4-27.8-27.2
				c-2.7,2.3,25.4,23.8,22.2,26.5c-1.2,1-20.4-16.2-21.4-15.4c-2.6,2.2,15.2,13,12.7,15.1c-0.6,0.5-11-8.4-11.6-7.9
				c-2,1.6,7,4.2,4.9,5.9c-0.2,0.2-4.9-0.2-5.1-0.1c-1.7,1.4,2.4-0.9,0.5,0.6"/>
		</g>
	</g>
	<g>
		<g>
			<path fill="#444444" d="M435,237.1c-1.9,9.5-3.3,19.1-5.3,28.6c-2.1,9.7-5.4,18.8-9.5,27.8c-1.3,2.9,3,5.4,4.3,2.5
				c4.1-9,7.6-18.1,9.8-27.8c2.2-9.8,3.6-19.9,5.6-29.8C440.5,235.3,435.7,234,435,237.1L435,237.1z"/>
		</g>
	</g>
	<radialGradient id="SVGID_2_" cx="152.2347" cy="231.0701" r="87.5329" gradientUnits="userSpaceOnUse">
		<stop  offset="5.222240e-03" style="stop-color:#929497"/>
		<stop  offset="0.1523" style="stop-color:#AAACAE"/>
		<stop  offset="0.352" style="stop-color:#C4C6C8"/>
		<stop  offset="0.5574" style="stop-color:#D7D8DA"/>
		<stop  offset="0.7698" style="stop-color:#E2E3E4"/>
		<stop  offset="1" style="stop-color:#E6E7E8"/>
	</radialGradient>
	<ellipse fill="url(#SVGID_2_)" cx="185.5" cy="210.8" rx="14.9" ry="19"/>
	<g>
		<g>
			<path fill="#444444" d="M202.8,304.7c0.1,21.8,4.3,43.4,3.3,65.2c-0.1,3.2,4.9,3.2,5,0c1-21.8-3.2-43.4-3.3-65.2
				C207.7,301.5,202.7,301.5,202.8,304.7L202.8,304.7z"/>
		</g>
	</g>
	<g>
		<g>
			<path fill="#444444" d="M174.8,291.5c0.1,14,2.2,28.3,0.3,42.3c-1.9,13.9-8.8,26.4-12.3,39.9c-0.8,3.1,4,4.4,4.8,1.3
				c3.6-13.7,10.5-26.3,12.4-40.5c1.9-14.2-0.1-28.7-0.2-43C179.8,288.2,174.8,288.2,174.8,291.5L174.8,291.5z"/>
		</g>
	</g>
	
		<radialGradient id="SVGID_4_" cx="1215.0826" cy="-3704.8394" r="27.5043" gradientTransform="matrix(1.3766 0.3292 -0.1818 0.76 -2153.0042 2708.4858)" gradientUnits="userSpaceOnUse">
		<stop  offset="5.222240e-03" style="stop-color:#929497"/>
		<stop  offset="0.1523" style="stop-color:#AAACAE"/>
		<stop  offset="0.352" style="stop-color:#C4C6C8"/>
		<stop  offset="0.5574" style="stop-color:#D7D8DA"/>
		<stop  offset="0.7698" style="stop-color:#E2E3E4"/>
		<stop  offset="1" style="stop-color:#E6E7E8"/>
	</radialGradient>
	<path fill="url(#SVGID_4_)" d="M215.2,293c-0.6,2.5-4,3.8-7.5,3c-3.6-0.8-5.9-3.6-5.3-6.1c0.6-2.5,4-3.8,7.5-3
		S215.8,290.5,215.2,293z"/>
	
		<radialGradient id="SVGID_6_" cx="598.0634" cy="484.929" r="27.5031" gradientTransform="matrix(1.8589 0 0 0.7814 -917.3869 0.3632)" gradientUnits="userSpaceOnUse">
		<stop  offset="5.222240e-03" style="stop-color:#929497"/>
		<stop  offset="0.1523" style="stop-color:#AAACAE"/>
		<stop  offset="0.352" style="stop-color:#C4C6C8"/>
		<stop  offset="0.5574" style="stop-color:#D7D8DA"/>
		<stop  offset="0.7698" style="stop-color:#E2E3E4"/>
		<stop  offset="1" style="stop-color:#E6E7E8"/>
	</radialGradient>
	<ellipse fill="url(#SVGID_6_)" cx="213.8" cy="374.3" rx="8.7" ry="4.7"/>
	
		<radialGradient id="SVGID_8_" cx="420.672" cy="-716.311" r="27.5031" gradientTransform="matrix(1.7709 0.565 -0.2375 0.7444 -764.4929 673.3403)" gradientUnits="userSpaceOnUse">
		<stop  offset="5.222240e-03" style="stop-color:#929497"/>
		<stop  offset="0.1523" style="stop-color:#AAACAE"/>
		<stop  offset="0.352" style="stop-color:#C4C6C8"/>
		<stop  offset="0.5574" style="stop-color:#D7D8DA"/>
		<stop  offset="0.7698" style="stop-color:#E2E3E4"/>
		<stop  offset="1" style="stop-color:#E6E7E8"/>
	</radialGradient>
	<path fill="url(#SVGID_8_)" d="M178.9,381.6c-0.8,2.4-5.1,3.3-9.7,1.8c-4.6-1.5-7.6-4.6-6.9-7.1c0.8-2.4,5.1-3.3,9.7-1.8
		C176.6,376,179.7,379.1,178.9,381.6z"/>
	<path fill="#F4ED0F" d="M183.9,235.4c0,0-18.1-1.8-14.3,24c4.2,28.2,9.3,54.5,20.5,55.6c2,0.2,8.2,0,9.9-1.9
		c7.7-8.9,10.8-39.3,10.9-52.2C211.1,236.5,207.1,233.6,183.9,235.4z"/>
	
		<radialGradient id="SVGID_10_" cx="1103.8573" cy="374.7207" r="27.5031" gradientTransform="matrix(1.4153 0 0 0.7814 -1405.3502 0.3632)" gradientUnits="userSpaceOnUse">
		<stop  offset="5.222240e-03" style="stop-color:#929497"/>
		<stop  offset="0.1523" style="stop-color:#AAACAE"/>
		<stop  offset="0.352" style="stop-color:#C4C6C8"/>
		<stop  offset="0.5574" style="stop-color:#D7D8DA"/>
		<stop  offset="0.7698" style="stop-color:#E2E3E4"/>
		<stop  offset="1" style="stop-color:#E6E7E8"/>
	</radialGradient>
	<ellipse fill="url(#SVGID_10_)" cx="171.7" cy="288.2" rx="6.6" ry="4.7"/>
	
		<radialGradient id="SVGID_12_" cx="403.5816" cy="220.5029" r="87.5329" gradientTransform="matrix(-1.1754 0 0 1 980.4716 0)" gradientUnits="userSpaceOnUse">
		<stop  offset="5.222240e-03" style="stop-color:#929497"/>
		<stop  offset="0.1523" style="stop-color:#AAACAE"/>
		<stop  offset="0.352" style="stop-color:#C4C6C8"/>
		<stop  offset="0.5574" style="stop-color:#D7D8DA"/>
		<stop  offset="0.7698" style="stop-color:#E2E3E4"/>
		<stop  offset="1" style="stop-color:#E6E7E8"/>
	</radialGradient>
	<ellipse fill="url(#SVGID_12_)" cx="467" cy="200.2" rx="17.5" ry="19"/>
	<g>
		<g>
			<path fill="#444444" d="M441.3,294.1c-0.1,21.8-5.1,43.4-3.9,65.2c0.2,3.2,5.2,3.2,5,0c-1.2-21.8,3.8-43.4,3.9-65.2
				C446.3,290.9,441.3,290.9,441.3,294.1L441.3,294.1z"/>
		</g>
	</g>
	<g>
		<g>
			<path fill="#444444" d="M474.1,280.9c-0.1,14.4-2.5,29-0.2,43.3c2.3,14.3,10.4,26.5,14.6,40.2c0.9,3.1,5.8,1.8,4.8-1.3
				c-4-13.2-11.8-25-14.3-38.7c-2.6-14.3,0-29.1,0.1-43.5C479.1,277.7,474.1,277.7,474.1,280.9L474.1,280.9z"/>
		</g>
	</g>
	<g>
		<g>
			<path fill="#444444" d="M441.6,242.7c3.2,0,3.2-5,0-5C438.3,237.7,438.3,242.7,441.6,242.7L441.6,242.7z"/>
		</g>
	</g>
	
		<radialGradient id="SVGID_14_" cx="733.2779" cy="471.4057" r="27.5031" gradientTransform="matrix(-2.1849 0 0 0.7814 2058.7585 0.3632)" gradientUnits="userSpaceOnUse">
		<stop  offset="5.222240e-03" style="stop-color:#929497"/>
		<stop  offset="0.1523" style="stop-color:#AAACAE"/>
		<stop  offset="0.352" style="stop-color:#C4C6C8"/>
		<stop  offset="0.5574" style="stop-color:#D7D8DA"/>
		<stop  offset="0.7698" style="stop-color:#E2E3E4"/>
		<stop  offset="1" style="stop-color:#E6E7E8"/>
	</radialGradient>
	<ellipse fill="url(#SVGID_14_)" cx="433.8" cy="363.7" rx="10.2" ry="4.7"/>
	
		<radialGradient id="SVGID_16_" cx="547.7606" cy="-826.9696" r="27.5031" gradientTransform="matrix(-2.0815 0.565 0.2792 0.7444 1879.0485 673.3403)" gradientUnits="userSpaceOnUse">
		<stop  offset="5.222240e-03" style="stop-color:#929497"/>
		<stop  offset="0.1523" style="stop-color:#AAACAE"/>
		<stop  offset="0.352" style="stop-color:#C4C6C8"/>
		<stop  offset="0.5574" style="stop-color:#D7D8DA"/>
		<stop  offset="0.7698" style="stop-color:#E2E3E4"/>
		<stop  offset="1" style="stop-color:#E6E7E8"/>
	</radialGradient>
	<path fill="url(#SVGID_16_)" d="M474.7,371c0.9,2.4,6,3.3,11.4,1.8c5.4-1.5,9-4.6,8.1-7.1c-0.9-2.4-6-3.3-11.4-1.8
		C477.4,365.4,473.8,368.6,474.7,371z"/>
	
		<radialGradient id="SVGID_18_" cx="402.6711" cy="264.6941" r="79.8479" gradientTransform="matrix(-1.1761 1.300000e-03 -1.528006e-03 0.982 981.6393 -3.85)" gradientUnits="userSpaceOnUse">
		<stop  offset="5.222240e-03" style="stop-color:#F7931E"/>
		<stop  offset="0.3211" style="stop-color:#FC931E"/>
		<stop  offset="1" style="stop-color:#FF931E"/>
	</radialGradient>
	<path fill="url(#SVGID_18_)" d="M468.9,224.8c0,0,21.3-1.8,16.8,24c-4.9,28.2-10.9,54.5-24.1,55.6c-2.4,0.2-9.6,0-11.6-1.9
		c-9.1-8.9-12.7-39.3-12.9-52.2C436.9,226,441.7,223,468.9,224.8z"/>
	<path fill="#FFFFFF" stroke="#434443" stroke-miterlimit="10" d="M567.1,104.8c0-8.8,4.7-22.1-9.9-28.7
		c-17.5-7.9-56.4-8.4-79.4-8.4c-22.1,0-63.8,0.2-81.1,8.4c-15.7,7.4-8.1,22.5-8.1,28.7c0,13,49.3,26.9,91.4,26.9
		c5.3,0,10.5-0.2,15.6-0.6l-9.6,36.6l40-41.3C547.6,121.3,567.1,112.8,567.1,104.8z"/>
	<g>
		<rect x="449.3" y="88.6" fill="none" width="70.3" height="33.9"/>
		<text transform="matrix(0.9701 0 0 1 449.2997 100.5479)" font-family="'Helvetica'" font-size="16.5631">Well...</text>
	</g>
	<path fill="#FFFFFF" stroke="#434443" stroke-miterlimit="10" d="M43.2,102.6c0-10.6-4.8-35.4,14.5-48.6c18-12.3,59.4-13.3,80-13.3
		c21.4,0,55.2,0.6,70.9,13.3S222,91.3,222,101.6c0,20.5-39.5,40.5-82.3,40.5c-2.9,0-5.6-0.1-8.1-0.2l16.3,57l-49.1-63.9
		C77.5,129.4,43.2,118.2,43.2,102.6z"/>
	<text transform="matrix(0.9701 0 0 1 55.3848 74.6191)"><tspan x="0" y="0" font-family="'Helvetica'" font-size="15">I would have expected </tspan><tspan x="0" y="18" font-family="'Helvetica'" font-size="15">a professional like you </tspan><tspan x="0" y="36" font-family="'Helvetica'" font-size="15">to be using DITA?</tspan></text>
	
		<radialGradient id="SVGID_20_" cx="1402.5139" cy="-3774.7896" r="27.5043" gradientTransform="matrix(-1.618 0.3292 0.2137 0.76 3511.0898 2708.4858)" gradientUnits="userSpaceOnUse">
		<stop  offset="5.222240e-03" style="stop-color:#929497"/>
		<stop  offset="0.1523" style="stop-color:#AAACAE"/>
		<stop  offset="0.352" style="stop-color:#C4C6C8"/>
		<stop  offset="0.5574" style="stop-color:#D7D8DA"/>
		<stop  offset="0.7698" style="stop-color:#E2E3E4"/>
		<stop  offset="1" style="stop-color:#E6E7E8"/>
	</radialGradient>
	<path fill="url(#SVGID_20_)" d="M409.3,301.5c0.7,2.5,4.7,3.8,8.8,3c4.2-0.8,7-3.6,6.3-6.1c-0.7-2.5-4.7-3.8-8.8-3
		S408.6,299,409.3,301.5z"/>
	<g>
		<g>
			<path fill="#444444" d="M205.4,253.7c7.5,5,16.4,9.7,22.9,16.1c7.5,7.4-11.3,15.4-16.7,16.7c-3.1,0.8-1.8,5.6,1.3,4.8
				c5.4-1.4,10.4-3.7,14.9-7.1c3.2-2.5,8.8-6.8,8.3-11.4c-0.5-4.9-6.8-8.9-10.4-11.5c-5.8-4.1-11.8-8-17.8-11.9
				C205.2,247.6,202.7,251.9,205.4,253.7L205.4,253.7z"/>
		</g>
	</g>
	<g>
		<g>
			<path fill="#444444" d="M165.2,241c-3.4,4.8-6.6,9.8-9.4,15.1c-2.4,4.4-5.8,9.9-6.5,14.9c-0.5,3.9,1.8,6.4,4.6,8.6
				c4.6,3.7,9.6,6.8,14.8,9.6c2.8,1.5,5.4-2.8,2.5-4.3c-3.7-2-7.3-4.1-10.7-6.5c-2.4-1.7-4.5-2.8-5.4-5.7c-0.9-2.9,0.6-5.1,1.9-7.8
				c3.5-7.5,7.7-14.6,12.5-21.4C171.4,240.9,167,238.4,165.2,241L165.2,241z"/>
		</g>
	</g>
	<g>
		<g>
			<path fill="#444444" d="M481,237c0,10.2-0.1,20.3-0.1,30.5c0,3.5-0.1,6.7,2.2,9.6c2.9,3.6,7.3,6.5,10.8,9.5
				c2.4,2.1,6-1.4,3.5-3.5c-3-2.6-6.7-5.1-9.4-8.1c-3.1-3.5-2.1-8.8-2.1-13.1c0-8.3,0.1-16.5,0.1-24.8C486,233.8,481,233.8,481,237
				L481,237z"/>
		</g>
	</g>
	
		<radialGradient id="SVGID_22_" cx="1271.1305" cy="374.7207" r="27.5031" gradientTransform="matrix(-1.6635 0 0 0.7814 2632.3054 0.3632)" gradientUnits="userSpaceOnUse">
		<stop  offset="5.222240e-03" style="stop-color:#929497"/>
		<stop  offset="0.1523" style="stop-color:#AAACAE"/>
		<stop  offset="0.352" style="stop-color:#C4C6C8"/>
		<stop  offset="0.5574" style="stop-color:#D7D8DA"/>
		<stop  offset="0.7698" style="stop-color:#E2E3E4"/>
		<stop  offset="1" style="stop-color:#E6E7E8"/>
	</radialGradient>
	<ellipse fill="url(#SVGID_22_)" cx="500.3" cy="288.2" rx="7.8" ry="4.7"/>
	<g>
		<g opacity="0.52">
			<g>
				<g>
					<g>
						<path fill="#7E7D7E" d="M725.3,317.4c0.4,0,1-0.1,1.5-0.1C725.4,317.6,724.7,317.8,725.3,317.4z"/>
						<path fill="#7E7D7E" d="M744.5,318.8c-2.4-0.7-5.6-1.4-8.8-1.6c-3.2-0.3-6.5-0.1-9,0c0.6-0.1,1.2-0.3,2-0.5
							c0.8-0.1,1.6-0.3,2.5-0.5c0.9-0.1,1.9-0.3,2.8-0.3c0.5,0,1,0,1.5,0c0.5,0,1,0,1.5,0.1c1.9,0.1,3.7,0.5,5.1,1
							C743.4,317.6,744.3,318.2,744.5,318.8z"/>
						<path fill="#7E7D7E" d="M723.4,314c0,0,0.4-0.1,1.1-0.2c0.6-0.1,1.5-0.2,2.4-0.3c0.9-0.1,1.7-0.1,2.4-0.1c0.7,0,1.1,0,1.1,0
							c-1,0.3-1.7,0.4-2.2,0.5c-0.5,0.1-0.9,0.1-1.3,0c-0.4,0-0.8-0.1-1.3-0.1C724.9,313.8,724.3,313.8,723.4,314z"/>
						<path fill="#7E7D7E" d="M726.3,315.5l-0.2,0.9c0,0-0.9,0-1.8,0c-0.5,0-0.9,0-1.2,0c-0.3,0-0.6,0-0.6,0s0.2-0.1,0.6-0.2
							c0.3-0.1,0.8-0.2,1.3-0.4c0.5-0.1,0.9-0.2,1.3-0.3C726.1,315.5,726.3,315.5,726.3,315.5z"/>
						<path fill="#7E7D7E" d="M436.5,402.6c0.6,0.4,1,0.8,0.7,1.3L436.5,402.6z"/>
						<path fill="#7E7D7E" d="M421.9,399.3c-1.3-0.1-2.2-0.1-3-0.1C419.8,399.1,420.5,399.1,421.9,399.3z"/>
						<path fill="#7E7D7E" d="M449.6,402.5l-2.5,0.1C447.8,402.4,448.8,402.4,449.6,402.5z"/>
						<path fill="#7E7D7E" d="M613,410.3c2.7,0.3,5.3,0.2,7.2,0C615.3,412.3,614.5,410.8,613,410.3z"/>
						<path fill="#7E7D7E" d="M357.1,373.4l-0.8,0.6C355.7,373.5,355.3,373.2,357.1,373.4z"/>
						<path fill="#7E7D7E" d="M417.7,388.1c0.1,0.4,0,0.7-0.2,0.9c-0.2-0.1-0.4-0.1-0.6-0.1L417.7,388.1z"/>
						<path fill="#7E7D7E" d="M459.9,401.5c0,0,0.1,0,0.1-0.1l2.1,0.5C461,402.1,460.3,401.9,459.9,401.5z"/>
						<path fill="#7E7D7E" d="M335.2,371.5c-0.9-0.4-1.8-0.8-2.6-1.5C334.6,370.3,335.6,371,335.2,371.5z"/>
						<path fill="#7E7D7E" d="M418.5,399.2C418.5,399.2,418.5,399.2,418.5,399.2c0.1,0,0.3,0,0.4,0
							C418.7,399.2,418.6,399.2,418.5,399.2z"/>
						<path fill="#7E7D7E" d="M439.5,388.2c-1.2-0.1-2.2-0.2-3.5-0.3C437.5,387.7,438.7,387.9,439.5,388.2z"/>
						<path fill="#7E7D7E" d="M613,410.3c-0.8-0.1-1.5-0.2-2.2-0.3C611.8,409.9,612.4,410.1,613,410.3z"/>
						<path fill="#7E7D7E" d="M710.6,325.7c-1.7,1.1-2.3,1-2.9,0.8C708.7,326.1,709.7,325.7,710.6,325.7z"/>
						<path fill="#7E7D7E" d="M13.4,397.8l-0.8-0.1C12.9,397.7,13.2,397.7,13.4,397.8z"/>
						<path fill="#7E7D7E" d="M92,401.4c0.3,0.2,0.7,0.4,0.9,0.6C92.2,402.2,91.9,401.8,92,401.4z"/>
						<path fill="#7E7D7E" d="M165.9,400.7c-5.2-0.3-9.8-3.6-14.1-4.9l1.3,1.2l-4.2-1.8l-0.3,1.2c-7.1-2.5-16.5-3.5-18.8-6l0.4,2.1
							c0,0-1.9-0.8-3.8-1.7c-1.9-0.8-3.8-1.6-3.8-1.6s1.1,0.6,2.1,1.1c1.1,0.6,2.1,1.2,2.1,1.2c-4.5-0.8-10-2.3-14.8-3.5
							c-4.8-1.2-8.7-2.2-9.7-2.3l0.7,0.8c-1.6,0.2-2.7-0.5-4.2-0.9l1.1,1.2c-1.7-0.3-3.3-0.5-4.8-0.6c-1.5-0.1-2.8-0.2-4.1-0.2
							c-2.6,0-4.9,0-7.3,0.2c-1.2,0.1-2.4,0.2-3.6,0.2c-1.2,0-2.5,0.1-3.9,0.1c-2.7,0.1-5.8,0-9.5-0.2c-4.1,0.3,2.3,0.3,2.3,0.9
							c-2.2,0.9-7.5,0.2-8.6-0.3c1.2,1.7,7.5,1,2.7,2.5c-3.4-0.8,2.3,1.5-3.6,1.3l-2.4-2.1c-3.3,0.4-0.6,1.7-5.9,1.6
							c-6-0.9,7.3-2.5-2.3-2.7c-2.4,0.1-4.9,1.4-8,2.4c-3.1,1.1-6.8,1.9-11.4,1.2c-4,0.4-3,1.3-2.4,1.9c0.6,0.6,0.9,1.2-4.7,0.5
							c0,0,1.8,0.5,3.5,0.9c1.8,0.4,3.6,0.9,3.6,0.9c-1.9,0.5-0.8,1.7-5.6,0.9c-1.5-0.9-4.4-2.2-7-2.6c5.1,1.3,2.8,1.7,0.3,2.2
							c-2.5,0.4-5.1,0.8-0.2,2.5l-3.7-0.5c0.4,0.1,0.5,0.4,0.3,0.5c0,0-1.2-0.1-2.5-0.2c-1.2-0.1-2.5-0.3-2.5-0.3
							c3,1,10.3,1.9,6.7,3.2c0,0-1.8-0.1-3.7-0.2c-1.8-0.2-3.7-0.3-3.7-0.3c1.8,1.5-1,1.6-0.7,2.6c0,0,1.3,0.3,3.4,0.8
							c1,0.3,2.2,0.5,3.5,0.8c1.3,0.3,2.6,0.6,4,0.8c2.7,0.6,5.4,1,7.4,1.3c2,0.3,3.4,0.5,3.4,0.5c-0.8-0.8-3.9-1.4-2.7-2.1
							c2.9-0.2,4,0.2,5.2,0.5c1.1,0.3,2.2,0.6,4.9,0.1l-2.3-1c0.4,0.4,1.2,0.5,0,0.6c-1.9,0.6-2.7-0.2-2.7-0.8
							c1.9-1.1,7.3-0.2,8.8,0.6c6.9-0.1,1.4-2.2,2.9-2.5c3.5,2,11.3-0.1,15.5,0.7l-2.7-1.3c5.1-1.7,9.7-0.5,12.6,0l-1.2-1.1
							c3.5,0,6.1-0.8,8.6-1.3c2.4-0.4,4.6-0.3,7.1,1.7l-0.7-0.7c1.4-0.2,3.2-0.3,4.9-0.3c1.8,0,3.5,0.2,4.8,0.9c0.1-0.4,0.6-1,1.8-1
							c1.4,1.6,4.4,0.9,8.6,1.2c-2.7-0.8-1.5-2.5-4.4-3.4c6.8-1.1,5.6,3,11,3.9c1.7-0.2,1-0.6-0.2-1c-1.2-0.4-2.9-0.9-3.2-1.3
							c2.1,0.6,4.2,0.8,6.3,0.9c2.1,0.1,4.3,0,6.3,0.1c4.1,0.1,7.7,0.5,9.9,3l-3.8,0.4c3.1,1.6,4.9,2,4.6,1.5
							c-1.1-0.1-1.4-0.6-1.7-1c10.5,0.5,14.9,6.6,25.1,8.5c-0.6-0.9-1.9-1.5-1.9-2.1c4.8,0.5,3.6,4.8,11.5,5.3l-1.3-1.2
							c2.6,0.2,4.2,1.8,3.8,2c0.5-1.6,4.5-0.5,9.1,0.5c4.7,1,10.1,2,13.2,0.5c1.7,1.2,5.2,2.8,8.7,3.8c3.5,1.1,7.1,1.7,8.9,1.4
							c2.5-0.7,1.5-1.3,0.2-2c-1.4-0.7-3.1-1.5-2.1-2.3c1.8,0.3,3.2,0.9,4.8,1.5c1.6,0.5,3.5,1.1,6.3,1c0,0.9-2.9,1.6-4.4,2.2
							c-0.8,0.3-1.2,0.7-0.8,1.1c0.2,0.2,0.6,0.4,1.3,0.6c0.7,0.2,1.7,0.5,3,0.7l1.6-0.9c-1.1,0-2.7,0.3-4.2-0.1c-3-1.4,2-1,2.7-1.5
							c0,0,0.7,0.1,1.8,0.2c1.1,0.1,2.5,0.4,3.9,0.4c1.4,0.1,2.9,0.2,4,0.3c1.1,0.1,1.8,0.1,1.8,0.1c0.8,2-6.1,1.3-6.9,1.8
							c2.3,0,4.8-0.1,7.3-0.5c2.5-0.4,5-0.7,7.5-1.2c1.2-0.2,2.5-0.4,3.7-0.7c1.2-0.3,2.4-0.5,3.6-0.7c2.4-0.3,4.6-0.8,6.8-0.9
							l-0.9-0.6c1.4-0.1,2.5-0.2,3.4-0.4c0.9-0.2,1.6-0.5,2.2-0.7c1.2-0.5,1.8-1.1,2.3-1.6c0.5-0.6,1-1,1.9-1.4
							c0.4-0.2,1-0.3,1.7-0.4c0.7-0.1,1.7-0.1,2.8-0.2c2-1.2,1.4-1.5,1.1-1.8c-0.3-0.4-0.3-0.8,2.7-2.3c1.7-0.9,1,0.3,0.8,0.6
							c3.8-1.7,4.5-2.5,5-3.3c0.5-0.7,1-1.3,4.8-2.7c0,0-0.6-0.2-1.3-0.4c-0.6-0.2-1.3-0.4-1.3-0.4c1-0.5,2.1-0.9,3.2-1.4
							c1.1-0.5,2.1-0.9,3.2-1.4c2.2-0.9,4.3-1.8,6.4-2.7c4.2-1.8,8.1-3.6,11-6.1c-1.2-1.1-5.1,1.7-7.4,1.8c5.1-1.8,10.4-5.3,15.7-8
							c2.6-1.4,5.4-2.4,8-3.2c1.4-0.3,2.7-0.6,4-0.7c1.3-0.1,2.5-0.2,3.7-0.1c-1.3,0.8-0.1,1.5,0.6,2.2c0.8,0.7,1.1,1.3-1.6,2.2
							c-0.8-0.9-1.9-0.9-3-0.7c-1.1,0.3-2.4,0.8-3.8,1.2c0.7,0.4,1.5,0.5,2.4,0.6c0.9,0.1,1.8-0.1,2.8-0.2c2-0.3,4.4-0.8,6.8-1.3
							c1.2-0.2,2.4-0.4,3.5-0.6c1.1-0.1,2.2-0.3,3.1-0.3c1.9-0.1,3.3,0.3,3.7,1.2l1.4-1.6c1.5,0.2,5.3,1.4,2.7,1.9
							c0,0,2.7-0.3,5.3-0.5c2.5-0.2,5-0.4,5-0.4c-0.9-0.3-2-0.7-3.2-1.2c-0.6-0.2-1.3-0.4-1.9-0.6c-0.7-0.2-1.4-0.4-2.1-0.5
							c-2.8-0.6-5.4-0.9-6.6,0c-3.1-1.7,4.4-1.1,1.7-3c7.2,2.6,4.5-1.2,11.8-0.4c-0.9,0.5-0.8,1-0.3,1.5c0.5,0.4,1.5,0.8,2.5,1.2
							c2.1,0.8,4.5,1.5,4.3,2.1c1.2,0,3,0.4,4.7,1c1.7,0.7,3.4,1.5,4.3,2c2,0.6,5.3,0.9,9,1.7c1.8,0.3,3.8,0.8,5.6,1.3
							c1.9,0.5,3.7,1.2,5.2,1.9c-2.3-1.5-5.9-3.6-5.2-4.9c3,1.8,6.5,2.9,7.6,1.5c-5.3-3.3-6.5-2.7-7.6-1.9c-0.6,0.4-1.1,0.9-2.1,0.9
							c-1,0-2.4-0.4-4.9-1.5c-1-1.3-2.2-2.2-3.8-3c-0.8-0.4-1.7-0.8-2.7-1.2c-1-0.4-2.2-0.7-3.6-1.2c2.7-0.6,1.7-1.3,3-2.4
							c3,2.7,7.2,3.9,11.8,5.1c4.6,1.2,9.5,2.4,13.4,4.8c1.6,1.1,1.6,2.1,2.1,3.2c0.3,0.5,0.7,1.1,1.6,1.7c0.9,0.6,2.2,1.3,4.4,1.9
							c0,0-0.5,0-1.2-0.1c-0.7-0.1-1.7-0.2-2.6-0.3c-1.9-0.2-3.8-0.5-3.8-0.5c4.1,0.7,4.6,1.1,4.7,1.7c0.2,0.6,0,1.3,3.5,2.4
							c0,0-0.6-0.5-1.2-1c-0.6-0.5-1.2-1-1.2-1c2.1,0.4,3.6,0.8,4.8,1.2c1.2,0.4,2.2,0.9,3.3,1.6c0,0-0.8-0.7-1.7-1.4
							c-0.4-0.3-0.8-0.7-1.1-0.9c-0.3-0.3-0.5-0.4-0.5-0.4c1.2,0.1,2.9,0.3,4.2,0.6c1.4,0.3,2.5,0.6,2.4,1.3c0.7-0.4,0.9-0.8,1-1.1
							c0.4,0.4,1.5,0.8,4.4,0.9c-1.7-0.3-2.8-0.3-2.8-0.9c2.7,0.3,4.2,0.3,5,0.2c0.8-0.2,1-0.5,1.1-0.8c0.1-0.6-0.3-1.2,3-1.2
							c-0.5-0.2-0.3-0.5,0.3-0.7c0.6-0.3,1.5-0.5,2.6-0.7c0,1.6,3.1,2.4,6.4,2.9c0.8,0.1,1.7,0.3,2.6,0.4c0.9,0.2,1.7,0.3,2.5,0.5
							c1.6,0.3,2.9,0.7,3.7,1.1l-0.1,0c0,0,2,0.3,4,0.6c1,0.1,2,0.3,2.8,0.5c0.8,0.1,1.3,0.2,1.3,0.2c-1.6-0.3,0.1-1.1,2.5-1.4
							l-0.4,0c2.6-0.4-3-3.6,4.8-2.4c0,0,1,0.3,2,0.5c1,0.3,2,0.6,2,0.6c-0.7-0.2,0-0.6,0.4-0.8l4.2,1.1c3.3-1.3,6.3-0.8,9.5,0.1
							c3.2,0.9,6.4,1.9,10.3,1.5c-2.2,0-5.5-0.4-4-1.3c1.5-0.3,3.7,0.3,4.8,0.9l-0.4-0.4c0,0,3.6,0.8,7.2,1.6
							c3.6,0.8,7.1,1.7,7.1,1.7c-1.1-1.2-9.2-2-5.4-2.9c2.3-1.3,6.3,0.7,8.9,1.1c-0.4,0.8-5.3,1.1-0.5,2c0.6-0.4,5.3-0.8,3.2-1.6
							c4.9,1.3,12,2.7,16.3,4.6c1.5-0.2-0.7-0.8-1.4-1l-0.4,0.2c-2.9-0.8-0.2-2.2-6.2-2c-0.2-2.8,8.5,0.1,13.8,0.3l-8-2.8
							c14.3-2.3,32.5,3.9,46.4,5.1c-4.1,0.5-7.4-0.6-7.2,1.6c4.3,0.9,6.1,1.2,8,1.4c1.9,0.2,3.7,0.4,8,0.9l-0.7-0.2
							c2.3-0.4,4.9,0,7.3,0.3c2.4,0.3,4.7,0.4,6.2-0.5c-1-0.6-2.6-0.4-3.9-0.3c-1.4,0.1-2.5-0.1-2.5-1.3c0,0,0.7,0.1,1.7,0.1
							c1,0.1,2.4,0.1,3.7,0.2c2.7,0.2,5.4,0.3,5.4,0.3c-1.7-0.8-4.4-0.9-7.2-1c-2.8,0-5.7,0-7.8-0.3c-3-0.1,6,0.7,4.5,2.2
							c-5.1-0.4-8.2-1-10.6-1.8c-2.4-0.9-4.1-2-6.5-3.3c-2.9-1.9,4.5-1.3,6.4-1.2c3.1,1.5,7,2.6,11.4,3.4c2.2,0.4,4.5,0.5,6.9,0.6
							c2.4,0.1,4.9,0.1,7.4-0.2l5.5-1.8c2.5,0.9,3.2,2.1,4.5,3c1.2,0.9,3,1.6,7.6,1.2l-2.8-1.2c2-0.6,3.2-0.8,4.2-0.9
							c-2-0.3-4-0.8-6-1.3c-2-0.5-3.9-0.9-5.6-1.4c2.5-1.4,6.1-1.3,10.1-0.7c3.9,0.6,8.4,0.9,12.2-0.1c-0.2-0.1-1,0-1.8,0.1
							c-0.8,0.1-1.7,0.1-2.2-0.2c5.3-1.7,10.8-3.5,15.9-5.7c5.1-2.2,9.8-4.7,13.3-7.5c1-1.7-0.5-0.6-2.3,0.5c-1.8,1.1-3.8,2.2-3.6,1
							c4.1-2.3,6.8-6.9,8.8-6.6c-1.6-0.2,0.3-2,1.6-3.3c1.3-1.3,1.9-1.9-2,0.3c5.5-6,11.4-12.1,17.5-18.2
							c6.1-6.1,12.4-12.1,18.4-17.7c-1.1,0.1-1.5-0.3-1.4-1.1c-3.7,4.2-9.6,9.9-12.9,11.2c1.4-3.6,6.9-5.5,7.1-6.7
							c-1.7,1-4.1,3.8-5.1,3.1c2.1-4.5,5.3-5.3,7.8-7.6l-0.8,1.8c4.1-3.4,5.9-3.7,7.5-4.3c1.6-0.6,3-1.5,6.6-5.6
							c1.8-3.9-0.9-0.9-2.2-2.1c1.2-0.7,3-2.9,4.9-4.9c1.9-2,4.1-3.9,5.8-4c0,0-0.3,0.3-0.8,0.7c-0.5,0.4-1.1,1-1.7,1.5
							c-1.3,1.1-2.5,2.3-2.5,2.3c3.8-2.8,7.3-5.6,10.4-7c-0.5-0.1-1-0.3-1.8,0.2c1.7-0.9,3.5-2,5.2-2.9c0.9-0.4,1.7-0.8,2.4-1
							c0.8-0.2,1.4-0.3,2-0.3c0,0,0-0.6,0-1.1c0-0.6,0-1.1,0-1.1c-0.8,0.9-2.7,2.2-4.4,3.3c-1.8,1.1-3.5,2.1-4.3,1.9
							c-0.2-0.9,1.2-2.1,3.1-3.3c1.9-1.1,4.2-2.2,5.5-2.9c-3.1,1.4-5.4,2.5-7.3,3.3c-1,0.4-1.8,0.8-2.7,1.2c-0.8,0.4-1.6,0.7-2.3,1
							c-2.9,1.4-5.5,2.9-9.3,7.3l1.8-0.9c-2.1,2.9-4.8,5.2-7.5,7.4c-2.7,2.2-5.4,4.2-7.4,6.5c0.9-1.5,0.6-2.3-0.2-1.9
							c-8,11-17.1,20.5-26.6,32c0,0-1.1,0.5-2.2,1c-1.1,0.5-2.2,0.9-2.2,0.9l0.8,1.2c-2.3,2.8-3,2.7-3.4,2.3c-0.5-0.4-0.7-1-2.3,0.7
							c1.3-1.2,1.2-0.8,1.7-0.8c-3.6,2.3-4.2,3.3-4.4,4.1c-0.2,0.8,0,1.5-1.9,2.8c1.3-0.1,3.1-1.5,4.5-2.5c1.4-1,2.4-1.6,2.4-0.2
							c-3.6,2.3-7.8,5.7-11.6,7.9c-3.8,2.3-7.1,3.4-8.4,2.1c-2.9,2.1-6.3,3.8-9.9,4.8c-1.8,0.5-3.6,0.8-5.4,1
							c-0.5,0-0.9,0.1-1.4,0.1c-0.5,0-0.9,0.1-1.5,0c-1,0-2.1,0-3.1,0c-2.1,0-4.1,0-6.2-0.1c-2-0.1-4-0.3-6-0.4
							c-3.9-0.2-7.6-0.6-10.8-0.8c-1.8,0.5,1.1,0.5,0.4,1c-1.3-0.6-3-0.8-4.9-0.9c-1.9-0.1-3.9-0.1-5.8,0c-1.9,0.1-3.6,0.2-4.9,0.1
							c-1.3-0.1-2-0.3-2-0.7c-2.6,0.3-3.8,1.5-4.5,1.9c-1.6-0.6-3.5-1.1-5.4-1.5c-1.9-0.4-4-0.8-6.2-1.1l3.1,0.8l-0.4,0.2l-4.4-1.1
							l0.2-0.1c-10.6-1.6-23-2.5-32.6-5.5c5.5,1.8-1.6,2,0.9,3c-2.3-1.7-6.5-2.9-11.2-3.7c-4.8-0.8-10.2-1.3-15-1.6
							c0,0.6-0.8,1,0.3,1.6l-5.5-1.7l0.7,0.8c-10.1-0.4-20.9-4.3-27.8-3.3c4.1,0.6,4.1,1.2,4.5,2.2c-7.3-0.5-14.1-0.8-22.7-1.7
							c0.5,0.2,0.8,0.4,0.8,0.6c-2.3,0.3-5-0.4-7.3-0.7l-0.3,1.4c-1.1-0.1-2.3-0.3-3.5-0.2c-1.2,0-2.5,0.1-3.9,0.1
							c-1.3,0-2.7,0.1-4,0c-0.7,0-1.4,0-2-0.1c-0.3,0-0.7-0.1-1-0.1c-0.3-0.1-0.6-0.1-0.8-0.2c-0.4,0.4-1.3,0.5-2.4,0.5
							c-1.2,0-2.6-0.4-4.1-0.7c-3.1-0.9-6.4-2-9.1-2.4c-2-0.9,4,2.7-1.7,1.2c0-1.6-1.8-2.2-3.7-2.7c-1.8-0.6-3.6-1.3-3.3-2.9
							c0,0-1.4-0.1-2.8-0.2c-1.4-0.1-2.8-0.3-2.8-0.3l-0.6-2c-2.8,0.8-4.4-0.1-6.3-1.4c-1.9-1.2-4-2.8-7.8-3.3
							c0.3,0.4,1,0.8,0.6,0.9c-2.2-1-7.7-2.5-3.2-2.3c-1-0.2-2.5-0.7-4.3-1.1c-1.8-0.4-3.6-0.9-5.3-1c-3.2-0.5-5.2-0.5-2.2,0.9
							c-0.2-0.5,1.2-0.4,2.8,0c1.7,0.4,3.6,1.1,4.8,1.5c-0.3,0.7-1.9,0.6-3.7,0.5c-1.8-0.1-3.7-0.1-4.5,0.6
							c-0.2-0.2-0.9-0.5-1.5-0.9c0,0-0.2,0.2-0.5,0.4c-0.2,0.2-0.5,0.4-0.5,0.4c-1.8-0.6-3.7-1-5.6-1.3c-1.9-0.3-3.7-0.4-5.5-0.5
							c-0.9-0.1-1.7-0.1-2.5-0.2c-0.8-0.1-1.6-0.1-2.3-0.2c-1.5-0.2-2.9-0.5-4.2-1c-0.3,0.5-1.5,0.8-4,0.7l-0.1-1.8
							c0,0-2,0.1-3.9,0.1c-1,0-2,0.1-2.7,0.1c-0.8,0-1.3,0.1-1.3,0.1s1,0.6,2,1.2c0.5,0.3,1,0.6,1.3,0.9c0.3,0.2,0.6,0.4,0.6,0.4
							c-1,0.1-2.1,0.2-3.1,0.2c-1,0-2,0-3,0c-2,0-3.9-0.2-5.9-0.3c-3.9-0.2-8-0.1-12.1,1.2c-0.2,0.9-1.3,1.7-2.9,2.4
							c-0.7,0.4-1.6,0.8-2.5,1.2c-0.5,0.2-1,0.4-1.5,0.6c-0.5,0.2-1,0.4-1.4,0.7c-1,0.5-2,0.9-3,1.4c-0.9,0.5-1.9,1-2.8,1.6
							c-1.8,1.1-3.2,2.4-4.1,3.8c0,0,1.3-0.6,2.5-1.2c0.6-0.3,1.3-0.6,1.8-0.8c0.5-0.2,0.8-0.4,0.8-0.4c-1.3,0.7-2.4,1.4-3.4,2.1
							c-1,0.7-1.9,1.3-2.7,1.9c-1.6,1.2-2.8,2.2-4.1,3.3c-2.5,2.1-4.9,4-9.4,6.6c3.3-3,5.1-4.4,7.2-6.2c1-0.9,2.2-1.9,3.7-3.3
							c1.5-1.4,3.4-3.2,5.9-5.6c-5.5,4.3-10.3,7.2-15,10.2c-1.2,0.7-2.3,1.5-3.5,2.2c-1.1,0.7-2.2,1.5-3.3,2.2c-1,0.6-1.9,1.3-2.8,2
							l-0.7,0.6l-0.7,0.5c-0.5,0.3-1,0.7-1.5,1.1c0.9,0.3,3.4-0.5,1.6,1.3c-0.6-0.1-1.5,0.1-2.3,0.5c-0.2,0.1-0.4,0.2-0.7,0.3
							c-0.2,0.1-0.5,0.2-0.7,0.3c-0.5,0.2-0.9,0.4-1.4,0.6c-0.9,0.4-1.7,0.7-2.2,0.8c-0.5,0.1-0.8-0.1-0.6-0.6
							c-1.4,0.8-2,1.6-2.6,2.4c-0.6,0.8-1,1.5-1.9,1.8c0,0-0.7,0-1.7,0.1c-1,0-2.4,0.2-3.8,0.1c-1.4,0-2.8,0-3.8,0
							c-1-0.1-1.7-0.1-1.7-0.1l0.4,0.3c-1.1,0.4-2.2,0.8-3.3,1.1c-1.1,0.3-2.3,0.5-3.4,0.7c-2.3,0.4-4.6,0.4-6.9,0.5
							c-1.1,0-2.3-0.1-3.4-0.2c-1.1-0.1-2.3-0.2-3.4-0.4c-2.3-0.4-4.5-0.7-6.8-1.3c-9.1-2-18-5-28.2-6.4l0.2,1l-4.7-2.6
							c3.7,1.8-2,0.8-2.5,1.5c0,0-3.1-1.3-6.2-2.6c-3.1-1.3-6.2-2.7-6.2-2.7C162.3,398.1,162.6,400.2,165.9,400.7z M330.8,372.5
							l3.3,0.1c0.7-0.1,1.3-0.1,2.1,0.1l-2.1-0.1C332.4,372.8,331.2,373.6,330.8,372.5z M622.9,398.6c0,0-1.1,0.4-2.2,0.8
							c-0.6,0.2-1.1,0.4-1.5,0.5c-0.4,0.1-0.7,0.2-0.7,0.2c0.9-0.4,4.2-1.1,2.6-1.3C621.8,398.6,623.3,397.9,622.9,398.6z
							 M327.1,384.5l2.3,0.9l1.7-1.3L327.1,384.5z M290,397.8c0,0,1-0.5,2-0.9c1-0.5,2-0.9,2-0.9l0.2-0.4c0,0-1,0.5-2.1,0.9
							c-1,0.5-2.1,1-2.1,1L290,397.8z M243.1,411.6c0.3,0,0.5,0,0.8,0.1C243.7,411.7,243.4,411.6,243.1,411.6
							c-1.7-0.1-2.7,0.4-3.7,0.8c-1,0.3-2,0.4-3.4-0.4c1.5-1.1,2.7-1.2,3.9-1.1C241.1,410.9,242.1,411.4,243.1,411.6z M323.2,375.2
							c-0.1-1.2-5.7-1.1-7.7-1.6c-2.5,0.7,1.1,1.1,2.1,1.8c-1.2,0.3-2,0.3-3.8,0.3c0.7,1.2,1.8,0.8,3.3,0.2c0.8-0.3,1.7-0.6,2.7-0.8
							c0.5-0.1,1.1-0.2,1.6-0.2C322,375,322.6,375,323.2,375.2z M419.7,389.9l-1.2,0.2l4.3,0.7L419.7,389.9z M439.6,390.5
							c0.6,0.4,1.4,0.6,2.4,0.9c1,0.2,2,0.4,3.2,0.5c2.3,0.2,4.8,0.3,6.9,0.5c1.1-1.3-3.1-3-8-2.9c-2.9-0.7-3.4-0.1-3.5,0.4
							C440.4,390.4,440.7,390.9,439.6,390.5z M274.4,399.5c1.4-0.7,3.3-1.1,5.4-1.9c2.1-0.8,4.4-2,6.4-4.3l-4.1,2l0.8-0.7l-1.6-0.2
							C284,396.1,276.6,398.1,274.4,399.5z M481.3,393.3c4.1,1.3,11.4,3.2,10.6,4.2c0.5-2-5.5-3.5-7.3-3.7
							C483.5,393.9,482.7,393.7,481.3,393.3z M482.3,395.7c-2.2,0.1-1.5,1.4-5.6,0.2c0.8-1-0.6-3.8-6.7-3.4
							c4.5,2.3,4.8,3.2,10.7,4.7L482.3,395.7z M475,390.9l-2.5,0.1c-3,0.7-3.7,2.9-7.6,0.3c0,0,1.9-0.1,3.8-0.2
							c1.9-0.1,3.8-0.1,3.8-0.1C473.2,390.9,474,390.8,475,390.9z M525.4,396l-2.4-1C525.4,395.4,525.7,395.7,525.4,396l2,0.8
							C522,397,524.8,396.6,525.4,396z M479.8,391.8l7.1,0.8C484.6,392.7,480.2,392.8,479.8,391.8z M523.6,397.7
							c-3-0.2-10.8-0.7-9.7-0.8C514.8,395.9,521.8,396.9,523.6,397.7z M661.7,368.4l-0.4,2.6l3-3.3L661.7,368.4z M629,400.2
							c0,0-0.6,0.3-1.1,0.6c-0.6,0.3-1.2,0.5-1.2,0.5l-0.7,1.1c0,0,0.7-0.5,1.5-1.1C628.3,400.8,629,400.2,629,400.2z M578.7,406.8
							c0.2-0.3,0.1-0.7-0.2-1.1c-0.7-0.2-1.4-0.4-1.7-0.7c0.7,0,1.3,0.4,1.7,0.7c1.9,0.4,4.8,0.3,6.1,0c-0.8-0.7-3.7-0.7-4.8-1.3
							c2.2-0.8,5.8,0.2,8.4,0.8c2.7,0.6,4.4,0.6,3-1.9c1.8,0.6,8.2,1.9,6,2.8c-1.3-0.1-2.8-0.1-4.5-0.1c-1.7,0-3.4,0.1-5.2,0.1
							C584,406.2,580.6,406.4,578.7,406.8c-0.2,0.3-0.7,0.4-1.5,0.4C577.4,407,578,406.9,578.7,406.8z M513.7,401.7
							c-1.8-0.3-2.6-0.5-2.9-0.7c-1.5-0.5-2.7-1.2-2.1-1.8c3.7,1,1.2,1.3,2.1,1.8C511.7,401.3,512.7,401.6,513.7,401.7z
							 M513.9,403.9l-8.7-3l2.9,1.4l-5.9-1.6C502.8,402.2,508.7,404.4,513.9,403.9z M500,401.5l-1.1-1.3l1.8,1.4L500,401.5l0.2,0.3
							l-9.9-1.7L500,401.5z M397.7,393.4c-1.2,0.7-1.3,1.4-0.7,2.1c0.5,0.6,1.8,1.3,3.2,1.8c1.4,0.6,3.1,1,4.5,1.6
							c1.4,0.5,2.6,0.9,3,1.5c0.3-0.6,1.5-1.4,1.4-2.1c-0.1-0.4-0.5-0.7-1.5-1.1c-0.5-0.2-1.2-0.3-2-0.5c-0.8-0.2-1.8-0.4-3-0.7
							c2.2,0.1,3.5,0.4,4.5,0.6c1,0.3,1.5,0.6,1.9,0.9c0.8,0.5,1.4,0.7,4-0.9c-1,0-2.1,0-3.1-0.2c-1-0.2-2-0.4-2.9-0.7
							c-0.9-0.2-1.7-0.5-2.2-0.8c-0.6-0.2-1-0.4-1.2-0.5c0,0,1.2,0.2,2.3,0.4c1.2,0.1,2.4,0.2,2.4,0.2c-0.6-0.7-1.3-1-2.2-1.2
							c-0.8-0.2-1.8-0.2-2.8-0.1c-0.5,0-1,0.1-1.5,0.1c-0.5,0-1,0-1.5,0C399.4,394,398.5,393.8,397.7,393.4z M347.1,382.2
							c0,0-1.5-0.1-3-0.3c-0.7-0.1-1.5-0.1-2.1-0.2c-0.6,0-0.9-0.1-0.9-0.1s1.6,0,3.2,0.1c1.6,0.1,3.2,0.1,3.2,0.1L347.1,382.2z
							 M200.8,419.9c0.3,1.1-8.1,1.4-9.7-0.8C195.2,419.7,199.7,420.5,200.8,419.9z M135.5,404.3l6.7,2.5c-1.9,1.8-6.1-1.7-9.4-2.1
							C131.9,403.4,134.3,404.7,135.5,404.3z M90.3,395.9l-2.2-0.5l2.2,2.3L90.3,395.9z M97.4,400.9c-1.1-0.1-5.8-1-4.3-1.8
							c0,0,1.1,0.4,2.1,0.9C96.3,400.4,97.4,400.9,97.4,400.9z M52.2,398.4l2.7,1.9l-3,0.2L52.2,398.4z M55.1,397
							c0.9,0.2,1.3,0.6,1.5,1.1c1.6,0.5,4.2,0.6,6.7,0c-0.4-1-2.2-0.3-3.8-0.5c1.1-0.1,2.9-0.8,5.2-0.5c-2.5,1.8-0.6,1.7-0.9,3.2
							c-6.8,1-6.5-0.8-7.3-2.2C55.7,397.9,55.1,397.5,55.1,397z M81.2,396.4c0.9-0.2,1.7-0.3,2-0.6l0.4,0.4
							C82.7,396.8,82,396.7,81.2,396.4c-1,0.2-2.1,0.3-3.3,0.4c-0.7,1.2,3.8,2.1,5,2.9c-2.1-0.4-3.9-1.7-6.9-0.9
							c0.4,0.4,0,0.6,1.9,0.6l-4,0.3c-4.6-1.7-0.2-2.2,4.1-2.8c0.1-0.3,0.5-0.5,1.3-0.8C79.9,395.9,80.6,396.2,81.2,396.4z
							 M51.7,395.7c-0.4-0.4,0.3-0.9-0.8-1.3l-2.2-0.3C45.6,394.8,49,395.6,51.7,395.7z M180.4,413.5c-1.5,0,1.5,2.2,4.8,2.5
							l-2.1,1.4c0.1-0.6-1.5-1.2-3.2-1.7c-1.7-0.5-3.5-1-3.9-1.1C175.2,412.7,177.6,414,180.4,413.5z M337,382.1
							c-0.9-0.3-3.5-0.1-6.1-0.1c-2.5,0-4.9-0.1-5.6-1.2c-1.4,1.4,0.4,1.7,3.1,1.8C331.2,382.6,334.8,382.3,337,382.1z M338,379.5
							c0.9,0.1,1.6,0.1,2.2,0.1c2.6,0.5,2.3,2.3,6.9,1.4c-1.1-0.5-3,0-4.1-0.5c0.2-1.2-0.4-0.9-2.8-1
							C339.6,379.5,338.9,379.4,338,379.5z M257.2,412.6c0,0-0.8-0.1-1.7-0.2c-0.8-0.2-1.7-0.3-1.7-0.3s-1.1,0.4-2.1,0.8
							c-0.5,0.2-1.1,0.4-1.5,0.5c-0.4,0.1-0.7,0.2-0.7,0.2s0.5,0,1.2-0.1c0.7-0.1,1.7-0.2,2.6-0.3c1-0.1,1.9-0.3,2.7-0.4
							c0.4,0,0.7-0.1,0.9-0.2C257.1,412.6,257.2,412.6,257.2,412.6z M207.6,414.2c0.1,0.5-1.1,0.6-2.6,0.5c-1.4-0.1-3.1-0.5-3.6-0.8
							c0.2,1.3,3.8,1.7,6.7,2.2c0.4,0.1,1,0.3,1.9,0.4c-0.6-0.2-1.2-0.3-1.9-0.4c-1-0.4-0.2-1-0.2-1.4l1.5-0.2c0,0-1-0.2-2-0.4
							c-0.5-0.1-1-0.2-1.3-0.3c-0.4-0.1-0.6-0.1-0.6-0.1s0.5,0.2,1.1,0.3C207.1,414.1,207.6,414.2,207.6,414.2z M119.4,392.7
							c-3.5,0.3-3.8-0.1-6-0.9C114.2,391.4,117.2,391.8,119.4,392.7z M233.9,413.9c-2.6,0.5-1.9,0.9-1,1.3c0.9,0.4,2.1,0.8,0.3,1.3
							c0,0,0.7-0.1,1.4-0.2c0.7-0.1,1.4-0.2,1.4-0.2c-1.1,0.5-1.9,0.6-2.4,0.6c-0.6,0-1-0.2-1.3-0.4c-0.7-0.4-1.2-1-2.8-0.7l2.1-0.4
							c1.6-1.3-3.3-0.6-3.7-1.6c1.2-0.2,3.2-0.3,4.7-0.2C234,413.4,234.9,413.7,233.9,413.9z M114.3,390.8c-5.8,0.1-4.4-2.1-7.8-2.9
							C111.2,387.5,110.2,389.7,114.3,390.8z M196.9,407l0.4-0.2c0,0,1,0.4,2.1,0.7c0.5,0.2,1,0.4,1.4,0.5c0.4,0.1,0.6,0.2,0.6,0.2
							l-0.4,0.2c0,0-1-0.3-2.1-0.7C197.9,407.4,196.9,407,196.9,407z"/>
						<path fill="#7E7D7E" d="M105.2,402.1c-1.3-0.1-2.2-0.2-2.9-0.5C103.3,401.8,104.2,401.9,105.2,402.1z"/>
						<path fill="#7E7D7E" d="M353,388.8c0.2-0.3,0.6-0.5,1.2-0.5C354.1,388.5,353.8,388.7,353,388.8z"/>
						<path fill="#7E7D7E" d="M362.8,391.2c0.1,0,0.3,0.1,0.4,0.1c0.1,0,0.2,0.1,0.3,0.2L362.8,391.2z"/>
						<path fill="#7E7D7E" d="M708.9,328.8c2.7,0-1.6,1.4-3,2.6C707.3,330.3,707.2,329,708.9,328.8z"/>
						<path fill="#7E7D7E" d="M696.2,336.1c1.1-0.4,2.5-1.3,4-2.4C699.3,334.5,698.2,335.2,696.2,336.1z"/>
						<path fill="#7E7D7E" d="M705.6,328.8c-2,2-3.8,3.6-5.4,4.8C701.5,332.4,702.3,330.8,705.6,328.8z"/>
						<path fill="#7E7D7E" d="M669.9,365.4c2.2-1.1,4.7-4.8,4.7-4.8c-5.6,7.9,2.6-0.3,3.7-0.4C674.2,364.5,673.2,363.8,669.9,365.4z
							"/>
						<path fill="#7E7D7E" d="M661.1,374.7c0.6-0.7,1.3-1.5,1.7-2.1C662.3,373.5,661.7,374.1,661.1,374.7z"/>
						<path fill="#7E7D7E" d="M659.3,378c-2.5,2.3-4.1,2.4-5.7,2.9c2.2-3.4,5.2-4.1,7.5-6.2C659.5,376.5,657.8,378.1,659.3,378z"/>
						<path fill="#7E7D7E" d="M565,413c0.8,0.2,2.6,0.3,2.6,0.9c0,0-1.4-0.1-2.8-0.2c-1.4-0.1-2.8-0.2-2.8-0.2
							C559.8,412.9,563.9,413,565,413z"/>
						<path fill="#7E7D7E" d="M544.6,408.1c-4.5-0.5-2.3,1.2-4.5,0.7l0.5-2L544.6,408.1z"/>
						<path fill="#7E7D7E" d="M548.1,398l1.3,0.3c-0.5-0.1-1-0.1-1.5-0.2L548.1,398z"/>
						<path fill="#7E7D7E" d="M523,407.9l2.8,2.6C522.1,409.5,522.3,407.7,523,407.9z"/>
						<polygon fill="#7E7D7E" points="505.9,407.6 508.4,408.6 500.4,407.1 						"/>
						<polygon fill="#7E7D7E" points="485.7,404.5 484.9,404.9 479.4,403.9 						"/>
						<path fill="#7E7D7E" d="M273.8,411c-0.9-0.6,0.7-1.9,2.6-3.5c1.9-1.5,4.3-3.1,5.3-4.1c0,1.5-1.6,2.4-3.3,3.4
							C276.6,407.9,274.8,409,273.8,411z"/>
						<path fill="#7E7D7E" d="M112.9,402.6c0,0,2.1,0.5,4.1,1.1c2,0.5,4.1,1.1,4.1,1.1C114.6,404.2,119.3,404.4,112.9,402.6z"/>
					</g>
				</g>
			</g>
		</g>
	</g>
</g>
<g id="turning_x5F_point">
</g>
<g id="tbt">
</g>
<g id="milkyway">
</g>
</svg>
