<?xml version="1.0" encoding="utf-8"?>
<!-- Generator: Adobe Illustrator 18.1.1, SVG Export Plug-In . SVG Version: 6.00 Build 0)  -->
<svg version="1.1" xmlns="http://www.w3.org/2000/svg" xmlns:xlink="http://www.w3.org/1999/xlink" x="0px" y="0px"
	 viewBox="0 0 346.2 134.3" enable-background="new 0 0 346.2 134.3" xml:space="preserve">
<g id="separate">
</g>
<g id="code">
</g>
<g id="ux">
</g>
<g id="disruptive">
</g>
<g id="helpapi">
</g>
<g id="significant">
</g>
<g id="allcontribute">
</g>
<g id="githubhelp">
</g>
<g id="microsoft">
</g>
<g id="json">
</g>
<g id="github">
</g>
<g id="scalability">
</g>
<g id="performance">
</g>
<g id="skillset">
	<rect x="-1" y="0" fill="#F7F7F5" width="345.9" height="134.3"/>
	<linearGradient id="SVGID_2_" gradientUnits="userSpaceOnUse" x1="113.388" y1="84.4349" x2="79.9613" y2="100.7382">
		<stop  offset="0" style="stop-color:#7F8B43"/>
		<stop  offset="1" style="stop-color:#FFFFFF"/>
	</linearGradient>
	<path fill-rule="evenodd" clip-rule="evenodd" fill="url(#SVGID_2_)" d="M86.5,93.8c0,0,2.8,3.7,3.1,5.5c0.3,1.7,0.3,7.2,0.3,7.2
		l23.3-13.5l6.9-0.2l0.5-8.1c0,0,0.1-4.8,0.1-5.4c0.1-0.6-0.3-6.1-0.3-6.1l-2.1-2l-1.8,0.2l0.4,2.4c0,0-19.6,14-24.3,16.6
		C88.2,92.8,86.5,93.8,86.5,93.8z"/>
	<path fill-rule="evenodd" clip-rule="evenodd" fill="#737D36" d="M110.4,68.3c0,0-16.9,10.2-23.4,16.5c-1.2,1.2,2.3,7.4,1.6,7.8
		c-4.4,2.3,12.3-3.8,12.3-3.8L119,73.4l-0.1-1.6l-8-4.9L110.4,68.3z"/>
	<path fill-rule="evenodd" clip-rule="evenodd" fill="#E3E8C3" d="M109.5,53.5c0.3,3.9,0.6,7.8,0.9,11.7c0.5,0.4,1,0.9,1.5,1.3
		c-0.5-0.3-1-0.7-1.5-1c0,0.2,0,0.3,0,0.5c2.1,1.6,4.3,3.3,6.4,4.9c-2.2-1.4-4.3-2.9-6.5-4.3c0,0.6,0.1,1.2,0.1,1.7
		c2.2,1.8,4.4,3.6,6.7,5.4c0.6-0.6,1.2-1.3,1.7-1.9c0.2,3.1,0.5,6.2,0.7,9.2c4.9,3.5,9.7,7,14.6,10.4c-4.7-2.7-9.3-5.4-14-8.1
		c-0.2,3.1-0.3,6.1-0.5,9.2c13.4,6.5,27.4,11.6,42,15c-0.2-1.1-0.4-2.1-0.7-3.2c-12.1-1-3.1-0.7,0-0.8c0-0.7,0-1.7,0.1-2.4
		c-15,1.7-1.8,0,0.3-1.6c-9.4-0.7-0.1-0.9,0.3-1c0.1-0.4-0.1-1.4,0-1.8c-19.7-5.3-27-10.9-33.6-15.7c8.4,5.5,21.6,11.5,33.7,14.9
		c0-0.7,1.4-3.7,2.6-8c-0.8-0.4-3.6-0.7-4.4-1.1c0.8,0.1,3.7,0,4.5,0.1c0.1-0.7,0.2-1.4,0.3-2.1c-10.3-2.5-29.3-9.8-32.8-12.5
		C126,67.6,118.8,60.5,109.5,53.5z"/>
	<path fill-rule="evenodd" clip-rule="evenodd" fill="#737D36" d="M119.5,81c0.5,0.3-30,18.2-30,18.2l0.6,1c0,0,16.3-10.8,21-13.2
		c4.7-2.4,8.6-5.2,8.6-5.2L119.5,81z"/>
	<path fill-rule="evenodd" clip-rule="evenodd" fill="#F9A64A" d="M131.7,72c0,0,1.5,1.7,1.6,5c0.1,3.3-0.1,7.3-0.1,7.3
		c0.7,0.4,1.3,0.7,2,1.1c0,0,0.2-4.8,0-8.5C135,74.9,135.1,73.1,131.7,72z"/>
	<path fill-rule="evenodd" clip-rule="evenodd" fill="#F9A64A" d="M138.3,76.1c1.2,2.5,1.6,8.7,1.4,11.5l2.3,1c0,0-0.1-5.7-0.7-9.1
		C141.1,78.6,140.5,76.5,138.3,76.1z"/>
	<polygon fill-rule="evenodd" clip-rule="evenodd" fill="#F9A64A" points="133.3,84.2 133,84.6 134.6,85.7 135.2,85.3 	"/>
	<polygon fill-rule="evenodd" clip-rule="evenodd" fill="#F9A64A" points="139.7,87.5 138.7,88.1 140.5,89 142,88.5 	"/>
	<path fill-rule="evenodd" clip-rule="evenodd" fill="#D1AA67" d="M134.3,73.7c4.1,1.2,4.4,2.9,4.8,5.2c0.8,5.4,0.6,8.2,0.6,8.6
		c-1.5-0.7-3-1.5-4.5-2.2C135,81.6,135.5,74.9,134.3,73.7z"/>
	<path fill-rule="evenodd" clip-rule="evenodd" fill="#F9A64A" d="M138.6,88.9c0,0,0.8,7.4,0.1,11.7l1.6,0.6c0,0,1.6-5.1,0.4-11.2
		L138.6,88.9z"/>
	<path fill-rule="evenodd" clip-rule="evenodd" fill="#D1AA67" d="M146,92.3c0,0,0.5,6.5-0.2,10.8l-5.5-1.9c0,0,1.6-5.1,0.4-11.2
		C142.4,90.8,144.2,91.6,146,92.3z"/>
	<path fill-rule="evenodd" clip-rule="evenodd" fill="#F9A64A" d="M146,92.3c0,0,0.5,6.5-0.2,10.8l1.7,0.5
		C148.7,92.8,147.6,92.9,146,92.3z"/>
	<path fill-rule="evenodd" clip-rule="evenodd" fill="#8D9958" d="M117.1,73.7c0,0-4.5,2.7-5.6,3.6c-1,0.9-3.3,0.3-3.3,0.3
		s-11.4,8-15,11.1c-3.6,3.1,1.4,1.5,5.4-1.9c4-3.4,13.6-8.6,14.1-9.2C113.3,76.9,117.1,73.7,117.1,73.7z"/>
	<linearGradient id="SVGID_4_" gradientUnits="userSpaceOnUse" x1="123.0907" y1="57.8587" x2="89.6635" y2="74.1623">
		<stop  offset="0" style="stop-color:#7F8B43"/>
		<stop  offset="1" style="stop-color:#FFFFFF"/>
	</linearGradient>
	<path fill-rule="evenodd" clip-rule="evenodd" fill="url(#SVGID_4_)" d="M89.7,70.4c0,0,2.8,3.7,3.1,5.5c0.3,1.7,0.3,7.2,0.3,7.2
		l23.3-13.5l6.9-0.2l0.5-8.1c0,0,0.1-4.8,0.1-5.4c0.1-0.6-0.3-6.1-0.3-6.1l-2.1-2l-1.8,0.2l0.4,2.4c0,0-19.6,14-24.3,16.6
		C91.4,69.4,89.7,70.4,89.7,70.4z"/>
	<path fill-rule="evenodd" clip-rule="evenodd" fill="#7F8B46" d="M112.7,30c-9.5,8.3-21,24.6-21,24.6L82.6,64l1.3,2.8l1-0.8l-1,0.8
		l1.6,3.2l0.8-0.8l0.2,2.6c0,0,6.8-1.6,14.6-11.1c7.8-9.5,12.6-15.7,12.6-15.7l5.6,2.9l2.8,0.6l-7.1-12.2L112.7,30z"/>
	<path fill-rule="evenodd" clip-rule="evenodd" fill="#737D36" d="M113.7,44.8c0,0-17.5,22-21.9,24.3c-4.4,2.3,12.3-3.8,12.3-3.8
		L122.2,50l-0.1-1.6l-8-4.9L113.7,44.8z"/>
	<linearGradient id="SVGID_6_" gradientUnits="userSpaceOnUse" x1="59.3773" y1="161.4774" x2="156.5853" y2="-46.9858">
		<stop  offset="0" style="stop-color:#737E3B"/>
		<stop  offset="1" style="stop-color:#FFFFFF"/>
	</linearGradient>
	<path fill-rule="evenodd" clip-rule="evenodd" fill="url(#SVGID_6_)" d="M116.8,20.7c0,0,6.1,15.7,18.1,27.8
		c-8.7-6.5-22.2-18.4-22.2-18.4c-7.6,7.4-14.6,15.8-20.9,24.6c-1.8-0.8-3.2-1.9-3.9-3.5C95.8,38.1,105.2,27.5,116.8,20.7z"/>
	<path fill-rule="evenodd" clip-rule="evenodd" fill="#E3E8C3" d="M112.7,30.1c0.3,3.9,0.6,7.8,0.9,11.7c0.5,0.4,1,0.9,1.5,1.3
		c-0.5-0.3-1-0.7-1.5-1c0,0.2,0,0.3,0,0.5c2.1,1.6,4.3,3.3,6.4,4.9c-2.2-1.4-4.3-2.9-6.5-4.3c0,0.6,0.1,1.2,0.1,1.7
		c2.2,1.8,4.4,3.6,6.7,5.4c0.6-0.6,1.2-1.3,1.7-1.9c0.2,3.1,0.5,6.2,0.7,9.2c4.9,3.5,9.7,7,14.6,10.4c-4.7-2.7-9.3-5.4-14-8.1
		c-0.2,3.1-0.3,6.1-0.5,9.2c13.4,6.5,27.4,11.6,42,15c-0.2-1.1-0.4-2.1-0.7-3.2c0,0-2.1-0.2-6.2-2.2c3.8,1.4,6.2,1.4,6.2,1.4
		c0-0.7,0-1.7,0.1-2.4c-4,0.5-7.2-1.1-9.2-2.8c1.6,0.7,6.1,3.9,9.4,1.3c-1.7-0.1-3.1-0.7-4.3-1.6c1.4,0.6,2.8,1.3,4.5,0.6
		c0.1-0.4-0.1-1.4,0-1.8c-20.6-4.5-27.8-10.2-33.6-15.7c8.4,5.5,17.5,9.4,27.3,12.1c0-0.9,0.1-1.9,0.1-2.8c-2.9-0.5-4.8-1.5-6.7-2.6
		c2,0.9,3.8,1.8,6.6,1.9c0-1.2,0.1-2.5,0.1-3.7c-0.8-0.4-1.6-0.9-2.3-1.3c0.8,0.1,1.6,0.2,2.5,0.3c0.1-0.7,0.2-1.4,0.3-2.1
		c-10.3-2.5-20.3-7.7-23.8-10.5C129.2,44.1,122,37.1,112.7,30.1z"/>
	<path fill-rule="evenodd" clip-rule="evenodd" fill="#737D36" d="M122.8,57.6c0.5,0.3-30,18.2-30,18.2l0.6,1c0,0,16.3-10.8,21-13.2
		c4.7-2.4,8.6-5.2,8.6-5.2L122.8,57.6z"/>
	<path fill-rule="evenodd" clip-rule="evenodd" fill="#F9A64A" d="M134.9,48.5c0,0,1.5,1.7,1.6,5c0.1,3.3-0.1,7.3-0.1,7.3
		c0.7,0.4,1.3,0.7,2,1.1c0,0,0.2-4.8,0-8.5C138.3,51.5,138.3,49.7,134.9,48.5z"/>
	<path fill-rule="evenodd" clip-rule="evenodd" fill="#F9A64A" d="M141.5,52.7c1.2,2.5,1.6,8.7,1.4,11.5l2.3,1c0,0-0.1-5.7-0.7-9.1
		C144.4,55.2,143.7,53,141.5,52.7z"/>
	<polygon fill-rule="evenodd" clip-rule="evenodd" fill="#F9A64A" points="136.5,60.8 135.7,61.5 137.2,62.6 138.4,61.9 	"/>
	<polygon fill-rule="evenodd" clip-rule="evenodd" fill="#F9A64A" points="142.9,64.1 140.9,65 142.8,66 145.2,65.1 	"/>
	<path fill-rule="evenodd" clip-rule="evenodd" fill="#D1AA67" d="M137.6,50.2c4.1,1.2,4.4,2.9,4.8,5.2c0.8,5.4,0.6,8.2,0.6,8.6
		c-1.5-0.7-3-1.5-4.5-2.2C138.2,58.2,138.7,51.5,137.6,50.2z"/>
	<path fill-rule="evenodd" clip-rule="evenodd" fill="#F9A64A" d="M141.8,65.5c0,0,0.8,7.4,0.1,11.7l1.6,0.6c0,0,1.6-5.1,0.4-11.2
		L141.8,65.5z"/>
	<path fill-rule="evenodd" clip-rule="evenodd" fill="#D1AA67" d="M149.2,68.9c0,0,0.5,6.5-0.2,10.8l-5.5-1.9c0,0,1.6-5.1,0.4-11.2
		C145.6,67.4,147.4,68.2,149.2,68.9z"/>
	<path fill-rule="evenodd" clip-rule="evenodd" fill="#F9A64A" d="M149.2,68.9c0,0,0.5,6.5-0.2,10.8l1.7,0.5
		C151.9,69.4,150.9,69.5,149.2,68.9z"/>
	<path fill-rule="evenodd" clip-rule="evenodd" fill="#8D9958" d="M120.3,50.2c0,0-4.5,2.7-5.6,3.6c-1,0.9-3.3,0.3-3.3,0.3
		s-11.4,8-15,11.1c-3.6,3.1,1.4,1.5,5.4-1.9c4-3.4,13.6-8.6,14.1-9.2C116.5,53.5,120.3,50.2,120.3,50.2z"/>
	<polygon fill-rule="evenodd" clip-rule="evenodd" fill="#98A45A" points="91,114.2 113.5,120 131.8,117.3 120.2,92.7 113.5,92.6 
		90.1,105.5 	"/>
	<path fill-rule="evenodd" clip-rule="evenodd" fill="#E3E8C2" d="M161.3,106.5c0,0-0.4,6.5,1.9,11.1c-29.9,0.1-49.3,2.6-49.3,2.6
		c-0.2-0.8-0.3-1.5-0.5-2.3c3.6-0.3,7.3-0.6,10.9-0.9c-3.7,0.1-7.6-0.4-11.3-0.3c2.1-0.7,4.4-0.8,6.5-1.5c0,0-6.7-1.8-6.4-1.8
		c0.3,0,6.5-0.5,6.2-0.5c-0.3,0-5.3-1.4-5.5-1.8c2.7-1.6,4.9-1.6,5.2-1.4c-2.3-1.7-3.9-1.2-4.7-1.6c0.3-0.8,0.9-2.8,1.6-5.1
		c0.2-0.6,3-0.1,3.2-0.7c0.3-1.1-3.2-0.4-2.8-1.4c0.2-0.6,3.9-1,4.3-1.9c0.3-0.8-3.5,0.8-3.6-0.1c-0.3-1.7,2.8-5.9,3.1-6.2
		c9.1,6.6,25.4,12.6,37.6,13.4C161.8,106.4,161.4,106.6,161.3,106.5z"/>
	<path fill-rule="evenodd" clip-rule="evenodd" fill="#737D36" d="M93.2,107.5c6.2-3.9,12.6-3.5,19.3-3.9
		C106.5,104.3,98.5,104.5,93.2,107.5z"/>
	<path fill-rule="evenodd" clip-rule="evenodd" fill="#737D36" d="M92.5,111.1c5.5-3.2,12.8-2.5,20.7-2.2
		C105.8,108.8,98.5,108.5,92.5,111.1z"/>
	<path fill-rule="evenodd" clip-rule="evenodd" fill="#737D36" d="M96.5,113.3c3.7-1.1,8.8-1.1,14.4-1.2
		C105.7,112.3,100.6,112.4,96.5,113.3z"/>
	<path fill-rule="evenodd" clip-rule="evenodd" fill="#F9A64A" d="M134.1,100.1c0,0,0.8,11.4,0.1,18.2l0.1,0c0.5,0,1.1-0.1,1.7-0.1
		c0.3-2.3,1.3-9.7,0.3-17.4L134.1,100.1z"/>
	<path fill-rule="evenodd" clip-rule="evenodd" fill="#D1AA67" d="M141.5,102.8c0,0,0.3,8.4,0,15.2c-2,0.1-4,0.2-5.6,0.3
		c0.3-2.3,1.2-9.7,0.2-17.4C137.5,101.6,139.8,102.2,141.5,102.8z"/>
	<path fill-rule="evenodd" clip-rule="evenodd" fill="#F9A64A" d="M141.5,102.8c0,0,0.3,8.4,0,15.2c0.6,0,1.1,0,1.7-0.1
		C144,104.5,143,103.5,141.5,102.8z"/>
	<path fill-rule="evenodd" clip-rule="evenodd" fill="#737D36" d="M223,28c1.9,0.7,3.4,2.1,3.9,4.1c11.6-2.3,11.1,3.5,6.7,10.8
		c-2.3,3.8-3.5,7.6-3.5,7.6s-3.2,0-7,0v-3c5.5-6.9,4.1-13.6,0-17.2V28L223,28z M223,45.5c1.2-4,1.1-8.2,0-11.6V45.5z M210.5,50.6
		c0,0-1.2-3.9-4.1-8.4c-4.6-7.1-4.2-13.1,6.2-9.7c1.2-4.4,6.6-5.9,10.4-4.5v2.4c-1-0.9-2.3-1.7-3.6-2.1c1.6,1.3,2.8,3.3,3.6,5.6
		v11.6c-0.4,1.4-1,2.9-1.8,4.2c0.7-0.7,1.3-1.4,1.8-2v3C217.4,50.6,210.5,50.7,210.5,50.6z"/>
	<path fill-rule="evenodd" clip-rule="evenodd" fill="#737D36" d="M242.6,121.5h17.2c2.1,0,3.8-1.7,3.8-3.8v-3.5
		c0-2.1-1.7-3.8-3.8-3.8h-4.7c1.5-14.8-1-28.9-12.5-40.2v5.6c8.9,10.8,15.3,28.9,1.7,41.1c6.3-11.4,3.4-25.5-1.7-35.9V121.5z
		 M209.9,61.4c0,0-27.8,12.8-25.4,49h-4.4c-2.1,0-3.8,1.7-3.8,3.8v3.5c0,2.1,1.7,3.8,3.8,3.8h62.6V80.9c-2.9-5.9-6.5-10.7-9.6-13.3
		c3,1.5,6.4,4.4,9.6,8.2v-5.6c-3.2-3.1-7-6.1-11.6-8.7H209.9z"/>
	<path fill-rule="evenodd" clip-rule="evenodd" fill="#737D36" d="M208.7,52.3h22.5c1,0,1.8,0.8,1.8,1.8v2.7c0,1-0.8,1.8-1.8,1.8
		h-22.5c-1,0-1.8-0.8-1.8-1.8v-2.7C206.9,53.1,207.7,52.3,208.7,52.3z"/>
	<path fill="#FFFFFF" d="M227.7,90.5c-0.3-0.7-0.6-1.2-1.1-1.7c-0.5-0.5-1.1-0.9-1.9-1.2c-0.2-0.1-0.4-0.2-0.8-0.3
		c-0.4-0.1-1-0.3-1.6-0.4v-7c0.7,0.1,1.2,0.4,1.6,0.8c0.1,0.1,0.2,0.2,0.2,0.2c0.5,0.5,0.8,1.2,0.9,2.2l2.5-0.4
		c-0.2-1.5-0.9-2.8-1.9-3.6c-0.5-0.4-1.1-0.7-1.7-0.9c-0.5-0.2-1-0.3-1.6-0.3v-1.2h-1.4v1.2c-0.6,0.1-1.1,0.1-1.5,0.3
		c-0.9,0.2-1.6,0.6-2.1,1.1c-1.2,1.1-1.8,2.5-1.8,4.2c0,1,0.2,1.8,0.6,2.6c0.4,0.8,1,1.4,1.8,1.8c0.5,0.3,1,0.5,1.5,0.7
		c0.5,0.2,1,0.3,1.5,0.4v7.8c-0.6-0.1-1.1-0.2-1.5-0.6c-0.3-0.2-0.6-0.5-0.9-0.9c-0.5-0.6-0.8-1.6-1-2.9l-2.4,0.5
		c0.1,1.3,0.4,2.3,1,3.2c0.6,0.9,1.2,1.5,2,1.9c0.4,0.2,0.9,0.4,1.4,0.5c0.5,0.1,1,0.2,1.5,0.3v2.4h1.4v-2.5c0.6,0,1.1-0.1,1.6-0.3
		c1-0.3,1.8-0.8,2.5-1.5c1.1-1.1,1.6-2.5,1.6-4.2C228.1,91.9,227.9,91.2,227.7,90.5z M220.9,86.6c-0.6-0.2-1.1-0.4-1.5-0.6
		c-0.3-0.2-0.6-0.4-0.8-0.7c-0.5-0.6-0.7-1.3-0.7-2.1c0-0.8,0.3-1.6,0.8-2.2c0.2-0.2,0.4-0.4,0.7-0.6c0.4-0.3,0.9-0.4,1.5-0.5V86.6z
		 M224.6,95.4c-0.2,0.2-0.5,0.5-0.7,0.6c-0.5,0.3-1,0.5-1.6,0.6v-7.4c0.7,0.2,1.2,0.4,1.6,0.7c0.4,0.2,0.8,0.5,1,0.8
		c0.4,0.5,0.7,1.2,0.7,2.1C225.6,93.9,225.3,94.7,224.6,95.4z"/>
</g>
<g id="wastedtime">
</g>
<g id="legacy">
</g>
<g id="notanengineer">
</g>
<g id="strategies">
	<g>
		<defs>
			<polygon id="SVGID_211_" points="316.4,-62.6 -448.3,-62.6 -451.1,-674 315.9,-674 			"/>
		</defs>
		<clipPath id="SVGID_8_">
			<use xlink:href="#SVGID_211_"  overflow="visible"/>
		</clipPath>
		<g clip-path="url(#SVGID_8_)">
			<linearGradient id="SVGID_10_" gradientUnits="userSpaceOnUse" x1="-73.2018" y1="-441.7094" x2="-73.2018" y2="-260.2102">
				<stop  offset="0" style="stop-color:#FFFFFF"/>
				<stop  offset="1" style="stop-color:#FFFFFF;stop-opacity:0"/>
			</linearGradient>
			<path fill="url(#SVGID_10_)" d="M-451-347.9c0,0,182.3-58.2,382.6-58.2s396,60.4,396,60.4V46.5c0,0-801.7,8.6-801.7,0"/>
		</g>
	</g>
</g>
<g id="pressure">
</g>
<g id="whatif">
</g>
<g id="turning_x5F_point">
</g>
<g id="tbt">
</g>
<g id="milkyway">
</g>
<g id="bubbles">
</g>
<g id="_x31_2345">
</g>
</svg>
