<?xml version="1.0" encoding="utf-8"?>
<!-- Generator: Adobe Illustrator 18.1.1, SVG Export Plug-In . SVG Version: 6.00 Build 0)  -->
<svg version="1.1" xmlns="http://www.w3.org/2000/svg" xmlns:xlink="http://www.w3.org/1999/xlink" x="0px" y="0px"
	 viewBox="0 0 767 471" enable-background="new 0 0 767 471" xml:space="preserve">
<g id="separate">
</g>
<g id="code">
</g>
<g id="ux">
	<rect fill="#FFFFFF" width="767" height="471"/>
	<g>
		<path fill="#6B2E55" d="M414.3,241c-2.9-2.9-7.6-2.9-10.5,0c-2.9,2.9-2.9,7.6,0,10.5l1.5,1.5c3.7,3.7,7.4,7.5,11,11.3
			c3.6,3.8,7.2,7.6,10.6,11.4c0.8,0.9,1.7,1.9,2.4,2.8l0.1,0.1l-0.8,1.2c-2.8,4-6,8.2-9.3,12.2l-3.9,4.8l11.5,9.4l4-4.9
			c3.4-4.2,6.7-8.4,9.9-13.1l0.6-0.9l0.8-1.2c0.7-1.1,1.4-2.3,1.9-3.4c0.3-0.6,0.5-1.2,0.7-1.8c0.2-0.6,0.2-1.2,0.3-1.8l0.1-0.9
			l0-0.5c0-0.2-0.1-0.3-0.1-0.5c-0.1-0.6-0.3-1.2-0.4-1.8l-0.3-0.9c-0.1-0.3-0.2-0.6-0.4-0.9c-0.3-0.6-0.6-1.1-1-1.7l-1.2-1.6
			c-0.2-0.3-0.4-0.5-0.6-0.8l-0.5-0.6c-0.9-1.1-1.8-2.2-2.8-3.2c-3.7-4.1-7.3-8-11-11.9c-3.7-3.9-7.5-7.7-11.2-11.5L414.3,241z"/>
		<polygon fill="#9E6C8F" points="415.5,296.8 418,293.7 429.5,303.1 427,306.2 		"/>
		<path fill="#6B2E55" d="M374.7,251.4c2.9-2.9,2.9-7.5,0-10.5c-2.9-2.9-7.6-3-10.5,0l-1.5,1.5c-3.8,3.7-7.5,7.5-11.2,11.3
			c-3.7,3.8-7.4,7.7-11,11.8c-0.9,1-1.8,2.1-2.7,3.2l-0.9,1.1c-0.4,0.5-0.8,1-1.2,1.6l-0.6,0.8l-0.5,0.8c-0.3,0.5-0.7,1.1-0.8,1.7
			l-0.3,0.9l-0.2,0.9c-0.1,0.6-0.4,1.2-0.2,1.8c0.1,1.2,0.2,2.4,0.7,3.6c0.5,1.2,1.1,2.3,1.7,3.5c0.2,0.3,0.3,0.6,0.5,0.8l0.4,0.7
			l0.6,0.9c3.1,4.8,6.3,9,9.6,13.3l3.9,5l11.7-9.2l-3.8-4.9c-3.1-4.1-6.3-8.3-8.9-12.4l-0.6-0.9l0.4-0.5c0.8-0.9,1.6-1.9,2.4-2.8
			c3.4-3.8,7-7.6,10.6-11.3c3.6-3.7,7.3-7.5,11-11.2L374.7,251.4z"/>
		<polygon fill="#9E6C8F" points="350.4,306 347.9,302.8 359.6,293.7 362.1,296.8 		"/>
		<path fill="#5B234A" d="M409.2,238.6c-4.9-1.1-12.4-2.4-20.3-2.4c-7.9,0-15.4,1.3-20.3,2.4c-3.1,0.7-5.6,4-5.6,7.2v51.7h51.8
			v-51.7C414.8,242.6,412.3,239.3,409.2,238.6z"/>
		<path fill="#FFDA96" d="M404,237.5c-4.4-0.7-9.6-1.4-15-1.4c-5.4,0-10.7,0.6-15.1,1.4l14.5,18.5h1.1L404,237.5z"/>
		<path fill="#FFDA96" d="M399.6,231.3l0.8,5.7c0,0-4.9,6-11.5,6c-6.6,0-11.5-6-11.5-6l0.8-5.8H399.6z"/>
		<polygon fill="#9E6C8F" points="375.7,246.3 370.4,252.6 366.1,246.3 371.4,239.9 		"/>
		<polygon fill="#9E6C8F" points="411.7,246.3 407.4,252.6 402.1,246.3 406.4,239.9 		"/>
		<polygon fill="#9E6C8F" points="388,260.9 382.7,267.2 377.5,260.9 381.8,254.5 		"/>
		<polygon fill="#9E6C8F" points="375.7,260.9 370.4,267.2 366.1,260.9 370.4,254.5 		"/>
		<polygon fill="#9E6C8F" points="400.4,260.9 395.1,267.2 389.8,260.9 396,254.5 		"/>
		<polygon fill="#9E6C8F" points="411.7,260.9 407.4,267.2 402.1,260.9 407.4,254.5 		"/>
		<polygon fill="#9E6C8F" points="388,275.5 382.7,281.8 377.5,275.5 382.7,269.1 		"/>
		<polygon fill="#9E6C8F" points="375.7,275.5 370.4,281.8 366.1,275.5 370.4,269.1 		"/>
		<polygon fill="#9E6C8F" points="400.4,275.5 395.1,281.8 389.8,275.5 395.1,269.1 		"/>
		<polygon fill="#9E6C8F" points="411.7,275.5 407.4,281.8 402.1,275.5 407.4,269.1 		"/>
		<polygon fill="#9E6C8F" points="388,290.1 382.7,296.4 377.5,290.1 382.7,283.7 		"/>
		<polygon fill="#9E6C8F" points="375.7,290.1 370.4,296.4 366.1,290.1 370.4,283.7 		"/>
		<polygon fill="#9E6C8F" points="400.4,290.1 395.1,296.4 389.8,290.1 395.1,283.7 		"/>
		<polygon fill="#9E6C8F" points="411.7,290.1 407.4,296.4 402.1,290.1 407.4,283.7 		"/>
		<path fill="#1D9DAA" d="M419.1,360.4l-4.3-62.9H363l-3.6,62.9l21,3.4l3.2-51c0.1-2.1,2-3.8,4.1-3.8h2.9c2.1,0,3.9,1.7,4.1,3.8
			l3.3,51L419.1,360.4z"/>
		<path fill="#FFDA96" d="M426.2,307.1l0.7-0.9l-11.5-9.4l-0.7,0.9c-2.6,3.1-2.1,7.8,1,10.4C418.9,310.8,423.6,310.3,426.2,307.1z"
			/>
		<path fill="#FFDA96" d="M362.8,297.7l-0.7-0.9l-11.7,9.2l0.7,0.9c2.6,3.3,7.3,3.8,10.5,1.2C364.7,305.5,365.3,300.9,362.8,297.7z"
			/>
		<polygon fill="#77380E" points="380.5,367.7 357.5,367.7 357.5,363.9 359.4,360.4 380.5,363.8 		"/>
		<polygon fill="#77380E" points="398,367.7 421.1,367.7 421.1,363.9 419.1,360.4 398,363.8 		"/>
		<path fill="#EBC580" d="M399.6,234.1c0,0-3.4,1.7-10.8,1.7c-7.4,0-10.9-1.7-10.9-1.7s5.8-1.2,10.9-1.2
			C393.9,232.9,399.6,234.1,399.6,234.1z"/>
		<ellipse fill="#FFDA96" cx="353.1" cy="198.8" rx="6.8" ry="8.6"/>
		<ellipse fill="#FFDA96" cx="424.5" cy="198.8" rx="6.8" ry="8.6"/>
		<path fill="#FFDA96" d="M424.1,173.9c0-16.4-13.3-29.7-29.7-29.7h-12c-16.4,0-29.7,13.3-29.7,29.7v31.4
			c0,16.4,13.3,29.7,29.7,29.7h12c16.4,0,29.7-13.3,29.7-29.7V173.9z"/>
		<path fill="#441A12" d="M374.4,207.8c-0.8,0-1.4-0.6-1.4-1.4v-1.6c0-1.2-1-2.3-2.3-2.3c-1.2,0-2.3,1-2.3,2.3v1.6
			c0,0.8-0.6,1.4-1.4,1.4c-0.8,0-1.4-0.6-1.4-1.4v-1.6c0-2.8,2.3-5.1,5.1-5.1c2.8,0,5.1,2.3,5.1,5.1v1.6
			C375.9,207.2,375.2,207.8,374.4,207.8z"/>
		<path fill="#441A12" d="M410.8,207.8c-0.8,0-1.4-0.6-1.4-1.4v-1.6c0-1.2-1-2.3-2.3-2.3c-1.2,0-2.3,1-2.3,2.3v1.6
			c0,0.8-0.6,1.4-1.4,1.4c-0.8,0-1.4-0.6-1.4-1.4v-1.6c0-2.8,2.3-5.1,5.1-5.1c2.8,0,5.1,2.3,5.1,5.1v1.6
			C412.2,207.2,411.6,207.8,410.8,207.8z"/>
		<path opacity="0.5" fill="#CCCCCC" d="M356.1,193.2l14,0.5l18.1,2.3l10.1-1.8l7-0.7l16.3-0.3l1.6,6c0,0,1.5,16.5-9,18.2
			c-10.4,1.8-17.4-1.8-22.3-15.5c-4.9-13.7-5.5-3.1-5.5-3.1s-3.6,21.2-16.3,19.2C357.4,216.1,352.7,210.6,356.1,193.2z"/>
		<polygon opacity="0.5" fill="#E6E6E6" points="361.2,194 366.9,217 371.3,217.6 363.6,193.1 		"/>
		<path opacity="0.5" fill="#E6E6E6" d="M420.3,213.3c0.7-1.1,1.5-2.2,2.3-3.2l-5.3-17h-2.8l5.3,21.1
			C419.8,213.8,420,213.5,420.3,213.3z"/>
		<polygon opacity="0.5" fill="#E6E6E6" points="397.2,194.9 402.9,217.8 407.3,218.5 399.6,193.9 		"/>
		<path opacity="0.5" fill="#E6E6E6" d="M362.7,216.3c0.4,0.3,0.8,0.5,1.2,0.8l-5.6-22.2l-1,1.1l4.5,20
			C362.1,216,362.4,216.1,362.7,216.3z"/>
		<path opacity="0.5" fill="#E6E6E6" d="M379.8,213.6c0.2,0.1,0.4,0.3,0.6,0.4c0.1-0.1,0.2-0.2,0.4-0.2l-5.1-19.9h-1.3l4.4,19.5
			C379.2,213.4,379.5,213.4,379.8,213.6z"/>
		<path opacity="0.5" fill="#E6E6E6" d="M399.7,215.8c0.2,0.1,0.4,0.3,0.6,0.4c0.1-0.1,0.2-0.2,0.4-0.2l-5.1-19.9h-1.3l4.4,19.5
			C399.1,215.5,399.4,215.5,399.7,215.8z"/>
		<path opacity="0.5" fill="#E6E6E6" d="M383.8,207.4C383.9,207.3,383.9,207.3,383.8,207.4l-3.8-12.5c-0.7-0.2-1.4-0.5-2.1-0.7
			c-0.1,0-0.1-0.1-0.2-0.1c-0.3,0-0.6,0.1-0.9,0.1l4.5,18C382,210.4,382.8,208.8,383.8,207.4z"/>
		<path fill="#441A12" d="M388.9,228.3c-10.5,0-14.4-4.1-14.6-4.3c-0.5-0.6-0.5-1.5,0.1-2c0.6-0.5,1.5-0.5,2,0.1
			c0.1,0.1,3.4,3.4,12.5,3.4c9.1,0,12.4-3.3,12.5-3.4c0.5-0.6,1.5-0.6,2-0.1c0.6,0.5,0.6,1.4,0.1,2
			C403.3,224.2,399.4,228.3,388.9,228.3z"/>
		<g>
			<g>
				<path fill="#603813" d="M436.7,164.4c0.6-2.9-1.1-4.7-2.5-7.7c-1.4-3-1.7-7.2-2-8.8c-0.3-1.6-1.6-2.8-2.7-2.8
					c-1.1,0-2.9,1.4-4.9-1.7c-2-3.2-6.2-3.2-6.2-3.2c-1-6.9-6.9-6.2-6.9-6.2c0.5-3.9-0.9-6.3-0.9-6.3c-2.2,2-6.8,1.2-6.8,1.2
					c1.6-2.5,0.4-5.1,0.4-5.1c-1.3,3.4-7.5,5.2-7.5,5.2c0.6-0.9,0.2-3.1,0.2-3.1c-0.9,2.5-4.9,3-4.9,3c0.6-3.6,3.9-5.4,3.9-5.4
					c-2.7,0.8-8.6,5.5-8.6,5.5c2.2-3.9,9.2-7.6,9.2-7.6c-5.9,1-10.7,5.6-10.7,5.6c-0.2-3.4,5.4-7.3,5.4-7.3c-2.8,0.4-5.9,3-5.9,3
					c2.2-3.1,5.9-5.2,5.9-5.2c-4.6,1.6-14.3,7.8-14.3,7.8c3.7-4.8,7.7-7.2,7.7-7.2c-2.9,0.6-5.6,2.4-7.2,3.7c2.1-2.8,0-6.6,0-6.6
					c0.7,2.5-2.2,4.9-2.2,4.9s-0.6,3.1,0-0.4c0.6-3.6-1.4-6.9-1.4-6.9c1.5,7.8-6.3,15.4-6.3,15.4c1.6-2.8,0.7-6.5,0.7-6.5
					c-0.4,1.5-1.8,5.9-4.3,8.6c-2.4,2.7-2.7,9.6-2.7,9.6c-2.2-5,0.9-9.1,0.9-9.1c-6,3-3.9,9.3-3.9,9.3c-2.2-3.6-0.1-8.5-0.1-8.5
					c-3.7,1.7-4.1,9.7-4.1,9.7c-3.6-0.1-7,4.2-8.6,6.6c-1.6,2.4-3.8,2.9-3.8,2.9c2.6,0.5,1.8,3.4,1.8,3.4c-5.7,2.2-4.9,6.6-4.9,6.6
					c0-2.3,2.7-3.5,2.7-3.5c-1.8,1.6-1.5,4.1-0.9,6.1c-0.4-2.4,1.2-3.6,1.2-3.6c0.1,1-0.4,2.6-1,4.2c0,0,0,0.1,0,0.1
					c0,0-0.1,0-0.1,0c-0.8,1.7-1.7,3.3-2.5,3.7c-1.5,0.9-1.1,1.3-1.1,2c0,0.6-0.9,1.7-0.9,1.7c3.2,0.5,4.1-0.1,4.4-0.4
					c-0.8,2.1,2.8,7.9,2.8,11.9c0,4.2,2.2,2.8,3.5,5.7c1.2,2.9,0.9,2.3,3.9,7.7c3.1,5.4,2.6,7.6,2.6,7.6c1.6,3.4,1.5-15.8,1-18.3
					c-0.5-2.5,0.1-5.9,1.8-7.4c1.7-1.5,2.2-5.5,2.5-8.1c0.2-2.6,1.8-3.4,2.2-6.8c0.4-3.5,2.5-2.9,3.6-4.7c1.1-1.7,1.2-1.6,5.5,0.1
					c4.3,1.7,6.4,0.5,9.2-0.1c2.8-0.7,5.3-2.6,9.2-0.7c3.9,2,6.3-0.8,8.4-0.8c2.1,0,9.3,4.3,11.7,5.6c2.3,1.3,4.9,2.1,8.9,1.8
					c3.9-0.2,2.1,5.5,3.6,7.3c1.5,1.7,1,6.9,1,10c0,3,0.7,5.6,1.3,8.6c0.6,2.9,1.1,6.1,0.9,8.2c-0.2,2.2-0.4,4.9,0.1,3.7
					c0.5-1.2,2.9-3.4,3.7-4.8c0.7-1.4,3.6-5,4.3-6.9c0.7-2,1.4-5.5,1.4-5.5s3-4.3,3.1-8.7C436.9,172.4,436.1,167.3,436.7,164.4z"/>
				<path fill="#603813" d="M340.7,163.6c0,0.2,0.1,0.4,0.2,0.7c0,0,0-0.1,0.1-0.1C340.8,164,340.7,163.8,340.7,163.6z"/>
			</g>
			<path opacity="0.1" fill="#FFFFFF" d="M351.9,150.5c0,0-2.5,0.2-2.7,3.2c0,0,1.9-1.6,3.8-0.3c0,0-3.6,0.6-4.8,3.8
				c0,0,1.7-1.2,3.9-0.1c0,0-2.6,0.5-2.6,4.3c0,0,1.6-1.6,3.5-1.5c0,0-2.1,2.5-1,4.4c0,0,0.9,2.6-0.6,4.9c0,0,3.9-2.9,3.9-4.3
				c0,0,3.6-4.1,7.9-5.1c0,0-3.3,0.1-6,1.3c0,0,0.8-2.9,2.6-3.8c0,0-2.9-0.3-4.3,1.1c0,0-1.1-1.3,0.7-1.8c0,0-1.7-0.5-2.3,0.1
				c0,0-0.1-2.3,2.3-1.3c0,0-0.6-1.3-2.9-0.9c0,0,0.4-1.8,1.7-1.6C354.9,152.8,354.6,150.4,351.9,150.5z"/>
			<path opacity="0.1" fill="#FFFFFF" d="M404.5,156.2c0,0,10.2-0.3,13.8-6.6c0,0,2-3.9,2.2-9c-1.1-0.3-2-0.3-2-0.3
				c-1-6.9-6.9-6.2-6.9-6.2c0.5-3.9-0.9-6.3-0.9-6.3c-2.2,2-6.8,1.2-6.8,1.2c1.6-2.5,0.4-5.1,0.4-5.1c-1.3,3.4-7.5,5.2-7.5,5.2
				c0.6-0.9,0.2-3.1,0.2-3.1c-0.9,2.5-4.9,3-4.9,3c0.6-3.6,3.9-5.4,3.9-5.4c-2.7,0.8-8.6,5.5-8.6,5.5c2.2-3.9,9.2-7.6,9.2-7.6
				c-5.9,1-10.7,5.6-10.7,5.6c-0.3-3.4,5.4-7.3,5.4-7.3c-2.8,0.4-5.9,3-5.9,3c2.2-3.1,5.9-5.2,5.9-5.2c-4.5,1.6-14.3,7.8-14.3,7.8
				c3.7-4.8,7.7-7.2,7.7-7.2c-2.9,0.6-5.6,2.4-7.2,3.7c2.1-2.8,0-6.6,0-6.6c0.7,2.5-2.2,4.9-2.2,4.9s-0.6,3.1,0-0.4
				c0.6-3.6-1.3-6.9-1.3-6.9c1.5,7.8-6.3,15.4-6.3,15.4c1.6-2.8,0.7-6.5,0.7-6.5c-0.4,1.5-1.8,5.9-4.3,8.6c-0.4,0.4-0.7,0.9-1,1.5
				c0,2.2,0.2,5.8,0.7,6.8c0,0,0.3-3.7,1.6-4.8c0,0-1.3,2.3,0.2,4.8c0,0,1.6-3.9,3.5-4.9c0,0-1.5,3.7-0.5,5.4c0,0,1.5-4.7,4.7-5.7
				c0,0-1,1.4-0.5,2.5c0,0,4.4-4.4,7.4-5.9c0,0-7.7,7.2-6.6,10.2c0,0,4.9-7.9,10.6-9.8c0,0-1.5,7.3-6.1,10.4c0,0,4.1-2,9.5-0.6
				c0,0-1,3.6-5.4,5.5c0,0,4.2,0.2,5.7-1.1c0,0,0.6,1.8-2.8,3.8c0,0,6.3,1.1,10.1-3.5c0,0,2.7-2.2,3.6-5.1c0,0,2.3,5.1-0.7,9
				c0,0,7.9-0.5,8.7-6.9c0,0,1,4-1.8,8c0,0,4.5,1,6.6-2.3C411.5,147.8,408.3,153.7,404.5,156.2z"/>
		</g>
		<path fill="#47163A" d="M425,191.6c0,0-1.5-0.3-16.7,0.7c-12.8,0.8-17.7,1-18.9,1c-1.2,0-6.1-0.1-18.9-1
			c-15.3-1-16.7-0.7-16.7-0.7s-0.4,5.2,0,6c0.4,0.8,0.7,6.8,1,9c0.3,2.1,1,6.1,3.3,8.4c2.3,2.3,5.9,3.8,9.9,4.2
			c5.5,0.3,7.2,0,11.2-2.4c4-2.4,6.6-9.6,7-11c0.4-1.3,1-3.4,1.5-4.1c0.4-0.6,1-0.8,1.5-0.8v0c0,0,0.1,0,0.3,0c0.2,0,0.3,0,0.3,0v0
			c0.5,0,1.2,0.2,1.5,0.8c0.4,0.7,1,2.8,1.5,4.1c0.4,1.3,3,8.6,7,11c4,2.4,5.7,2.7,11.2,2.4c4-0.4,7.6-1.9,9.9-4.2
			c2.3-2.3,3-6.3,3.3-8.4c0.3-2.1,0.6-8.2,1-9C425.4,196.8,425,191.6,425,191.6z M383.9,202.4c-0.4,1.9-1.1,8.1-4.9,11.3
			c-1.9,1.6-4.1,3.4-8.2,3.5c-3,0.1-9-0.7-11.2-3.6c-1.1-1.6-2.7-3.5-2.7-8c-0.1-4.5-0.1-8.2,0.8-9.1c0,0,1.5-1.9,3.1-2.2
			c1.6-0.4,6.3-0.6,11,0.3c4.7,1,9.1,2.4,10.3,3.4C383.2,199.1,384.3,200.5,383.9,202.4z M421.8,205.6c-0.1,4.5-1.6,6.4-2.7,8
			c-2.3,2.9-8.3,3.7-11.2,3.6c-4.1-0.1-6.3-1.9-8.2-3.5c-3.8-3.2-4.5-9.4-4.9-11.3c-0.4-1.9,0.7-3.3,1.9-4.3c1.2-1,5.6-2.5,10.3-3.4
			c4.7-1,9.3-0.7,11-0.3c1.6,0.4,3.1,2.2,3.1,2.2C421.8,197.4,421.8,201,421.8,205.6z"/>
	</g>
	<g>
		<path fill="#662C0C" d="M80.6,249.1c2.9-3,2.8-7.7-0.2-10.7c-3-2.9-7.8-2.9-10.7,0.2l-2.2,2.3c-3.5,3.7-7.1,7.4-10.6,11.1
			c-3.5,3.8-7,7.5-10.4,11.5c-0.9,1-1.7,2-2.6,3.1l-0.7,0.8l-0.5,0.6c-0.2,0.2-0.4,0.5-0.6,0.8l-1.1,1.5c-0.4,0.5-0.6,1.1-1,1.6
			c-0.6,1.1-0.9,2.2-1.1,3.3c0,0.3-0.2,0.6-0.2,0.9l0.1,0.9c0,0.6,0.1,1.2,0.2,1.7c0,0.3,0.1,0.6,0.2,0.9l0.3,0.9
			c0.2,0.6,0.5,1.1,0.8,1.7c0.3,0.6,0.6,1.1,0.9,1.7l0.5,0.8l0.4,0.6c1.5,2.4,3,4.5,4.6,6.7c1.5,2.1,3.1,4.2,4.6,6.3l3.3,4.3
			l11.9-9.3l-3.2-4.2c-1.5-2-3-4-4.4-6c-1.4-2-2.8-4-4-5.9l-0.1-0.2l0.7-0.9c0.7-0.9,1.5-1.8,2.3-2.8c3.2-3.7,6.6-7.4,10-11.1
			c3.4-3.7,6.9-7.3,10.4-11L80.6,249.1z"/>
		<path fill="#FFDA96" d="M69.3,296.4l-2.5-3.2l-11.9,9.3l2.5,3.2c2.6,3.3,7.4,3.9,10.6,1.2C71.3,304.4,71.9,299.7,69.3,296.4z"/>
		<polygon fill="#D1B293" points="53,300 52.4,299.2 64.4,290.1 65,290.8 		"/>
		<path fill="#662C0C" d="M122.4,239.9c-1-1.2-2.4-2.2-3.9-2.8c-1.5-0.6-3.1-0.8-4.5-0.5c-0.7,0.1-1.3,0.4-1.8,0.7
			c-0.5,0.3-0.9,0.7-1.2,1.1c-0.6,0.9-0.9,1.8-0.9,2.9c0,2.1,0.6,4,0.5,5.4c-0.1,1.4-0.5,2.1,0.2,2.9c0.3,0.4,0.7,1,1.1,1.6
			c0.8,1.4,1.6,3.1,2.2,4.9c0.7,1.8,1.2,3.8,1.7,5.8c1,4.1,1.8,8.3,2.4,12.6c1.2,8.7,1.9,17.6,2.3,26.5l0.2,5.3l15.1-0.4l-0.2-5.5
			c-0.4-9.3-1.1-18.6-2.4-28c-0.7-4.7-1.5-9.4-2.7-14.2c-0.6-2.4-1.3-4.8-2.2-7.3c-0.9-2.4-1.9-4.9-3.4-7.5
			C124.2,242.3,123.4,241.1,122.4,239.9z"/>
		<path fill="#FFDA96" d="M135.9,310.1l-0.1-4.1l-15.1,0.4l0.1,4c0.1,4.1,3.4,7.4,7.6,7.4C132.6,317.8,136,314.3,135.9,310.1z"/>
		<polygon fill="#D1B293" points="120.6,303.3 120.6,302.3 135.7,301.7 135.7,302.7 		"/>
		<path fill="#662C0C" d="M115.6,236.3c-5-1.1-12.7-2.5-20.7-2.5c-8,0-15.7,1.4-20.7,2.5c-3.2,0.7-5.7,4.1-5.7,7.3v52.7h52.7v-52.7
			C121.2,240.3,118.7,237,115.6,236.3z"/>
		<path fill="#D1B293" d="M80.9,235.5c4.4,10.2,6.4,13.8,7.7,13.8c1.6,0,5-4.1,6.3-5.7c1.3,1.6,4.6,5.7,6.3,5.7
			c1.2,0,3.3-3.7,7.7-13.8c0.1-0.2,0.2-0.3,0.2-0.5c-0.3,0-0.6-0.1-0.9-0.1c0,0.1-0.1,0.2-0.1,0.3c-3.7,8.5-6,13-6.8,13.2
			c-1,0-4.1-3.4-5.9-5.9l-0.4-0.5l-0.4,0.5c-1.8,2.4-4.9,5.9-5.9,5.9c-0.8-0.2-3.1-4.7-6.9-13.2c0-0.1-0.1-0.2-0.1-0.3
			c-0.3,0-0.6,0.1-0.9,0.1C80.8,235.2,80.9,235.3,80.9,235.5z"/>
		<polygon fill="#662C0C" points="105.8,227.8 106.6,234.6 94.9,242.1 83.1,234.6 84,227.8 		"/>
		<polygon fill="#D1B293" points="90.2,262.5 93.3,253.3 90.8,250.8 94.9,245.2 99,250.8 96.4,253.3 99.6,262.5 94.9,270.3 		"/>
		<path fill="#C69C6D" d="M121.2,267.8c-1.6-3.7-5-13.6-6.3-31.7c-1.3-0.3-2.8-0.6-4.5-0.9c-2.3,5.8-8.9,22.4-15.6,33.4
			c-6.7-11-13.3-27.6-15.6-33.4c-1.6,0.3-3.1,0.6-4.5,0.9c-1.3,18.1-4.7,28-6.3,31.7v28.4h23.7l2.7-3.8l2.7,3.8h23.7V267.8z"/>
		<circle fill="#B05D2B" cx="98" cy="273.3" r="1.3"/>
		<circle fill="#B05D2B" cx="98" cy="279.5" r="1.3"/>
		<circle fill="#B05D2B" cx="98" cy="285.7" r="1.3"/>
		<path fill="#B05D2B" d="M94.9,291.6c-0.2,0-0.5-0.2-0.5-0.5v-20.7c0-0.3,0.2-0.5,0.5-0.5c0.3,0,0.5,0.2,0.5,0.5v20.7
			C95.3,291.4,95.1,291.6,94.9,291.6z"/>
		<path fill="#534741" d="M126.6,360.2l-5.3-54.2v-9.8H68.5l0.3,64l21.4,3.5l0-51.9c0-2.2,1.7-3.9,3.9-3.9h1.8
			c2.2,0,4.1,1.7,4.3,3.9l5,51.9L126.6,360.2z"/>
		<polygon fill="#662C0C" points="90.2,367.7 66.8,367.7 66.8,363.8 68.8,360.2 90.2,363.7 		"/>
		<polygon fill="#662C0C" points="105.1,367.7 128.6,367.7 128.6,363.8 126.6,360.2 105.1,363.7 		"/>
		<path fill="#EBC580" d="M105.9,231.7c0,0-3.5,1.7-11,1.7c-7.5,0-11.1-1.7-11.1-1.7s5.9-1.2,11.1-1.2
			C100,230.4,105.9,231.7,105.9,231.7z"/>
		<path fill="#FFDA96" d="M104.6,139.7H85.3c-26.3,0-26.7,49-26.7,49v13.2c0,16.7,13.5,30.2,30.2,30.2H101
			c16.7,0,30.2-13.5,30.2-30.2v-13.1C131.3,188.7,130.9,139.7,104.6,139.7z"/>
		<path fill="#662C0C" d="M115.3,200c0,2.1-1.7,3.8-3.8,3.8c-2.1,0-3.8-1.7-3.8-3.8v-1.6c0-2.1,1.7-3.8,3.8-3.8
			c2.1,0,3.8,1.7,3.8,3.8V200z"/>
		<circle fill="#FFDA96" cx="58.6" cy="204.7" r="6.9"/>
		<circle fill="#FFDA96" cx="131.3" cy="204.7" r="6.9"/>
		<path fill="#662C0C" d="M81.7,200c0,2.1-1.7,3.8-3.8,3.8c-2.1,0-3.8-1.7-3.8-3.8v-1.6c0-2.1,1.7-3.8,3.8-3.8
			c2.1,0,3.8,1.7,3.8,3.8V200z"/>
		<ellipse opacity="0.5" fill="#CCCCCC" cx="77.4" cy="199.4" rx="12.7" ry="12.5"/>
		<ellipse opacity="0.5" fill="#CCCCCC" cx="111" cy="199.4" rx="12.7" ry="12.5"/>
		<path fill="#CE8421" d="M124.5,216.7c-1.7-1.6-4-2.3-6.3-2c-2.2,0.2-2.2,2-1.6,3.6c0,0.1,0,0.2,0.1,0.3c0,0.1,0.1,0.1,0.3,0.2
			c0.1,0,0.1,0,0.2,0c0,0,0,0,0.1,0c0.2,0,0.2-0.1,0.1-0.2c0-0.1-0.1-0.2-0.1-0.2c-0.2-0.9-0.2-2.1,0.8-2.5c1.7-0.6,3.9,0.2,4.9,1.7
			c1,1.4,1.3,3.3,0.8,4.9c-0.6,1.9-2.1,3.6-4.1,4c-2.5,0.4-5.1-0.7-7.1-2.2c-3.1-2.3-5.7-5.7-9.3-7.3c-3-1.3-6.2-1.6-8.2,1.3
			c-0.1,0-0.1,0-0.1,0c0,0-0.1,0-0.1,0c-2.1-2.8-5.3-2.5-8.3-1c-3.6,1.7-6.1,5.2-9.1,7.6c-2,1.6-4.5,2.8-7,2.4
			c-2.1-0.3-3.6-2-4.2-3.9c-0.6-1.6-0.3-3.5,0.6-4.9c1-1.5,3.2-2.4,4.9-1.8c1,0.3,1,1.5,0.8,2.4c0,0.1-0.1,0.2-0.1,0.3
			c-0.1,0.1-0.2,0.2,0.1,0.2c0,0,0,0,0.1,0c0.1,0,0.1,0,0.2,0c0.1,0,0.2-0.1,0.3-0.2c0-0.1,0-0.2,0.1-0.3c0.6-1.7,0.5-3.4-1.7-3.6
			c-2.3-0.2-4.6,0.5-6.3,2.2c-4,3.9-0.4,10.5,4,12.1c2.7,1,5.7,0.3,8.3-0.2c3.5-0.6,7.1-0.2,10.6-0.7c2.3-0.3,4.6-1.4,6.2-3.1
			c0.3-0.3,0.6-0.7,0.8-1.1c0.2,0.4,0.5,0.7,0.8,1c1.7,1.7,3.9,2.7,6.3,2.9c3.5,0.4,7.1-0.2,10.6,0.4c2.7,0.4,5.7,1,8.3-0.1
			C125.1,227.2,128.6,220.5,124.5,216.7z"/>
		<g>
			<path fill="#CE8421" d="M154.5,155.2c-6.6,2.2-12-2.4-12-2.4c-0.9-5.4-2.9-9.4-5.1-12.4c-1-19.3-20.2-16-20.2-16
				c-11.9-10.9-22.1-4.4-22.1-4.4c-46.6-4-50.9,32.2-50.9,32.2c-7.1,10.9-2.8,22.2-2.8,22.2c-0.8,5.3,3.1,9.3,3.1,9.3
				c1,4,5.1,7.2,5.1,7.2c3.1,2.3,4.1,6,4.1,6c-0.9,4.1,2.7,6.1,2.7,6.1c0.8,0.4,2.8,2.8,2.8,2.8c-0.6-3.1,4.8-23.4,4.8-23.4
				c3.4-19,23.3-21.8,23.3-21.8c-2.4,4.3-4.2,8.3-5.4,12c6.9-9.8,11.2-11.3,11.2-11.3c6.2-5.4,12-3.8,12-3.8
				c6.1,4.2,13.8,1.9,13.8,1.9c-4.3,3.6-11.5,3-11.5,3c6.9,5.1,14.5,3.4,14.5,3.4c1,6.2-6.5,11.8-6.5,11.8c9.5-2.6,11-9.8,11-9.8
				c-0.2,5.7-6.1,9-6.1,9c3.5,1.3,4.5-0.1,4.5-0.1c5.1,8.2,4.2,21.6,4.2,21.6c-1.3,6.9,1.1,4,1.1,4c0.8-2,7.9-9,7.9-9
				c11.6-11.8,7.9-33.2,7.9-33.2C152.8,159.4,154.5,155.2,154.5,155.2z M129.9,133.5c4.7,1.3,6.6,4.9,7.2,6.5
				C133.7,135.4,129.9,133.5,129.9,133.5z"/>
			<path fill="#F7B261" d="M154.5,155.2c-6.6,2.2-12-2.4-12-2.4c-0.9-5.4-2.9-9.4-5.1-12.4c-0.9-19.3-20.2-16-20.2-16
				c-11.9-10.8-22.1-4.4-22.1-4.4c-46.6-4-50.9,32.2-50.9,32.2c-0.3,0.4-0.5,0.8-0.7,1.2c3.6-2.2,7.9-5.3,8.4-7.6
				c0.9-4.2,9.1-13.5,16.5-12.9c0,0-9.3,6.1-11.1,15.8c0,0,14.1-13.3,27.8-11.8c0,0-12.4,3.4-18.5,12.1c0,0,8.6-6.3,13.8-3.9
				c0,0,12,6.5,20.2-3c0,0,3.5-8.8,14.1-4.7c0,0,3.8-5.2-7.6-11.9c0,0,8.5,2.7,11.9,11.4c0,0-2-5.7-6.2-9.7c0,0,6.4,4,7.6,9.6
				c0,0,1.7-3.6-2.7-9.6c0,0,8.6,8.9,3.4,16.3c0,0,3.2-2,3.7-7.1c0,0,7,11.4-7.6,20.3c0,0,4.5-0.8,7.7-3.8c-0.9-0.2-1.5-0.6-1.5-0.6
				c0.8,0.1,1.5,0.1,2.1,0c1.5-1.6,2.7-3.7,2.8-6.6c0,0,2.2,5.9-2.8,6.6c-0.2,0.2-0.4,0.4-0.6,0.5c2,0.5,5.3,0.8,6.2-2.9
				c0,0,4.3,4.6-1.9,11.7c0,0,6.8,0.5,9-4.2c0,0,4.1,0.8,8,18.3c1.2-8.4,0-15.6,0-15.6C152.8,159.4,154.5,155.2,154.5,155.2z
				 M129.9,133.5c4.6,1.3,6.5,4.9,7.2,6.5C133.7,135.4,129.9,133.5,129.9,133.5z"/>
		</g>
		<path fill="#754C24" d="M126.3,196.3c-1,0-2.1,0.3-2.3-0.5c-0.2-0.7-1.2-4.6-3.5-6.5c-2.3-1.8-4.5-3.3-8.2-3.7
			c-2.4,0-6.4,0.2-9.4,2.9c-3,2.7-4.2,4.9-5,7.5l-3.1,0l-1.1,0l-3.1,0c-0.8-2.5-2.1-4.8-5.1-7.4c-3-2.6-7-2.7-9.4-2.8
			c-3.8,0.5-6,2-8.2,3.8c-2.2,1.9-3.2,5.7-3.4,6.5c-0.2,0.7-5.9,0.5-6.9,0.5c-1,0-1.1,0.3-1.1,0.3l0,3.3c0,0,5.8,0.1,6.7,0.3
			c0.9,0.3,1,0.5,1,1c1.2,2.9,2.2,4.8,4.2,7.5c4.5,4.5,11.2,4.2,14.9,2.6c3.7-1.6,4.5-3.6,5.9-5.5c1.4-1.9,1.8-5.8,1.9-6.7
			c0.1-0.8,1-1.1,1-1.1l1.7,0l1.1,0l1.7,0c0,0,0.9,0.2,1,1.1c0.1,0.8,0.6,4.8,2,6.7c1.4,1.9,2.2,3.9,5.9,5.5
			c3.7,1.6,10.5,1.8,14.9-2.8c2-2.7,3-4.7,4.2-7.6c0-0.5,0.2-0.8,1-1c0.8-0.3,5.9-0.4,5.9-0.4l0-3.3
			C131.4,196.6,127.3,196.3,126.3,196.3z M77.5,211.6c-6.8,0-12.3-5.4-12.3-12.2c0-6.8,5.4-12.3,12.2-12.3c6.8,0,12.3,5.4,12.3,12.2
			C89.7,206,84.3,211.5,77.5,211.6z M111.1,211.4c-6.8,0-12.3-5.4-12.3-12.2c0-6.8,5.4-12.3,12.2-12.3c6.8,0,12.3,5.4,12.3,12.2
			C123.3,205.9,117.8,211.4,111.1,211.4z"/>
	</g>
	<g>
		<path fill="#B4D898" d="M224.5,248.8c2.8-2.9,2.8-7.6-0.2-10.5c-2.9-2.9-7.6-2.8-10.5,0.2l-2.2,2.3c-3.5,3.6-6.9,7.3-10.4,10.9
			c-3.4,3.7-6.8,7.4-10.2,11.3c-0.8,1-1.7,2-2.5,3l-0.6,0.8l-0.4,0.6c-0.2,0.2-0.4,0.5-0.5,0.7l-1.1,1.5c-0.3,0.5-0.6,1-0.9,1.6
			c-0.6,1.1-0.9,2.2-1.1,3.3c0,0.3-0.2,0.6-0.2,0.9l0.1,0.9c0,0.6,0.1,1.1,0.2,1.7c0,0.3,0.1,0.6,0.2,0.8l0.3,0.8
			c0.2,0.6,0.5,1.1,0.8,1.7c0.3,0.5,0.6,1.1,0.9,1.6l0.5,0.8l0.4,0.6c1.5,2.4,3,4.5,4.5,6.6c1.5,2.1,3,4.1,4.6,6.2l3.3,4.3l11.7-9.1
			l-3.2-4.1c-1.5-2-2.9-3.9-4.3-5.9c-1.4-1.9-2.8-3.9-3.9-5.8l-0.1-0.2l0.7-0.8c0.7-0.9,1.5-1.8,2.3-2.7c3.1-3.6,6.5-7.3,9.8-10.9
			c3.4-3.6,6.8-7.2,10.2-10.8L224.5,248.8z"/>
		<path fill="#B07D3F" d="M213.4,295.3l-2.4-3.1l-11.7,9.1l2.5,3.2c2.6,3.3,7.3,3.8,10.5,1.2C215.3,303.1,215.9,298.4,213.4,295.3z"
			/>
		<path fill="#B4D898" d="M265.5,239.7c-1-1.2-2.3-2.2-3.8-2.8c-1.5-0.6-3.1-0.8-4.4-0.5c-0.7,0.1-1.2,0.4-1.7,0.7
			c-0.5,0.3-0.9,0.7-1.2,1.1c-0.6,0.9-0.8,1.8-0.9,2.8c0,2,0.6,3.9,0.5,5.3c-0.1,1.4-0.5,2.1,0.2,2.8c0.3,0.4,0.7,0.9,1.1,1.5
			c0.8,1.3,1.5,3,2.2,4.8c0.6,1.8,1.2,3.7,1.7,5.7c1,4,1.7,8.2,2.3,12.4c1.2,8.5,1.9,17.2,2.2,26l0.2,5.2l14.8-0.4l-0.2-5.4
			c-0.4-9.1-1.1-18.3-2.4-27.5c-0.7-4.6-1.5-9.2-2.6-13.9c-0.6-2.3-1.3-4.7-2.1-7.1c-0.9-2.4-1.9-4.9-3.4-7.4
			C267.3,242.1,266.5,240.9,265.5,239.7z"/>
		<path fill="#B07D3F" d="M278.8,308.7l-0.1-4.1l-14.8,0.4l0.1,3.9c0.1,4,3.4,7.2,7.5,7.3C275.5,316.3,278.9,312.8,278.8,308.7z"/>
		<path fill="#B4D898" d="M258.8,236.1c-4.9-1.1-12.4-2.4-20.3-2.4c-7.9,0-15.4,1.3-20.4,2.4c-3.1,0.7-5.6,4-5.6,7.2V295h51.8v-51.8
			C264.4,240.1,261.9,236.8,258.8,236.1z"/>
		<polygon fill="#B07D3F" points="249.2,227.8 250,234.5 238.5,250.5 226.9,234.5 227.7,227.8 		"/>
		<circle fill="#8AAF69" cx="241.9" cy="252.7" r="1.3"/>
		<circle fill="#8AAF69" cx="199.2" cy="296.5" r="1.3"/>
		<circle fill="#8AAF69" cx="275.5" cy="301.3" r="1.3"/>
		<path fill="#8AAF69" d="M238.5,295.3c-0.2,0-0.4-0.2-0.4-0.4v-44.4c0-0.2,0.2-0.4,0.4-0.4c0.2,0,0.4,0.2,0.4,0.4v44.4
			C238.9,295.1,238.7,295.3,238.5,295.3z"/>
		<polygon fill="#666666" points="233.9,365.3 210.8,365.3 210.8,361.5 212.8,357.9 233.9,361.4 		"/>
		<polygon fill="#666666" points="248.5,365.3 271.6,365.3 271.6,361.5 269.6,357.9 248.5,361.4 		"/>
		<path fill="#A37136" d="M249.3,231.6c0,0-3.4,1.7-10.8,1.7c-7.4,0-10.9-1.7-10.9-1.7s5.8-1.2,10.9-1.2
			C243.5,230.4,249.3,231.6,249.3,231.6z"/>
		<circle fill="#B07D3F" cx="202.8" cy="198.1" r="6.8"/>
		<circle fill="#B07D3F" cx="274.2" cy="198.1" r="6.8"/>
		<path fill="#B07D3F" d="M250.7,141.2l-24,0.5c-25.9,0-24,47.6-24,47.6v13c0,16.4,13.3,29.7,29.7,29.7h12
			c16.4,0,29.7-13.3,29.7-29.7l0-12.9C274.2,189.4,276.6,141.2,250.7,141.2z"/>
		<path fill="#443425" d="M224.1,193.7c0,2-1.7,3.7-3.7,3.7c-2,0-3.7-1.7-3.7-3.7V192c0-2,1.7-3.7,3.7-3.7c2,0,3.7,1.7,3.7,3.7
			V193.7z"/>
		<path fill="#443425" d="M260.4,193.7c0,2-1.7,3.7-3.7,3.7c-2,0-3.7-1.7-3.7-3.7V192c0-2,1.7-3.7,3.7-3.7c2,0,3.7,1.7,3.7,3.7
			V193.7z"/>
		<path fill="#6F4221" d="M238.6,216.4c-8.5,0-11.9-1-12-1c-0.8-0.2-1.2-1-1-1.8c0.2-0.8,1-1.2,1.8-1c0.1,0,3.2,0.9,11.2,0.9
			c8,0,11.2-0.9,11.2-0.9c0.8-0.2,1.6,0.2,1.8,1c0.2,0.8-0.2,1.6-1,1.8C250.4,215.4,247.1,216.4,238.6,216.4z"/>
		<polygon fill="#8AAF69" points="226.9,234.5 238.5,250.5 231,247.5 225.5,249.6 		"/>
		<polygon fill="#8AAF69" points="250,234.5 238.5,250.5 246,247.5 251.5,249.6 		"/>
		<path fill="#666666" d="M283.8,156.4c-4.8-2.6-10.1-4.9-10.1-4.9s-1.2-7.9-3.1-12.8c-1.9-4.9-4.9-12.8-9.6-14.9
			c-7.2-3.2-22.5-3.2-22.5-3.2s-14.2,0-22.5,3.2c-4.7,1.8-7.7,10-9.6,14.9c-1.9,4.9-3.1,12.8-3.1,12.8s-5.3,2.3-10.1,4.9
			c-4.8,2.6-8.2,7.2-9.2,12.1c1.5,15.1,19.1,21.5,19.1,21.5s0-12.4,0.9-16.8c0.9-4.3,2.7-6.2,10.1-9.4c7.3-3.2,24.4-4.3,24.4-4.3
			s17.1,1.1,24.4,4.3c7.3,3.2,9.2,5.1,10.1,9.4c0.9,4.3,0.9,16.8,0.9,16.8s17.6-6.4,19.1-21.5C292,163.6,288.6,159,283.8,156.4z"/>
		<path fill="#999999" d="M273.7,151.5c0,0-1.2-7.9-3.1-12.8c-1.9-4.9-4.9-12.8-9.6-14.9c-7.2-3.2-22.5-3.2-22.5-3.2
			s-14.2,0-22.5,3.2c-4.7,1.8-7.7,10-9.6,14.9c-1.9,4.9-3.1,12.8-3.1,12.8S240.5,139.8,273.7,151.5z"/>
		<path fill="#42210B" d="M279.6,186.2c0-0.5-1.8-1-1.8-1s-2.2-0.5-4.5-1.4c-2.3-0.9-7-2.6-9.2-2.9c-2.2-0.3-7.4-0.6-10.3-0.2
			c-2.9,0.4-5.9,1-6.9,1.6c-1,0.5-2,1.2-2.4,1.5c-0.4,0.3-0.9,0.7-1.3,0.6c-0.4,0-1.3-0.6-1.3-0.6s-2.3,0-3.7,0c-1.4,0-3.7,0-3.7,0
			s-0.9,0.6-1.3,0.6c-0.4,0.1-0.8-0.3-1.3-0.6c-0.4-0.3-1.4-1-2.4-1.5c-1-0.5-3.9-1.2-6.9-1.6c-2.9-0.4-8.1-0.1-10.3,0.2
			c-2.2,0.3-6.9,2-9.2,2.9c-2.3,0.9-4.5,1.4-4.5,1.4s-1.8,0.5-1.8,1c0,0.5,0.4,4.6,0.4,4.6s1.9,0.5,2.9,0.9c1.1,0.4,1.6,1.1,2.4,2.6
			c0.8,1.9,2.9,7.3,4.3,9.3c1.4,2,4.5,3.3,8.5,4.2c7.4,0.6,10.1-1.1,12.5-2.4c2.4-1.3,3.8-4.3,4.7-5.8c0.8-1.5,2.3-7.3,2.4-7.8
			c0.1-0.5-0.2-1-0.5-1.4c-0.3-0.4-0.5-1.2-0.4-1.8c0.1-0.6,0.4-1.2,1.6-1.6c0.8-0.3,1.9-0.4,2.6-0.4c0.7,0,1.9,0.2,2.6,0.4
			c1.2,0.4,1.5,1,1.6,1.6c0.1,0.6-0.1,1.4-0.4,1.8c-0.3,0.4-0.6,0.9-0.5,1.4c0.1,0.5,1.5,6.3,2.4,7.8c0.8,1.5,2.3,4.5,4.7,5.8
			c2.4,1.3,5.1,2.9,12.5,2.4c4-0.9,7.1-2.2,8.5-4.2c1.4-2,3.5-7.4,4.3-9.3c0.8-1.5,1.3-2.2,2.4-2.6c1.1-0.4,2.9-0.9,2.9-0.9
			S279.7,186.7,279.6,186.2z M202.1,189.3c-0.2,0-2.7-0.9-2.7-0.9v-0.2c0,0,2.2-0.8,2.4-0.8c0.2,0,0.9,0.4,1,0.8
			C202.9,188.7,202.2,189.3,202.1,189.3z M229.9,200.2c-1.8,2.7-3.3,5.2-10.7,5.5c-2.9,0-6.8,0-9.7-2.7c-1-1.1-2.9-3.8-3.4-6.4
			c-0.5-2.6-0.7-6.2-0.4-7.4c0,0,0.4-2.3,1.3-3.3c0.9-1,1.8-1.7,4.1-2.2c2.3-0.5,7.3-1,11.4-0.7c0,0,3.7,0.4,5.1,1.1
			c1.5,0.7,3.8,2.5,4.1,5.4C231.9,192.5,232,196.8,229.9,200.2z M270.6,196.7c-0.5,2.6-2.4,5.2-3.4,6.4c-2.9,2.7-6.8,2.7-9.7,2.7
			c-7.4-0.3-8.9-2.9-10.7-5.5c-2.2-3.4-2.1-7.7-1.7-10.6c0.3-2.9,2.6-4.7,4.1-5.4c1.5-0.7,5.1-1.1,5.1-1.1c4-0.3,9.1,0.1,11.4,0.7
			c2.3,0.5,3.2,1.3,4.1,2.2c0.9,1,1.3,3.3,1.3,3.3C271.3,190.5,271.1,194.1,270.6,196.7z M277.2,188.4c0,0-2.5,0.9-2.7,0.9
			c-0.2,0-0.8-0.6-0.8-1c0.1-0.4,0.8-0.8,1-0.8s2.4,0.8,2.4,0.8V188.4z"/>
		<path fill="none" d="M239.4,306.6h-1.8c-2.1,0-3.8,1.7-3.8,3.8l0,14.3l4.3,0.8l6.9-1.4l-1.3-13.7
			C243.4,308.3,241.6,306.6,239.4,306.6z"/>
		<path fill="#00A99D" d="M233.8,310.4c0-2.1,1.7-3.8,3.8-3.8h1.8c2.1,0,4,1.7,4.2,3.8l1.3,13.7l20.9-4.3l-1.5-15.2V295h-51.8
			l0.1,25.7l21.2,4L233.8,310.4z"/>
		<polygon fill="#B07D3F" points="248.5,361.4 269.6,357.9 265.9,319.9 245,324.1 		"/>
		<polygon fill="#B07D3F" points="233.9,361.4 233.8,324.7 212.7,320.8 212.8,357.9 		"/>
	</g>
	<g>
		<path fill="#F9DEC1" d="M528,355.8c0,0-0.5,12.1,4.3,12.1s4.6-12,4.6-12"/>
		<path fill="#733427" d="M536.9,355.9l-1.5,0c0,0.7-0.1,5.9-3,5.9c-3.1,0-3.6-5.8-3.6-5.8l-0.4-0.1l-0.4,0c0,0-0.5,12.1,4.3,12.1
			S536.9,355.9,536.9,355.9z"/>
		<path fill="#F9DEC1" d="M512.1,355.8c0,0-0.5,12.1,4.3,12.1c4.7,0,4.6-12,4.6-12"/>
		<path fill="#733427" d="M521,355.9l-1.5,0c0,0.7-0.1,5.9-3,5.9c-3.1,0-3.6-5.8-3.6-5.8l-0.4-0.1l-0.4,0c0,0-0.5,12.1,4.3,12.1
			C521.1,367.8,521,355.9,521,355.9z"/>
	</g>
	<g>
		<polygon fill="#F9DEC1" points="502.2,257.2 505.4,234.5 496.7,234.1 493.3,257.6 493.5,257.6 496,280.9 504.8,280.6 502.2,257.1 
					"/>
		<polygon fill="#EC1A3C" points="501.9,256.6 505.4,234.5 496.7,234.1 491.5,257.6 492.2,270.1 503.8,269.8 		"/>
		<polygon fill="#EC1A3C" points="536.1,259 511,259 496.7,233.9 521.9,229.3 546.5,233.9 		"/>
		<polygon fill="#5C7BBB" points="536.1,259 511,259 496.7,277.5 521.9,280.5 550.3,277.5 		"/>
		<polygon fill="#5C7BBB" points="536.7,356.3 527.9,356.3 524.2,298.9 521.1,356.3 512.1,356.3 496.6,277.8 521.7,270.6 
			550.1,277.8 		"/>
		<path fill="#475F92" d="M510.5,235.6c0,0,0,34,0,36.4c0,0,10.7,0.8,12.3,0.2c0,0-4.4-30.7-5.4-35.6"/>
		<path fill="#5C7BBB" d="M508.8,234.7c0,0,0,34,0,36.4c0,0,10.7,0.8,12.3,0.2c0,0-4.4-30.7-5.4-35.6"/>
		<polygon fill="#F9DEC1" points="575.4,251.9 568.8,254.9 540.2,237.1 546.9,234 		"/>
		<polygon fill="#F9DEC1" points="546.2,269.9 540.6,266.3 573.9,251 579.6,254.6 		"/>
		<path fill="#EC1A3C" d="M544.6,232.2c0,0,36.7,21.2,36.3,22.7c-0.3,1.5-25.9,14.2-25.9,14.2l-8.2-6.3l18.3-8.6l-20.2-10.5
			c0,0-8.2-2.9-9.8-4.1"/>
	</g>
	<g>
		<path fill="#475F92" d="M507.8,227.5c0,0-1.1,3.9-0.4,7s30.7,1.8,31.4-1.4c0.8-3.3-1.1-6.4-1.1-6.4"/>
		<path fill="#5C7BBB" d="M507.8,226.7c0,0-1.1,3.9-0.4,7s30.7,1.8,31.4-1.4c0.8-3.3-1.1-6.4-1.1-6.4"/>
	</g>
	<path fill="#F9DEC1" d="M520.1,137.3c-40.9,0-37.3,52.4-37.3,52.4s2.1,14.5,6,22.1c2,3.9,22.1,18.6,30.6,18.6
		c8.5,0,28.7-14.6,30.7-18.6c4.5-8.9,6.1-24.5,6.1-24.5s7.9-29.3-3.4-44.1C547.4,136.1,533.3,137.3,520.1,137.3z"/>
	<path fill="#F9DEC1" d="M673.1,354.5c0,0-0.5,12.9,4.5,12.9s4.9-12.8,4.9-12.8"/>
	<path fill="#3D191C" d="M682.5,354.6l-1.6,0c0,0.8-0.1,6.3-3.1,6.3c-3.3,0-3.8-6.3-3.8-6.3l-0.4-0.1l-0.5,0c0,0-0.5,12.9,4.5,12.9
		S682.5,354.6,682.5,354.6z"/>
	<path fill="#F9DEC1" d="M658.5,354.5c0,0-0.5,12.9,4.5,12.9s4.9-12.8,4.9-12.8"/>
	<path fill="#3D191C" d="M667.9,354.6l-1.6,0c0,0.8-0.1,6.3-3.1,6.3c-3.3,0-3.8-6.3-3.8-6.3l-0.4-0.1l-0.5,0c0,0-0.5,12.9,4.5,12.9
		S667.9,354.6,667.9,354.6z"/>
	<polygon fill="#DB588A" points="681,355.1 672.9,355.1 669.6,293.5 666.7,355.1 658.5,355.1 644.3,271 667.3,263.1 693.3,271 	"/>
	<g>
		<polygon fill="#F9DEC1" points="670.8,251.8 647.8,251.8 634.8,224.9 657.8,220 680.3,224.9 		"/>
		<path fill="#27AAE1" d="M679.9,233.2c0,0,28.6,54.7,28.6,90.1c0,0-82.7,0.3-90.1,0.3c0-35.4,21.2-84.7,23.4-90.6l9.1-10.6
			c0,0,16.5-3.8,23.4,1.4"/>
		<polygon fill="#F9DEC1" points="706.7,244.1 700.7,247.4 674.6,228.3 680.6,225 		"/>
		<polygon fill="#F9DEC1" points="639.7,250.6 631.7,250.2 634.8,225.1 642.8,225.5 		"/>
		<polygon fill="#F9DEC1" points="640.1,275.1 634.9,275.2 632.6,250.1 640.5,249.8 		"/>
		<polygon fill="#F9DEC1" points="684.7,266 680.3,263.5 705.3,243.2 710.5,247 		"/>
	</g>
	<path fill="#5C7BBB" d="M632.1,267c3.8,0,7.7,0,11.5,0c-0.8-10.6-0.9-21.3-0.2-31.9c0.1-0.9,0.1-1.8,0.5-2.6c0.3-0.7,0.8-1.4,1.2-2
		c2-2.7,3.9-5.4,5.9-8c0.1-0.1-2.6-1.4-2.9-1.5c-1.3-0.3-2.2,0-3.3,0.5c-2.2,1.1-5.7,1.4-9,2.9c-2.1,0.9-2.9,5.9-3,7.9
		c-0.1,2.8-0.3,5.7-0.4,8.5C631.9,249.6,631.5,258.3,632.1,267z"/>
	<g>
		<g>
			<path fill="#733427" d="M502.5,137.4c0,0-3.7,0.4-8.4,0c-4.7-0.4-11.5-0.1-16.6,7.7c-5,7.8-4,41.6,3,50.9c2.3,3,6.1,2.9,6.1,2.9
				s-3.1-13.8-0.8-24.3c3.4-15.6,21.5-26,22.6-28.4C510.1,142.4,502.5,137.4,502.5,137.4z"/>
			<path fill="#3D191C" d="M502.5,137.4c0,0,14.3-15.2,37-9.2c22.8,6,40.9,35.1,33.3,78c-5.3,29.8-22,38.2-22,38.2s2.2-23.5,1-34.5
				c-1.2-11-2-33.5-15.8-42.5c-13.8-9-30.3-16.4-30.8-18.5c-0.4-2,3.2-3.9,2.2-5.3c-1-1.4-4.5,1.7-5.4-2
				C501.5,139.5,502.5,137.4,502.5,137.4z"/>
		</g>
		<g>
			<path fill="#EC1A3C" d="M560.2,175.1c0-0.6-0.5-1.1-1.1-1.1h-18.6c-5.6,0-10.5,3.1-13,7.6c-1.6-0.9-3.8-1.7-6.2-1.7
				c-2.6,0-4.8,0.9-6.5,1.8c-2.6-4.6-7.5-7.7-13.1-7.7H483c-0.6,0-1.1,0.5-1.1,1.1l-0.1,10.6c0,0.3,0.1,0.6,0.3,0.8
				c0.2,0.2,0.5,0.3,0.8,0.3c2.5,0,3.7,1.6,3.7,2.2c0,8.3,6.7,15,15,15c8.3,0,15-6.7,15-15c0-0.5,0-1-0.1-1.5c1-0.7,2.7-1.8,4.7-1.8
				c1.8,0,3.4,0.9,4.4,1.6c-0.1,0.6-0.1,1.1-0.1,1.7c0,8.3,6.7,15,15,15c8.3,0,15-6.7,15-15c0-0.6,1.1-2.2,3.7-2.2
				c0.3,0,0.6-0.1,0.8-0.3c0.2-0.2,0.3-0.5,0.3-0.8L560.2,175.1z M501.6,198.6c-5.3,0-9.6-4.3-9.6-9.6c0-5.3,4.3-9.6,9.6-9.6
				c5.3,0,9.6,4.3,9.6,9.6C511.2,194.3,506.9,198.6,501.6,198.6z M540.5,198.6c-5.3,0-9.6-4.3-9.6-9.6c0-5.3,4.3-9.6,9.6-9.6
				c5.3,0,9.6,4.3,9.6,9.6C550.1,194.3,545.8,198.6,540.5,198.6z"/>
			<circle fill="#3D191C" cx="540.5" cy="189" r="10.2"/>
			<circle fill="#3D191C" cx="501.6" cy="189" r="10.2"/>
		</g>
	</g>
	<g>
		<path fill="#EC1A3C" d="M522.4,214.4c-1.5-0.3-2,1.1-3,1.1c-1,0-1.4-1.3-3-1.1c-2.2,0.4-6,2.4-6,2.4s5.6,1.7,8.9,1.7
			c3.3,0,8.9-1.7,8.9-1.7S524.7,214.8,522.4,214.4z"/>
		<path fill="#EC1A3C" d="M511.9,217.7c0,0,4,1.5,7.2,1.5s8.1-1.5,8.1-1.5s-4.2,3.7-8.2,3.7C514.9,221.5,511.9,217.7,511.9,217.7z"
			/>
	</g>
	<path fill="#5C7BBB" d="M674.5,231.9c0,0,27.1,15.6,26.1,15.6c-2.8,0-17.2,11.6-17.2,11.6l6.6,4.4c0,0,25.6-14.5,25.6-16.1
		s-29.6-20.2-32.1-21s-11.1-4.4-11.1-4.4l-5.8,2.3"/>
	<path fill="#F9DEC1" d="M662.3,134.4c-40.2,0-36.6,51.4-36.6,51.4s2.1,14.2,5.9,21.7c1.9,3.8,21.7,18.2,30,18.2
		c8.4,0,28.2-14.3,30.1-18.2c4.4-8.7,6-24,6-24s7.7-28.7-3.3-43.3C689.2,133.3,675.3,134.4,662.3,134.4z"/>
	<g>
		<path fill="#3D191C" d="M672.9,190.9c0,0,5.1-4.9,8.3-5.2c2.8-0.3,4.7,1.5,4.7,1.5s0.9-0.2,1.7-0.6c1.4-0.7,1.8-1.1,1.8-1.1
			s0.1,1.4-1.2,3c-1.4,2-2.6,2.3-2.6,2.3s-1.3-2.2-4.1-1.9C678.7,189.2,672.9,190.9,672.9,190.9z"/>
		<path fill="#3D191C" d="M649.2,190.9c0,0-5.1-4.9-8.3-5.2c-2.8-0.3-4.7,1.5-4.7,1.5s-0.9-0.2-1.7-0.6c-1.4-0.7-1.8-1.1-1.8-1.1
			s-0.1,1.4,1.2,3c1.4,2,2.7,2.3,2.7,2.3s1.3-2.2,4.1-1.9C643.5,189.2,649.2,190.9,649.2,190.9z"/>
		<path fill="#3D191C" d="M699.8,197.8c4.5-10.1,7.7-17.2,8.8-34.5c0.5-8,0.6-19.2-14.3-29.4c-2-1.4-5-1.3-6.4-0.8
			c0,0-0.1,3-1.9,6.6c-1.7,3.5-2.8,4.6-2.8,4.6c4.1,2.8,5.7,17.9,9.6,20.8c3.2,2.4,4,5.2,4,7c1,6.7,0.5,11.9,0.5,11.9
			s-0.8,7.3-2.7,14.7c-0.3,1.2-0.7,2.4-1,3.6C693,204.4,697.4,203.3,699.8,197.8z"/>
		<g>
			<path fill="#5C7BBB" d="M681.9,204.1c-8.7,0-15.8-7.1-15.8-15.8s7.1-15.8,15.8-15.8c8.7,0,15.8,7.1,15.8,15.8
				S690.7,204.1,681.9,204.1L681.9,204.1z M681.9,176.1c-6.7,0-12.2,5.5-12.2,12.2c0,6.7,5.5,12.2,12.2,12.2
				c6.7,0,12.2-5.5,12.2-12.2C694.1,181.6,688.7,176.1,681.9,176.1L681.9,176.1z"/>
		</g>
		<g>
			<path fill="#5C7BBB" d="M640.3,204.1c-8.7,0-15.8-7.1-15.8-15.8s7.1-15.8,15.8-15.8c8.7,0,15.8,7.1,15.8,15.8
				S649,204.1,640.3,204.1L640.3,204.1z M640.3,176.1c-6.7,0-12.2,5.5-12.2,12.2c0,6.7,5.5,12.2,12.2,12.2c6.7,0,12.2-5.5,12.2-12.2
				C652.5,181.6,647,176.1,640.3,176.1L640.3,176.1z"/>
		</g>
		<g>
			<path fill="#5C7BBB" d="M666.7,190.5c-2.1-1.6-9.9-1.3-11.3-0.5l-2.5-3.3c2.5-1.9,12.7-2.3,16.3,0.5L666.7,190.5L666.7,190.5z"/>
		</g>
		<path fill="#5C7BBB" d="M695.9,185.8c0,0,4.9-1.7,5.9-0.8c0.7,0.6-0.1,5.1-0.6,6.3c-0.5,1.2-5.5,1.5-5.7,0.6
			C695.3,190.9,695.9,185.8,695.9,185.8z"/>
		<path fill="#640960" d="M649.2,168.7c15.8-20.7,38.7-17.2,38.7-35.7c-2.9-0.6-0.3-5-4.7-7.6c-6.5-3.8-28.7-9.4-51.5,8.8
			c-13.3,10.6-13.6,25.9-13.2,43.1c0,1.6-3,5-5,13.5c-1.8,7.8-1.4,15.3-1.4,15.3s1.5-7.3,5.1-12.7c1.7-2.5,3.5-3.6,3.5-3.6
			s-3.6,7.4-1.1,27.7c1.5,12.3,8.1,19.6,8.1,19.6S625.6,199.8,649.2,168.7z"/>
	</g>
	<g>
		<path fill="#EC1A3C" d="M663,204.7c-1.5-0.3-2,1-2.9,1.1c-0.9,0-1.4-1.3-2.9-1.1c-2.2,0.4-5.9,2.4-5.9,2.4s5.5,1.7,8.8,1.7
			c3.3,0,8.8-1.7,8.8-1.7S665.2,205.1,663,204.7z"/>
		<path fill="#EC1A3C" d="M652.7,208c0,0,3.9,1.5,7.1,1.5c3.2,0,7.9-1.5,7.9-1.5s-4.2,3.7-8.1,3.7C655.7,211.7,652.7,208,652.7,208z
			"/>
	</g>
	<g>
		<path fill="#FFFFFF" d="M502.8,178.9l-11.3,11.3c0.3,2.6,1.6,4.9,3.4,6.5l14.3-14.3C507.7,180.5,505.4,179.2,502.8,178.9z"/>
		<path fill="#FFFFFF" d="M511.4,186.1c-0.2-0.8-0.6-1.6-1-2.4l-13.9,13.9c0.7,0.4,1.5,0.8,2.4,1L511.4,186.1z"/>
	</g>
	<g>
		<path fill="#FFFFFF" d="M540.7,178.8l-10.3,10.3c0,2.7,1.2,5.2,2.9,7l14.4-14.4C545.8,180,543.4,178.9,540.7,178.8z"/>
		<path fill="#FFFFFF" d="M550,185.3c-0.3-0.8-0.7-1.5-1.2-2.2l-14.1,14.1c0.7,0.5,1.4,0.9,2.2,1.2L550,185.3z"/>
	</g>
</g>
<g id="disruptive">
</g>
<g id="helpapi">
</g>
<g id="significant">
</g>
<g id="allcontribute">
</g>
<g id="githubhelp">
</g>
<g id="microsoft">
</g>
<g id="json">
</g>
<g id="github">
</g>
<g id="scalability">
</g>
<g id="performance">
</g>
<g id="skillset">
</g>
<g id="wastedtime">
</g>
<g id="legacy">
</g>
<g id="notanengineer">
</g>
<g id="strategies">
</g>
<g id="pressure">
</g>
<g id="whatif">
</g>
<g id="turning_x5F_point">
</g>
<g id="tbt">
</g>
<g id="milkyway">
</g>
<g id="bubbles">
</g>
<g id="_x31_2345">
</g>
</svg>
