<?xml version="1.0" encoding="utf-8"?>
<!-- Generator: Adobe Illustrator 18.1.1, SVG Export Plug-In . SVG Version: 6.00 Build 0)  -->
<svg version="1.1" xmlns="http://www.w3.org/2000/svg" xmlns:xlink="http://www.w3.org/1999/xlink" x="0px" y="0px"
	 viewBox="0 0 767 471" enable-background="new 0 0 767 471" xml:space="preserve">
<g id="separate">
</g>
<g id="code">
</g>
<g id="ux">
</g>
<g id="disruptive">
</g>
<g id="helpapi">
</g>
<g id="significant">
</g>
<g id="allcontribute">
</g>
<g id="githubhelp">
	<rect y="0.3" fill="#FFFFFF" width="767" height="471"/>
	<rect x="27.7" y="347.9" fill="none" width="256.4" height="97.4"/>
	<text transform="matrix(1 0 0 1 27.699 364.3974)"><tspan x="0" y="0" font-family="'Helvetica'" font-size="23">Forking, sharing, and </tspan><tspan x="0" y="27.6" font-family="'Helvetica'" font-size="23">reincorporating </tspan><tspan x="0" y="55.2" font-family="'Helvetica'" font-size="23">documentation code</tspan></text>
	<rect x="243.7" y="189.3" fill="#FFFFFF" stroke="#000000" stroke-miterlimit="10" width="127.4" height="79.5"/>
	<g>
		<rect x="251" y="195.5" fill="none" width="112.7" height="66.4"/>
		<text transform="matrix(1 0 0 1 250.9946 231.9341)" font-family="'Helvetica'" font-size="19">help system</text>
	</g>
	<g>
		<rect x="330.6" y="246.8" fill="#FFFFFF" stroke="#000000" stroke-miterlimit="10" width="135.6" height="84.7"/>
		<rect x="338.4" y="253.4" fill="none" width="120" height="70.7"/>
		<text transform="matrix(1 0 0 1 338.3633 289.8833)" font-family="'Helvetica'" font-size="19">help system</text>
	</g>
	<g>
		<rect x="390.6" y="311.3" fill="#FFFFFF" stroke="#000000" stroke-miterlimit="10" width="135.6" height="84.7"/>
		<rect x="398.4" y="317.9" fill="none" width="120" height="70.7"/>
		<text transform="matrix(1 0 0 1 398.375 354.3301)" font-family="'Helvetica'" font-size="19">help system</text>
	</g>
	<g>
		<rect x="489.4" y="353.6" fill="#FFFFFF" stroke="#000000" stroke-miterlimit="10" width="135.6" height="84.7"/>
		<rect x="497.2" y="360.2" fill="none" width="120" height="70.7"/>
		<text transform="matrix(1 0 0 1 497.1709 396.6719)" font-family="'Helvetica'" font-size="19">help system</text>
	</g>
	<rect x="337.8" y="146.5" fill="#FFFFFF" stroke="#000000" stroke-miterlimit="10" width="127.4" height="78.5"/>
	<g>
		<g>
			<path fill="none" stroke="#EF9D0A" stroke-width="8" stroke-miterlimit="10" d="M408,98.5c-41.7,0-115.3,0.8-155.3,13
				c-12.6,3.8-25.3,9.1-34,18.9c-12.9,14.6-14.3,35.8-15.1,55.3c-0.4,9.5-0.6,19.6,3.8,28.1c4.6,8.7,12.7,11.1,21.3,11.5"/>
			<g>
				<path fill="#EF9D0A" d="M243.7,224.9c-7,2.7-15.7,7.3-21,12.1l4.1-11.8l-4.4-11.7C227.8,218.1,236.6,222.4,243.7,224.9z"/>
			</g>
		</g>
	</g>
	<g>
		<g>
			<path fill="none" stroke="#EF9D0A" stroke-width="8" stroke-miterlimit="10" d="M489.7,417.4c-41.7,0-115.3-0.8-155.3-11.7
				c-12.6-3.4-25.3-8.2-34-17c-12.9-13.2-14.3-32.3-15.1-49.8c-0.4-8.6-0.6-17.7,3.8-25.3c4.6-7.9,12.7-10,21.3-10.4"/>
			<g>
				<path fill="#EF9D0A" d="M325.3,303.4c-7.1,2.5-15.9,6.9-21.3,11.6l4.4-11.8l-4.1-11.8C309.6,296.2,318.3,300.7,325.3,303.4z"/>
			</g>
		</g>
	</g>
	<g>
		<rect x="348.6" y="153.2" fill="none" width="112.7" height="66.4"/>
		<text transform="matrix(1 0 0 1 348.6201 189.6226)" font-family="'Helvetica'" font-size="19">help system</text>
	</g>
	<rect x="408" y="78.5" fill="#FFFFFF" stroke="#000000" stroke-miterlimit="10" width="135.6" height="83.6"/>
	<g>
		<rect x="421.1" y="88.4" fill="none" width="112.7" height="66.4"/>
		<text transform="matrix(1 0 0 1 421.0967 124.8711)" font-family="'Helvetica'" font-size="19">help system</text>
	</g>
	<rect x="468" y="14.9" fill="#FFFFFF" stroke="#000000" stroke-miterlimit="10" width="135.6" height="83.6"/>
	<rect x="481.3" y="24.2" fill="none" width="112.7" height="66.4"/>
	<text transform="matrix(1 0 0 1 481.2549 60.6123)" font-family="'Helvetica'" font-size="19">help system</text>
	<g>
		<g>
			<path fill="none" stroke="#EF9D0A" stroke-width="8" stroke-miterlimit="10" d="M298.3,185.7c6.6-7.2,12.2-12.2,16.7-15.7"/>
			<g>
				<polygon fill="#EF9D0A" points="330.6,161.9 313.8,182.7 314.1,171 304.1,165 				"/>
			</g>
		</g>
	</g>
	<g>
		<g>
			<path fill="none" stroke="#EF9D0A" stroke-width="8" stroke-miterlimit="10" d="M369.3,135.5c6.6-7.2,12.2-12.2,16.7-15.7"/>
			<g>
				<polygon fill="#EF9D0A" points="401.5,111.7 384.8,132.5 385,120.8 375,114.8 				"/>
			</g>
		</g>
	</g>
	<g>
		<g>
			<path fill="none" stroke="#EF9D0A" stroke-width="8" stroke-miterlimit="10" d="M428.8,69.3c6.6-7.2,12.2-12.2,16.7-15.7"/>
			<g>
				<polygon fill="#EF9D0A" points="461,45.5 444.3,66.2 444.5,54.6 434.5,48.6 				"/>
			</g>
		</g>
	</g>
	<g>
		<g>
			<path fill="none" stroke="#EF9D0A" stroke-width="8" stroke-miterlimit="10" d="M291.6,273.3c6.5,6.2,11.9,10.6,16.4,13.7"/>
			<g>
				<polygon fill="#EF9D0A" points="323.9,294.5 297.3,292.6 307,286.1 306.2,274.5 				"/>
			</g>
		</g>
	</g>
	<g>
		<g>
			<path fill="none" stroke="#EF9D0A" stroke-width="8" stroke-miterlimit="10" d="M347.8,336.2c6.5,6.2,11.9,10.6,16.4,13.7"/>
			<g>
				<polygon fill="#EF9D0A" points="380.1,357.4 353.5,355.4 363.2,349 362.4,337.4 				"/>
			</g>
		</g>
	</g>
	<g>
		<g>
			<path fill="none" stroke="#EF9D0A" stroke-width="8" stroke-miterlimit="10" d="M452.2,402.3c7.9,2.6,14.5,4.4,19.8,5.6"/>
			<g>
				<polygon fill="#EF9D0A" points="489.4,410.6 463.4,416.5 470.8,407.5 466.7,396.6 				"/>
			</g>
		</g>
	</g>
	<g>
		<g>
			<path fill="none" stroke="#EF9D0A" stroke-width="8" stroke-miterlimit="10" d="M518.4,336.4c20.3,0,56.2-1.4,75.7-20.9
				c6.1-6.1,12.3-14.6,16.6-30.5c3.3-12.4,19.5-72.4,0.4-108.4c-11.8-22.3-40.4-33.7-58-38.5"/>
			<g>
				<path fill="#EF9D0A" d="M538.4,135.2c7.4-1.1,16.9-3.7,23.2-7.2l-6.6,10.7l1.8,12.4C552.4,145.4,544.7,139.2,538.4,135.2z"/>
			</g>
		</g>
	</g>
	<g>
		<g>
			<path fill="none" stroke="#EF9D0A" stroke-width="8" stroke-miterlimit="10" d="M603.7,45.5c0,0,36.5-1.4,69.2,33
				c26.7,28.1,56.8,95.3,64.5,122.1c15.2,52.5-7.3,175.6-54.4,194.9c-9.7,4-17.4,6.5-23.5,8.1"/>
			<g>
				<path fill="#EF9D0A" d="M635.4,402.3c11.5-3.9,25.8-10.6,34.8-18l-7.5,18.8l6.3,19.2C660.5,414.5,646.7,406.8,635.4,402.3z"/>
			</g>
		</g>
	</g>
	<path fill="#00B3BE" stroke="#60605E" stroke-miterlimit="10" d="M19.8,78.8c0,0,0.7-35.3,6.1-35.9s16.3,0,20.4,0
		s8.2,35.2,7.5,35.9C53.1,79.6,19.8,78.8,19.8,78.8z"/>
	<ellipse fill="#DBDBD9" stroke="#686868" stroke-miterlimit="10" cx="37" cy="25.8" rx="9.7" ry="13.8"/>
	<path fill="#00B3BE" stroke="#60605E" stroke-miterlimit="10" d="M71.8,78.8c0,0,0.7-35.3,6.1-35.9s16.3,0,20.4,0
		c4.1,0,8.2,35.2,7.5,35.9C105.1,79.6,71.8,78.8,71.8,78.8z"/>
	<ellipse fill="#DBDBD9" stroke="#686868" stroke-miterlimit="10" cx="89" cy="25.8" rx="9.7" ry="13.8"/>
	<path fill="#00B3BE" stroke="#60605E" stroke-miterlimit="10" d="M119.8,78.8c0,0,0.7-35.3,6.1-35.9c5.4-0.7,16.3,0,20.4,0
		c4.1,0,8.2,35.2,7.5,35.9C153.1,79.6,119.8,78.8,119.8,78.8z"/>
	<ellipse fill="#DBDBD9" stroke="#686868" stroke-miterlimit="10" cx="137" cy="25.8" rx="9.7" ry="13.8"/>
	<path fill="#00B3BE" stroke="#60605E" stroke-miterlimit="10" d="M19.8,156.8c0,0,0.7-35.3,6.1-35.9c5.4-0.7,16.3,0,20.4,0
		s8.2,35.2,7.5,35.9S19.8,156.8,19.8,156.8z"/>
	<ellipse fill="#DBDBD9" stroke="#686868" stroke-miterlimit="10" cx="37" cy="103.8" rx="9.7" ry="13.8"/>
	<path fill="#00B3BE" stroke="#60605E" stroke-miterlimit="10" d="M71.8,156.8c0,0,0.7-35.3,6.1-35.9c5.4-0.7,16.3,0,20.4,0
		c4.1,0,8.2,35.2,7.5,35.9S71.8,156.8,71.8,156.8z"/>
	<ellipse fill="#DBDBD9" stroke="#686868" stroke-miterlimit="10" cx="89" cy="103.8" rx="9.7" ry="13.8"/>
	<path fill="#00B3BE" stroke="#60605E" stroke-miterlimit="10" d="M119.8,156.8c0,0,0.7-35.3,6.1-35.9c5.4-0.7,16.3,0,20.4,0
		c4.1,0,8.2,35.2,7.5,35.9C153.1,157.6,119.8,156.8,119.8,156.8z"/>
	<ellipse fill="#DBDBD9" stroke="#686868" stroke-miterlimit="10" cx="137" cy="103.8" rx="9.7" ry="13.8"/>
	<path fill="#00B3BE" stroke="#60605E" stroke-miterlimit="10" d="M21.8,238.8c0,0,0.7-35.3,6.1-35.9s16.3,0,20.4,0
		s8.2,35.2,7.5,35.9S21.8,238.8,21.8,238.8z"/>
	<ellipse fill="#DBDBD9" stroke="#686868" stroke-miterlimit="10" cx="39" cy="185.8" rx="9.7" ry="13.8"/>
	<path fill="#00B3BE" stroke="#60605E" stroke-miterlimit="10" d="M73.8,238.8c0,0,0.7-35.3,6.1-35.9s16.3,0,20.4,0
		c4.1,0,8.2,35.2,7.5,35.9S73.8,238.8,73.8,238.8z"/>
	<ellipse fill="#DBDBD9" stroke="#686868" stroke-miterlimit="10" cx="91" cy="185.8" rx="9.7" ry="13.8"/>
	<path fill="#00B3BE" stroke="#60605E" stroke-miterlimit="10" d="M121.8,238.8c0,0,0.7-35.3,6.1-35.9c5.4-0.7,16.3,0,20.4,0
		c4.1,0,8.2,35.2,7.5,35.9C155.1,239.6,121.8,238.8,121.8,238.8z"/>
	<ellipse fill="#DBDBD9" stroke="#686868" stroke-miterlimit="10" cx="139" cy="185.8" rx="9.7" ry="13.8"/>
	<path fill="#00B3BE" stroke="#60605E" stroke-miterlimit="10" d="M21.8,316.8c0,0,0.7-35.3,6.1-35.9s16.3,0,20.4,0
		s8.2,35.2,7.5,35.9C55.1,317.6,21.8,316.8,21.8,316.8z"/>
	<ellipse fill="#DBDBD9" stroke="#686868" stroke-miterlimit="10" cx="39" cy="263.8" rx="9.7" ry="13.8"/>
	<path fill="#00B3BE" stroke="#60605E" stroke-miterlimit="10" d="M73.8,316.8c0,0,0.7-35.3,6.1-35.9s16.3,0,20.4,0
		c4.1,0,8.2,35.2,7.5,35.9C107.1,317.6,73.8,316.8,73.8,316.8z"/>
	<ellipse fill="#DBDBD9" stroke="#686868" stroke-miterlimit="10" cx="91" cy="263.8" rx="9.7" ry="13.8"/>
	<path fill="#00B3BE" stroke="#60605E" stroke-miterlimit="10" d="M121.8,316.8c0,0,0.7-35.3,6.1-35.9c5.4-0.7,16.3,0,20.4,0
		c4.1,0,8.2,35.2,7.5,35.9C155.1,317.6,121.8,316.8,121.8,316.8z"/>
	<ellipse fill="#DBDBD9" stroke="#686868" stroke-miterlimit="10" cx="139" cy="263.8" rx="9.7" ry="13.8"/>
</g>
<g id="microsoft">
</g>
<g id="json">
</g>
<g id="github">
</g>
<g id="scalability">
</g>
<g id="performance">
</g>
<g id="skillset">
</g>
<g id="wastedtime">
</g>
<g id="legacy">
</g>
<g id="notanengineer">
</g>
<g id="strategies">
</g>
<g id="pressure">
</g>
<g id="whatif">
</g>
<g id="turning_x5F_point">
</g>
<g id="tbt">
</g>
<g id="milkyway">
</g>
<g id="bubbles">
</g>
<g id="_x31_2345">
</g>
</svg>
