<?xml version="1.0" encoding="utf-8"?>
<!-- Generator: Adobe Illustrator 18.1.1, SVG Export Plug-In . SVG Version: 6.00 Build 0)  -->
<svg version="1.1" xmlns="http://www.w3.org/2000/svg" xmlns:xlink="http://www.w3.org/1999/xlink" x="0px" y="0px"
	 viewBox="0 0 346.2 134.3" enable-background="new 0 0 346.2 134.3" xml:space="preserve">
<g id="separate">
</g>
<g id="code">
</g>
<g id="ux">
</g>
<g id="disruptive">
</g>
<g id="helpapi">
</g>
<g id="significant">
</g>
<g id="allcontribute">
</g>
<g id="githubhelp">
</g>
<g id="microsoft">
</g>
<g id="json">
</g>
<g id="github">
</g>
<g id="scalability">
</g>
<g id="performance">
	<rect x="0" y="0" fill="#F7F7F5" width="346.2" height="134.3"/>
	<line fill="none" stroke="#FF0000" stroke-width="2" stroke-miterlimit="10" x1="101.1" y1="73.3" x2="242.3" y2="45.3"/>
	<line fill="none" stroke="#FF0000" stroke-width="2" stroke-miterlimit="10" x1="101.1" y1="112.4" x2="242.3" y2="82.7"/>
	<line fill="none" stroke="#009245" stroke-width="3" stroke-miterlimit="10" x1="101.1" y1="100.1" x2="240.3" y2="25.7"/>
	<line fill="none" stroke="#009245" stroke-width="3" stroke-miterlimit="10" x1="147" y1="114.2" x2="229.9" y2="25.7"/>
	<path id="SVGID_x5F_2_x5F__1_" fill="none" d="M114.6,62.3l64-11.6"/>
	<text>	<textPath  xlink:href="#SVGID_x5F_2_x5F__1_" startOffset="8.667%">
<tspan  font-family="'MyriadPro-Regular'" font-size="4.3117">Performance Demanded at the</tspan>	</textPath>
</text>
	<path id="SVGID_x5F_4_x5F__1_" fill="none" d="M115,68.1l64-11.6"/>
	<text>	<textPath  xlink:href="#SVGID_x5F_4_x5F__1_" startOffset="8.667%">
<tspan  font-family="'MyriadPro-Regular'" font-size="4.3117">High End of the Market</tspan>	</textPath>
</text>
	<path id="SVGID_x5F_6_x5F__2_" fill="none" d="M102.9,97.1l80.4-43.2"/>
	<text>	<textPath  xlink:href="#SVGID_x5F_6_x5F__2_" startOffset="7.397%">
<tspan  font-family="'MyriadPro-Regular'" font-size="4.3117">Progress due to Sustaining Innovations</tspan>	</textPath>
</text>
	<path id="SVGID_x5F_8_x5F__2_" fill="none" d="M146.6,112.1l62.3-66.8"/>
	<text>	<textPath  xlink:href="#SVGID_x5F_8_x5F__2_" startOffset="7.397%">
<tspan  font-family="'MyriadPro-Regular'" font-size="4.3117">Progress due to Disruptive Innovations</tspan>	</textPath>
</text>
	<path id="SVGID_x5F_10_x5F__2_" fill="none" d="M180.2,100.4l64-11.6"/>
	<text>	<textPath  xlink:href="#SVGID_x5F_10_x5F__2_" startOffset="8.667%">
<tspan  font-family="'MyriadPro-Regular'" font-size="4.3117">Performance Demanded at the</tspan>	</textPath>
</text>
	<path id="SVGID_x5F_12_x5F__2_" fill="none" d="M180.6,106.3l64-11.6"/>
	<text>	<textPath  xlink:href="#SVGID_x5F_12_x5F__2_" startOffset="8.667%">
<tspan  font-family="'MyriadPro-Regular'" font-size="4.3117">Low End of the Market</tspan>	</textPath>
</text>
	<path id="SVGID_x5F_14_x5F__1_" fill="none" d="M96.1,115.2l-1-65"/>
	<text>	<textPath  xlink:href="#SVGID_x5F_14_x5F__1_" startOffset="8.667%">
<tspan  font-family="'MyriadPro-Regular'" font-size="4.3117">Performance</tspan>	</textPath>
</text>
	<text transform="matrix(1 0 0 1 114.8252 129.1434)" font-family="'MyriadPro-Regular'" font-size="4.3117">Time</text>
	<g>
		<g>
			<line fill="none" stroke="#000000" stroke-width="4" stroke-miterlimit="10" x1="101.2" y1="121" x2="101.2" y2="37"/>
			<g>
				<polygon points="101.1,25.7 107.7,42 101.1,38.2 94.4,42 				"/>
			</g>
		</g>
	</g>
	<g>
		<g>
			<line fill="none" stroke="#000000" stroke-width="4" stroke-miterlimit="10" x1="99.2" y1="121" x2="229.2" y2="121"/>
			<g>
				<polygon points="240.1,120.9 224.9,127.1 228.5,120.9 224.9,114.7 				"/>
			</g>
		</g>
	</g>
</g>
<g id="skillset">
</g>
<g id="wastedtime">
</g>
<g id="legacy">
</g>
<g id="notanengineer">
</g>
<g id="strategies">
	<g>
		<defs>
			<polygon id="SVGID_211_" points="776.4,-69.6 11.7,-69.6 8.9,-681 775.9,-681 			"/>
		</defs>
		<clipPath id="SVGID_16_">
			<use xlink:href="#SVGID_211_"  overflow="visible"/>
		</clipPath>
		<g clip-path="url(#SVGID_16_)">
			<linearGradient id="SVGID_18_" gradientUnits="userSpaceOnUse" x1="386.7982" y1="-448.7094" x2="386.7982" y2="-267.2102">
				<stop  offset="0" style="stop-color:#FFFFFF"/>
				<stop  offset="1" style="stop-color:#FFFFFF;stop-opacity:0"/>
			</linearGradient>
			<path fill="url(#SVGID_18_)" d="M9-354.9c0,0,182.3-58.2,382.6-58.2s396,60.4,396,60.4V39.5c0,0-801.7,8.6-801.7,0"/>
		</g>
	</g>
</g>
<g id="pressure">
</g>
<g id="whatif">
</g>
<g id="turning_x5F_point">
</g>
<g id="tbt">
</g>
<g id="milkyway">
	<rect x="256" y="27.2" fill="none" width="46.9" height="20.9"/>
	<text transform="matrix(1 0 0 1 256.0401 32.8792)"><tspan x="0" y="0" fill="#5F5F60" font-family="'MyriadPro-Regular'" font-size="8">company </tspan><tspan x="0" y="9.6" fill="#5F5F60" font-family="'MyriadPro-Regular'" font-size="8">expectations</tspan></text>
	<rect x="269.1" y="76.2" fill="none" width="46.9" height="20.9"/>
	<text transform="matrix(1 0 0 1 269.0926 81.8455)"><tspan x="0" y="0" fill="#5F5F60" font-family="'MyriadPro-Regular'" font-size="8">current </tspan><tspan x="0" y="9.6" fill="#5F5F60" font-family="'MyriadPro-Regular'" font-size="8">productivity</tspan></text>
	<circle fill="#0000FF" cx="174.8" cy="59.4" r="3.6"/>
	<circle fill="#0000FF" cx="174.8" cy="85.4" r="3.6"/>
	<g>
		<g>
			<path fill="none" stroke="#0000FF" stroke-miterlimit="10" stroke-dasharray="6,6" d="M264.6,22.7c0,0-37.3-18-59.5-6.4
				c-18.6,9.7-27.8,24.7-30.9,32"/>
			<g>
				<path fill="#0000FF" d="M173.1,51.6c0-1.8-0.3-4-0.9-5.6l2.3,1.9l2.9,0C175.9,48.7,174.2,50.3,173.1,51.6z"/>
			</g>
		</g>
	</g>
	<g>
		<g>
			<path fill="none" stroke="#0000FF" stroke-miterlimit="10" stroke-dasharray="6,6" d="M271.9,72.5c0,0-31.6-12.8-53.1-7.6
				c-17.1,4.1-30.8,12-36.2,16.4"/>
			<g>
				<path fill="#0000FF" d="M180.2,83.7c0.7-1.6,1.4-3.8,1.5-5.5l1.2,2.7l2.7,1.2C184,82.3,181.8,83,180.2,83.7z"/>
			</g>
		</g>
	</g>
</g>
<g id="bubbles">
</g>
<g id="_x31_2345">
</g>
</svg>
