<?xml version="1.0" encoding="utf-8"?>
<!-- Generator: Adobe Illustrator 18.1.1, SVG Export Plug-In . SVG Version: 6.00 Build 0)  -->
<svg version="1.1" xmlns="http://www.w3.org/2000/svg" xmlns:xlink="http://www.w3.org/1999/xlink" x="0px" y="0px"
	 viewBox="0 0 767 471" enable-background="new 0 0 767 471" xml:space="preserve">
<symbol  id="Go_to_Web" viewBox="-32 -33.9 64 67.8">
	<polygon points="5.4,3.7 5.4,-30.4 14.2,-21.6 20.6,-33.9 25.2,-31.5 19.1,-19.7 30.9,-19.7 	"/>
	<path d="M31.5-3.6c0.1,0.3,0.1,0.6,0.2,1c0,0.2,0,0.4,0.1,0.5c0,0.3,0.1,0.6,0.1,0.9c0,0.2,0,0.5,0.1,0.7c0,0.3,0,0.5,0.1,0.8
		c0,0.5,0,1,0,1.6c0,0.5,0,1,0,1.5c0,0.3,0,0.6-0.1,0.9c0,0.2,0,0.3,0,0.5c0,0.4-0.1,0.8-0.1,1.2c0,0.1,0,0.1,0,0.2
		c-0.1,0.4-0.1,0.8-0.2,1.3c0,0,0,0.1,0,0.1c0,0,0,0,0,0C29,21.6,17.3,32.5,2.9,33.8c0,0,0,0-0.1,0c-0.4,0-0.9,0.1-1.3,0.1
		c-0.5,0-1,0-1.5,0s-1,0-1.5,0c-0.4,0-0.9-0.1-1.3-0.1c0,0,0,0-0.1,0C-17.3,32.5-29,21.6-31.5,7.6c0,0,0,0,0,0c0,0,0-0.1,0-0.1
		c-0.1-0.4-0.1-0.8-0.2-1.3c0-0.1,0-0.1,0-0.2c-0.1-0.4-0.1-0.8-0.1-1.2c0-0.2,0-0.3,0-0.5c0-0.3-0.1-0.6-0.1-0.9c0-0.5,0-1,0-1.5
		c0-0.5,0-1,0-1.5c0-0.3,0-0.7,0.1-1c0-0.1,0-0.3,0-0.4c0-0.4,0.1-0.8,0.1-1.2c0,0,0-0.1,0-0.1c0.1-0.4,0.1-0.9,0.2-1.3c0,0,0,0,0,0
		h0c2.4-13.1,12.7-23.4,25.8-25.8c0,0,0,0,0,0c0.1,0,0.2,0,0.3,0c0.3-0.1,0.6-0.1,0.9-0.1c0.2,0,0.4-0.1,0.6-0.1
		c0.3,0,0.6-0.1,0.8-0.1c0.3,0,0.6,0,0.8-0.1c0.2,0,0.4,0,0.7,0c0.5,0,1,0,1.5,0c0,0,0.1,0,0.1,0v0.3v7.2c0,0-0.1,0-0.1,0
		c-1.4,0-2.8,0.1-4.2,0.4c-1.1,3.2-2,7.5-2.6,12.7C-4.6-9.7-2.3-9.8,0-9.8c0,0,0.1,0,0.1,0v4.3c0,0-0.1,0-0.1,0
		c-2.6,0-5,0.1-7.2,0.2c-0.2,2.2-0.2,4.6-0.2,7.2c0,2.6,0.1,5,0.2,7.2C-5,9.2-2.6,9.3,0,9.3c2.5,0,4.9-0.1,7.2-0.2
		c0-0.1,0-0.3,0-0.4C7.9,8.5,8.5,8.1,9,7.6l2.6-2.4c0,1.2-0.1,2.3-0.2,3.5c5.2-0.6,9.5-1.6,12.7-2.6c0.2-1.4,0.4-2.8,0.4-4.2
		c0-1.4-0.1-2.8-0.4-4.2c-1-0.3-2.1-0.6-3.3-0.9l2.5-2.3c0,0,0,0,0,0l5.9-5.4c1,2.3,1.7,4.7,2.2,7.2c0,0,0,0,0,0
		C31.5-3.7,31.5-3.7,31.5-3.6z M-9.1,24.7c-0.9-3.4-1.6-7.4-2.1-11.7c-4.3-0.5-8.3-1.2-11.7-2.1C-20.3,17.2-15.3,22.2-9.1,24.7z
		 M-9.1-20.9c-6.3,2.5-11.3,7.5-13.8,13.8c3.4-0.9,7.4-1.6,11.7-2.1C-10.7-13.5-10-17.5-9.1-20.9z M-11.5-4.9
		c-5.2,0.6-9.5,1.6-12.7,2.6c-0.2,1.4-0.4,2.8-0.4,4.2c0,1.4,0.1,2.8,0.4,4.2c3.2,1.1,7.5,2,12.7,2.6c-0.1-2.2-0.2-4.5-0.2-6.8
		C-11.7-0.4-11.6-2.7-11.5-4.9z M0,13.6c-2.3,0-4.6-0.1-6.8-0.2c0.6,5.2,1.6,9.5,2.6,12.7c1.4,0.2,2.8,0.4,4.2,0.4
		c1.4,0,2.8-0.1,4.2-0.4c1.1-3.2,2-7.5,2.6-12.7C4.6,13.5,2.3,13.6,0,13.6z M11.1,13C10.7,17.3,10,21.3,9,24.7
		c6.3-2.5,11.3-7.5,13.8-13.8C19.4,11.9,15.4,12.6,11.1,13z"/>
</symbol>
<g id="separate">
</g>
<g id="code">
</g>
<g id="ux">
</g>
<g id="disruptive">
</g>
<g id="helpapi">
</g>
<g id="significant">
</g>
<g id="allcontribute">
</g>
<g id="githubhelp">
</g>
<g id="microsoft">
</g>
<g id="json">
	<rect fill="#FFFFFF" width="767" height="471"/>
	<g>
		<linearGradient id="SVGID_2_" gradientUnits="userSpaceOnUse" x1="648.9736" y1="140.4765" x2="648.9736" y2="119.0556">
			<stop  offset="0" style="stop-color:#000000"/>
			<stop  offset="0.4573" style="stop-color:#020202"/>
			<stop  offset="0.6221" style="stop-color:#090909"/>
			<stop  offset="0.7395" style="stop-color:#141414"/>
			<stop  offset="0.8344" style="stop-color:#252525"/>
			<stop  offset="0.9157" style="stop-color:#3B3B3B"/>
			<stop  offset="0.9865" style="stop-color:#565656"/>
			<stop  offset="1" style="stop-color:#5C5C5C"/>
		</linearGradient>
		<ellipse fill="url(#SVGID_2_)" cx="649" cy="129.8" rx="39.7" ry="10.7"/>
		<linearGradient id="SVGID_4_" gradientUnits="userSpaceOnUse" x1="618.5093" y1="136.5647" x2="679.4379" y2="31.0335">
			<stop  offset="0" style="stop-color:#000000"/>
			<stop  offset="0.1794" style="stop-color:#090909"/>
			<stop  offset="0.4708" style="stop-color:#212121"/>
			<stop  offset="0.8359" style="stop-color:#484848"/>
			<stop  offset="1" style="stop-color:#5C5C5C"/>
		</linearGradient>
		<rect x="609.3" y="36.3" fill="url(#SVGID_4_)" width="79.3" height="94.9"/>
		<linearGradient id="SVGID_6_" gradientUnits="userSpaceOnUse" x1="648.9736" y1="47.052" x2="648.9736" y2="25.631">
			<stop  offset="0" style="stop-color:#000000"/>
			<stop  offset="1" style="stop-color:#5C5C5C"/>
		</linearGradient>
		<ellipse fill="url(#SVGID_6_)" cx="649" cy="36.3" rx="39.7" ry="10.7"/>
	</g>
	<g>
		<linearGradient id="SVGID_8_" gradientUnits="userSpaceOnUse" x1="89.9601" y1="372.3281" x2="162.3711" y2="246.9085">
			<stop  offset="0" style="stop-color:#333333"/>
			<stop  offset="1" style="stop-color:#5C5C5C"/>
		</linearGradient>
		<rect x="98.7" y="241.9" fill="url(#SVGID_8_)" width="54.9" height="135.5"/>
		<linearGradient id="SVGID_10_" gradientUnits="userSpaceOnUse" x1="117.8869" y1="242.3153" x2="117.8869" y2="221">
			<stop  offset="0" style="stop-color:#000000"/>
			<stop  offset="1" style="stop-color:#5C5C5C"/>
		</linearGradient>
		<polyline fill="url(#SVGID_10_)" points="99.3,242 81.9,221 130,221 153.9,242.3 		"/>
		<linearGradient id="SVGID_12_" gradientUnits="userSpaceOnUse" x1="80.0804" y1="220.8051" x2="80.0804" y2="220.8051">
			<stop  offset="0" style="stop-color:#000000"/>
			<stop  offset="1" style="stop-color:#5C5C5C"/>
		</linearGradient>
		<path fill="url(#SVGID_12_)" d="M80.1,220.8"/>
		<linearGradient id="SVGID_14_" gradientUnits="userSpaceOnUse" x1="81" y1="299.0889" x2="98.8532" y2="299.0889">
			<stop  offset="0" style="stop-color:#000000"/>
			<stop  offset="0.3808" style="stop-color:#020202"/>
			<stop  offset="0.5596" style="stop-color:#0A0A0A"/>
			<stop  offset="0.6963" style="stop-color:#171717"/>
			<stop  offset="0.8115" style="stop-color:#292929"/>
			<stop  offset="0.9121" style="stop-color:#404040"/>
			<stop  offset="1" style="stop-color:#5C5C5C"/>
		</linearGradient>
		<polygon fill="url(#SVGID_14_)" points="81,220.8 98.9,241.9 98.9,377.4 81,337.1 		"/>
	</g>
	<g>
		<text transform="matrix(1 0 0 1 624.7958 176.2109)" font-family="'Helvetica'" font-size="30">API</text>
	</g>
	<text transform="matrix(1 0 0 1 84.4907 414.8613)" font-family="'Helvetica'" font-size="30">server</text>
	<path fill-rule="evenodd" clip-rule="evenodd" fill="#C9C9C9" d="M275.7,372.6h-83.1c-6.1,0-11-5-11-11v-10.1c0-6.1,5-11,11-11
		h83.1c6.1,0,11,5,11,11v10.1C286.7,367.6,281.8,372.6,275.7,372.6z"/>
	<g>
		<g>
			<line fill="none" stroke="#484849" stroke-width="3" stroke-miterlimit="10" x1="176.9" y1="292.8" x2="182.2" y2="290"/>
			
				<line fill="none" stroke="#484849" stroke-width="3" stroke-miterlimit="10" stroke-dasharray="11.8981,11.8981" x1="192.8" y1="284.6" x2="547.3" y2="102.3"/>
			<line fill="none" stroke="#484849" stroke-width="3" stroke-miterlimit="10" x1="552.6" y1="99.6" x2="557.9" y2="96.9"/>
			<g>
				<path fill="#484849" d="M571,90.2c-5,5.4-10.6,13.2-13.2,19.8l-1.6-12.2l-9-8.4C554.1,91.1,563.7,91,571,90.2z"/>
			</g>
		</g>
	</g>
	<g>
		<g>
			<line fill="none" stroke="#484849" stroke-width="3" stroke-miterlimit="10" x1="595.9" y1="152.2" x2="590.6" y2="154.9"/>
			
				<line fill="none" stroke="#484849" stroke-width="3" stroke-miterlimit="10" stroke-dasharray="11.9583,11.9583" x1="580" y1="160.4" x2="266.2" y2="321.6"/>
			<line fill="none" stroke="#484849" stroke-width="3" stroke-miterlimit="10" x1="260.9" y1="324.3" x2="255.5" y2="327"/>
			<g>
				<path fill="#484849" d="M239.4,335.3c6.1-6.7,13.1-16.3,16.3-24.4l1.9,15l11.1,10.3C260.3,334.2,248.4,334.2,239.4,335.3z"/>
			</g>
		</g>
	</g>
	<g>
		<g>
			<g enable-background="new    ">
				<g enable-background="new    ">
					<defs>
						<path id="SVGID_58_" enable-background="new    " d="M601.1,398.2l-3-2.3c2.9,2.2,5.4,3.5,5.6,3.6l3,2.3
							C606.6,401.7,604.1,400.4,601.1,398.2z"/>
					</defs>
					<clipPath id="SVGID_16_">
						<use xlink:href="#SVGID_58_"  overflow="visible"/>
					</clipPath>
					<g clip-path="url(#SVGID_16_)" enable-background="new    ">
						<path fill="#3E3E3F" d="M601.1,398.2l-3-2.3c2.9,2.2,5.4,3.5,5.6,3.6l3,2.3C606.6,401.7,604.1,400.4,601.1,398.2"/>
					</g>
				</g>
				<g enable-background="new    ">
					<defs>
						<path id="SVGID_60_" enable-background="new    " d="M587,380.5l3,2.3c-0.2-0.1-0.6-0.1-1.2-0.1l-3-2.3
							C586.4,380.4,586.8,380.4,587,380.5z"/>
					</defs>
					<clipPath id="SVGID_18_">
						<use xlink:href="#SVGID_60_"  overflow="visible"/>
					</clipPath>
					<g clip-path="url(#SVGID_18_)" enable-background="new    ">
						<path fill="#3E3E3F" d="M588.9,382.7l-3-2.3c0.1,0,0.2,0,0.3,0l3,2.3C589,382.7,589,382.7,588.9,382.7"/>
						<path fill="#404041" d="M589.1,382.7l-3-2.3c0.4,0,0.7,0,0.8,0.1l3,2.3C589.8,382.7,589.5,382.7,589.1,382.7"/>
						<path fill="#3E3E3F" d="M590,382.8l-3-2.3c0,0,0,0,0.1,0L590,382.8C590,382.8,590,382.8,590,382.8"/>
					</g>
				</g>
				<g>
					<path fill="#545456" d="M588.9,382.7c1.1-0.1,1.6,0.1,0.9,0.8c-0.9,0.9,2.6,6.7,7.2,11.2c4.4,4.2,9.5,7,9.8,7.1
						c-0.3,0.2-5.3,3.4-17.3,4.6c-0.7,0.1-1.4,0.1-2.2,0.2c-13.5,1-18.4-1.3-18.7-1.4c0.7-0.6,14.8-12.8,12-20.4
						C580.8,384.7,586.3,383,588.9,382.7z"/>
				</g>
				<g enable-background="new    ">
					<defs>
						<path id="SVGID_62_" enable-background="new    " d="M568.6,405.1l-3-2.3c0.7-0.6,14.8-12.8,12-20.4l3,2.3
							C583.4,392.4,569.3,404.5,568.6,405.1z"/>
					</defs>
					<clipPath id="SVGID_20_">
						<use xlink:href="#SVGID_62_"  overflow="visible"/>
					</clipPath>
					<g clip-path="url(#SVGID_20_)" enable-background="new    ">
						<path fill="#363637" d="M568.6,405.1l-3-2.3c0.2-0.2,2-1.7,4.1-3.9l3,2.3C570.5,403.4,568.8,404.9,568.6,405.1"/>
						<path fill="#343435" d="M572.6,401.3l-3-2.3c1.6-1.6,3.3-3.7,4.8-5.8l3,2.3C576,397.6,574.2,399.6,572.6,401.3"/>
						<path fill="#323233" d="M577.5,395.4l-3-2.3c2.5-3.6,4.2-7.5,3.1-10.7l3,2.3C581.7,387.9,580,391.9,577.5,395.4"/>
					</g>
				</g>
				<g enable-background="new    ">
					<defs>
						<path id="SVGID_64_" enable-background="new    " d="M580.5,384.7l-3-2.3c0.3-0.1,5.7-1.8,8.3-2l3,2.3
							C586.3,383,580.8,384.7,580.5,384.7z"/>
					</defs>
					<clipPath id="SVGID_22_">
						<use xlink:href="#SVGID_64_"  overflow="visible"/>
					</clipPath>
					<g clip-path="url(#SVGID_22_)" enable-background="new    ">
						<path fill="#3C3C3D" d="M580.5,384.7l-3-2.3c0.1,0,1.5-0.5,3.1-0.9l3,2.3C582,384.3,580.7,384.7,580.5,384.7"/>
						<path fill="#3E3E3F" d="M583.7,383.8l-3-2.3c1.8-0.5,3.8-1,5.2-1.1l3,2.3C587.5,382.8,585.4,383.4,583.7,383.8"/>
					</g>
				</g>
			</g>
		</g>
	</g>
	<g>
		<g>
			<g enable-background="new    ">
				<g>
					<polygon fill="#868687" points="544.5,320.9 617.2,311.6 621.2,383.4 548.6,396.4 					"/>
				</g>
				<g>
					<polygon fill="#6D6D6D" points="544.5,320.9 535.4,316 608.1,306.7 617.2,311.6 					"/>
				</g>
				<g>
					<polygon fill="#4E4E4E" points="548.6,396.4 539.5,391.5 535.4,316 544.5,320.9 					"/>
				</g>
			</g>
		</g>
	</g>
	<polygon fill="#F2F2F4" points="611.6,316.5 548.4,325 552.7,390.3 614.7,379 	"/>
	
		<use xlink:href="#Go_to_Web"  width="64" height="67.8" x="-32" y="-33.9" transform="matrix(0.6337 0 0 -0.6337 581.5397 351.0958)" overflow="visible" opacity="0.51"/>
	<path id="SVGID_x5F_24_x5F_" fill="none" d="M155.1,284.5L519.6,98.4"/>
	<text>	<textPath  xlink:href="#SVGID_x5F_24_x5F_" startOffset="18.982%">
<tspan  fill="#0000FF" font-family="'Helvetica'" font-size="30">endpoint request</tspan>	</textPath>
</text>
	<g>
		<path id="SVGID_x5F_26_x5F_" fill="none" d="M219,330.3l364.5-186.1"/>
		<text>		<textPath  xlink:href="#SVGID_x5F_26_x5F_" startOffset="18.982%">
<tspan  fill="#0000FF" font-family="'Helvetica'" font-size="30">resource returned</tspan>		</textPath>
</text>
	</g>
	<g>
		<text transform="matrix(1 0 0 1 194.3969 369.415)" fill="#FF0000" font-family="'Helvetica'" font-size="30">JSON </text>
	</g>
	<g>
		<g>
			<path fill="none" stroke="#484849" stroke-width="3" stroke-miterlimit="10" stroke-dasharray="12,12" d="M258.1,385.1l60.3,18.5
				c37.8,11.6,77.7,12.2,116.6,1.8l58.5-15.6"/>
			<g>
				<path fill="#484849" d="M507.3,386.1c-5.9,4.1-12.8,10.4-16.7,16.1l1-11.9l-6.8-9.8C491,383.5,500.2,385.4,507.3,386.1z"/>
			</g>
		</g>
	</g>
	<g>
		<text transform="matrix(1 0 0 1 310.9453 446.1894)" fill="#0000FF" font-family="'Helvetica'" font-size="30">JavaScript </text>
	</g>
	<g>
		<text transform="matrix(1 0 0 1 547.3154 438.789)" fill="#0000FF" font-family="'Helvetica'" font-size="30">HTML</text>
	</g>
	<rect x="137.5" y="276.1" fill="#E5E57F" width="4.8" height="3.9"/>
	<rect x="103.1" y="283.5" fill="#0F0F0E" width="44.5" height="2.8"/>
	<rect x="130.9" y="276.1" fill="#2A933D" width="4.8" height="3.9"/>
</g>
<g id="github">
</g>
<g id="scalability">
</g>
<g id="performance">
</g>
<g id="skillset">
</g>
<g id="wastedtime">
</g>
<g id="legacy">
</g>
<g id="notanengineer">
</g>
<g id="strategies">
</g>
<g id="pressure">
</g>
<g id="whatif">
</g>
<g id="turning_x5F_point">
</g>
<g id="tbt">
</g>
<g id="milkyway">
</g>
<g id="bubbles">
</g>
<g id="_x31_2345">
</g>
</svg>
