<?xml version="1.0" encoding="utf-8"?>
<!-- Generator: Adobe Illustrator 18.1.1, SVG Export Plug-In . SVG Version: 6.00 Build 0)  -->
<svg version="1.1" xmlns="http://www.w3.org/2000/svg" xmlns:xlink="http://www.w3.org/1999/xlink" x="0px" y="0px"
	 viewBox="0 0 346.2 134.3" enable-background="new 0 0 346.2 134.3" xml:space="preserve">
<g id="separate">
</g>
<g id="code">
</g>
<g id="ux">
</g>
<g id="disruptive">
</g>
<g id="helpapi">
</g>
<g id="significant">
</g>
<g id="allcontribute">
</g>
<g id="githubhelp">
</g>
<g id="microsoft">
</g>
<g id="json">
</g>
<g id="github">
</g>
<g id="scalability">
</g>
<g id="performance">
</g>
<g id="skillset">
</g>
<g id="wastedtime">
</g>
<g id="legacy">
</g>
<g id="notanengineer">
	<rect x="0.2" y="0.2" fill="#F7F7F5" width="346.2" height="134.3"/>
	<g>
		
			<linearGradient id="SVGID_2_" gradientUnits="userSpaceOnUse" x1="4306.3579" y1="-261.9619" x2="4231.2896" y2="-267.2112" gradientTransform="matrix(0.5324 0 0 0.5324 -2041.2913 207.0395)">
			<stop  offset="0.11" style="stop-color:#EACCE2"/>
			<stop  offset="0.89" style="stop-color:#D7C7E1"/>
		</linearGradient>
		<polygon fill="url(#SVGID_2_)" points="249.7,8.9 250.2,125.5 238.8,126 213.7,67.8 212.5,8.8 243.9,7.8 249.7,8.9 		"/>
		
			<linearGradient id="SVGID_4_" gradientUnits="userSpaceOnUse" x1="4126.4546" y1="-234.4593" x2="3993.5054" y2="-358.4364" gradientTransform="matrix(0.5324 0 0 0.5324 -2041.2913 207.0395)">
			<stop  offset="0.17" style="stop-color:#F8B8BB"/>
			<stop  offset="0.5858" style="stop-color:#FCD9CB"/>
			<stop  offset="0.83" style="stop-color:#FDE8D8"/>
		</linearGradient>
		<polygon fill="url(#SVGID_4_)" points="75.3,9.1 75.6,73.6 121.9,109.6 139.4,105.6 147.1,8.3 75.3,9.1 		"/>
		<polygon fill="#D7CEC1" points="226.8,18.5 231.1,34.9 232,35.2 227.7,18.8 226.8,18.5 		"/>
		<polygon fill="#D7CEC1" points="227.2,14 220,31.1 221.1,31.6 228.2,14.4 227.2,14 		"/>
		<polygon fill="#D7CEC1" points="236,6.1 227.4,14.2 228.1,14.7 237.2,6.1 236,6.1 		"/>
		<polygon fill="#D7CEC1" points="241.8,8.4 228.1,14.4 228.4,13.5 241.3,7.6 241.8,8.4 		"/>
		<polygon fill="#D7CEC1" points="221.6,29.6 237.2,20.5 238.2,20.8 220.8,31.1 221.6,29.6 		"/>
		<polygon fill="#D7CEC1" points="243.9,8.6 237.7,20.2 238.2,20.8 244.8,8.9 243.9,8.6 		"/>
		<polygon fill="#D7CEC1" points="247.8,9.9 238.2,19.7 238.7,20.7 249.1,10.1 247.8,9.9 		"/>
		<polygon fill="#D7CEC1" points="233,5.1 236.8,21.5 237.8,20.2 233.9,4.8 233,5.1 		"/>
		<polygon fill="#D7CEC1" points="220.8,4.9 213.2,27.7 213.7,29.1 222.1,4.3 220.8,4.9 		"/>
		<polygon fill="#D7CEC1" points="223.6,6.7 214,31.3 214,32.7 224.9,6.3 223.6,6.7 		"/>
		<polygon fill="#D7CEC1" points="223.4,32.9 217,14.9 218.3,14.9 224.4,34.2 223.4,32.9 		"/>
		<polygon fill="#D7CEC1" points="213.9,23 237.8,30.1 237.3,31.1 213.7,24.1 213.9,23 		"/>
		<polygon fill="#D7CEC1" points="212,27.6 236,34.7 235.5,35.7 211.9,28.8 212,27.6 		"/>
		<polygon fill="#D7CEC1" points="249.8,10.7 235.7,33.2 236.5,33.4 249.8,12.8 249.8,10.7 		"/>
		<polygon fill="#D7CEC1" points="237.7,20.3 226.8,14.4 226.1,12.2 237.7,19.3 237.7,20.3 		"/>
		<polygon fill="#D7CEC1" points="223.9,5.6 249.8,13.6 249.8,14.2 224.3,6.3 223.9,5.6 		"/>
		<polygon fill="#D7CEC1" points="222.6,7.3 249.8,15.7 249.8,16.3 222.9,7.9 222.6,7.3 		"/>
		<polygon fill="#D7CEC1" points="213.5,16.2 250.2,26.3 249.9,26.8 213.4,16.9 213.5,16.2 		"/>
		<polygon fill="#D7CEC1" points="242.8,8.3 220.8,29.6 221.3,30.1 243.8,7.9 242.8,8.3 		"/>
		<polygon fill="#D7CEC1" points="214.2,8.4 224.4,5.4 224.4,4.5 213.2,8.1 214.2,8.4 		"/>
		<polygon fill="#D7CEC1" points="213.7,10.1 226.8,14 226.8,15.2 213.7,11.1 213.7,10.1 		"/>
		
			<linearGradient id="SVGID_6_" gradientUnits="userSpaceOnUse" x1="4246.959" y1="-264.1296" x2="4104.3872" y2="-266.6182" gradientTransform="matrix(0.5324 0 0 0.5324 -2041.2913 207.0395)">
			<stop  offset="5.000000e-02" style="stop-color:#6B82AE"/>
			<stop  offset="0.257" style="stop-color:#CDCAE5"/>
			<stop  offset="0.446" style="stop-color:#9090C6"/>
			<stop  offset="0.734" style="stop-color:#CDCAE5"/>
			<stop  offset="0.95" style="stop-color:#CEC7E3"/>
		</linearGradient>
		<polygon fill="url(#SVGID_6_)" points="148.5,6.3 214.8,6.3 219.8,126.5 143.9,124.5 148.5,6.3 		"/>
		<polygon fill="#C9BFAE" points="88.2,23.5 92.5,39.8 93.5,40.2 89.2,23.8 88.2,23.5 		"/>
		<polygon fill="#C9BFAE" points="88.7,19 81.4,36 82.6,36.5 89.7,19.3 88.7,19 		"/>
		<polygon fill="#C9BFAE" points="97.5,11.1 88.9,19.2 89.5,19.7 98.6,11.1 97.5,11.1 		"/>
		<polygon fill="#C9BFAE" points="103.2,13.4 89.5,19.3 89.8,18.5 102.7,12.6 103.2,13.4 		"/>
		<polygon fill="#C9BFAE" points="83.1,34.5 98.6,25.5 99.6,25.8 82.2,36 83.1,34.5 		"/>
		<polygon fill="#C9BFAE" points="105.4,13.5 99.1,25.1 99.6,25.8 106.2,13.9 105.4,13.5 		"/>
		<polygon fill="#C9BFAE" points="124.9,5.9 123.2,18 124.1,18.3 125.9,6.1 124.9,5.9 		"/>
		<polygon fill="#C9BFAE" points="109.2,14.9 99.6,24.6 100.1,25.6 110.5,15 109.2,14.9 		"/>
		<polygon fill="#C9BFAE" points="94.5,10.1 98.3,25.1 99.3,25.1 95.3,9.7 94.5,10.1 		"/>
		
			<linearGradient id="SVGID_8_" gradientUnits="userSpaceOnUse" x1="4064.0718" y1="-352.7873" x2="4059.301" y2="-379.8432" gradientTransform="matrix(0.5324 0 0 0.5324 -2041.2913 207.0395)">
			<stop  offset="5.000000e-02" style="stop-color:#C9BFAE"/>
			<stop  offset="0.95" style="stop-color:#FFFFFF"/>
		</linearGradient>
		<polygon fill="url(#SVGID_8_)" points="118.8,4.7 122.6,19.7 123.6,19.7 119.6,4.3 118.8,4.7 		"/>
		<polygon fill="#C9BFAE" points="132.8,4.6 136.6,17.2 137.6,17.2 133.7,4.3 132.8,4.6 		"/>
		<polygon fill="#C9BFAE" points="82.2,8.4 74.6,32.6 75.1,34 83.6,7.8 82.2,8.4 		"/>
		<polygon fill="#C9BFAE" points="85.1,8.3 75.5,36 75.5,37.7 86.4,7.8 85.1,8.3 		"/>
		<polygon fill="#C9BFAE" points="84.9,37.9 78.4,19.8 79.8,19.8 85.9,39.2 84.9,37.9 		"/>
		<polygon fill="#C9BFAE" points="75.3,27.9 99.3,35 98.8,36 75.1,29.1 75.3,27.9 		"/>
		<polygon fill="#C9BFAE" points="74.3,31.4 98.3,38.5 97.8,39.5 74.1,32.6 74.3,31.4 		"/>
		
			<linearGradient id="SVGID_10_" gradientUnits="userSpaceOnUse" x1="4025.3083" y1="-328.5164" x2="4042.7898" y2="-357.6103" gradientTransform="matrix(0.5324 0 0 0.5324 -2041.2913 207.0395)">
			<stop  offset="0.1" style="stop-color:#C9BFAE"/>
			<stop  offset="0.9" style="stop-color:#FFFFFF"/>
		</linearGradient>
		<polygon fill="url(#SVGID_10_)" points="116,8.3 95.8,40 97.1,40.7 117.3,8.4 116,8.3 		"/>
		<polygon fill="#C9BFAE" points="97.5,23.8 88.2,19.3 87.5,17.2 99.1,24.3 97.5,23.8 		"/>
		<polygon fill="#C9BFAE" points="85.4,10.6 118.5,20.8 118.1,21.3 85.7,11.2 85.4,10.6 		"/>
		<polygon fill="#C9BFAE" points="84.1,12.2 117.1,22.5 116.8,23 84.4,12.9 84.1,12.2 		"/>
		<polygon fill="#C9BFAE" points="75,21.2 111.7,31.2 111.3,31.7 74.8,21.8 75,21.2 		"/>
		
			<linearGradient id="SVGID_12_" gradientUnits="userSpaceOnUse" x1="4015.425" y1="-319.6879" x2="4005.1357" y2="-368.0955" gradientTransform="matrix(0.5324 0 0 0.5324 -2041.2913 207.0395)">
			<stop  offset="0.26" style="stop-color:#C9BFAE"/>
			<stop  offset="0.74" style="stop-color:#FFFFFF"/>
		</linearGradient>
		<polygon fill="url(#SVGID_12_)" points="104.2,13.2 82.2,34.5 82.7,35 105.2,12.9 104.2,13.2 		"/>
		<polygon fill="#C9BFAE" points="75.6,13.4 85.9,10.4 85.9,9.4 74.6,13 75.6,13.4 		"/>
		<polygon fill="#C9BFAE" points="75.1,15 88.2,19 88.2,20.2 75.1,16 75.1,15 		"/>
		
			<linearGradient id="SVGID_14_" gradientUnits="userSpaceOnUse" x1="4120.9019" y1="-296.6109" x2="4087.363" y2="-300.136" gradientTransform="matrix(0.5324 0 0 0.5324 -2041.2913 207.0395)">
			<stop  offset="0.28" style="stop-color:#817D81"/>
			<stop  offset="0.72" style="stop-color:#FCE7E7"/>
		</linearGradient>
		<polygon fill="url(#SVGID_14_)" points="143.6,8.3 139,88.4 146.4,88.3 148.5,7.9 143.6,8.3 		"/>
		
			<linearGradient id="SVGID_16_" gradientUnits="userSpaceOnUse" x1="4281.7373" y1="-299.7206" x2="4235.4956" y2="-295.675" gradientTransform="matrix(0.5324 0 0 0.5324 -2041.2913 207.0395)">
			<stop  offset="0.22" style="stop-color:#9A919E"/>
			<stop  offset="0.78" style="stop-color:#FFFFFF"/>
		</linearGradient>
		<polygon fill="url(#SVGID_16_)" points="217,8.8 222.3,89.6 235,86.3 226.6,7.8 217,8.8 		"/>
		
			<linearGradient id="SVGID_18_" gradientUnits="userSpaceOnUse" x1="4163.2832" y1="-280.9937" x2="4146.2271" y2="-281.5893" gradientTransform="matrix(0.5324 0 0 0.5324 -2041.2913 207.0395)">
			<stop  offset="0.24" style="stop-color:#9A919E"/>
			<stop  offset="0.76" style="stop-color:#FCE3E4"/>
		</linearGradient>
		<polygon fill="url(#SVGID_18_)" points="167.9,7.6 173.5,7.6 173.5,107 167.9,107 167.9,7.6 		"/>
		<polygon fill="#D2D0D1" points="181.4,9.1 115.3,60 115.6,61.8 188.7,8.8 181.4,9.1 		"/>
		<polygon fill="#F1E9E0" points="146.7,8.1 106.9,43.8 108.5,46.6 153.3,7.6 146.7,8.1 		"/>
		<polygon fill="#F1E9E0" points="143.3,7.3 136.6,119.5 138.4,120 144.6,7.7 143.3,7.3 		"/>
		<polygon fill="#F1E9E0" points="138.6,6.3 131.7,98.2 133.1,98.7 139.6,6.6 138.6,6.3 		"/>
		
			<linearGradient id="SVGID_20_" gradientUnits="userSpaceOnUse" x1="-125.4351" y1="857.3543" x2="-169.2708" y2="835.0189" gradientTransform="matrix(1 0 0 1 362.7256 -825.0317)">
			<stop  offset="0.13" style="stop-color:#D1C7B9"/>
			<stop  offset="0.87" style="stop-color:#FFFFFF"/>
		</linearGradient>
		<polygon fill="url(#SVGID_20_)" points="189.4,6.3 249.8,35.4 249.8,38.4 179.7,6.3 189.4,6.3 		"/>
		
			<linearGradient id="SVGID_22_" gradientUnits="userSpaceOnUse" x1="-1.9584" y1="852.0584" x2="-105.7304" y2="816.3268" gradientTransform="matrix(1 0 0 1 238.9155 -809.2417)">
			<stop  offset="0.22" style="stop-color:#D1C7B9"/>
			<stop  offset="0.78" style="stop-color:#FFFFFF"/>
		</linearGradient>
		<polygon fill="url(#SVGID_22_)" points="144.8,8.7 249.8,47.3 249.8,49.6 118.9,4.3 144.8,8.7 		"/>
		
			<linearGradient id="SVGID_24_" gradientUnits="userSpaceOnUse" x1="155.5463" y1="866.7828" x2="28.568" y2="818.0404" gradientTransform="matrix(1 0 0 1 75.9775 -810.1255)">
			<stop  offset="0.28" style="stop-color:#D1C7B9"/>
			<stop  offset="0.72" style="stop-color:#FFFFFF"/>
		</linearGradient>
		<polygon fill="url(#SVGID_24_)" points="94.1,7.9 249.8,56.4 249.8,58.4 85.5,7.9 94.1,7.9 		"/>
		
			<linearGradient id="SVGID_26_" gradientUnits="userSpaceOnUse" x1="229.8257" y1="846.0491" x2="80.7183" y2="803.2933" gradientTransform="matrix(1 0 0 1 7.3037 -781.3784)">
			<stop  offset="0.3" style="stop-color:#D1C7B9"/>
			<stop  offset="0.7" style="stop-color:#FFFFFF"/>
		</linearGradient>
		<polygon fill="url(#SVGID_26_)" points="75.5,17.6 249.9,66 249.9,68.2 75.5,20.6 75.5,17.6 		"/>
		<polygon fill="#D1C7B9" points="72.5,35.2 251.1,76.5 251.4,78 72.5,37.9 72.5,35.2 		"/>
		<polygon fill="#D1C7B9" points="74.5,49.6 243,80.4 243,81.5 73.8,52.4 74.5,49.6 		"/>
		<polygon fill="#FFFFFF" points="214.2,9.1 120.1,69.6 120.6,71.1 222.5,8.4 214.2,9.1 		"/>
		<polygon fill="#FFFFFF" points="249.4,9.2 125.2,72.9 125.4,74.2 251.1,12.7 249.4,9.2 		"/>
		<polygon fill="#FFFFFF" points="250.6,23.8 136.1,75.1 138.8,75.7 250.6,27.9 250.6,23.8 		"/>
		<polygon fill="#FFFFFF" points="249.9,36.9 150.9,77.2 152.8,78.4 249.7,40.5 249.9,36.9 		"/>
		<polygon fill="#FFFFFF" points="250.7,50.1 166.9,80.5 167.7,81.3 251.1,52.1 250.7,50.1 		"/>
		<polygon fill="#FFFFFF" points="251.4,59.3 168.9,85.1 169,86.1 251.7,61.3 251.4,59.3 		"/>
		<polygon fill="#F1E9E0" points="120.3,74.7 250,70.3 250,71.8 120.3,76.2 120.3,74.7 		"/>
		<polygon fill="#F1E9E0" points="123.9,49.6 249.9,43.1 249.9,44.6 123.9,51.1 123.9,49.6 		"/>
		<polygon fill="#F1E9E0" points="125.5,26.9 249.8,16.3 249.8,17.8 125.6,28.4 125.5,26.9 		"/>
		<polygon fill="#F1E9E0" points="182.6,8.8 183.9,125 185.7,125.5 183.9,9.1 182.6,8.8 		"/>
		<polygon fill="#F1E9E0" points="232.5,8.8 244.9,126.5 247.3,126.5 234.2,8.6 232.5,8.8 		"/>
		
			<linearGradient id="SVGID_28_" gradientUnits="userSpaceOnUse" x1="-42.2614" y1="904.4177" x2="-78.8915" y2="897.2975" gradientTransform="matrix(1 0 0 1 184.4663 -839.4155)">
			<stop  offset="0.4" style="stop-color:#F1E9E0"/>
			<stop  offset="0.6" style="stop-color:#FFFFFF"/>
		</linearGradient>
		<polygon fill="url(#SVGID_28_)" points="127.1,6.3 115.5,116.6 121.6,117.4 132.1,6.3 127.1,6.3 		"/>
		
			<linearGradient id="SVGID_30_" gradientUnits="userSpaceOnUse" x1="4000.1304" y1="-350.8865" x2="3994.7747" y2="-370.8746" gradientTransform="matrix(0.5324 0 0 0.5324 -2041.2913 207.0395)">
			<stop  offset="3.000000e-02" style="stop-color:#C9BFAE"/>
			<stop  offset="0.97" style="stop-color:#FFFFFF"/>
		</linearGradient>
		<polygon fill="url(#SVGID_30_)" points="89,19.7 85.9,8.9 84.6,8.9 88.4,21 89,19.7 		"/>
		<g>
			
				<linearGradient id="SVGID_32_" gradientUnits="userSpaceOnUse" x1="4155.4614" y1="-193.0213" x2="4180.2388" y2="-193.4538" gradientTransform="matrix(0.5324 0 0 0.5324 -2041.2913 207.0395)">
				<stop  offset="9.000000e-02" style="stop-color:#201F24"/>
				<stop  offset="0.91" style="stop-color:#FFFFFF"/>
			</linearGradient>
			<path fill="url(#SVGID_32_)" d="M179.6,81.5c0,0,1.5,0.2,1,2.5c-0.5,2.3-0.3,23,0.8,27c1.2,4,2,5,1.7,6.1
				c-0.3,1.2,2.1,9.3,0.5,9.6c-1.7,0.3-10.7-1.2-10.7-1.2s-2.8-7.6-1.2-17.5c1.7-9.9,3.8-21.5,5.1-23
				C178.1,83.5,179.6,81.5,179.6,81.5L179.6,81.5z"/>
			
				<linearGradient id="SVGID_33_" gradientUnits="userSpaceOnUse" x1="4247.8462" y1="-272.3954" x2="4199.1304" y2="-262.926" gradientTransform="matrix(0.5324 0 0 0.5324 -2041.2913 207.0395)">
				<stop  offset="0.3" style="stop-color:#EDCCB6"/>
				<stop  offset="0.7" style="stop-color:#FFFFFF"/>
			</linearGradient>
			<path fill="url(#SVGID_33_)" d="M195,55.5c0,0,0.6,3.2,0.5,4.1c-0.1,0.9,0.3,1.2,0.7,1.3c0.3,0.2,0.8,0.6,0.8,2
				c0,1.4,0.4,4.6,2.6,7.1c2.2,2.5,1.9,2.5,2,3.3c0.1,0.8,1,2,2.8,1.8c1.8-0.2,1.3,0.5,1.7,1.5c0.3,1,3.1,0.5,4.3-0.2
				c1.2-0.7,9.1-7.9,9.1-8.4c-0.1-0.5-1-3-1-4.1c0.1-1.1,2.9-9.6-0.5-10.1c-3.4-0.5-8.4,0.6-9.3-0.5c-0.9-1.1-2.9-1.9-5.8-0.7
				c-2.9,1.3-6.1,2.6-6.4,2.5C196.2,55.1,195,55.5,195,55.5L195,55.5z"/>
			
				<linearGradient id="SVGID_34_" gradientUnits="userSpaceOnUse" x1="4215.6172" y1="-267.7791" x2="4246.0859" y2="-272.0612" gradientTransform="matrix(0.5324 0 0 0.5324 -2041.2913 207.0395)">
				<stop  offset="0.15" style="stop-color:#E5BA9E"/>
				<stop  offset="0.85" style="stop-color:#FFFFFF"/>
			</linearGradient>
			<path fill="url(#SVGID_34_)" d="M219.6,56.1c0-0.4-0.1-0.7-0.2-1c-0.1-0.2-0.2-0.4-0.4-0.6c-2-1.9-6.8,0.9-8.3-0.3
				c-0.1-0.1-0.3-0.2-0.4-0.3c-0.8,0-1.3-0.2-1.6-0.5c-0.2-0.3-0.5-0.5-0.8-0.7c-0.7-0.2-1.3-0.3-1.9-0.3c-1.2,0-2.3,0.8-2.3,0.8
				s-1.3,5.1-0.7,5.3c0.6,0.2,3.3,0.9,2.6,1.5c-0.7,0.6,0.7,1.5,1,2.5c0.3,1,1.9,6.3,0.7,8.4c-1.3,2.1-2.7,3.9-1.2,3.6
				c1.6-0.3,4.8-2.2,4.5-0.2c-0.4,2.1,3.4-1.4,3.8-3.3c0.4-1.9,0.7-7,1.8-7.6C217.3,63,219.7,58.7,219.6,56.1L219.6,56.1z"/>
			
				<linearGradient id="SVGID_35_" gradientUnits="userSpaceOnUse" x1="4214.3579" y1="-292.6384" x2="4213.3545" y2="-281.1687" gradientTransform="matrix(0.5324 0 0 0.5324 -2041.2913 207.0395)">
				<stop  offset="0.14" style="stop-color:#DBAE8F"/>
				<stop  offset="0.86" style="stop-color:#FFFFFF"/>
			</linearGradient>
			<path fill="url(#SVGID_35_)" d="M195.2,55c0,0,1.7,3.7,3.1,2.3c1.5-1.4,8-5.9,9.1-4.3c1,1.6,1.2,3.3,1.8,1.3
				c0.7-2,0.9-3.6-3.1-3.5c-4.1,0.1-9.8,0.7-10.7,2C194.4,54.2,195.2,55,195.2,55L195.2,55z"/>
			
				<linearGradient id="SVGID_36_" gradientUnits="userSpaceOnUse" x1="4233.335" y1="-259.1519" x2="4244.1855" y2="-264.2116" gradientTransform="matrix(0.5324 0 0 0.5324 -2041.2913 207.0395)">
				<stop  offset="0.27" style="stop-color:#DBAE8F"/>
				<stop  offset="0.73" style="stop-color:#FFFFFF"/>
			</linearGradient>
			<path fill="url(#SVGID_36_)" d="M212.3,75.1c2.7-2.3,7.2-6.6,7.2-6.9c-0.1-0.5-1-3-1-4.1c0-0.2,0.2-0.9,0.4-1.7l-0.7-1.8
				c0,0-1.7,2.7-2.1,2.8c-0.5,0.1-1.2-0.3-1.2-0.3l-0.5,3c0,0-1.4,7.8-2.6,9.3C211.4,75.6,211.7,75.4,212.3,75.1L212.3,75.1z"/>
			<path fill="#3A2017" d="M208.7,50.6c0,0,1.3,1.9-1.2,1.7c-3.5-0.3-11.4,0.6-11.7,1.7c-0.3,1.1-0.4,2.2-1,1.7
				c-0.6-0.6-2.8-1,0.2-2.8C199.6,49.9,208.7,50.6,208.7,50.6L208.7,50.6z"/>
			<path fill="#C38166" d="M203.3,64.5c0,0,0.1,1.3-0.5,1.3c-0.6,0-2,0.1-2.5,0.5c-0.5,0.4-1,0.8,0.5,0.3c1.5-0.5,2.6-0.7,2.7-1.3
				C203.5,64.6,203.3,64.5,203.3,64.5L203.3,64.5z"/>
			
				<linearGradient id="SVGID_37_" gradientUnits="userSpaceOnUse" x1="4249.3848" y1="-286.6595" x2="4220.3057" y2="-274.316" gradientTransform="matrix(0.5324 0 0 0.5324 -2041.2913 207.0395)">
				<stop  offset="0.16" style="stop-color:#694230"/>
				<stop  offset="0.84" style="stop-color:#FFFFFF"/>
			</linearGradient>
			<path fill="url(#SVGID_37_)" d="M206.4,51.1c0,0,2.2,1.2,2.1,2.5c-0.1,1.3-0.5,1.7,0.7,2.6c1.2,0.9,1.2,1.4,1.8,2.3
				c0.6,0.9,1.8,1.7,2.6,1.2c0.9-0.6,0.6-2.4,1-2.8c0.4-0.4,1.2-1.8,2-2c0.8-0.2,2.1,0,2.1,1.3c0.1,1.3-0.2,4-0.7,4.6
				c-0.4,0.6-0.6,2.4,0.2,3.8c0.7,1.4,0.7-1.4,1.3-2.6c0.6-1.2,0.6-4.3,0.5-6.6c-0.1-2.3-0.4-3.1-1-3.8c-0.6-0.7-3.7-1.4-7.3-1.3
				C208.3,50.4,206.4,51.1,206.4,51.1L206.4,51.1z"/>
			<path fill="#3A2017" d="M206.4,51.1c0,0,1.1,0.6,1.7,1.4c0.1,0,0.3,0,0.4,0c1.7-0.3,9.4-2,11.4,1.3c-0.2-1.1-0.4-1.6-0.8-2.2
				c-0.6-0.7-3.7-1.4-7.3-1.3C208.3,50.4,206.4,51.1,206.4,51.1L206.4,51.1z"/>
			
				<linearGradient id="SVGID_38_" gradientUnits="userSpaceOnUse" x1="4247.8901" y1="-284.2157" x2="4223.3569" y2="-272.25" gradientTransform="matrix(0.5324 0 0 0.5324 -2041.2913 207.0395)">
				<stop  offset="0.27" style="stop-color:#A76744"/>
				<stop  offset="0.73" style="stop-color:#FFFFFF"/>
			</linearGradient>
			<path fill="url(#SVGID_38_)" d="M208.5,53c0.1,0.2,0.1,0.4,0.1,0.6c-0.1,1.3-0.5,1.7,0.7,2.6c1.2,0.9,1.2,1.4,1.8,2.3
				c0.6,0.9,1.8,1.7,2.6,1.2c0.6-0.4,0.7-1.3,0.7-2c-0.8,0.7-1.7,0.8-2.6,0.1c-1.2-0.9-1.4-3.7-2-4.6
				C209.7,52.9,209.1,52.9,208.5,53L208.5,53z M218,61.3L218,61.3c-0.3,0.8-0.2,2.2,0.4,3.4c0.4,0.8,0.6,0.1,0.8-0.8
				C218.8,63.2,218.4,62.3,218,61.3L218,61.3z"/>
			<path fill="#3A2017" d="M218.6,55.5c0.1,0.2,0.2,0.4,0.2,0.7c0.1,1.3-0.2,4-0.7,4.6c-0.4,0.6-0.6,2.4,0.2,3.8
				c0.7,1.4,0.7-1.4,1.3-2.6c0.6-1.2,0.6-4.3,0.5-6.6c-0.1-1.3-0.2-2.1-0.4-2.7C219.3,53.5,218.9,54.6,218.6,55.5L218.6,55.5z"/>
			<path fill="#DEAC90" d="M200.3,58.9c0,0-0.2,0.9,0.8,1.5c1,0.6,2.8,1,2.5,0.5c-0.3-0.6-1.8-1-0.2-1.3c1.6-0.3,3.6,0.1,3.1-0.2
				c-0.5-0.2-4.7-1-3.3-1.3C204.7,57.7,200.3,58.9,200.3,58.9L200.3,58.9z"/>
			<path fill="none" d="M198.5,59.8c0,0,0.7-0.2,0.7,0.8c0,1-0.2,0.2-1,0.7c-0.8,0.4-3-0.4-2.1-0.8
				C196.8,60.1,198.5,59.8,198.5,59.8L198.5,59.8z"/>
			<path fill="#EDC7A9" d="M205.9,53.1c0,0-0.7,3.7,0.8,4.1c1.5,0.4,1.7,2,2.3,1c0.6-1,0.3-1.4-0.8-2.8c-1.1-1.4-1-1.7-1.5-2
				C206.3,53.1,205.9,53.1,205.9,53.1L205.9,53.1z"/>
			<path fill="#DEAC90" d="M203.6,64c0,0,0.4,0.9,1.7,1.5c1.2,0.6,2,1.8,2,3c-0.1,1.2,0-1.5-1.5-2.1C204.3,65.6,203.6,64,203.6,64
				L203.6,64z"/>
			
				<linearGradient id="SVGID_39_" gradientUnits="userSpaceOnUse" x1="4215.5552" y1="-256.7154" x2="4216.0811" y2="-253.395" gradientTransform="matrix(0.5324 0 0 0.5324 -2041.2913 207.0395)">
				<stop  offset="7.000000e-02" style="stop-color:#DEAC90"/>
				<stop  offset="0.93" style="stop-color:#FFFFFF"/>
			</linearGradient>
			<path fill="url(#SVGID_39_)" d="M202.1,70.6c0,0,1.2,0.1,1.7-0.2c0.4-0.2,0.7,1.5-0.2,1.7c-0.8,0.2-0.9-0.3-1.2-0.7
				C202.2,71,202.1,70.6,202.1,70.6L202.1,70.6z"/>
			<path fill="#DB9A88" d="M201,69.1c0,0,0.2,1.2,1.2,1.2c1,0,3.6-1.4,4-1.8c0.3-0.4-2.7,0.7-3.3,0.7C202.2,69.3,201,69.1,201,69.1
				L201,69.1z"/>
			<path fill="#ECAD84" d="M201.8,73.9c0.3,0.7,1.2,1.5,2.7,1.3c0.9-0.1,1.3,0,1.4,0.3c2.6-0.8,6.5-3.6,7.5-4.8
				c1.2-1.4,1.5-7.4,1.5-7.4s-0.7,3.1-2.1,6c-1.5,2.9-4.3,4.1-7.1,5.1C203.7,75.1,202.4,74.4,201.8,73.9L201.8,73.9z"/>
			<path fill="#C38166" d="M214.8,62.2c0,0,0.1,1.4,1.2,0.7c1-0.7,2.1-2.3,2.1-2.3s-1.5,3.9-2.6,3.5
				C214.4,63.5,214.8,62.2,214.8,62.2L214.8,62.2z"/>
			<path fill="#EAA579" d="M215.2,57.2c0,0,2-2.6,2.6-1.7c0.7,1,0.8,3.7-0.2,4.6c-0.9,0.9,0.5-1.7,0.2-2.8c-0.3-1.2-0.5-1.2-1.2-0.8
				C216,56.9,215.2,57.2,215.2,57.2L215.2,57.2z"/>
			<path fill="#E39B73" d="M215.7,58c0,0,2.1,1.9,1,2c-1.1,0.1-1.3-0.7-1.3-0.7s0.8,0.1,0.3-0.7C215.2,57.9,215.7,58,215.7,58
				L215.7,58z"/>
			<path fill="#EEB78E" d="M214.8,60.7c0,0,0.1,2.1,0.8,1.8c0.7-0.3,1.3-1.5,0.7-1.5C215.7,61,214.8,60.7,214.8,60.7L214.8,60.7z"/>
			<path fill="#F5C99F" d="M216.7,57c0,0,0.2,0.4,0.5,1.2c0.3,0.7,0.1-0.3,0-1C217.1,56.5,216.7,57,216.7,57L216.7,57z"/>
			
				<linearGradient id="SVGID_40_" gradientUnits="userSpaceOnUse" x1="4207.5796" y1="-275.4097" x2="4199.5366" y2="-274.1359" gradientTransform="matrix(0.5324 0 0 0.5324 -2041.2913 207.0395)">
				<stop  offset="7.000000e-02" style="stop-color:#F8DAC4"/>
				<stop  offset="0.93" style="stop-color:#FFFFFF"/>
			</linearGradient>
			<path fill="url(#SVGID_40_)" d="M195.1,55.9c0.2,0.9,0.5,3,0.4,3.8c0,0.4,0,0.7,0.1,0.9c0.1-0.7,0.7-2,0.7-3
				C196.4,56.6,195.6,56.1,195.1,55.9L195.1,55.9z M196.7,61.6L196.7,61.6c0.1,0.3,0.3,0.7,0.3,1.4c0,0.6,0.1,1.6,0.4,2.8
				c0.3-1.1,1-2.4,0.9-2.8C198.2,62.7,197.5,62,196.7,61.6L196.7,61.6z"/>
			<path fill="#FFFFFF" d="M202.5,60c0,0,0.7,0.9,1.3,0.9c1.2,0,2.6-1.4,2.6-1.4l-3.4,0L202.5,60L202.5,60z"/>
			<path fill="#839FBA" d="M203.2,60.4c-0.1-0.4,0.1-0.9,0.5-1c0.4-0.1,0.9,0.1,1,0.5c0.1,0.4-0.1,0.9-0.5,1
				C203.8,61.1,203.3,60.8,203.2,60.4L203.2,60.4z"/>
			<path d="M203.6,60.3c-0.1-0.2,0-0.4,0.2-0.5c0.2-0.1,0.4,0,0.5,0.2c0.1,0.2,0,0.4-0.2,0.5C203.9,60.6,203.6,60.5,203.6,60.3
				L203.6,60.3z"/>
			<path fill="#FFFFFF" d="M203.5,60.6c0-0.1,0-0.2,0.1-0.2c0.1,0,0.2,0,0.2,0.1c0,0.1,0,0.2-0.1,0.2
				C203.6,60.7,203.6,60.6,203.5,60.6L203.5,60.6z"/>
			<path fill="#9EC8EA" d="M204.3,60.6c0-0.1,0-0.2,0.1-0.2c0.1,0,0.2,0,0.2,0.1c0,0.1,0,0.2-0.1,0.2
				C204.4,60.7,204.3,60.6,204.3,60.6L204.3,60.6z"/>
			<path fill="#EEC5AB" d="M206.9,59.5c0,0-2.5-0.1-3.6,0.1c-1.3,0.2-1.2-0.3,0.2-0.6C204.8,58.7,206.9,59.5,206.9,59.5L206.9,59.5z
				"/>
			<path fill="#231B13" d="M202.6,60.2c0,0,0-0.5,1.2-0.6c1.2-0.1,2.6-0.1,2.6-0.1s-2.5-0.5-3.6,0C202.3,59.8,202.6,60.2,202.6,60.2
				L202.6,60.2z"/>
			<path fill="#FFFFFF" d="M196.7,61.8c0,0,0.8,0.8,1.3,0.8c1.2-0.1,2.5-1.7,2.5-1.7l-3.4,0.3L196.7,61.8L196.7,61.8z"/>
			<path fill="#839FBA" d="M197.4,62.2c-0.2-0.4,0-0.9,0.4-1c0.4-0.2,0.9,0,1,0.4c0.2,0.4,0,0.9-0.4,1
				C198.1,62.8,197.6,62.6,197.4,62.2L197.4,62.2z"/>
			<path d="M197.8,62c-0.1-0.2,0-0.4,0.2-0.5c0.2-0.1,0.4,0,0.5,0.2c0.1,0.2,0,0.4-0.2,0.5C198.1,62.3,197.9,62.2,197.8,62L197.8,62
				z"/>
			<path fill="#FFFFFF" d="M197.8,62.3c0-0.1,0-0.2,0.1-0.2c0.1,0,0.2,0,0.2,0.1c0,0.1,0,0.2-0.1,0.2
				C197.9,62.4,197.8,62.4,197.8,62.3L197.8,62.3z"/>
			<path fill="#9EC8EA" d="M198.5,62.2c0-0.1,0-0.2,0.1-0.2c0.1,0,0.2,0,0.2,0.1c0,0.1,0,0.2-0.1,0.2
				C198.6,62.3,198.5,62.3,198.5,62.2L198.5,62.2z"/>
			<path fill="#EEC5AB" d="M201,60.9c0,0-2.5,0.2-3.6,0.5c-1.2,0.4-1.2-0.2,0.1-0.6C198.8,60.3,201,60.9,201,60.9L201,60.9z"/>
			<path fill="#231B13" d="M198.1,61.2c1.2-0.2,2.5-0.3,2.5-0.3s-2.6-0.3-3.6,0.3c-0.3,0.2-0.1,0.7,0,0.5
				C197.1,61.4,197.5,61.3,198.1,61.2L198.1,61.2z"/>
			<path fill="#463020" d="M200.1,59c0,0,0.7,0.4,1.7-0.2c1-0.6,2.9-0.9,3.6-1c0.8-0.1,0.3-0.2-1.7-0.2c-1.9,0-2.8,1-3.1,1
				C200.2,58.6,200.1,59,200.1,59L200.1,59z"/>
			<path fill="#463020" d="M195.5,60.5c0,0,0.4,0.3,1.7-0.2c1.2-0.5,1.8-0.3,1.8-0.3s-0.2-0.4-1-0.5
				C197.2,59.5,195.5,60.5,195.5,60.5L195.5,60.5z"/>
			<path fill="#9D4935" d="M206.4,68.4c0,0-0.8-0.2-1.3-0.2c-0.5,0.1-3.5,0.6-4,0.7c-0.4,0.1,0.4,0.4,0.7,0.8
				c0.3,0.4,0.8,0.2,1.8-0.2c1-0.4,2-0.8,2-0.8L206.4,68.4L206.4,68.4z"/>
			<path fill="#FFFFFF" d="M201.8,69.1c0,0,0,0.7,0.7,0.5c0.7-0.2,2.6-0.7,2.3-1c-0.3-0.3-1.2,0.2-1.9,0.2
				C202.1,68.9,201.8,69.1,201.8,69.1L201.8,69.1z"/>
			
				<linearGradient id="SVGID_41_" gradientUnits="userSpaceOnUse" x1="4209.9629" y1="-270.5712" x2="4207.4355" y2="-270.3945" gradientTransform="matrix(0.5324 0 0 0.5324 -2041.2913 207.0395)">
				<stop  offset="4.000000e-02" style="stop-color:#F8DAC4"/>
				<stop  offset="0.96" style="stop-color:#FFFFFF"/>
			</linearGradient>
			<path fill="url(#SVGID_41_)" d="M198.9,59.8c0,0,1.4,0.9,1.2,1.6c-0.1,0.7-0.7,5-1.2,4.9c-0.5-0.1-0.2-1.4,0.2-2.5
				c0.4-1.1,0.6-1.8,0.5-2.3C199.6,60.9,198.9,59.8,198.9,59.8L198.9,59.8z"/>
			
				<linearGradient id="SVGID_42_" gradientUnits="userSpaceOnUse" x1="4208.5952" y1="-271.2071" x2="4214.5723" y2="-270.0453" gradientTransform="matrix(0.5324 0 0 0.5324 -2041.2913 207.0395)">
				<stop  offset="9.000000e-02" style="stop-color:#E9C2AB"/>
				<stop  offset="0.91" style="stop-color:#FFFFFF"/>
			</linearGradient>
			<path fill="url(#SVGID_42_)" d="M200.3,60c0,0-0.7,0-0.4,0.6c0.8,1.4-0.3,3.5-0.3,4.1c-0.1,1,0.2,0.8,1.5,0.5
				c1.3-0.3,1.4-0.8,1-1.3c-0.4-0.6,0.7-1.7,0-2.3C201.5,61,200.3,60,200.3,60L200.3,60z"/>
			
				<linearGradient id="SVGID_43_" gradientUnits="userSpaceOnUse" x1="4216.3848" y1="-175.5955" x2="4177.9258" y2="-189.5934" gradientTransform="matrix(0.5324 0 0 0.5324 -2041.2913 207.0395)">
				<stop  offset="0.21" style="stop-color:#B0BCD1"/>
				<stop  offset="0.79" style="stop-color:#FFFFFF"/>
			</linearGradient>
			<path fill="url(#SVGID_43_)" d="M196.8,91.9c0,0-2.3-0.3-3.3,6.4c-1,6.7-4.3,26.5-6.4,27.9c-2.1,1.5,12.9,0,12.9,0
				s-0.3-25.2-0.7-28.4C198.9,94.6,196.8,91.9,196.8,91.9L196.8,91.9z"/>
			
				<radialGradient id="SVGID_44_" cx="4232.4395" cy="-217.3962" r="74.4354" gradientTransform="matrix(0.5324 0 0 0.5324 -2041.2913 207.0395)" gradientUnits="userSpaceOnUse">
				<stop  offset="0.31" style="stop-color:#FFFFFF"/>
				<stop  offset="0.69" style="stop-color:#FDEAEA"/>
			</radialGradient>
			<path fill="url(#SVGID_44_)" d="M220,71.4c0,0,4.5,0.8,8.6,1c4.1,0.2,10.9,1.8,13.4,4.6c2.5,2.8,7.8,10.7,9.1,12.1
				c1.3,1.3,0.3,36.9-0.8,37c-1.2,0.1-4.1,0.2-3.6-0.8c0.5-1-1.4-3.7,0.2-5.5c1.5-1.7,0.4-3.6,0.3-4.6c-0.1-1-0.4-3.1-0.2-4.1
				c0.3-1,2.3-7.7-0.7-7.8c-2.9-0.1-6.8-5.3-7.6-8.6c-0.8-3.3-2.6,2.9-5.5,3.1c-2.9,0.3,3.6,4.7,2.3,13.1c-1.3,8.4,0.9,13.6-6.1,15
				c-7,1.5-33.6,0-33.6,0s2.3-23.5-0.4-27.9c-2.8-4.4,0.3-6.6,0.6-7.8c0.3-1.2,7.8-7.1,8.6-10.4c0.8-3.3,6.4-2.1,8.3-4.3
				C214.7,73.3,220,71.4,220,71.4L220,71.4z"/>
			
				<linearGradient id="SVGID_45_" gradientUnits="userSpaceOnUse" x1="4287.7344" y1="-182.4173" x2="4244.1025" y2="-193.2959" gradientTransform="matrix(0.5324 0 0 0.5324 -2041.2913 207.0395)">
				<stop  offset="0.13" style="stop-color:#CDD2E1"/>
				<stop  offset="0.87" style="stop-color:#FFFFFF"/>
			</linearGradient>
			<path fill="url(#SVGID_45_)" d="M238.3,96.5c0,0-0.9-7.8-5.1-9.3c-4.2-1.5-3,7.1-4.5,9.3c-1.5,2.1-0.2,14.2-3.3,17.4
				c-3.1,3.2,1.5,4.4-1.5,7.6c-3,3.3-5,4-0.2,4.3c4.8,0.3,14.7-0.5,14.7-0.5l0.3-6.3l0.3-1.5l-0.3-10.9L238.3,96.5L238.3,96.5z"/>
			
				<linearGradient id="SVGID_46_" gradientUnits="userSpaceOnUse" x1="4206.2412" y1="-201.5753" x2="4236.0156" y2="-195.7877" gradientTransform="matrix(0.5324 0 0 0.5324 -2041.2913 207.0395)">
				<stop  offset="0.25" style="stop-color:#C7C3DA"/>
				<stop  offset="0.75" style="stop-color:#FFFFFF"/>
			</linearGradient>
			<path fill="url(#SVGID_46_)" d="M210.2,78.5c0,0-1.5,1.4-2.1,2.6c-0.7,1.2-4.4,34.1-2.8,35.2c1.6,1.2,2.5,2.8,1.3,4.3
				c-1.2,1.5,3.1,4.5,0.8,4.6c-2.3,0.2-5.5,2-4.8-4.5c0.7-6.5-1.4-13.9-0.7-19.5c0.7-5.6,4.2-23,6.3-24
				C210.3,76.4,210.2,78.5,210.2,78.5L210.2,78.5z"/>
			<path fill="#CEC4DC" d="M206.1,76.4c0,0,0.3,2.8-0.8,3.6c-1.2,0.8-1.3,1.7-1.3,1.7s1-3.8,1-4.6C204.9,76.2,206.1,76.4,206.1,76.4
				L206.1,76.4z"/>
			
				<linearGradient id="SVGID_47_" gradientUnits="userSpaceOnUse" x1="4236.7715" y1="-194.8171" x2="4197.1074" y2="-203.248" gradientTransform="matrix(0.5324 0 0 0.5324 -2041.2913 207.0395)">
				<stop  offset="0.35" style="stop-color:#6A9895"/>
				<stop  offset="0.65" style="stop-color:#EAE6F2"/>
			</linearGradient>
			<path fill="url(#SVGID_47_)" d="M209.2,76.4c0,0,1.2,2.7,0.3,3c-0.8,0.3-2,1-2,1s-3.1,15.2-3.7,24.2c-0.6,9,0,16.2,0,16.2
				l0.2,5.1l-6.3-0.2c0,0-0.3-9.6,0.5-18.5c0.8-8.9,4.4-19.9,6.1-23.8c1.8-3.9,1.5-4,1.5-4l-0.2-1.5V77L209.2,76.4L209.2,76.4z"/>
			<path fill="#557079" d="M203.8,125.8l0.3,0l-0.2-5.1c0,0-0.6-7.2,0-16.2c0.6-9,3.7-24.2,3.7-24.2s1.2-0.7,2-1
				c0.4-0.1,0.3-0.9,0.1-1.6c-0.6,0.5-1.4,1.1-2.1,1.8c-1.6,1.5-3.4,11.1-4.3,20.3C202.4,108.6,202.4,124,203.8,125.8L203.8,125.8z"
				/>
			
				<linearGradient id="SVGID_48_" gradientUnits="userSpaceOnUse" x1="4299.8174" y1="-178.9344" x2="4259.46" y2="-189.748" gradientTransform="matrix(0.5324 0 0 0.5324 -2041.2913 207.0395)">
				<stop  offset="0.25" style="stop-color:#B0BCD1"/>
				<stop  offset="0.75" style="stop-color:#FFFFFF"/>
			</linearGradient>
			<path fill="url(#SVGID_48_)" d="M225.1,92.9c0,0,10.5,4.4,10.6,6.6c0.1,2.3-1.5,3,0.5,3.3c2,0.3-0.3,2.3,0.8,2.3
				c1.2,0.1-0.1,1,0,3.3c0.1,2.3-1,0.9,0,2.3c1,1.4-3,5.9-1,6c2,0.1-1.3,4-3.3,5.8c-2,1.8-3.7,3.6,0.8,4c4.5,0.4,6.4-0.3,7.3-1.2
				c0.5-0.5-1.9-23,0.2-22.2c2,0.8,5.2,6.1,5.3,8.3c0.1,2.1-0.8,2.7,0.3,5.6c1.2,2.9-3.9,8.4-0.5,10.6c3.4,2.1,5.3-17.8,1.5-23.5
				c-3.8-5.7-7.1-5-9.1-10.4c-2-5.4-1.4-2.8-1.2,0.7c0.3,3.4-2.6-0.3-5-4.3c-2.4-4-1.8,0.4,0.5,3.1c2.3,2.7,2.5,2.9-2.1,1.2
				C226,92.6,225.1,92.9,225.1,92.9L225.1,92.9z"/>
			
				<radialGradient id="SVGID_49_" cx="4212.8022" cy="-315.0167" r="31.8204" gradientTransform="matrix(0.5324 0 0 0.5324 -2041.2913 207.0395)" gradientUnits="userSpaceOnUse">
				<stop  offset="0" style="stop-color:#FFFFFF"/>
				<stop  offset="0.28" style="stop-color:#FCE7E7"/>
				<stop  offset="1" style="stop-color:#CDCAE5"/>
			</radialGradient>
			<path fill="url(#SVGID_49_)" d="M194.3,48.8c0-6.7,5.4-12.1,12.1-12.1c6.7,0,11.8,5.4,12.1,12.1c0.2,4.3,0.8,1.5-11.9,1.5
				C199.9,50.3,194.3,55.4,194.3,48.8L194.3,48.8z"/>
			<path fill="#FFFFFF" d="M219.8,53.2c0,0,3.8-2.8,0.8-4c-3-1.2-13.9-1.3-21,0.2c-9.5,1.9-12.5,4.6-10.8,5.5
				c1.7,0.8,6.3,0.8,6.3,0.8s-2.6-2.3,0.8-3.4c3.5-1.2,21.5-3.1,22.7-1.2C219.8,53.1,219.8,53.2,219.8,53.2L219.8,53.2z"/>
			
				<linearGradient id="SVGID_50_" gradientUnits="userSpaceOnUse" x1="4247.6396" y1="-279.1901" x2="4190.9614" y2="-300.9469" gradientTransform="matrix(0.5324 0 0 0.5324 -2041.2913 207.0395)">
				<stop  offset="8.000000e-02" style="stop-color:#A1B1CB"/>
				<stop  offset="0.92" style="stop-color:#FFFFFF"/>
			</linearGradient>
			<path fill="url(#SVGID_50_)" d="M219.8,53.9c0,0,3.8-2.8,0.8-4c-3-1.2-13.9-1.3-21,0.2c-7.1,1.5-12.4,4.1-10.7,5
				c1.7,0.8,6.4,0.5,6.4,0.5s-2.8-1.5,0.7-2.6c3.5-1.2,21.5-3.1,22.7-1.2C219.8,53.7,219.8,53.9,219.8,53.9L219.8,53.9z"/>
			
				<linearGradient id="SVGID_51_" gradientUnits="userSpaceOnUse" x1="4248.6074" y1="-235.6925" x2="4227.3496" y2="-260.1465" gradientTransform="matrix(0.5324 0 0 0.5324 -2041.2913 207.0395)">
				<stop  offset="8.000000e-02" style="stop-color:#E4DCED"/>
				<stop  offset="0.92" style="stop-color:#FFFFFF"/>
			</linearGradient>
			<path fill="url(#SVGID_51_)" d="M219.1,67.4c0,0-8.9,7.9-9.9,8.4c-1,0.6,1.2,4.1,0.7,5.8c-0.5,1.7,3.9-3.1,6.3-5.8
				c2.4-2.6,5.6-4.1,5.6-4.1s-0.8-0.8-1.2-2.5C220.3,67.6,219.1,67.4,219.1,67.4L219.1,67.4z"/>
			
				<linearGradient id="SVGID_52_" gradientUnits="userSpaceOnUse" x1="4303.3564" y1="-219.8421" x2="4281.2236" y2="-222.1684" gradientTransform="matrix(0.5324 0 0 0.5324 -2041.2913 207.0395)">
				<stop  offset="0.11" style="stop-color:#C8CFDE"/>
				<stop  offset="0.89" style="stop-color:#FFFFFF"/>
			</linearGradient>
			<path fill="url(#SVGID_52_)" d="M250,87.8c-2.1-2.7-6-8.4-8-10.7c-0.2-0.2-0.5-0.5-0.7-0.7c-0.9,0.3-1.9,0.9-3.1,1.7
				c-3.6,2.4,4.6,11.7,5.6,15.9c1,4.1,6.8,8.9,6.8,8.9l-0.3-5.3C250.2,97.5,250.5,92.7,250,87.8L250,87.8z"/>
			<path fill="#E9B388" d="M163.6,70.1c0,0-0.7,2.9-0.7,3.6s-6.2,4.5-8.8,1.8c-2.5-2.7-2.9-6.8-1.2-6.8
				C154.7,68.8,163.6,70.1,163.6,70.1L163.6,70.1z"/>
			<path fill="#EEC4A3" d="M150.9,63.5c0,0-0.5,3.3-1,3.8c-0.5,0.5-0.1,4.1,2.5,6.3c2.6,2.1,0.4,0.1,0.2-3.1
				C152.3,67.2,150.9,63.5,150.9,63.5L150.9,63.5z"/>
			<path fill="#D19E7D" d="M159.3,73.4c0,0-0.8,2.1-2,2.8c-1.2,0.7,5.4-1.1,5.6-2.3c0.2-1.2,0.5-2.8,0.5-2.8L159.3,73.4L159.3,73.4z
				"/>
			
				<linearGradient id="SVGID_53_" gradientUnits="userSpaceOnUse" x1="4145.3545" y1="-222.1292" x2="4113.249" y2="-235.1007" gradientTransform="matrix(0.5324 0 0 0.5324 -2041.2913 207.0395)">
				<stop  offset="0.13" style="stop-color:#C2CCDC"/>
				<stop  offset="0.87" style="stop-color:#FFFFFF"/>
			</linearGradient>
			<path fill="url(#SVGID_53_)" d="M161.9,75.2c0,0-6.6,2.3-8.6,0c-2-2.3-4,4.1-4,4.1l3.3,16.2l9.1-3.5l3.3-15L161.9,75.2
				L161.9,75.2z"/>
			<path fill="#94A7C4" d="M152.5,87.6l-0.5-7.8c0,0,1.7-3.5,4-3.3c2.3,0.2,4.3,5.8,4.3,5.8l1.1-1.4c0,0-0.6,11-2.8,12.8
				c-2.1,1.8,2.3,2.1,3.6-0.8c1.3-3,1.7-17.2-0.2-16.9c-1.8,0.3-7.9,0.3-9.3-0.8c-1.3-1.2-2.6,1.8-2.8,5.3
				C149.9,84,152.5,87.6,152.5,87.6L152.5,87.6z"/>
			
				<linearGradient id="SVGID_54_" gradientUnits="userSpaceOnUse" x1="4135.9648" y1="-220.3992" x2="4117.3506" y2="-229.8838" gradientTransform="matrix(0.5324 0 0 0.5324 -2041.2913 207.0395)">
				<stop  offset="0.27" style="stop-color:#7A80A1"/>
				<stop  offset="0.73" style="stop-color:#FFFFFF"/>
			</linearGradient>
			<path fill="url(#SVGID_54_)" d="M155.3,77.5c0,0-3.1,5.6-3.5,9.4c-0.2,1.8,1.5,8.6,1.5,8.6l6.9-1.8c0,0-2.1-8.1-3-10.4
				c-0.9-2.5-0.3-5.1-0.3-5.1L155.3,77.5L155.3,77.5z"/>
			
				<linearGradient id="SVGID_55_" gradientUnits="userSpaceOnUse" x1="4132.0381" y1="-241.3023" x2="4124.396" y2="-247.2728" gradientTransform="matrix(0.5324 0 0 0.5324 -2041.2913 207.0395)">
				<stop  offset="0.13" style="stop-color:#7A80A1"/>
				<stop  offset="0.87" style="stop-color:#FFFFFF"/>
			</linearGradient>
			<path fill="url(#SVGID_55_)" d="M153.3,75.9l1.3,2.8c0,0,1.8,0,1.8,1c0,1,3.1-2.8,3.1-2.8l-1-1.5c0,0-2.3,1.2-3.6-0.5
				C153.7,73.2,153.3,75.9,153.3,75.9L153.3,75.9z"/>
			<path fill="#FFFBF5" d="M162,72.5c0,0-2.4,2.7-4.1,2.9c-1.7,0.2,1,1.4,1.7,3.4c0.7,2,1.2,2.5,1.2,2.5l2.6-6L162,72.5L162,72.5z"
				/>
			<path fill="#FFFBF5" d="M150.4,66.6c0,0,1.4,5.2,3.9,7.1c2.5,1.8,0.9,1.7,0.9,1.7s-3.8,4.3-5,4.5c-1.2,0.2-2.3-10.2-2.3-10.2
				l2.4-4.1V66.6L150.4,66.6z"/>
			
				<linearGradient id="SVGID_56_" gradientUnits="userSpaceOnUse" x1="4095.2563" y1="-186.8839" x2="4075.603" y2="-260.2316" gradientTransform="matrix(0.5324 0 0 0.5324 -2041.2913 207.0395)">
				<stop  offset="0.16" style="stop-color:#272128"/>
				<stop  offset="0.84" style="stop-color:#D5A8C1"/>
			</linearGradient>
			<path fill="url(#SVGID_56_)" d="M146.6,69.4c0,0-16.2,5.1-17.7,5.3c-1.5,0.2-0.3,1.5-1.3,2.1c-1,0.7,1,2.6-0.5,3.6
				c-1.5,1-1.5,2.1-1.5,4c0,1.8,0.5,2.5-0.8,3.8c-1.3,1.3-2,1.7-2,4c0,2.3-0.8,2.5-1,4.3c-0.2,1.8-2,6.1-2,6.1s3.3,3.8,6.9,2.3
				c3.6-1.5,4.8-5,6.1-6.6c1.3-1.7-0.8,2.8-1.2,6.8c-0.3,4,17.7-5.1,17.9-7.4c0.2-2.3-1.8-19.8-1.8-23
				C147.7,71.6,146.6,69.4,146.6,69.4L146.6,69.4z"/>
			<path fill="#141314" d="M148.9,68.1c0,0,2.8,16.2,4.1,21.5c1.3,5.3,0.7,5.3-0.2,5.3c-0.8,0-4.3-19.7-4.6-22.3
				C147.9,69.9,148.9,68.1,148.9,68.1L148.9,68.1z"/>
			<path fill="#101010" d="M149,67.4c0,0-0.8,1-0.8,3c0,2,0.7,4.1,0.7,4.1s-2.6,4.8-3.8,5.5c-1.2,0.7-3-0.5-3-0.5s1.2-4.8,3.1-7.9
				C147.2,68.4,149,67.4,149,67.4L149,67.4z"/>
			<path fill="#101010" d="M139,80.2c0,0,4.3,1,5.5-0.2c1.2-1.2,4.5-5.8,4.5-5.8s2.1,11.7,3.5,16.2c1.3,4.5,0.7,2.6,0.7,2.6l1,4.5
				l-8.6,2c0,0-5-13.1-5.6-15.4C139.1,81.8,139,80.2,139,80.2L139,80.2z"/>
			
				<linearGradient id="SVGID_57_" gradientUnits="userSpaceOnUse" x1="4114.1572" y1="-239.2006" x2="4102.6997" y2="-262.6924" gradientTransform="matrix(0.5324 0 0 0.5324 -2041.2913 207.0395)">
				<stop  offset="0" style="stop-color:#443942"/>
				<stop  offset="1" style="stop-color:#FFFFFF"/>
			</linearGradient>
			<path fill="url(#SVGID_57_)" d="M149.4,67.1c0,0-0.8,1-0.8,3c0,2,0.7,4.1,0.7,4.1s-2.6,4.8-3.8,5.5c-1.2,0.7-3-0.5-3-0.5
				s1.2-4.8,3.1-7.9C147.6,68.1,149.4,67.1,149.4,67.1L149.4,67.1z"/>
			
				<linearGradient id="SVGID_59_" gradientUnits="userSpaceOnUse" x1="4141.3608" y1="-222.4612" x2="4164.7549" y2="-253.5065" gradientTransform="matrix(0.5324 0 0 0.5324 -2041.2913 207.0395)">
				<stop  offset="0.22" style="stop-color:#29242B"/>
				<stop  offset="0.78" style="stop-color:#EEC8DE"/>
			</linearGradient>
			<path fill="url(#SVGID_59_)" d="M164.3,71.7c0,0,15.5,7.3,15.5,9.6c0,2.3-6.3,10.9-9.3,10.9s-6-1.3-6-1.3s0.2-13.6-0.2-15.2
				C164.1,74.1,164.3,71.7,164.3,71.7L164.3,71.7z"/>
			
				<linearGradient id="SVGID_61_" gradientUnits="userSpaceOnUse" x1="4118.3569" y1="-204.3445" x2="4103.0386" y2="-248.8314" gradientTransform="matrix(0.5324 0 0 0.5324 -2041.2913 207.0395)">
				<stop  offset="6.000000e-02" style="stop-color:#443942"/>
				<stop  offset="0.94" style="stop-color:#FFFFFF"/>
			</linearGradient>
			<path fill="url(#SVGID_61_)" d="M139.3,79.8c0,0,4.3,1,5.5-0.2c1.2-1.2,4.5-5.8,4.5-5.8s2.1,11.7,3.5,16.2
				c1.3,4.5,0.7,2.6,0.7,2.6l1,4.5l-8.6,2c0,0-5-13.1-5.6-15.4C139.4,81.5,139.3,79.8,139.3,79.8L139.3,79.8z"/>
			
				<linearGradient id="SVGID_63_" gradientUnits="userSpaceOnUse" x1="4130.939" y1="-221.3987" x2="4152.0537" y2="-247.4734" gradientTransform="matrix(0.5324 0 0 0.5324 -2041.2913 207.0395)">
				<stop  offset="0.18" style="stop-color:#443942"/>
				<stop  offset="0.82" style="stop-color:#FFFFFF"/>
			</linearGradient>
			<path fill="url(#SVGID_63_)" d="M164.1,71.3c0,0-2.1,0.7-2.1,1.7c0,1,0.2,16.5-2,20.2c-2.1,3.6,3.3,1.3,3.3,1.3s6.8-9.4,6.9-10.7
				c0.2-1.3-3-3.6-3-3.6s1.8-0.2,2.1-1c0.3-0.8-3.8-4.1-4.1-5.6C164.9,71.9,164.1,71.3,164.1,71.3L164.1,71.3z"/>
			
				<linearGradient id="SVGID_65_" gradientUnits="userSpaceOnUse" x1="4100.6343" y1="-241.4846" x2="4085.4441" y2="-264.0048" gradientTransform="matrix(0.5324 0 0 0.5324 -2041.2913 207.0395)">
				<stop  offset="0.26" style="stop-color:#947D85"/>
				<stop  offset="0.74" style="stop-color:#FFFFFF"/>
			</linearGradient>
			<path fill="url(#SVGID_65_)" d="M146.6,69.4c0,0-16.2,5.1-17.7,5.3c-0.1,0-0.2,0-0.3,0c0.9,0.7,2.3,1.3,4.1,0.8
				c2.6-0.8,11.5-3.3,14.1-5.8C146.6,69.6,146.6,69.4,146.6,69.4L146.6,69.4z"/>
			
				<linearGradient id="SVGID_66_" gradientUnits="userSpaceOnUse" x1="4086.9307" y1="-210.6087" x2="4052.5193" y2="-229.6833" gradientTransform="matrix(0.5324 0 0 0.5324 -2041.2913 207.0395)">
				<stop  offset="0.24" style="stop-color:#91767E"/>
				<stop  offset="0.76" style="stop-color:#FCE3E5"/>
			</linearGradient>
			<path fill="url(#SVGID_66_)" d="M128.9,74.7L128.9,74.7c-1.5,0.2-0.3,1.5-1.3,2.2c-1,0.7,0.6,2.5-0.9,3.5c-1.5,1-1.3,2.5-1.3,4.3
				c0,1.8,0.4,2-0.9,3.3c-1.3,1.3-2,2.1-2,4.4c0,2.3-1.7,2.1-1.8,4c-0.2,1.8-0.8,5.1-0.8,5.1s2.4,3.1,3.5,4.1c2-2,4.8-7,2.3-6.4
				c-3,0.7-2.6-1.5,0-2.8c2.6-1.3,4.6-3.5,4.3-5.1c-0.3-1.7,1-4.1,0.8-5.3c-0.2-1.2-4.1-2.8-2.8-3c1.3-0.2,2-3.3,1.8-5.6
				C129.6,76.6,129.3,75.7,128.9,74.7L128.9,74.7z"/>
			<path fill="#3C2F37" d="M126.9,85.1c0,0,6.3,0.5,1.8,2.6C124.2,89.9,126.9,85.1,126.9,85.1L126.9,85.1z"/>
			<path fill="#3C2F37" d="M127.7,90.9c0,0-5,1.3-5.3,3.5c-0.3,2.1,2.3-0.3,3.5-1.2C127,92.4,127.7,90.9,127.7,90.9L127.7,90.9z"/>
			
				<linearGradient id="SVGID_67_" gradientUnits="userSpaceOnUse" x1="4085.8347" y1="-214.368" x2="4083.0999" y2="-240.3864" gradientTransform="matrix(0.5324 0 0 0.5324 -2041.2913 207.0395)">
				<stop  offset="1.000000e-02" style="stop-color:#443942"/>
				<stop  offset="0.99" style="stop-color:#FFFFFF"/>
			</linearGradient>
			<path fill="url(#SVGID_67_)" d="M131.7,79.2c0,0,2.8,8.8,1.7,12.9c-0.2,0.7-0.3,1-0.3,1c0.1,0,2.1-7.2,0.4-10.9
				C131.5,77.7,131.7,79.2,131.7,79.2L131.7,79.2z"/>
			
				<linearGradient id="SVGID_68_" gradientUnits="userSpaceOnUse" x1="4113.4707" y1="-248.9805" x2="4107.3687" y2="-260.9564" gradientTransform="matrix(0.5324 0 0 0.5324 -2041.2913 207.0395)">
				<stop  offset="0" style="stop-color:#846B74"/>
				<stop  offset="1" style="stop-color:#FFFFFF"/>
			</linearGradient>
			<path fill="url(#SVGID_68_)" d="M148.5,67.7c-0.7,0.6-1.8,1.7-3,3.5c-0.3,0.5-0.6,1.1-0.9,1.6c0.4,0.9,1.1,1.6,2.2,2
				C150.8,76.3,147.8,72,148.5,67.7L148.5,67.7z"/>
			
				<linearGradient id="SVGID_69_" gradientUnits="userSpaceOnUse" x1="4143.6323" y1="-271.559" x2="4153.1514" y2="-266.7086" gradientTransform="matrix(0.5324 0 0 0.5324 -2041.2913 207.0395)">
				<stop  offset="0.2" style="stop-color:#E9B388"/>
				<stop  offset="0.8" style="stop-color:#FFFFFF"/>
			</linearGradient>
			<path fill="url(#SVGID_69_)" d="M168.2,60.8c0,0,1.4-0.3,0.8,1c-0.6,1.3-2.3,5.5-3.4,4.8C164.5,66,168.2,60.8,168.2,60.8
				L168.2,60.8z"/>
			
				<radialGradient id="SVGID_70_" cx="4139.1279" cy="-283.4645" r="33.6988" gradientTransform="matrix(0.5324 0 0 0.5324 -2041.2913 207.0395)" gradientUnits="userSpaceOnUse">
				<stop  offset="0" style="stop-color:#FFF1E5"/>
				<stop  offset="1" style="stop-color:#F4C7A7"/>
			</radialGradient>
			<path fill="url(#SVGID_70_)" d="M162.9,45.3c0,0,5.6,2.1,6.3,4.6c0.7,2.5,1.5,8.7,1,9.9c-0.5,1.3-2.1,1-2.5,2
				c-0.3,0.9-0.3,2.4-1.2,4c-0.8,1.6-1.8,4.7-2.4,5c-0.6,0.4-4.2,3.2-6.2,3.2c-2,0.1-2.9-0.9-3.6-1.3c-0.7-0.4-2-2.7-2.8-4.6
				c-0.8-1.9-1.5-2.9-0.8-6.3c0.7-3.4-0.2-5.3-0.2-6.9c0-0.3,0-0.7,0.1-1.1c0.2-1.7,0.9-3.9,2.4-5.4c1.8-1.8,4.6-3.3,6.8-3.3
				C162,45.1,162.9,45.3,162.9,45.3L162.9,45.3z"/>
			
				<linearGradient id="SVGID_71_" gradientUnits="userSpaceOnUse" x1="4158.5913" y1="-263.6269" x2="4118.8013" y2="-284.7835" gradientTransform="matrix(0.5324 0 0 0.5324 -2041.2913 207.0395)">
				<stop  offset="0.37" style="stop-color:#E2B693"/>
				<stop  offset="0.63" style="stop-color:#FFFFFF"/>
			</linearGradient>
			<path fill="url(#SVGID_71_)" d="M153.9,72.1c0.3,0.4,0.2,0.5,0.5,0.7c0.7,0.4,1.6,1.4,3.6,1.3c2-0.1,5.6-2.9,6.2-3.3
				c0.6-0.4,1.6-3.4,2.4-5c0.8-1.6,0.8-3,1.2-4c0.3-0.9,2-0.7,2.5-2c0.5-1.3-0.3-7.4-1-9.9c-0.2-0.6-0.7-1.2-1.3-1.8
				c-0.4,0.8-1.8,1.8-1.4,2.8c0.8,2.1-0.1,5.7-1,7c-0.9,1.3-0.5,3.6-1,3.3c-0.5-0.2,0.5,3.7-1,4.6c-1.5,0.9-0.8,3.3-2.8,4.6
				c-2.3,1.5-3.4,3.3-5.2,2.3C155,72.5,154.4,72.1,153.9,72.1L153.9,72.1z"/>
			
				<linearGradient id="SVGID_72_" gradientUnits="userSpaceOnUse" x1="4119.1841" y1="-281.768" x2="4158.228" y2="-266.7806" gradientTransform="matrix(0.5324 0 0 0.5324 -2041.2913 207.0395)">
				<stop  offset="0.39" style="stop-color:#DBA179"/>
				<stop  offset="0.61" style="stop-color:#FFFFFF"/>
			</linearGradient>
			<path fill="url(#SVGID_72_)" d="M153.9,72.1c0.3,0.4,0.2,0.5,0.5,0.7c0.7,0.4,1.6,1.4,3.6,1.3c2-0.1,5.8-2.7,6.4-3.1
				s1.4-3.6,2.2-5.2c0.8-1.6,0.8-3,1.2-4c0.3-0.9,2-0.7,2.5-2c0.5-1.3-0.3-7.4-1-9.9c-0.2-0.6-0.7-1.2-1.3-1.8
				c-0.4,0.8-0.8,1.9-0.4,2.9c0.8,2.1,0.1,7.3-0.8,8.6c-0.9,1.3,0,2.9-0.5,2.6c-0.5-0.2,0.8,2.9-0.7,3.8c-1.5,0.9-2.4,5.9-5,6.7
				c-2.6,0.8-3.1,1-5,0C155,72.5,154.4,72.1,153.9,72.1L153.9,72.1z"/>
			
				<linearGradient id="SVGID_73_" gradientUnits="userSpaceOnUse" x1="4135.7539" y1="-269.0096" x2="4142.9629" y2="-267.8678" gradientTransform="matrix(0.5324 0 0 0.5324 -2041.2913 207.0395)">
				<stop  offset="0.28" style="stop-color:#D19E7D"/>
				<stop  offset="0.72" style="stop-color:#FFFFFF"/>
			</linearGradient>
			<path fill="url(#SVGID_73_)" d="M163.4,60.8c-0.1,0-1.3-0.5-1.5,0.8c-0.2,1.3-0.2,4.9-0.9,5.5c-0.6,0.6,1.3,0,1.4-0.5
				c0.1-0.5-0.3-4.5,0.4-3.7c0.7,0.7,1.2,0.6,1.2-0.4C164.1,61.5,163.4,60.8,163.4,60.8L163.4,60.8z"/>
			
				<linearGradient id="SVGID_74_" gradientUnits="userSpaceOnUse" x1="4129.3672" y1="-276.4372" x2="4136.8452" y2="-273.263" gradientTransform="matrix(0.5324 0 0 0.5324 -2041.2913 207.0395)">
				<stop  offset="0.2" style="stop-color:#D19E7D"/>
				<stop  offset="0.8" style="stop-color:#FFFFFF"/>
			</linearGradient>
			<path fill="url(#SVGID_74_)" d="M159.6,59.3c0,0,1.8,0,1.5,1c-0.3,1-0.9,2.5-1.2,2.3c-0.3-0.2-1.3-0.7-2.3-0.8
				c-1-0.2-0.8-1.6,0-1.8C158.4,59.8,159.6,59.3,159.6,59.3L159.6,59.3z"/>
			
				<linearGradient id="SVGID_75_" gradientUnits="userSpaceOnUse" x1="4059.0449" y1="-294.7321" x2="4038.1421" y2="-325.722" gradientTransform="matrix(0.5324 0 0 0.5324 -2041.2913 207.0395)">
				<stop  offset="0.32" style="stop-color:#D8B39A"/>
				<stop  offset="0.68" style="stop-color:#FFFFFF"/>
			</linearGradient>
			<path fill="url(#SVGID_75_)" d="M104.4,37.9c0,0,5.2-1.6,6-4.3c0.7-2.7,0.4-0.1,1.8,0.3c1.4,0.4,3.2-1.4,4-2.5
				c0.7-1.1,2.6,6.7,1.3,9.6c-1.2,2.9,3.6,14.1,2.8,13.9c-0.7-0.2-3.4-3-5.5-2.3c-2.1,0.7-3.3,0.5-4.6-3.8
				C108.9,44.5,104.4,37.9,104.4,37.9L104.4,37.9z"/>
			<path fill="#D59E7B" d="M115,39.3c0,0-5,4.5-5.6,7.6c-0.6,3.1,0.3,4.8,1,3.3C111.1,48.8,115,39.3,115,39.3L115,39.3z"/>
			<path fill="#C89473" d="M111.3,51.4l0.1,0.1c0.3,0.2,1,0.7,1.9,1.3c0.5,0,1-0.1,1.5-0.3c2.1-0.7,4.7,2.1,5.5,2.3
				c0.6,0.2-2-6-2.8-10.4c-0.2-0.3-0.4-0.6-0.5-0.8c-2.8-4.4-2.6,2.8-2.5,5.5C114.6,51.5,111.8,51.4,111.3,51.4L111.3,51.4z"/>
			
				<linearGradient id="SVGID_76_" gradientUnits="userSpaceOnUse" x1="4055.2488" y1="-332.1375" x2="4093.502" y2="-289.6531" gradientTransform="matrix(0.5324 0 0 0.5324 -2041.2913 207.0395)">
				<stop  offset="0.19" style="stop-color:#ECB590"/>
				<stop  offset="0.81" style="stop-color:#FFFFFF"/>
			</linearGradient>
			<path fill="url(#SVGID_76_)" d="M136.5,43.3c0,0,1.4-2.7,2.1-3.7c0.7-1,1.2-4.6,1.1-5.7c-0.1-1.1-2.8-3.5-3.5-5.3
				c-0.7-1.8-4,0.7-5.1,0.7c-1.2-0.1,1.1,4.2-2.3,4.8c-3.4,0.6-3.9,2.1-4.9,3.4c-1,1.2-2.5-0.3-2.1-1.8c0.4-1.5,0.5-3.9-0.5-5.5
				c-1-1.7-2.5-2.7-4.1-1.2c-1.7,1.6-1.2,4.1-1.3,5.6c-0.1,1.6-0.3,3,0.8,3.1c1.7,0.2,1.6,1.6-0.2,1.5c-1.7-0.1-1.4,4-0.8,7.3
				c0.6,3,2.5,6.6,3.9,7.9c1.4,1.3,2.6,2.6,3.9,0.7c1.3-1.9,1.1-1.9,2-2.1c0.9-0.2,1.1-0.3,1-1c-0.1-0.7,0.7-0.7,1.3-0.3
				c0.6,0.3,1.2-0.2,1.3-0.7c0.1-0.5,1.2-1.3,2-0.3c0.7,1,1.4,0.9,2,0.3c0.6-0.6,1-3.3,1.3-4.3c0.3-1,0-2.6,0.7-2.6
				C135.6,44,136.5,43.3,136.5,43.3L136.5,43.3z"/>
			
				<linearGradient id="SVGID_77_" gradientUnits="userSpaceOnUse" x1="4060.814" y1="-327.6516" x2="4094.5366" y2="-284.4886" gradientTransform="matrix(0.5324 0 0 0.5324 -2041.2913 207.0395)">
				<stop  offset="0.15" style="stop-color:#EBAE89"/>
				<stop  offset="0.85" style="stop-color:#FFFFFF"/>
			</linearGradient>
			<path fill="url(#SVGID_77_)" d="M136.5,43.3c0,0,1.4-2.7,2.1-3.7c0.7-1,1.2-4.6,1.1-5.7c0-0.3-0.2-0.6-0.5-1.1
				c-0.5,0.2-0.8,0.8-1,1.4c-0.4,1.8-3.5,5.2-3.3,6c0.2,0.7,0.2,1.5-1.3,1.2c-1.6-0.3-4.3,0.2-4.3,0.2s0.7,3.9-1.2,4.5
				c-1.8,0.6-6.4,3.3-6.6,6.3c-0.2,2.3-1.4,2-2.6,1.4c0.2,0.3,0.4,0.6,0.7,0.8c1.4,1.3,2.6,2.6,3.9,0.7c1.3-1.9,1.1-1.9,2-2.1
				c0.9-0.2,1.1-0.3,1-1c-0.1-0.7,0.7-0.7,1.3-0.3c0.6,0.3,1.2-0.2,1.3-0.7c0.1-0.5,1.2-1.3,2-0.3c0.7,1,1.4,0.9,2,0.3
				c0.6-0.6,1-3.3,1.3-4.3c0.3-1,0-2.6,0.7-2.6C135.6,44,136.5,43.3,136.5,43.3L136.5,43.3z"/>
			
				<linearGradient id="SVGID_78_" gradientUnits="userSpaceOnUse" x1="4046.7954" y1="-310.8815" x2="4036.7825" y2="-329.713" gradientTransform="matrix(0.5324 0 0 0.5324 -2041.2913 207.0395)">
				<stop  offset="9.000000e-02" style="stop-color:#ECB590"/>
				<stop  offset="0.91" style="stop-color:#FFFFFF"/>
			</linearGradient>
			<path fill="url(#SVGID_78_)" d="M104.4,37.9c0,0,0.8,1.1,1.7,2.7c0.3,0.3,1.7,1.3,3.9-1.6c2.5-3.3,6.4-1.3,6.1-4
				c-0.1-1.2-0.4-2-1-2.5c-0.9,0.8-2,1.6-3,1.3c-1.4-0.4-1.1-3.1-1.8-0.3C109.6,36.3,104.4,37.9,104.4,37.9L104.4,37.9z"/>
			
				<linearGradient id="SVGID_79_" gradientUnits="userSpaceOnUse" x1="4056.3049" y1="-322.351" x2="4099.4927" y2="-290.9731" gradientTransform="matrix(0.5324 0 0 0.5324 -2041.2913 207.0395)">
				<stop  offset="0.34" style="stop-color:#D59E7B"/>
				<stop  offset="0.66" style="stop-color:#FFFFFF"/>
			</linearGradient>
			<path fill="url(#SVGID_79_)" d="M136.5,43.3c0,0,1.4-2.7,2.1-3.7c0.7-1,1.2-4.6,1.1-5.7c0-0.5-0.7-1.4-1.5-2.3
				c-0.1,0.5-0.1,1.1,0,1.7c0.3,1.5-0.7,4.9-1.7,6.1c-0.9,1.2-1.3,2.8-2,2.8c-0.7,0-0.6,0.7-0.7,1.8c-0.1,1.2,0.2,3.8-0.5,5.3
				c-0.7,1.5-0.6,2.1-1.5,1.3c-0.9-0.8-2.6-1.3-3.6-0.3c-0.4,0.4-0.5,0.8-0.6,1.3c0,0,0.1,0,0.1,0c0.6,0.3,1.2-0.2,1.3-0.7
				c0.1-0.5,1.2-1.3,2-0.3c0.7,1,1.4,0.9,2,0.3c0.6-0.6,1-3.3,1.3-4.3c0.3-1,0-2.6,0.7-2.6C135.6,44,136.5,43.3,136.5,43.3
				L136.5,43.3z M119.9,54.7L119.9,54.7c1.1,1,2.1,1.8,3.1,0.8c-0.3-0.1-0.7-0.2-1.1-0.5C121.4,54.7,120.5,54.6,119.9,54.7
				L119.9,54.7z M123.9,54.3L123.9,54.3c0.8-1.2,0.7-1.2,1.5-1.4c0.3-0.1,0.5-0.1,0.6-0.2c-0.4-0.1-0.8-0.2-1.3-0.5
				c-1.1-0.5-2,0.2-1,1.8C123.8,54.2,123.9,54.2,123.9,54.3L123.9,54.3z"/>
			<path fill="#C89473" d="M129.4,40.7c0,0,3.4,1.2,3.5,2.1c0.1,0.9,0.5,1.5,1,1c0.5-0.5,1.6-0.5,1.2-1c-0.4-0.5-3.4-2.3-4-3.3
				C130.4,38.5,129.4,40.7,129.4,40.7L129.4,40.7z"/>
			<path fill="#FFFFFF" d="M125.1,49.9c0,0,0.6,2.1,1.2,2.1c0.6,0,1.3-0.8,1.3-0.8L125.1,49.9L125.1,49.9z"/>
			<path fill="#C89473" d="M131,50.6c0.6,0.8,1.2,0.9,1.7,0.6c-0.6-0.3-2-2.3-2.7-2.4c-0.7-0.1-0.5-1.5-0.5-1.5s-0.9,0.8,0.6,2.8
				C130.4,50.1,130.8,50.2,131,50.6L131,50.6z"/>
			<path fill="#CD8976" d="M124.9,49.9c0,0,1.8,0.7,2.8,1.7c0.4,0.2,0.9,0.1,1.1-0.3c-0.6-0.3-3.3-1.4-3.3-1.4H124.9L124.9,49.9z"/>
			<path fill="#CD8976" d="M125.8,52.8c0.5-0.2,0.6-0.3,0.6-0.8c-0.7-0.9-1.6-2.1-1.6-2.1S125.3,51.8,125.8,52.8L125.8,52.8z"/>
			<path fill="#EFC3A3" d="M115.3,31.1c0,0-3.7,4.3-2.5,4.3c1.2,0,4.5-3,3.8-4.5C115.9,29.4,115.3,31.1,115.3,31.1L115.3,31.1z"/>
			<path fill="#D18E71" d="M118.5,33.6c0,0,2.3,0.3,2.5-1c0.2-1.3-1-3.1-2.3-3.1c-1.3-0.1-1.2,1.3-1.3,1.8c-0.1,0.5,0.7-1.3,2.1-0.7
				c1.4,0.7,1.5,3.1,0.3,2.3C118.6,32.1,118.5,33.6,118.5,33.6L118.5,33.6z"/>
			<path fill="#D18E71" d="M120.1,34c-0.3,0-0.5,0.5-0.5,1.2c0,0.7-0.6,1.1-0.8,0.8c-0.2-0.2,0.2-1-0.2-1.6
				C118,33.9,120.1,34,120.1,34L120.1,34z"/>
			<path fill="#D18E71" d="M117,32.7c-0.2,0-0.2,2.2,0.5,2.1C118.2,34.8,117,32.7,117,32.7L117,32.7z"/>
			<path fill="#F2C9AE" d="M119.3,28.8c0,0-2.1-0.2-2.5,1.3c-0.4,1.5-0.5,3-0.5,3s-0.7-3.3,1-4.3C119,27.8,119.3,28.8,119.3,28.8
				L119.3,28.8z"/>
			<path fill="#F2C9AE" d="M116.1,33.9c0,0-0.7,3.7,0.3,3.8c1.2,0.1,0-0.2,0-2C116.5,33.9,116.1,33.9,116.1,33.9L116.1,33.9z"/>
			<path fill="#945436" d="M130,49.1c0,0,1.6,0.8,1,1C130.4,50.3,130,49.1,130,49.1L130,49.1z"/>
			
				<linearGradient id="SVGID_80_" gradientUnits="userSpaceOnUse" x1="4040.6597" y1="-314.4692" x2="4033.2473" y2="-329.0168" gradientTransform="matrix(0.5324 0 0 0.5324 -2041.2913 207.0395)">
				<stop  offset="0.22" style="stop-color:#F2C9AE"/>
				<stop  offset="0.78" style="stop-color:#FFFFFF"/>
			</linearGradient>
			<path fill="url(#SVGID_80_)" d="M104.4,37.9c0,0,0.4,0.5,0.9,1.4c0.6,0,1.5-0.5,3-1.4c1.7-1,2.6-3.2,3-4.7
				c-0.5-0.8-0.5-1.6-1,0.4C109.6,36.3,104.4,37.9,104.4,37.9L104.4,37.9z"/>
			
				<linearGradient id="SVGID_81_" gradientUnits="userSpaceOnUse" x1="4088.4988" y1="-317.0011" x2="4045.6333" y2="-347.0158" gradientTransform="matrix(0.5324 0 0 0.5324 -2041.2913 207.0395)">
				<stop  offset="0.32" style="stop-color:#4E2B1C"/>
				<stop  offset="0.68" style="stop-color:#FBBA81"/>
			</linearGradient>
			<path fill="url(#SVGID_81_)" d="M139.6,33.6c0,0,0.8,0.8,1-0.2c0.2-1,0.1-2.2-1.8-5.5c-1.9-3.2-3.8-5.1-5.6-6.4
				c-1.8-1.3-4.4-2-5.8-2.5c-1.4-0.5-5.5-0.7-8.4,1.2c-3,1.9-5.7,6-6.9,8.3c-1.2,2.2-3,6.2-1.3,7.7c1.4,1.2,3,1,4.3,0
				c1.3-1,0.7-6,2-7.1c1.3-1.2,3.8,0.2,4,1.4c0.2,1.2,0.7,1.6,0.4,3.4c-0.2,1.7-0.5,3,0.5,3.8c1,0.8,1.2,1,2-0.2
				c0.8-1.2,3.1-2.9,4-3c0.9-0.1,2.1-0.1,2.6-1.5c0.5-1.4-0.1-3.2,0.5-3.5c0.6-0.2,3.6-0.8,4.3-1.3c0.7-0.5,0.8,1.9,2,3
				C138.5,32.1,139.6,33.6,139.6,33.6L139.6,33.6z"/>
			
				<linearGradient id="SVGID_82_" gradientUnits="userSpaceOnUse" x1="4077.322" y1="-318.8467" x2="4045.96" y2="-354.9247" gradientTransform="matrix(0.5324 0 0 0.5324 -2041.2913 207.0395)">
				<stop  offset="0.36" style="stop-color:#A17853"/>
				<stop  offset="0.64" style="stop-color:#FFFFFF"/>
			</linearGradient>
			<path fill="url(#SVGID_82_)" d="M132.9,21.2c-1.7-1-4.3-1.8-5.5-2.2c-1.4-0.5-5.5-0.7-8.4,1.2c-3,1.9-5.7,6-6.9,8.3
				c-1.2,2.2-3.2,5.5-1.5,7c1,0.9,0.5,0.6,1.1,0.6c3.5,1.3,2.3-3,2.9-3.8c1.9-2.6,2.3-5.1,3.7-7.9c1.4-2.7,5-4.4,8.4-4.1
				C128.8,20.5,131.5,20.8,132.9,21.2L132.9,21.2z"/>
			
				<linearGradient id="SVGID_83_" gradientUnits="userSpaceOnUse" x1="4075.9573" y1="-319.0783" x2="4046.4231" y2="-355.5498" gradientTransform="matrix(0.5324 0 0 0.5324 -2041.2913 207.0395)">
				<stop  offset="0.36" style="stop-color:#D9AB79"/>
				<stop  offset="0.64" style="stop-color:#FFFFFF"/>
			</linearGradient>
			<path fill="url(#SVGID_83_)" d="M132.5,21.1c-1.7-1-3.9-1.6-5.1-2.1c-1.4-0.5-5.5-0.7-8.4,1.2c-3,1.9-5.7,6-6.9,8.3
				c-1.2,2.2-3.1,5.5-1.4,7c1,0.9,1.2-0.5,1.8-0.5c0.5-0.4,0.3-3.7,0.9-4.5c1.9-2.6,3-5,4.4-7.7c1.4-2.7,5.9-3.6,9.3-3.2
				C129.2,19.7,131.1,20.6,132.5,21.1L132.5,21.1z"/>
			<path fill="#774838" d="M121.8,31.8c0.2,0.6,0.3,1.3,0.2,2.1c-0.2,1.7-1,2.8,0,3.6c1,0.8,1.2,1,2-0.2c0.8-1.2,3.1-2.9,4-3
				c0.9-0.1,2.1-0.1,2.6-1.5c0.5-1.4,1-2.8,1.6-3.1c0.6-0.2,1.8-0.7,2.6-0.7c1.1,0,1.7,1.9,2.9,3c0.5,0.5,1.5,0.8,1.9,1.2
				c-0.1-0.8-1.2-2.9-2-4.1c-1.2-1.9-2.6-2.6-4.8-1.8c-2.2,0.8-2.7,1.6-3.6,3.5c-0.9,1.9-3,2.9-4.6,4c-1.7,1.1-1.5,0.6-1.7-1.3
				C122.7,32.5,122.2,31.6,121.8,31.8L121.8,31.8z"/>
			<path fill="#FFFFFF" d="M130,41.2c0,0,0.9,1.7,1.1,2.4c0.2,0.7,2,0.3,1.9-0.4c-0.1-0.7-0.7-1.6-1.5-1.7
				C130.7,41.4,130,41.2,130,41.2L130,41.2z"/>
			<path fill="#472D1E" d="M131.5,42.4c0.4-0.5,0.9-0.7,1.3-0.4c0.3,0.2,0.3,0.8,0,1.3c-0.3,0.5-0.9,0.8-1.3,0.5
				C131.1,43.5,131.1,42.9,131.5,42.4L131.5,42.4z"/>
			<path d="M131.8,42.6c0.2-0.3,0.6-0.4,0.8-0.3c0.2,0.1,0.2,0.4,0,0.7c-0.2,0.3-0.6,0.4-0.8,0.3C131.5,43.3,131.5,42.9,131.8,42.6
				L131.8,42.6z"/>
			<path fill="#9EC8EA" d="M131.4,42.9c0.1-0.2,0.3-0.2,0.4-0.1c0.1,0.1,0.1,0.2,0,0.4c-0.1,0.2-0.3,0.2-0.4,0.2
				C131.3,43.2,131.3,43,131.4,42.9L131.4,42.9z"/>
			<path fill="#FFFFFF" d="M131.5,42.8c0.1-0.1,0.2-0.1,0.3-0.1c0.1,0,0.1,0.2,0,0.3c-0.1,0.1-0.2,0.1-0.3,0.1
				C131.4,43,131.4,42.9,131.5,42.8L131.5,42.8z"/>
			<path fill="#FFFFFF" d="M132.5,42.8c0.1-0.1,0.2-0.1,0.2-0.1c0.1,0,0.1,0.2,0,0.3c-0.1,0.1-0.2,0.1-0.2,0.1
				C132.4,43,132.4,42.9,132.5,42.8L132.5,42.8z"/>
			<path fill="#D1ECF2" d="M131.4,43.3c0.1-0.1,0.2-0.2,0.3-0.1c0.1,0,0.1,0.2,0,0.3c-0.1,0.1-0.2,0.2-0.3,0.1
				C131.3,43.5,131.3,43.4,131.4,43.3L131.4,43.3z"/>
			
				<linearGradient id="SVGID_84_" gradientUnits="userSpaceOnUse" x1="4057.6694" y1="-335.4922" x2="4086.4717" y2="-292.7913" gradientTransform="matrix(0.5324 0 0 0.5324 -2041.2913 207.0395)">
				<stop  offset="0.22" style="stop-color:#EFC2A1"/>
				<stop  offset="0.78" style="stop-color:#FFFFFF"/>
			</linearGradient>
			<path fill="url(#SVGID_84_)" d="M135.5,29.4c0,0-2.5,6.9-2,8.3c0.5,1.3-1.1,1.8-2.3,1.3c-1.2-0.5-3.1-0.2-3.1,1.3
				c-0.1,1.5-0.5,4.7-2.3,4.8c-1.8,0.1-6,3.2-6.8,5.6c-0.7,2.4-3.2-7.8-1.7-9.6c1.6-1.8,6.4-1.2,7.1-3.1c0.7-1.9,2.9-3.2,4.1-3.3
				c1.2-0.1,2.8-0.1,2.8-2.8c0-2.7,1.7-2.5,2.6-2.6C135,29.1,135.5,29.4,135.5,29.4L135.5,29.4z"/>
			<path fill="#44271C" d="M130.9,39.5c0,0,1.8,2.2,2.6,2.5c0.8,0.2,1.3,1.7,1.8,1.2c0.5-0.5,0.2-1.2-1.5-2
				C132.1,40.3,130.9,39.5,130.9,39.5L130.9,39.5z"/>
			<path fill="#44271C" d="M136.5,43.3c0,0-1.5,0.4-0.8,0.7C136.3,44.2,136.5,43.3,136.5,43.3L136.5,43.3z"/>
			<path fill="#1F1911" d="M130,41c0,0,3.2,0.3,3.4,1.4c0.2,1.1-0.3,0.8-0.3,0.8s0.2-0.5-1-1.2C130.9,41.2,130,41,130,41L130,41z"/>
			
				<linearGradient id="SVGID_85_" gradientUnits="userSpaceOnUse" x1="4079.2268" y1="-304.5099" x2="4084.8884" y2="-296.9964" gradientTransform="matrix(0.5324 0 0 0.5324 -2041.2913 207.0395)">
				<stop  offset="0" style="stop-color:#EEBD9D"/>
				<stop  offset="1" style="stop-color:#FFFFFF"/>
			</linearGradient>
			<path fill="url(#SVGID_85_)" d="M133.3,44.6c0,0-2.5,2.7-3.1,2.3c-0.7-0.4-0.5,1.6,0.2,1.7c0.7,0.1,1.9,1.7,2.3,1.2
				C133.1,49.2,133.3,44.6,133.3,44.6L133.3,44.6z"/>
			<path fill="#D59E7B" d="M115.8,35.2c0,0,0.2,3.5,2.3,2.5c2.1-1-1.2,1.9-2,2.5c-0.7,0.6-0.7,4.3-1,4.2c-0.3-0.1-0.7-4.4,0-5.2
				c0.7-0.8,0.7-1.4,0.5-2C115.5,36.6,115.8,35.2,115.8,35.2L115.8,35.2z"/>
			
				<linearGradient id="SVGID_86_" gradientUnits="userSpaceOnUse" x1="4010.7527" y1="-150.9983" x2="4002.0012" y2="-317.9846" gradientTransform="matrix(0.5324 0 0 0.5324 -2041.2913 207.0395)">
				<stop  offset="0.32" style="stop-color:#282229"/>
				<stop  offset="0.68" style="stop-color:#584A5E"/>
			</linearGradient>
			<path fill="url(#SVGID_86_)" d="M81.7,37.4c0,0,16.7,4.8,18.2,3.6c1.5-1.2,4.8,8.8,6.4,18c1.7,9.3,4.8,42.5,4.8,42.5
				s-6.3,0.2-8.1-1.7c-1.8-1.8-3.3,3-7.1,7.9s-4.3,6.8-1.7,6.3c2.6-0.5,3.3-3.1,3.3-3.1s8.1,3.5,8.3,5.8c0.7,9.4-0.8,7.4-2.8,7.4
				c-2.2,0-4.6,1.3-7.8,2.1c-2.9,0.8-11.9,0.8-13.2-0.7c-1.3-1.5-6.6-1.2-6.6-1.2l-1-71.6c0,0,4.6-6.4,5-9.3
				C79.8,40.8,81.7,37.4,81.7,37.4L81.7,37.4z"/>
			<path fill="#EDD1B6" d="M150.4,55.2c0,0-1.2-1.2-1.3,0.5c-0.2,1.7,0.4,5.4,1,6.1c0.6,0.7,0.9-0.2,1.2-1c0.2-0.8,0.2-4.3,0.2-4.3
				L150.4,55.2L150.4,55.2z"/>
			
				<linearGradient id="SVGID_87_" gradientUnits="userSpaceOnUse" x1="4134.6006" y1="-270.8118" x2="4112.3081" y2="-283.6824" gradientTransform="matrix(0.5324 0 0 0.5324 -2041.2913 207.0395)">
				<stop  offset="0.15" style="stop-color:#EFD6BF"/>
				<stop  offset="0.85" style="stop-color:#FFFFFF"/>
			</linearGradient>
			<path fill="url(#SVGID_87_)" d="M154.5,47.2c-0.5,0.4-1,0.8-1.4,1.2c-1.5,1.4-2.2,3.7-2.4,5.4c-0.1,0.4-0.1,0.8-0.1,1.1
				c0,1.6,0.9,3.6,0.2,6.9c-0.2,1-0.3,1.8-0.3,2.4c0,1.6,0.6,2.5,1.1,3.8c0.4,1.1,1.1,2.4,1.7,3.3c0-0.3-0.1-0.6-0.2-1
				c-0.7-2.6-0.3-5.8,0.5-5.8c0.8,0,0.7-2,0.5-3.3c-0.2-1.3,0.2-2.5,2-2.5c1.8,0.1,0.8-2.9,1.7-4.6c0.8-1.7-1.7-5.3-1.7-5.3
				S155.3,48.1,154.5,47.2L154.5,47.2z"/>
			<path fill="#282229" d="M172.5,102c0,0-1.8,20.7-0.7,24c1.2,3.3-40.5,3.5-35.7-1.7C140.9,119.2,172.5,102,172.5,102L172.5,102z"
				/>
			<path fill="#D0BAAD" d="M177.5,86.8c0,0,1.6-0.4,3.1,3.6c1.6,4,10,25.4,4.7,24.1c-5.3-1.3-2.6-8.7-4.1-14.9
				C179.6,93.4,177.5,86.8,177.5,86.8L177.5,86.8z"/>
			
				<linearGradient id="SVGID_88_" gradientUnits="userSpaceOnUse" x1="4106.6855" y1="-134.7175" x2="4074.7476" y2="-246.0997" gradientTransform="matrix(0.5324 0 0 0.5324 -2041.2913 207.0395)">
				<stop  offset="0.31" style="stop-color:#EEE3F0"/>
				<stop  offset="0.4012" style="stop-color:#D0C2DC"/>
				<stop  offset="0.595" style="stop-color:#FBE3E9"/>
				<stop  offset="0.69" style="stop-color:#FFFFFF"/>
			</linearGradient>
			<path fill="url(#SVGID_88_)" d="M119.3,105c0,0,32.6-9,37.2-12.9c4.6-3.9,13.3-9.5,13.3-9.5s1.1,5.2,2.3,5.2c1.1,0,4.4-2,6-0.7
				c1.6,1.3,4.3,10.9,5.4,19.2c1.1,8.3,1.6,7.4,2.3,7.9c0.7,0.4-1.9,1-2.9-0.1c-0.2-0.2-0.2-0.3-0.2-0.3c0.1-0.1,1.8,1.7-1.1,1.7
				c-3.4,0-27.4,4.7-37.7,7.6c-10.3,2.9-46.6,6.9-49.2,1.3c-2.6-5.6-4.9-12.6,7.1-16C113.9,104.9,119.3,105,119.3,105L119.3,105z"/>
			<path fill="#8C7E93" d="M173.8,90c0,0,3.9,5.4,4.7,11.3c0.9,5.9,2.6,11.2,4,12.3c1.4,1.1-0.7-1.4-2-6.3
				c-1.3-4.9-1.4-8.5-3.4-12.3C175.1,91.1,173.8,90,173.8,90L173.8,90z"/>
			
				<linearGradient id="SVGID_89_" gradientUnits="userSpaceOnUse" x1="4116.4033" y1="-162.8821" x2="4116.168" y2="-176.3725" gradientTransform="matrix(0.5324 0 0 0.5324 -2041.2913 207.0395)">
				<stop  offset="0.27" style="stop-color:#B29897"/>
				<stop  offset="0.73" style="stop-color:#FFFFFF"/>
			</linearGradient>
			<path fill="url(#SVGID_89_)" d="M129.3,120c0,0,5.4-1.9,12.7-2.3c7.3-0.4,26-2.4,31.7-2.4c5.7,0-1.7-1.3-15-1.9
				c-13.3-0.6-30.4,2.7-33.3,4.9C122.6,120.5,129.3,120,129.3,120L129.3,120z"/>
			<path fill="#DDD0C2" d="M181.8,95.8c0,0,2.6,10,3.3,13.7c0.7,3.7,1.1,4.2,1.3,2.1C186.5,109.7,181.8,95.8,181.8,95.8L181.8,95.8z
				"/>
			<path fill="#282229" d="M116.8,62.3c0,0,4.6,4.8,5,6.8c0.3,2,0.8,17.2-0.8,20.7c-1.7,3.5-1.7-18-2.8-20.7
				C117,66.5,116.8,62.3,116.8,62.3L116.8,62.3z"/>
			
				<linearGradient id="SVGID_90_" gradientUnits="userSpaceOnUse" x1="4025.366" y1="-239.5602" x2="4068.2708" y2="-253.5008" gradientTransform="matrix(0.5324 0 0 0.5324 -2041.2913 207.0395)">
				<stop  offset="0.3" style="stop-color:#B4C0D3"/>
				<stop  offset="0.7" style="stop-color:#FFFFFF"/>
			</linearGradient>
			<path fill="url(#SVGID_90_)" d="M110.2,50.6c0,0,4.8,3.3,5.5,7.4c0.7,4.1,5.6,27.9,4,33.4c-1.7,5.5-5.5,10.3-5.5,10.3
				s-2.5,1-3.1-0.2c-0.7-1.2-4.1-48.6-4.1-48.6L110.2,50.6L110.2,50.6z"/>
			
				<linearGradient id="SVGID_91_" gradientUnits="userSpaceOnUse" x1="4036.7605" y1="-243.6047" x2="4052.1328" y2="-245.2204" gradientTransform="matrix(0.5324 0 0 0.5324 -2041.2913 207.0395)">
				<stop  offset="0.13" style="stop-color:#253540"/>
				<stop  offset="0.87" style="stop-color:#B2C2DE"/>
			</linearGradient>
			<path fill="url(#SVGID_91_)" d="M109.5,53.4c0,0,2.8,3.5,1.5,4.5c-1.3,1-2.1,3.5-2.1,3.5l3,41.3c0,0,4-19.2,3.1-32.9
				c-0.4-6.3-1.2-8.8-1.2-8.8l-0.7-4.1l0.8-2.6c0,0-1.8-3-2.6-3C110.5,51.2,109.5,53.4,109.5,53.4L109.5,53.4z"/>
			<path fill="#FFFDF4" d="M101.9,38.7l2-1.7c0,0,4.5,3.1,6.4,8.1c2,5,2.1,6.8,2.1,6.8l-4.1,3.5L101.9,38.7L101.9,38.7z"/>
			
				<linearGradient id="SVGID_92_" gradientUnits="userSpaceOnUse" x1="4001.6086" y1="-174.2048" x2="3997.5142" y2="-291.4559" gradientTransform="matrix(0.5324 0 0 0.5324 -2041.2913 207.0395)">
				<stop  offset="0.28" style="stop-color:#201E21"/>
				<stop  offset="0.72" style="stop-color:#766081"/>
			</linearGradient>
			<path fill="url(#SVGID_92_)" d="M90.2,51.7c0,0-4.8,10.6-8.3,13.1c-3.5,2.5-8.4,5.3-7.3,20.3c1.2,15,5.6,14.2,11.1,14.7
				c5.5,0.5,12.9,4.3,10.6,7.9c-2.3,3.6,1,6.6-1.3,6.6c-2.3,0-18.4-2.6-19.2-8.3c-0.8-5.6-1.3-16.2,3.8-18.4
				c5.1-2.1,22.8,11.2,22.5,7.9c-0.3-3.3-3.1-12.6-4.8-17.5c-1.7-5-5.1-11.6-4.6-17.2C93.2,55.4,90.2,51.7,90.2,51.7L90.2,51.7z"/>
			
				<linearGradient id="SVGID_93_" gradientUnits="userSpaceOnUse" x1="4000.8423" y1="-287.7636" x2="3994.8728" y2="-321.6179" gradientTransform="matrix(0.5324 0 0 0.5324 -2041.2913 207.0395)">
				<stop  offset="6.000000e-02" style="stop-color:#3D3344"/>
				<stop  offset="0.94" style="stop-color:#FFFFFF"/>
			</linearGradient>
			<path fill="url(#SVGID_93_)" d="M98.3,39.7c0,0-12.6-1.3-14.2-2.8c-1.7-1.5-6.1-0.7-8.8,2c-2.6,2.6-2.6,17.7,0.8,14.1
				c3.5-3.6,5.8-10.9,5.5-12.7c-0.3-1.8,3-2.1,6.3,0c3.3,2.1,13.2,3.8,13.4,2.1C101.4,40.7,98.3,39.7,98.3,39.7L98.3,39.7z"/>
			<path fill="#1F1D20" d="M114.2,53.7c0,0,4.6,9.9,5.6,15.7c1,5.8,1.8,20.3,1.5,24c-0.3,3.6-0.3,7.6-0.3,7.6v1.2c0,0-2.3,0.3-4,0.3
				c-1.7,0-4.5-0.5-4.5-0.5s0.7-4.5,1.8-6c1.2-1.5,3.3-10.7,3.3-17.9c0-7.1-1-9.3-2-11.9c-1-2.6-0.7-5.8-1.2-8.1
				C114,55.9,114.2,53.7,114.2,53.7L114.2,53.7z"/>
			<path fill="#191417" d="M104.6,43.8c0,0,3.6,2.1,4.8,16.2c1.2,14.1,2.1,39.7,2.1,39.7l-1.5,2.1c0,0-6.9-28.3-8.1-35.2
				c-1.2-6.9-2.3-11.1-2.3-11.1s3.8-2.8,3.6-4.3C103.1,49.8,104.6,43.8,104.6,43.8L104.6,43.8z"/>
			<path fill="#191417" d="M100.4,37.9c0,0,3.8,3.6,4.8,6.8c1,3.1,1.3,3.8,1.3,3.8l-4.3,4.6c0,0-2-4.5-3-4.5c-1,0,0-4.3-1-6.4
				c-1-2.1-2.1-2.6-2.1-2.6L100.4,37.9L100.4,37.9z"/>
			<path fill="#191417" d="M100.4,37.9l-4.3,1.7c0,0,0.4,0.2,0.8,0.7c0.3-0.1,0.7-0.2,1.1-0.3c1.3-0.5,2.3-0.9,3-1.3
				C100.7,38.1,100.4,37.9,100.4,37.9L100.4,37.9z"/>
			
				<linearGradient id="SVGID_94_" gradientUnits="userSpaceOnUse" x1="4022.7727" y1="-255.7929" x2="4044.3916" y2="-249.5938" gradientTransform="matrix(0.5324 0 0 0.5324 -2041.2913 207.0395)">
				<stop  offset="0.16" style="stop-color:#312B39"/>
				<stop  offset="0.84" style="stop-color:#707498"/>
			</linearGradient>
			<path fill="url(#SVGID_94_)" d="M104.9,43.3c0,0,3.6,2.1,4.8,16.2c1.2,14.1,2.5,43.2,2.5,43.2h-1.3c0,0-7.4-29.6-8.6-36.5
				c-1.2-6.9-2.3-11.1-2.3-11.1s3.8-2.8,3.6-4.3C103.4,49.3,104.9,43.3,104.9,43.3L104.9,43.3z"/>
			
				<linearGradient id="SVGID_95_" gradientUnits="userSpaceOnUse" x1="4030.728" y1="-293.5676" x2="4020.3945" y2="-315.728" gradientTransform="matrix(0.5324 0 0 0.5324 -2041.2913 207.0395)">
				<stop  offset="7.000000e-02" style="stop-color:#403344"/>
				<stop  offset="0.93" style="stop-color:#FDE2CE"/>
			</linearGradient>
			<path fill="url(#SVGID_95_)" d="M100.8,37.4c0,0,3.8,3.6,4.8,6.8c1,3.1,1.3,3.8,1.3,3.8l-4.3,4.6c0,0-2-4.5-3-4.5
				c-1,0,0-4.3-1-6.4c-1-2.1-2.1-2.6-2.1-2.6L100.8,37.4L100.8,37.4z"/>
			<path fill="#908189" d="M100.8,37.4L96.5,39c0,0,0.4,0.2,0.8,0.7c0.3-0.1,0.7-0.2,1.1-0.3c1.3-0.5,2.3-0.9,3-1.3
				C101,37.6,100.8,37.4,100.8,37.4L100.8,37.4z"/>
			<path fill="#403344" d="M114.6,54.7c0,0,4.8,14.9,5.3,21.7c0.5,6.8,0.7,17,0.7,17s1.2-14.1,0.2-21
				C119.8,65.5,114.6,54.7,114.6,54.7L114.6,54.7z"/>
			
				<linearGradient id="SVGID_96_" gradientUnits="userSpaceOnUse" x1="3978.0286" y1="-239.2746" x2="4030.8142" y2="-254.4106" gradientTransform="matrix(0.5324 0 0 0.5324 -2041.2913 207.0395)">
				<stop  offset="0.15" style="stop-color:#1D161B"/>
				<stop  offset="0.85" style="stop-color:#3C355E"/>
			</linearGradient>
			<path fill="url(#SVGID_96_)" d="M90.2,50.4c0,0,1.5,10.7-1,14.4c-0.7,1-1.2,1.8-1.7,2.5c-1.2,1.8-1.6,2.6-1.6,2.6s0.7,1.7-3,3.3
				c-3.6,1.7-6,4-2.8,4.3c3.1,0.3,2.3,2.3,1.7,3.6c-0.7,1.3-1.8-3.3-4-1.2c-2.1,2.1,4.5,4.6,1.3,5c-3.1,0.3-0.8,3.6-0.8,3.6
				s2.5,0.2,5.5,1.7c3,1.5,5,4.1,7.6,4.1c2.6,0,10.1,2,11.4,3c1.3,1-2.3-8.4-6-13.2c-3.6-4.8-8.3-5.3-6.1-13.6
				C92.8,62.3,90.2,50.4,90.2,50.4L90.2,50.4z"/>
			<path fill="#140F10" d="M88.5,68.9c0,0-4.3,6.3-6.1,6.6c-1.8,0.3,1.7,4.5-0.3,5.3c-2,0.8-2.6,2-2.6,2s2.5,4,0.5,4
				c-2,0,0.7,1.7,0.7,1.7s6.8,4,9.3,5.1c2.5,1.2,6.6,0.3,7.8,1.2c1.2,0.8-13.4-5.1-14.1-7.6c-0.7-2.5,2-6,1.5-8.1
				C84.6,76.9,88.5,68.9,88.5,68.9L88.5,68.9z"/>
			<path fill="#352A39" d="M76,89.8c0,0,6.3-1.7,9.8,1.3c3.5,3,5.6,3.1,7.6,3.1c2,0,10.1,3.6,10.6,3.8c0.5,0.2-2,1.5-4,3.5
				c-2,2-9.6-1-8.8-2.8c0.8-1.8,0.2-2.3-4-2.3c-4.1,0-11.6-0.8-11.9-2c-0.3-1.2,5.8,0.2,4.3-1.3c-1.5-1.5-4.5-1.7-4.5-1.7L76,89.8
				L76,89.8z"/>
			<path fill="#140F10" d="M117.3,70.6c0,0,2.8,13.9,1.8,23.6c-0.5,4.8-2.1,7.6-2.1,7.6l-4.5-0.3c0,0,0.7-4.5,2-6.1
				c1.3-1.7,2.5-8.3,2.6-12.9C117.3,77.9,117.3,70.6,117.3,70.6L117.3,70.6z"/>
			<path fill="#FFFDF4" d="M115.3,52.4c0,0-2.1,0.2-2.8-0.5c-0.7-0.7,1.5,2.5,1.5,4.5C114,58.4,115.3,52.4,115.3,52.4L115.3,52.4z"
				/>
			<path fill="#9A5239" d="M121.2,107c0,0-11.6,5-11.4,6.9c0.1,1.9,3.7,5.7,7.3,4.7c3.6-1,6.1-2.4,6.1-3.6c0-1.1-3-4.9-1-6
				C124.2,107.9,121.2,107,121.2,107L121.2,107z"/>
			
				<linearGradient id="SVGID_97_" gradientUnits="userSpaceOnUse" x1="4039.0232" y1="-158.349" x2="4061.4607" y2="-206.466" gradientTransform="matrix(0.5324 0 0 0.5324 -2041.2913 207.0395)">
				<stop  offset="0.18" style="stop-color:#E8A87A"/>
				<stop  offset="0.82" style="stop-color:#FFFFFF"/>
			</linearGradient>
			<path fill="url(#SVGID_97_)" d="M101.9,99c0,0,7.1,1.7,9.1,1.7c2,0,4.6,0.3,5.7,0.7c0.6,0.2,4.2,1.1,6.1,1
				c2.4-0.1,1.6,1.6,2.6,1.3c2-0.6-4.3,1.1-5,1c-0.7-0.1,6,2.4,6.9,2.9c0.9,0.4,1.7,1.4,2.4,2.3c0.7,0.9,1.1,2.7,1.1,3.3
				c0,0.6,1.1,3.3-0.3,3.6c-1.4,0.3-2.1-1.7-3.3-3.6c-1.1-1.9-6.1-3.6-7-3.9c-0.9-0.3,1.6,2.1,3.7,4c2.1,1.9,1.4,1.6,0.3,2.4
				c-1.1,0.9-4.3-0.7-5.6-1.7c-1.3-1-3.9-2.3-4.6-2.3c-0.7,0,6.1,4.7,6.6,4.9c0.4,0.1,0.3,1.3-1.1,1.4c-1.4,0.1-5-2.1-6.1-2.4
				c-1.1-0.3-2.3-0.3-2.7-0.3c-0.4,0,7.9,3,7.4,3.6c-0.4,0.6-1.7,1.1-3.4,0.7c-1.7-0.4-4.3-1.1-5.3-1.6c-1-0.4-2.6-1.4-5-3.4
				c-2.4-2-5.1-3.6-5.7-3.6c-0.6,0-2.3,1.1-2.3,0c0-1.1,1.9-6.9,3.3-8.7C101.1,100.4,101.9,99,101.9,99L101.9,99z"/>
			
				<linearGradient id="SVGID_98_" gradientUnits="userSpaceOnUse" x1="4045.7341" y1="-161.6255" x2="4050.8242" y2="-193.7637" gradientTransform="matrix(0.5324 0 0 0.5324 -2041.2913 207.0395)">
				<stop  offset="8.000000e-02" style="stop-color:#D98F66"/>
				<stop  offset="0.92" style="stop-color:#FFFFFF"/>
			</linearGradient>
			<path fill="url(#SVGID_98_)" d="M98.2,105.1c-1,2.3-1.8,5.2-1.8,6c0,1.1,1.7,0,2.3,0c0.6,0,3.3,1.6,5.7,3.6c2.4,2,4,3,5,3.4
				c1,0.4,3.6,1.1,5.3,1.6c1.7,0.4,3-0.1,3.4-0.7c0.4-0.6-7.9-3.6-7.4-3.6c0.4,0,1.6,0,2.7,0.3c1.1,0.3,4.7,2.6,6.1,2.4
				c1.4-0.1,1.6-1.3,1.1-1.4c-0.4-0.1-5-3.3-6.3-4.4h0c-1.7,0.1,1,2.4-1.1,2c-2.1-0.4-3,0.9-4.4-1.7
				C107.6,110.2,100.1,106,98.2,105.1L98.2,105.1z M115.2,112L115.2,112c1.1,0.4,2.6,1.3,3.5,2c1.3,1,4.4,2.6,5.6,1.7
				c1.1-0.9,1.9-0.6-0.3-2.4c-2.1-1.9-4.6-4.3-3.7-4c0.9,0.3,5.9,2,7,3.9c1.1,1.9,1.9,3.9,3.3,3.6c1.4-0.3,0.3-3,0.3-3.6
				c0-0.4-0.3-1.7-0.7-2.6c-0.1,0.1-0.1,0.2-0.2,0.3c-0.7,2.6-6.9-2.4-8.3-2.9c-1.4-0.4-1.9,0.3-3.6,0.6c-1.7,0.3,0.6,2.9-0.4,2.6
				C116.9,110.9,116.4,111.7,115.2,112L115.2,112z"/>
			<path fill="#F4CCAD" d="M122.9,102.4c-1.9,0.1-5.6-0.8-6.1-1c-1.1-0.4-3.7-0.7-5.7-0.7c-2,0-9.1-1.7-9.1-1.7s-0.5,1.1-1.6,2.6
				c2.1,1.1,5.1,2.7,6,3.7c1.6,1.7,4,3.6,5.7,4c1.7,0.4,4,0.3,3.6-1c-0.4-1.3,0-2.3,1.3-2.3c1.3,0,2.3-1.3,1.7-1.9
				c-0.6-0.6-0.1-0.4,2.7-1c1-0.2,1.8-0.4,2.3-0.7C123.4,102.4,123.2,102.4,122.9,102.4L122.9,102.4z"/>
			<path fill="#CB7A52" d="M97.1,108.2c-0.4,1.3-0.7,2.3-0.7,2.8c0,1.1,1.7,0,2.3,0c0.6,0,3.3,1.6,5.7,3.6c2.4,2,4,3,5,3.4
				c1,0.4,3.6,1.1,5.3,1.6c1.7,0.4,2.6-0.3,3-0.9c0.1-0.2-0.3-0.5-1.4-1.1c-0.5,1.6-6.3,0.6-7.7-0.8c-1.4-1.4-7.3-7.7-9-7.7
				C98.7,109.2,97.8,108.7,97.1,108.2L97.1,108.2z M116.4,117.1L116.4,117.1c1.2,0.5,2.4,1,3.2,0.9c1.4-0.1,1.6-1.3,1.1-1.4
				c-0.2,0-1.2-0.6-2.5-1.4C118.4,115.8,116.9,115.9,116.4,117.1L116.4,117.1z M118.9,114.3L118.9,114.3c1.5,0.9,4.4,2.2,5.4,1.4
				c1.1-0.9,1.1-0.9-0.3-2.4c-1.9-2.1-4.6-4.3-3.7-4c0.9,0.3,5.9,2,7,3.9c1,1.6,1.7,3.3,2.8,3.6c0.1-1.4-2-4-2.6-5
				c-0.9-1.4-5.9-2.9-7.3-2.9c-1.4,0,2.3,2.7,2.1,4.2C122.2,114,120,114,118.9,114.3L118.9,114.3z"/>
			<path fill="#140F10" d="M103.6,99.4c0,0,0-4.6-2.8-1c-3.8,4.9-6.7,13.8-6.1,15.4c0.8,2.1,4.1-1.2,3.1-2.5c-1-1.3-1.3-1.5,1.5-7.4
				C101.9,98.3,103.6,99.4,103.6,99.4L103.6,99.4z"/>
			<path fill="#D19E7D" d="M151.2,56.7c0,0-0.5,2.4,0.5,2.1c1.5-0.5,2-5.9,4.2-7c2.4-1.2,5.2-0.6,5.9-1.2c0.7-0.6,1.7-0.2,2.5,0.3
				c0.8,0.5,4.1,2.3,3.7,0.8c-0.4-1.5,0.5-2.3-1.4-2.3c-1.9,0-11.9,0.5-13.2,2.5C152,53.9,151.2,56.7,151.2,56.7L151.2,56.7z"/>
			<path fill="#FFFFFF" d="M167.1,50.9c0,0,0.4,2.5-3.5-0.7c-0.8-0.6-2.8-0.2-4.2,0.3c-1.4,0.5-5.5,0.4-5.7,2
				c-0.2,1.6-2.2,7.3-2.7,6.6c-0.4-0.7-2-7-0.7-8.6c1.3-1.6,4.5-5.3,8-5.8c3.5-0.4,6.7,0.6,8.2,1.4c1.5,0.8,3.3,2.5,3.6,4.5
				c0.3,1.9,1.2,7.9,0.7,9c-0.4,1.2-2.5,2.1-2.5,1.5c0.1-0.7,0.5-2.7,0.6-4.6c0.1-1.9,0.2-4.8-0.7-5.5
				C167.3,50.2,167.1,50.9,167.1,50.9L167.1,50.9z"/>
			<path fill="#D9C3B5" d="M155.3,49.8c0,0,3.7,0.1,4.8-0.3c1.1-0.4,4.6,0.8,4.6,0.8s-2.4-1.5-5.3-1.3
				C156.6,49.1,155.3,49.8,155.3,49.8L155.3,49.8z"/>
			<path fill="#D9C3B5" d="M156.6,48.3c0,0,5-0.5,6.9,0.3c1.9,0.8,3.1,1.7,3.1,1.7s-1.8-2.3-4.1-2.6
				C160.2,47.2,156.6,48.3,156.6,48.3L156.6,48.3z"/>
			<path fill="#D9C3B5" d="M157.6,46.9c0,0,4.6-0.6,6.8,0.7c2.2,1.3,2.5,1.8,2.5,1.8s-0.7-2.2-3.5-2.8
				C160.7,46,157.6,46.9,157.6,46.9L157.6,46.9z"/>
			<path fill="#D9C3B5" d="M157,46.3c0,0,5.6-0.5,7.3,0.3c1.7,0.8,3.3,2.6,3.3,2.6s-2-3.5-5.3-3.6C159,45.5,157,46.3,157,46.3
				L157,46.3z"/>
			<path fill="#FFFFFF" d="M155.7,60c0,0,1.6,0.5,2.1,0.5c0.6,0,1.9,0.4,1.9,0.4s-1.5,1.1-2.6,0.5C156.1,60.8,155.7,60,155.7,60
				L155.7,60z"/>
			<path fill="#839FBA" d="M156.6,60.9c0-0.5,0.4-0.9,0.9-0.9c0.5,0,0.9,0.4,0.9,0.9c0,0.5-0.4,0.9-0.9,0.9
				C157.1,61.8,156.6,61.4,156.6,60.9L156.6,60.9z"/>
			<path d="M157,60.9c0-0.3,0.2-0.5,0.5-0.5c0.3,0,0.5,0.2,0.5,0.5c0,0.3-0.2,0.5-0.5,0.5C157.3,61.4,157,61.2,157,60.9L157,60.9z"
				/>
			<path fill="#FFFFFF" d="M156.9,61.2c0-0.1,0.1-0.2,0.2-0.2c0.1,0,0.2,0.1,0.2,0.2c0,0.1-0.1,0.2-0.2,0.2
				C157,61.4,156.9,61.3,156.9,61.2L156.9,61.2z"/>
			<path fill="#9EC8EA" d="M157.8,61.5c0-0.1,0.1-0.2,0.2-0.2c0.1,0,0.2,0.1,0.2,0.2c0,0.1-0.1,0.2-0.2,0.2
				C157.9,61.8,157.8,61.7,157.8,61.5L157.8,61.5z"/>
			
				<linearGradient id="SVGID_99_" gradientUnits="userSpaceOnUse" x1="4134.9331" y1="-275.6541" x2="4125.2397" y2="-277.7145" gradientTransform="matrix(0.5324 0 0 0.5324 -2041.2913 207.0395)">
				<stop  offset="1.000000e-02" style="stop-color:#DEA072"/>
				<stop  offset="0.99" style="stop-color:#FFFFFF"/>
			</linearGradient>
			<path fill="url(#SVGID_99_)" d="M155,59.8c0,0,1.8,0.8,2.9,0.9c1.1,0.1,2.2-0.1,2.2-0.1s0.7-0.4-0.3-1.2c-1.1-0.7-3.5-1-4.5-0.8
				C154.3,58.9,155,59.8,155,59.8L155,59.8z"/>
			
				<linearGradient id="SVGID_100_" gradientUnits="userSpaceOnUse" x1="4130.8149" y1="-276.2928" x2="4127.8916" y2="-270.7952" gradientTransform="matrix(0.5324 0 0 0.5324 -2041.2913 207.0395)">
				<stop  offset="0.15" style="stop-color:#ECB590"/>
				<stop  offset="0.85" style="stop-color:#FFFFFF"/>
			</linearGradient>
			<path fill="url(#SVGID_100_)" d="M154.7,61.2c0,0,0.1-1.2,1.3-0.3c1.2,0.8,2.4,0.7,3.3,0.5c0.9-0.2,0.7,0.8-1,1
				C156.6,62.5,154.7,61.2,154.7,61.2L154.7,61.2z"/>
			<path fill="#FFFFFF" d="M162.9,61.8c0,0,1.3,0.8,1.8,0.9c0.5,0.1,1.9,0.5,1.9,0.5s-1.8,1-2.6,0.2
				C163.1,62.7,162.9,61.8,162.9,61.8L162.9,61.8z"/>
			<path fill="#839FBA" d="M163.6,62.9c0.1-0.5,0.5-0.8,1-0.7c0.4,0.1,0.7,0.6,0.6,1.1c-0.1,0.5-0.5,0.8-1,0.7
				C163.8,63.9,163.5,63.4,163.6,62.9L163.6,62.9z"/>
			<path d="M163.9,63c0.1-0.3,0.3-0.5,0.6-0.4c0.3,0.1,0.4,0.3,0.4,0.6c-0.1,0.3-0.3,0.5-0.6,0.4C164.1,63.5,163.9,63.3,163.9,63
				L163.9,63z"/>
			<path fill="#FFFFFF" d="M163.8,63.3c0-0.1,0.1-0.2,0.2-0.2c0.1,0,0.2,0.1,0.1,0.2c0,0.1-0.1,0.2-0.2,0.2
				C163.8,63.5,163.7,63.4,163.8,63.3L163.8,63.3z"/>
			<path fill="#9EC8EA" d="M164.5,63.7c0-0.1,0.1-0.2,0.2-0.2c0.1,0,0.2,0.1,0.1,0.2c0,0.1-0.1,0.2-0.2,0.2
				C164.6,64,164.5,63.9,164.5,63.7L164.5,63.7z"/>
			
				<linearGradient id="SVGID_101_" gradientUnits="userSpaceOnUse" x1="4144.624" y1="-270.8997" x2="4141.8701" y2="-274.3004" gradientTransform="matrix(0.5324 0 0 0.5324 -2041.2913 207.0395)">
				<stop  offset="0.29" style="stop-color:#DEA072"/>
				<stop  offset="0.71" style="stop-color:#FFFFFF"/>
			</linearGradient>
			<path fill="url(#SVGID_101_)" d="M162.4,61.6c0,0,1.4,1.1,2.4,1.4c0.9,0.3,2,0.3,2,0.3s0.7-0.3-0.1-1.2c-0.8-0.9-2.9-1.6-3.8-1.6
				C161.9,60.4,162.4,61.6,162.4,61.6L162.4,61.6z"/>
			
				<linearGradient id="SVGID_102_" gradientUnits="userSpaceOnUse" x1="4144.1646" y1="-272.4524" x2="4141.4932" y2="-266.9755" gradientTransform="matrix(0.5324 0 0 0.5324 -2041.2913 207.0395)">
				<stop  offset="0.15" style="stop-color:#ECB590"/>
				<stop  offset="0.85" style="stop-color:#FFFFFF"/>
			</linearGradient>
			<path fill="url(#SVGID_102_)" d="M163.1,63.4c0,0-0.9-1.8,0-0.7c0.9,1,1.9,1.2,2.8,1.1c0.8-0.1,0.4,0.9-1,0.8
				C163.3,64.5,163.1,63.4,163.1,63.4L163.1,63.4z"/>
			<path fill="#FFFFFF" d="M155.7,59.2c0,0,1.1-0.7,2.7,0c1.7,0.7,3,1,1.5,0c-1.8-1.2-2.1-1.5-3.9-0.8
				C154.2,59,155.7,59.2,155.7,59.2L155.7,59.2z"/>
			<path fill="#FFFFFF" d="M163.1,60.8c0,0,1.2,0.9,1.8,0.8c0.6-0.1,1.9,1.6,1.8,1c-0.1-0.6-0.7-2-1.8-2
				C163.8,60.7,163.1,60.8,163.1,60.8L163.1,60.8z"/>
			
				<linearGradient id="SVGID_103_" gradientUnits="userSpaceOnUse" x1="4128.0596" y1="-256.2396" x2="4135.7236" y2="-262.2272" gradientTransform="matrix(0.5324 0 0 0.5324 -2041.2913 207.0395)">
				<stop  offset="0.16" style="stop-color:#DA755B"/>
				<stop  offset="0.84" style="stop-color:#FFFFFF"/>
			</linearGradient>
			<path fill="url(#SVGID_103_)" d="M155.9,68.2c0,0,2.1,0.5,2.6,1c0.5,0.5,1.7,0.2,2.6,0.5c0.8,0.3-2.1,0.3-2.6,0
				C157.8,69.4,155.9,68.2,155.9,68.2L155.9,68.2z"/>
			
				<linearGradient id="SVGID_104_" gradientUnits="userSpaceOnUse" x1="4135.6929" y1="-267.2675" x2="4131.4189" y2="-260.6862" gradientTransform="matrix(0.5324 0 0 0.5324 -2041.2913 207.0395)">
				<stop  offset="0.28" style="stop-color:#D19E7D"/>
				<stop  offset="0.72" style="stop-color:#FFFFFF"/>
			</linearGradient>
			<path fill="url(#SVGID_104_)" d="M158.3,64.8c0,0-0.6,0.4-0.2,1c0.4,0.6,1.7,1.7,2.1,1.7c0.5,0,0.8-0.1,1.2-0.7
				c0.3-0.6,0,1.7-1.3,1.7c-1.4,0-2.7-2.2-2.4-2.9C157.9,64.8,158.3,64.8,158.3,64.8L158.3,64.8z"/>
			<path fill="#D19E7D" d="M156.8,70.3c0,0,1.8,0.2,2.5,0.7c0.7,0.5-0.6,0.4-1.7,0C156.6,70.5,156.8,70.3,156.8,70.3L156.8,70.3z"/>
			
				<linearGradient id="SVGID_105_" gradientUnits="userSpaceOnUse" x1="4130.5835" y1="-270.3458" x2="4137.4688" y2="-268.3714" gradientTransform="matrix(0.5324 0 0 0.5324 -2041.2913 207.0395)">
				<stop  offset="0.13" style="stop-color:#EEC7A8"/>
				<stop  offset="0.87" style="stop-color:#FFFFFF"/>
			</linearGradient>
			<path fill="url(#SVGID_105_)" d="M160.9,61c0,0-0.6,5.6-1.2,5.6c-0.6,0-1.7-0.6-1.5-1.3c0.2-0.7,1-1.5,1.2-2.1
				C159.6,62.5,160.9,61,160.9,61L160.9,61z"/>
			<path fill="#F4E1D1" d="M149.9,55.2c0,0-0.3-0.3-0.5,0.3c-0.2,0.6-0.2,1.9,0,2.8c0.2,0.9,0.4,2.9,0.7,3.1
				c0.3,0.2-0.1,0.5-0.5-0.5c-0.4-1-0.2-2.7-0.5-3.5c-0.3-0.7-0.5-2.9,0.3-3C150.2,54.5,149.9,55.2,149.9,55.2L149.9,55.2z"/>
			<path fill="#E9B388" d="M150.2,56.7c0,0,0.7,1.5,0.3,1.7c-0.4,0.2-0.5,0.4-0.2,1.2c0.4,0.8-0.7-0.5-0.5-1.3c0.2-0.9,0-1.8,0-1.8
				L150.2,56.7L150.2,56.7z"/>
			<path fill="#45362F" d="M155.7,60.1c0,0,1.4,0.3,2.2,0.2c1.2,0,1.7,0.5,1.7,0.5s-0.9,0-1.9-0.2C156.7,60.5,155.7,60.1,155.7,60.1
				L155.7,60.1z"/>
			<path fill="#45362F" d="M162.7,61.9c0,0,1.5,0.5,2.2,0.7c0.7,0.2,1.4,0.7,1.4,0.7s-1.1-0.2-1.5-0.3
				C163.8,62.7,162.7,61.9,162.7,61.9L162.7,61.9z"/>
			
				<linearGradient id="SVGID_106_" gradientUnits="userSpaceOnUse" x1="4132.6582" y1="-276.5752" x2="4126.4844" y2="-276.2516" gradientTransform="matrix(0.5324 0 0 0.5324 -2041.2913 207.0395)">
				<stop  offset="0" style="stop-color:#EEC4A3"/>
				<stop  offset="1" style="stop-color:#FFFFFF"/>
			</linearGradient>
			<path fill="url(#SVGID_106_)" d="M155.7,59.7c0,0,1.3-0.5,2.6,0c1.4,0.5,0.2,0.7-0.8,0.5C156.4,60,155.7,59.7,155.7,59.7
				L155.7,59.7z"/>
			
				<linearGradient id="SVGID_107_" gradientUnits="userSpaceOnUse" x1="4145.1797" y1="-271.7446" x2="4141.521" y2="-272.5222" gradientTransform="matrix(0.5324 0 0 0.5324 -2041.2913 207.0395)">
				<stop  offset="0" style="stop-color:#EEC4A3"/>
				<stop  offset="1" style="stop-color:#FFFFFF"/>
			</linearGradient>
			<path fill="url(#SVGID_107_)" d="M163.5,61.7c0,0,1,0,1.4,0.3c0.5,0.3,0.8,0.7,0.8,0.7s-1.8-0.2-2-0.5
				C163.5,61.9,163.5,61.7,163.5,61.7L163.5,61.7z"/>
		</g>
		<rect x="70.6" y="4.3" fill-rule="evenodd" clip-rule="evenodd" fill="#666666" width="184" height="5.3"/>
		<rect x="249.3" y="5.2" fill-rule="evenodd" clip-rule="evenodd" fill="#666666" width="5.3" height="123.8"/>
		<rect x="70.6" y="5.8" fill-rule="evenodd" clip-rule="evenodd" fill="#666666" width="5.3" height="123.7"/>
		<rect x="70.6" y="124.3" fill-rule="evenodd" clip-rule="evenodd" fill="#666666" width="184" height="5.3"/>
	</g>
</g>
<g id="strategies">
</g>
<g id="pressure">
</g>
<g id="whatif">
</g>
<g id="turning_x5F_point">
</g>
<g id="tbt">
</g>
<g id="milkyway">
</g>
<g id="bubbles">
</g>
<g id="_x31_2345">
</g>
</svg>
